<svg width="359" height="48" viewBox="0 0 359 48" fill="none" xmlns="http://www.w3.org/2000/svg">
<path d="M23.0001 17.25C29.9067 17.25 35.3201 18.5333 39.2401 21.1C43.2067 23.6667 45.1901 27.2133 45.1901 31.74V32.86C45.1901 37.62 43.2534 41.3067 39.3801 43.92C35.5067 46.5333 30.0467 47.84 23.0001 47.84C15.9067 47.84 10.4234 46.7433 6.55006 44.55C2.72339 42.3567 0.810059 39.23 0.810059 35.17V34.61H7.81006V35.17C7.81006 37.0833 9.14006 38.6 11.8001 39.72C14.4601 40.7933 18.1234 41.33 22.7901 41.33C27.5967 41.33 31.3767 40.5833 34.1301 39.09C36.8834 37.5967 38.2601 35.5433 38.2601 32.93V31.81C38.2601 29.29 36.8601 27.3067 34.0601 25.86C31.3067 24.4133 27.4801 23.69 22.5801 23.69C18.2867 23.69 14.7634 24.25 12.0101 25.37C9.25673 26.4433 7.81006 27.8667 7.67006 29.64H0.810059L2.35006 1.07999H42.2501V7.30999H8.51006L7.81006 20.82C11.4034 18.44 16.4667 17.25 23.0001 17.25Z" fill="#5897FB"/>
<path d="M76.2548 47.84C71.5881 47.84 67.4581 47 63.8647 45.32C60.3181 43.64 57.5414 41.2833 55.5347 38.25C53.5747 35.2167 52.5947 31.74 52.5947 27.82V20.33C52.5947 16.3633 53.5747 12.8633 55.5347 9.82999C57.5414 6.79666 60.3181 4.43999 63.8647 2.75999C67.4581 1.07999 71.5881 0.23999 76.2548 0.23999C80.8748 0.23999 84.9581 1.07999 88.5048 2.75999C92.0514 4.43999 94.8047 6.79666 96.7647 9.82999C98.7247 12.8633 99.7048 16.3633 99.7048 20.33V27.82C99.7048 31.7867 98.7247 35.2867 96.7647 38.32C94.8047 41.3067 92.0514 43.64 88.5048 45.32C84.9581 47 80.8748 47.84 76.2548 47.84ZM76.2548 41.33C81.3881 41.33 85.4248 40.14 88.3647 37.76C91.3047 35.38 92.7747 32.09 92.7747 27.89V20.26C92.7747 16.1067 91.2814 12.8167 88.2947 10.39C85.3548 7.96332 81.3181 6.74999 76.1847 6.74999C71.0047 6.74999 66.9214 7.96332 63.9347 10.39C60.9947 12.77 59.5247 16.06 59.5247 20.26V27.89C59.5247 32.09 60.9947 35.38 63.9347 37.76C66.9214 40.14 71.0281 41.33 76.2548 41.33Z" fill="#5897FB"/>
<path d="M140.612 24.6V30.69H116.672V24.6H140.612Z" fill="#5897FB"/>
<path d="M179.068 47H172.208V11.44C169.968 12.7 167.052 13.33 163.458 13.33H155.548V6.81999H162.898C166.072 6.81999 168.405 6.35332 169.898 5.41999C171.438 4.48666 172.208 3.03999 172.208 1.07999H179.068V47Z" fill="#5897FB"/>
<path d="M214.037 47.84C209.37 47.84 205.241 47 201.647 45.32C198.101 43.64 195.324 41.2833 193.317 38.25C191.357 35.2167 190.377 31.74 190.377 27.82V20.33C190.377 16.3633 191.357 12.8633 193.317 9.82999C195.324 6.79666 198.101 4.43999 201.647 2.75999C205.241 1.07999 209.37 0.23999 214.037 0.23999C218.657 0.23999 222.741 1.07999 226.287 2.75999C229.834 4.43999 232.587 6.79666 234.547 9.82999C236.507 12.8633 237.487 16.3633 237.487 20.33V27.82C237.487 31.7867 236.507 35.2867 234.547 38.32C232.587 41.3067 229.834 43.64 226.287 45.32C222.741 47 218.657 47.84 214.037 47.84ZM214.037 41.33C219.171 41.33 223.207 40.14 226.147 37.76C229.087 35.38 230.557 32.09 230.557 27.89V20.26C230.557 16.1067 229.064 12.8167 226.077 10.39C223.137 7.96332 219.101 6.74999 213.967 6.74999C208.787 6.74999 204.704 7.96332 201.717 10.39C198.777 12.77 197.307 16.06 197.307 20.26V27.89C197.307 32.09 198.777 35.38 201.717 37.76C204.704 40.14 208.811 41.33 214.037 41.33Z" fill="#5897FB"/>
<path d="M267.754 47.84C263.087 47.84 258.957 47 255.364 45.32C251.817 43.64 249.041 41.2833 247.034 38.25C245.074 35.2167 244.094 31.74 244.094 27.82V20.33C244.094 16.3633 245.074 12.8633 247.034 9.82999C249.041 6.79666 251.817 4.43999 255.364 2.75999C258.957 1.07999 263.087 0.23999 267.754 0.23999C272.374 0.23999 276.457 1.07999 280.004 2.75999C283.551 4.43999 286.304 6.79666 288.264 9.82999C290.224 12.8633 291.204 16.3633 291.204 20.33V27.82C291.204 31.7867 290.224 35.2867 288.264 38.32C286.304 41.3067 283.551 43.64 280.004 45.32C276.457 47 272.374 47.84 267.754 47.84ZM267.754 41.33C272.887 41.33 276.924 40.14 279.864 37.76C282.804 35.38 284.274 32.09 284.274 27.89V20.26C284.274 16.1067 282.781 12.8167 279.794 10.39C276.854 7.96332 272.817 6.74999 267.684 6.74999C262.504 6.74999 258.421 7.96332 255.434 10.39C252.494 12.77 251.024 16.06 251.024 20.26V27.89C251.024 32.09 252.494 35.38 255.434 37.76C258.421 40.14 262.527 41.33 267.754 41.33Z" fill="#5897FB"/>
<path d="M308.381 23.27C304.227 23.27 300.891 22.2667 298.371 20.26C295.897 18.2533 294.661 15.5933 294.661 12.28V11.58C294.661 8.21999 295.897 5.55999 298.371 3.59999C300.891 1.59333 304.227 0.58999 308.381 0.58999C312.534 0.58999 315.824 1.59333 318.251 3.59999C320.724 5.55999 321.961 8.21999 321.961 11.58V12.28C321.961 15.5933 320.724 18.2533 318.251 20.26C315.777 22.2667 312.487 23.27 308.381 23.27ZM308.311 18.3C310.644 18.3 312.487 17.7633 313.841 16.69C315.194 15.6167 315.871 14.17 315.871 12.35V11.51C315.871 9.68999 315.194 8.24333 313.841 7.16999C312.487 6.09666 310.644 5.55999 308.311 5.55999C305.977 5.55999 304.134 6.09666 302.781 7.16999C301.474 8.19666 300.821 9.64332 300.821 11.51V12.35C300.821 14.17 301.497 15.6167 302.851 16.69C304.204 17.7633 306.024 18.3 308.311 18.3ZM345.201 47.42C341.047 47.42 337.711 46.4167 335.191 44.41C332.717 42.4033 331.481 39.7433 331.481 36.43V35.73C331.481 32.37 332.717 29.71 335.191 27.75C337.711 25.7433 341.047 24.74 345.201 24.74C349.354 24.74 352.644 25.7433 355.071 27.75C357.544 29.71 358.781 32.37 358.781 35.73V36.43C358.781 39.7433 357.544 42.4033 355.071 44.41C352.597 46.4167 349.307 47.42 345.201 47.42ZM345.131 42.45C347.464 42.45 349.307 41.9133 350.661 40.84C352.014 39.7667 352.691 38.32 352.691 36.5V35.66C352.691 33.84 352.014 32.3933 350.661 31.32C349.307 30.2467 347.464 29.71 345.131 29.71C342.797 29.71 340.954 30.2467 339.601 31.32C338.294 32.3467 337.641 33.7933 337.641 35.66V36.5C337.641 38.32 338.317 39.7667 339.671 40.84C341.024 41.9133 342.844 42.45 345.131 42.45ZM344.571 1.07999H351.291V2.12999L308.801 47H302.081V46.02L344.571 1.07999Z" fill="#5897FB"/>
</svg>
