<svg width="167" height="48" viewBox="0 0 167 48" fill="none" xmlns="http://www.w3.org/2000/svg">
<path d="M22.3202 0.23999C27.1735 0.23999 31.3735 0.939992 34.9202 2.33999C38.5135 3.73999 41.2435 5.74666 43.1102 8.35999C45.0235 10.9733 45.9802 14.0533 45.9802 17.6V29.22C45.9802 35.0533 43.9035 39.6267 39.7502 42.94C35.6435 46.2067 29.9269 47.84 22.6002 47.84C18.2135 47.84 14.3869 47.2567 11.1202 46.09C7.85353 44.9233 5.33353 43.2667 3.5602 41.12C1.83353 38.9267 0.970195 36.36 0.970195 33.42V32.86H7.9002V33.42C7.9002 35.8933 9.20686 37.83 11.8202 39.23C14.4335 40.63 18.0269 41.33 22.6002 41.33C27.9202 41.33 31.9802 40.3033 34.7802 38.25C37.6269 36.1967 39.0502 33.2333 39.0502 29.36V25.02C34.9902 28.2867 29.2502 29.92 21.8302 29.92C14.8769 29.92 9.53353 28.7533 5.8002 26.42C2.06686 24.04 0.200195 20.61 0.200195 16.13V15.15C0.200195 10.4833 2.1602 6.84333 6.0802 4.22999C10.0469 1.56999 15.4602 0.23999 22.3202 0.23999ZM21.9002 23.48C25.9602 23.48 29.4835 23.0133 32.4702 22.08C35.4569 21.1 37.6502 19.7233 39.0502 17.95V17.53C39.0502 14.17 37.5802 11.5333 34.6402 9.61999C31.7002 7.70666 27.5702 6.74999 22.2502 6.74999C17.4902 6.74999 13.7802 7.44999 11.1202 8.84999C8.4602 10.25 7.1302 12.2567 7.1302 14.87V15.85C7.1302 20.9367 12.0535 23.48 21.9002 23.48Z" fill="#5897FB"/>
<path d="M75.5295 17.25C82.4362 17.25 87.8495 18.5333 91.7695 21.1C95.7362 23.6667 97.7195 27.2133 97.7195 31.74V32.86C97.7195 37.62 95.7828 41.3067 91.9095 43.92C88.0362 46.5333 82.5762 47.84 75.5295 47.84C68.4362 47.84 62.9528 46.7433 59.0795 44.55C55.2528 42.3567 53.3395 39.23 53.3395 35.17V34.61H60.3395V35.17C60.3395 37.0833 61.6695 38.6 64.3295 39.72C66.9895 40.7933 70.6528 41.33 75.3195 41.33C80.1262 41.33 83.9062 40.5833 86.6595 39.09C89.4128 37.5967 90.7895 35.5433 90.7895 32.93V31.81C90.7895 29.29 89.3895 27.3067 86.5895 25.86C83.8362 24.4133 80.0095 23.69 75.1095 23.69C70.8162 23.69 67.2928 24.25 64.5395 25.37C61.7862 26.4433 60.3395 27.8667 60.1995 29.64H53.3395L54.8795 1.07999H94.7795V7.30999H61.0395L60.3395 20.82C63.9328 18.44 68.9962 17.25 75.5295 17.25Z" fill="#5897FB"/>
<path d="M115.694 23.27C111.541 23.27 108.204 22.2667 105.684 20.26C103.211 18.2533 101.974 15.5933 101.974 12.28V11.58C101.974 8.21999 103.211 5.55999 105.684 3.59999C108.204 1.59333 111.541 0.58999 115.694 0.58999C119.848 0.58999 123.138 1.59333 125.564 3.59999C128.038 5.55999 129.274 8.21999 129.274 11.58V12.28C129.274 15.5933 128.038 18.2533 125.564 20.26C123.091 22.2667 119.801 23.27 115.694 23.27ZM115.624 18.3C117.958 18.3 119.801 17.7633 121.154 16.69C122.508 15.6167 123.184 14.17 123.184 12.35V11.51C123.184 9.68999 122.508 8.24333 121.154 7.16999C119.801 6.09666 117.958 5.55999 115.624 5.55999C113.291 5.55999 111.448 6.09666 110.094 7.16999C108.788 8.19666 108.134 9.64332 108.134 11.51V12.35C108.134 14.17 108.811 15.6167 110.164 16.69C111.518 17.7633 113.338 18.3 115.624 18.3ZM152.514 47.42C148.361 47.42 145.024 46.4167 142.504 44.41C140.031 42.4033 138.794 39.7433 138.794 36.43V35.73C138.794 32.37 140.031 29.71 142.504 27.75C145.024 25.7433 148.361 24.74 152.514 24.74C156.668 24.74 159.958 25.7433 162.384 27.75C164.858 29.71 166.094 32.37 166.094 35.73V36.43C166.094 39.7433 164.858 42.4033 162.384 44.41C159.911 46.4167 156.621 47.42 152.514 47.42ZM152.444 42.45C154.778 42.45 156.621 41.9133 157.974 40.84C159.328 39.7667 160.004 38.32 160.004 36.5V35.66C160.004 33.84 159.328 32.3933 157.974 31.32C156.621 30.2467 154.778 29.71 152.444 29.71C150.111 29.71 148.268 30.2467 146.914 31.32C145.608 32.3467 144.954 33.7933 144.954 35.66V36.5C144.954 38.32 145.631 39.7667 146.984 40.84C148.338 41.9133 150.158 42.45 152.444 42.45ZM151.884 1.07999H158.604V2.12999L116.114 47H109.394V46.02L151.884 1.07999Z" fill="#5897FB"/>
</svg>
