<svg width="137" height="22" viewBox="0 0 137 22" fill="none" xmlns="http://www.w3.org/2000/svg">
<g clip-path="url(#clip0_1_189)">
<path d="M14.1297 13.4537C13.3862 13.6595 12.9418 14.4351 13.2405 15.1476C13.9272 16.785 15.0053 18.2369 16.3884 19.3703C18.1335 20.8002 20.2783 21.6528 22.5273 21.8106C24.7763 21.9684 27.0187 21.4235 28.9457 20.2512C30.8727 19.0788 32.3894 17.3367 33.2868 15.2647C34.1841 13.1928 34.4182 10.893 33.9563 8.68229C33.4946 6.47156 32.3597 4.45871 30.7085 2.92106C29.0572 1.38342 26.9705 0.396651 24.736 0.0967152C22.9649 -0.141013 21.17 0.0620093 19.5073 0.678226C18.7838 0.946338 18.5221 1.80131 18.8799 2.48587C19.2378 3.17044 20.0803 3.42176 20.8148 3.18591C21.9547 2.81991 23.1672 2.70961 24.365 2.87039C26.0268 3.09346 27.5787 3.82731 28.8067 4.97086C30.0349 6.11441 30.8786 7.61136 31.2223 9.25546C31.5656 10.8996 31.3917 12.6099 30.7242 14.1508C30.0569 15.6917 28.929 16.9874 27.4958 17.8592C26.0627 18.7311 24.395 19.1363 22.7224 19.019C21.0499 18.9016 19.4548 18.2676 18.157 17.2041C17.2215 16.4376 16.4737 15.4751 15.9618 14.3911C15.6319 13.6926 14.8732 13.2479 14.1297 13.4537Z" fill="white"/>
<path d="M14.0458 13.4057L20.7076 10.9256C21.3998 10.6679 22.1695 11.0212 22.4267 11.7146L22.4267 11.7146C22.6839 12.4081 22.3313 13.1792 21.6391 13.4369L14.9774 15.917C14.2851 16.1747 13.5155 15.8214 13.2582 15.128L13.2582 15.1279C13.001 14.4345 13.3536 13.6634 14.0458 13.4057Z" fill="white"/>
<path d="M14.0458 13.4057L20.7076 10.9256C21.3998 10.6679 22.1695 11.0212 22.4267 11.7146L22.4267 11.7146C22.6839 12.4081 22.3313 13.1792 21.6391 13.4369L14.9774 15.917C14.2851 16.1747 13.5155 15.8214 13.2582 15.128L13.2582 15.1279C13.001 14.4345 13.3536 13.6634 14.0458 13.4057Z" fill="white"/>
<path d="M20.0606 8.38273C20.8025 8.17738 21.2459 7.40353 20.948 6.69258C20.2614 5.05393 19.1829 3.60106 17.7989 2.46701C16.0538 1.03705 13.9091 0.184451 11.6601 0.0266789C9.41108 -0.131093 7.16863 0.413725 5.24164 1.58607C3.31466 2.75843 1.79798 4.50058 0.900603 6.57256C0.00322445 8.64451 -0.230699 10.9443 0.231064 13.155C0.692827 15.3657 1.82755 17.3786 3.47888 18.9162C5.13022 20.4538 7.21691 21.4406 9.45141 21.7406C11.2235 21.9784 13.0194 21.775 14.683 21.158C15.4047 20.8902 15.6659 20.0372 15.3088 19.3542C14.9517 18.6711 14.1112 18.4203 13.3784 18.656C12.2365 19.0233 11.0217 19.1341 9.82154 18.973C8.15847 18.7498 6.60543 18.0154 5.37637 16.871C4.14734 15.7265 3.3028 14.2284 2.95913 12.5831C2.61546 10.9377 2.78957 9.22608 3.45745 7.68398C4.12533 6.14188 5.25414 4.84526 6.68835 3.97271C8.12253 3.10016 9.79154 2.69468 11.4654 2.8121C13.1392 2.92953 14.7355 3.56408 16.0343 4.62836C16.9716 5.39638 17.7207 6.36088 18.233 7.44726C18.5618 8.14443 19.3188 8.58806 20.0606 8.38273Z" fill="white"/>
<path d="M20.0606 8.38273C20.8025 8.17738 21.2459 7.40353 20.948 6.69258C20.2614 5.05393 19.1829 3.60106 17.7989 2.46701C16.0538 1.03705 13.9091 0.184451 11.6601 0.0266789C9.41108 -0.131093 7.16863 0.413725 5.24164 1.58607C3.31466 2.75843 1.79798 4.50058 0.900603 6.57256C0.00322445 8.64451 -0.230699 10.9443 0.231064 13.155C0.692827 15.3657 1.82755 17.3786 3.47888 18.9162C5.13022 20.4538 7.21691 21.4406 9.45141 21.7406C11.2235 21.9784 13.0194 21.775 14.683 21.158C15.4047 20.8902 15.6659 20.0372 15.3088 19.3542C14.9517 18.6711 14.1112 18.4203 13.3784 18.656C12.2365 19.0233 11.0217 19.1341 9.82154 18.973C8.15847 18.7498 6.60543 18.0154 5.37637 16.871C4.14734 15.7265 3.3028 14.2284 2.95913 12.5831C2.61546 10.9377 2.78957 9.22608 3.45745 7.68398C4.12533 6.14188 5.25414 4.84526 6.68835 3.97271C8.12253 3.10016 9.79154 2.69468 11.4654 2.8121C13.1392 2.92953 14.7355 3.56408 16.0343 4.62836C16.9716 5.39638 17.7207 6.36088 18.233 7.44726C18.5618 8.14443 19.3188 8.58806 20.0606 8.38273Z" fill="white"/>
<path d="M20.1419 8.43162L13.4797 10.9119C12.7876 11.1695 12.0181 10.8163 11.7609 10.123C11.5037 9.42963 11.8562 8.65868 12.5483 8.40102L19.2105 5.92076C19.9026 5.6631 20.6721 6.0163 20.9293 6.70966C21.1865 7.40301 20.834 8.17396 20.1419 8.43162Z" fill="white"/>
<path d="M20.1419 8.43162L13.4797 10.9119C12.7876 11.1695 12.0181 10.8163 11.7609 10.123C11.5037 9.42963 11.8562 8.65868 12.5483 8.40102L19.2105 5.92076C19.9026 5.6631 20.6721 6.0163 20.9293 6.70966C21.1865 7.40301 20.834 8.17396 20.1419 8.43162Z" fill="white"/>
<path d="M45.0229 16.675C43.8233 16.675 42.7578 16.4125 41.8262 15.8875C40.8947 15.3508 40.1725 14.61 39.6602 13.665C39.1479 12.7083 38.8916 11.6233 38.8916 10.41C38.8916 9.17331 39.1594 8.07666 39.6951 7.11999C40.2309 6.16331 40.9586 5.42249 41.8787 4.89749C42.8102 4.37249 43.8408 4.10999 44.9705 4.10999C45.8789 4.10999 46.6707 4.22081 47.3462 4.44249C48.0332 4.66416 48.6912 4.97331 49.3201 5.36999C49.4131 5.41666 49.4948 5.49831 49.5646 5.61499C49.6345 5.73166 49.6694 5.85999 49.6694 5.99999C49.6694 6.19831 49.5996 6.36749 49.4598 6.50749C49.3318 6.64749 49.1571 6.71749 48.9358 6.71749C48.8078 6.71749 48.6855 6.68831 48.5689 6.62999C48.0217 6.30331 47.4742 6.05831 46.9269 5.89499C46.3797 5.73166 45.7858 5.64999 45.1452 5.64999C44.2601 5.64999 43.4625 5.83666 42.7521 6.20999C42.0416 6.58331 41.4826 7.13166 41.0751 7.85499C40.6791 8.56666 40.4812 9.41831 40.4812 10.41C40.4812 11.32 40.6676 12.1367 41.0402 12.86C41.4245 13.5717 41.9717 14.1375 42.6822 14.5575C43.4041 14.9658 44.2543 15.17 45.2325 15.17C46.3273 15.17 47.3462 14.9133 48.2894 14.4V11.2325H45.4072C45.2093 11.2325 45.0404 11.1625 44.9006 11.0225C44.7609 10.8825 44.691 10.7133 44.691 10.515C44.691 10.3167 44.7609 10.1475 44.9006 10.0075C45.0404 9.86749 45.2093 9.79749 45.4072 9.79749H48.8484C49.0813 9.79749 49.2794 9.87916 49.4423 10.0425C49.6053 10.2058 49.6869 10.4042 49.6869 10.6375V14.61C49.6869 14.855 49.6228 15.0767 49.4948 15.275C49.3782 15.4617 49.221 15.6017 49.0231 15.695C47.7187 16.3483 46.3854 16.675 45.0229 16.675ZM52.9332 16.5C52.7119 16.5 52.5255 16.4242 52.3742 16.2725C52.2228 16.1208 52.1472 15.9342 52.1472 15.7125V5.08999C52.1472 4.86831 52.2228 4.68166 52.3742 4.52999C52.5255 4.36666 52.7119 4.28499 52.9332 4.28499H59.9379C60.1476 4.28499 60.3222 4.36081 60.462 4.51249C60.6132 4.65249 60.6891 4.82749 60.6891 5.03749C60.6891 5.24749 60.6132 5.42249 60.462 5.56249C60.3222 5.70249 60.1476 5.77249 59.9379 5.77249H53.7368V9.63999H59.3091C59.5187 9.63999 59.6934 9.71581 59.8331 9.86749C59.9844 10.0075 60.0602 10.1825 60.0602 10.3925C60.0602 10.6025 59.9844 10.7775 59.8331 10.9175C59.6934 11.0575 59.5187 11.1275 59.3091 11.1275H53.7368V15.0125H59.9379C60.1476 15.0125 60.3222 15.0883 60.462 15.24C60.6132 15.38 60.6891 15.555 60.6891 15.765C60.6891 15.975 60.6132 16.15 60.462 16.29C60.3222 16.43 60.1476 16.5 59.9379 16.5H52.9332ZM66.2035 16.5875C65.9824 16.5875 65.796 16.5117 65.6445 16.36C65.4933 16.2083 65.4174 16.0217 65.4174 15.8V5.77249H61.8539C61.6443 5.77249 61.4696 5.70249 61.3299 5.56249C61.1902 5.42249 61.1203 5.24749 61.1203 5.03749C61.1203 4.82749 61.1902 4.65249 61.3299 4.51249C61.4696 4.36081 61.6443 4.28499 61.8539 4.28499H70.5531C70.7627 4.28499 70.9374 4.36081 71.0771 4.51249C71.2286 4.65249 71.3042 4.82749 71.3042 5.03749C71.3042 5.24749 71.2286 5.42249 71.0771 5.56249C70.9374 5.70249 70.7627 5.77249 70.5531 5.77249H67.007V15.8C67.007 16.0217 66.9257 16.2083 66.7625 16.36C66.6113 16.5117 66.4249 16.5875 66.2035 16.5875ZM71.6174 12.3C71.4192 12.3 71.2506 12.2358 71.1108 12.1075C70.9825 11.9675 70.9187 11.7983 70.9187 11.6C70.9187 11.4017 70.9825 11.2325 71.1108 11.0925C71.2506 10.9525 71.4192 10.8825 71.6174 10.8825H74.9189C75.1167 10.8825 75.2857 10.9525 75.4254 11.0925C75.5652 11.2325 75.6351 11.4017 75.6351 11.6C75.6351 11.7983 75.5652 11.9675 75.4254 12.1075C75.2857 12.2358 75.1167 12.3 74.9189 12.3H71.6174ZM83.2372 16.675C82.0376 16.675 80.9721 16.4125 80.0405 15.8875C79.109 15.3508 78.3868 14.61 77.8745 13.665C77.3621 12.7083 77.1059 11.6233 77.1059 10.41C77.1059 9.17331 77.3736 8.07666 77.9094 7.11999C78.4452 6.16331 79.1728 5.42249 80.0929 4.89749C81.0245 4.37249 82.0551 4.10999 83.1848 4.10999C84.0931 4.10999 84.8849 4.22081 85.5604 4.44249C86.2474 4.66416 86.9055 4.97331 87.5343 5.36999C87.6274 5.41666 87.709 5.49831 87.7789 5.61499C87.8488 5.73166 87.8837 5.85999 87.8837 5.99999C87.8837 6.19831 87.8138 6.36749 87.6741 6.50749C87.5461 6.64749 87.3714 6.71749 87.15 6.71749C87.022 6.71749 86.8997 6.68831 86.7832 6.62999C86.236 6.30331 85.6885 6.05831 85.1412 5.89499C84.594 5.73166 84 5.64999 83.3595 5.64999C82.4743 5.64999 81.6768 5.83666 80.9663 6.20999C80.2559 6.58331 79.6969 7.13166 79.2894 7.85499C78.8934 8.56666 78.6955 9.41831 78.6955 10.41C78.6955 11.32 78.8819 12.1367 79.2544 12.86C79.6387 13.5717 80.186 14.1375 80.8964 14.5575C81.6184 14.9658 82.4686 15.17 83.4468 15.17C84.5415 15.17 85.5604 14.9133 86.5037 14.4V11.2325H83.6215C83.4236 11.2325 83.2546 11.1625 83.1149 11.0225C82.9752 10.8825 82.9053 10.7133 82.9053 10.515C82.9053 10.3167 82.9752 10.1475 83.1149 10.0075C83.2546 9.86749 83.4236 9.79749 83.6215 9.79749H87.0627C87.2955 9.79749 87.4937 9.87916 87.6566 10.0425C87.8196 10.2058 87.9012 10.4042 87.9012 10.6375V14.61C87.9012 14.855 87.837 15.0767 87.709 15.275C87.5925 15.4617 87.4353 15.6017 87.2374 15.695C85.933 16.3483 84.5997 16.675 83.2372 16.675ZM91.1472 16.5875C90.9261 16.5875 90.7397 16.5117 90.5883 16.36C90.437 16.2083 90.3612 16.0217 90.3612 15.8V5.08999C90.3612 4.86831 90.437 4.68166 90.5883 4.52999C90.7397 4.36666 90.9261 4.28499 91.1472 4.28499H95.2173C96.8012 4.28499 97.989 4.61166 98.7808 5.26499C99.5729 5.91831 99.9686 6.77581 99.9686 7.83749C99.9686 8.53749 99.7708 9.17916 99.3747 9.76249C98.9904 10.3342 98.4257 10.7483 97.6803 11.005C98.5188 11.2267 99.0895 11.7517 99.3922 12.58C99.7066 13.3967 99.8638 14.2017 99.8638 14.995V15.8C99.8638 16.0217 99.7882 16.2083 99.6367 16.36C99.4855 16.5117 99.2991 16.5875 99.0778 16.5875C98.8332 16.5875 98.6353 16.5175 98.4839 16.3775C98.3441 16.2258 98.2742 16.0333 98.2742 15.8V15.275C98.2742 14.6917 98.2218 14.155 98.117 13.665C98.0122 13.1633 97.7619 12.72 97.3659 12.335C96.9701 11.9383 96.3702 11.74 95.5667 11.74H91.9508V15.8C91.9508 16.0217 91.8694 16.2083 91.7062 16.36C91.555 16.5117 91.3686 16.5875 91.1472 16.5875ZM95.1125 10.235C96.1142 10.235 96.906 10.0367 97.4882 9.63999C98.0821 9.24331 98.379 8.68331 98.379 7.95999C98.379 7.25999 98.123 6.72331 97.6104 6.34999C97.1099 5.97666 96.2479 5.78999 95.0252 5.78999H91.9508V10.235H95.1125ZM102.063 16.5875C101.83 16.5875 101.638 16.5117 101.487 16.36C101.347 16.2083 101.277 16.0217 101.277 15.8C101.277 15.7067 101.306 15.59 101.365 15.45L105.819 4.91499C105.912 4.70499 106.04 4.53581 106.203 4.40749C106.378 4.26749 106.588 4.19749 106.832 4.19749H107.007C107.251 4.19749 107.455 4.26749 107.618 4.40749C107.793 4.53581 107.927 4.70499 108.02 4.91499L112.474 15.45C112.533 15.59 112.562 15.7067 112.562 15.8C112.562 16.0217 112.486 16.2083 112.335 16.36C112.195 16.5117 112.009 16.5875 111.776 16.5875C111.613 16.5875 111.461 16.5467 111.321 16.465C111.193 16.3717 111.094 16.2492 111.024 16.0975L109.889 13.3675H103.95L102.814 16.0975C102.745 16.2492 102.64 16.3717 102.5 16.465C102.372 16.5467 102.227 16.5875 102.063 16.5875ZM104.561 11.915H109.278L106.919 6.22749L104.561 11.915ZM115.219 16.5875C114.997 16.5875 114.811 16.5117 114.66 16.36C114.508 16.2083 114.433 16.0217 114.433 15.8V5.35249C114.433 5.03749 114.543 4.76916 114.764 4.54749C114.986 4.31416 115.254 4.19749 115.568 4.19749H115.795C116.168 4.19749 116.488 4.37249 116.756 4.72249L123.481 14.4525V5.00249C123.481 4.78081 123.557 4.59416 123.708 4.44249C123.86 4.27916 124.046 4.19749 124.267 4.19749C124.488 4.19749 124.675 4.27916 124.826 4.44249C124.989 4.59416 125.071 4.78081 125.071 5.00249V15.45C125.071 15.765 124.954 16.0333 124.721 16.255C124.5 16.4767 124.232 16.5875 123.918 16.5875H123.708C123.522 16.5875 123.347 16.5467 123.184 16.465C123.021 16.3717 122.887 16.255 122.782 16.115L116.022 6.33249V15.8C116.022 16.0217 115.94 16.2083 115.778 16.36C115.626 16.5117 115.44 16.5875 115.219 16.5875ZM131.372 16.5875C131.151 16.5875 130.964 16.5117 130.813 16.36C130.662 16.2083 130.586 16.0217 130.586 15.8V5.77249H127.022C126.813 5.77249 126.638 5.70249 126.498 5.56249C126.358 5.42249 126.289 5.24749 126.289 5.03749C126.289 4.82749 126.358 4.65249 126.498 4.51249C126.638 4.36081 126.813 4.28499 127.022 4.28499H135.721C135.931 4.28499 136.106 4.36081 136.245 4.51249C136.397 4.65249 136.473 4.82749 136.473 5.03749C136.473 5.24749 136.397 5.42249 136.245 5.56249C136.106 5.70249 135.931 5.77249 135.721 5.77249H132.175V15.8C132.175 16.0217 132.094 16.2083 131.931 16.36C131.78 16.5117 131.593 16.5875 131.372 16.5875Z" fill="white"/>
<path d="M41.8263 15.8875L41.5775 16.3209L41.5795 16.3221L41.5815 16.3233L41.8263 15.8875ZM39.6603 13.665L39.2206 13.9014L39.2218 13.9037L39.6603 13.665ZM39.6952 7.11999L40.1304 7.36461L39.6952 7.11999ZM41.8787 4.89749L41.6339 4.46169L41.6317 4.46304L41.8787 4.89749ZM47.3462 4.44249L47.1908 4.91764L47.1933 4.91841L47.3462 4.44249ZM49.3201 5.36999L49.0541 5.79311L49.0751 5.80621L49.097 5.81721L49.3201 5.36999ZM49.5647 5.61499L49.1367 5.87224L49.5647 5.61499ZM49.4599 6.50749L49.107 6.15394L49.0993 6.16161L49.0921 6.16964L49.4599 6.50749ZM48.569 6.62999L48.3135 7.05954L48.3294 7.06896L48.3459 7.07721L48.569 6.62999ZM46.927 5.89499L47.0695 5.41579L46.927 5.89499ZM42.7521 6.20999L42.9839 6.65276L42.7521 6.20999ZM41.0752 7.85499L40.6405 7.60919L40.6392 7.61156L41.0752 7.85499ZM41.0402 12.86L40.5968 13.0893L40.5991 13.0936L40.6013 13.0979L41.0402 12.86ZM42.6822 14.5575L42.4285 14.9881L42.4327 14.9905L42.4369 14.9929L42.6822 14.5575ZM48.2895 14.4L48.5278 14.8393L48.7886 14.6974V14.4H48.2895ZM48.2895 11.2325H48.7886V10.7325H48.2895V11.2325ZM49.4948 15.275L49.0758 15.0034L49.0736 15.0067L49.0716 15.01L49.4948 15.275ZM49.0232 15.695L48.8106 15.2426L48.8053 15.2451L48.8001 15.2478L49.0232 15.695ZM45.023 16.175C43.8985 16.175 42.9191 15.9297 42.0711 15.4517L41.5815 16.3233C42.5967 16.8953 43.7486 17.175 45.023 17.175V16.175ZM42.0751 15.454C41.2234 14.9634 40.5671 14.29 40.0987 13.4263L39.2218 13.9037C39.7783 14.93 40.5659 15.7382 41.5775 16.3209L42.0751 15.454ZM40.1 13.4286C39.6311 12.5528 39.3908 11.5507 39.3908 10.41H38.3926C38.3926 11.696 38.6648 12.8638 39.2206 13.9014L40.1 13.4286ZM39.3908 10.41C39.3908 9.24789 39.6418 8.23744 40.1304 7.36461L39.26 6.87536C38.6773 7.91586 38.3926 9.09876 38.3926 10.41H39.3908ZM40.1304 7.36461C40.6235 6.48434 41.2873 5.81039 42.1258 5.33194L41.6317 4.46304C40.6302 5.03459 39.8384 5.84229 39.26 6.87536L40.1304 7.36461ZM42.1235 5.33326C42.976 4.85279 43.9217 4.60999 44.9706 4.60999V3.60999C43.7603 3.60999 42.6446 3.89219 41.6339 4.46169L42.1235 5.33326ZM44.9706 4.60999C45.84 4.60999 46.5774 4.71629 47.1908 4.91764L47.5017 3.96734C46.7643 3.72536 45.9178 3.60999 44.9706 3.60999V4.60999ZM47.1933 4.91841C47.8396 5.12691 48.4597 5.41804 49.0541 5.79311L49.5861 4.94686C48.9229 4.52861 48.2271 4.20141 47.4992 3.96656L47.1933 4.91841ZM49.097 5.81721C49.0831 5.81021 49.101 5.81276 49.1367 5.87224L49.9927 5.35774C49.8886 5.18389 49.7436 5.02309 49.5432 4.92276L49.097 5.81721ZM49.1367 5.87224C49.1587 5.90886 49.1704 5.94786 49.1704 5.99999H50.1686C50.1686 5.77211 50.1104 5.55444 49.9927 5.35774L49.1367 5.87224ZM49.1704 5.99999C49.1704 6.06596 49.1529 6.10789 49.107 6.15394L49.8127 6.86104C50.0463 6.62709 50.1686 6.33066 50.1686 5.99999H49.1704ZM49.0921 6.16964C49.0743 6.18881 49.0429 6.21749 48.9358 6.21749V7.21749C49.2715 7.21749 49.5891 7.10616 49.8277 6.84534L49.0921 6.16964ZM48.9358 6.21749C48.8864 6.21749 48.8405 6.20699 48.7921 6.18276L48.3459 7.07721C48.5303 7.16966 48.729 7.21749 48.9358 7.21749V6.21749ZM48.8245 6.20044C48.2456 5.85501 47.6607 5.59221 47.0695 5.41579L46.7845 6.37419C47.2881 6.52444 47.7977 6.75164 48.3135 7.05954L48.8245 6.20044ZM47.0695 5.41579C46.4706 5.23711 45.8283 5.14999 45.1453 5.14999V6.14999C45.7432 6.14999 46.2887 6.22621 46.7845 6.37419L47.0695 5.41579ZM45.1453 5.14999C44.188 5.14999 43.3094 5.35254 42.5203 5.76721L42.9839 6.65276C43.6155 6.32079 44.3325 6.14999 45.1453 6.14999V5.14999ZM42.5203 5.76721C41.7218 6.18684 41.0936 6.80499 40.6405 7.60919L41.5099 8.10079C41.8717 7.45834 42.3616 6.97981 42.9839 6.65276L42.5203 5.76721ZM40.6392 7.61156C40.1938 8.41221 39.9822 9.35149 39.9822 10.41H40.9804C40.9804 9.48514 41.1648 8.72109 41.5111 8.09841L40.6392 7.61156ZM39.9822 10.41C39.9822 11.3902 40.1836 12.2871 40.5968 13.0893L41.4837 12.6307C41.1518 11.9862 40.9804 11.2497 40.9804 10.41H39.9822ZM40.6013 13.0979C41.0298 13.8912 41.6419 14.523 42.4285 14.9881L42.936 14.1269C42.3019 13.752 41.8193 13.2521 41.4792 12.6221L40.6013 13.0979ZM42.4369 14.9929C43.2462 15.4506 44.184 15.67 45.2326 15.67V14.67C44.3248 14.67 43.5624 14.481 42.9275 14.1221L42.4369 14.9929ZM45.2326 15.67C46.4087 15.67 47.5099 15.3933 48.5278 14.8393L48.0512 13.9606C47.1825 14.4334 46.2457 14.67 45.2326 14.67V15.67ZM48.7886 14.4V11.2325H47.7904V14.4H48.7886ZM48.2895 10.7325H45.4073V11.7325H48.2895V10.7325ZM45.4073 10.7325C45.3414 10.7325 45.2995 10.715 45.2536 10.6689L44.5478 11.376C44.7814 11.61 45.0771 11.7325 45.4073 11.7325V10.7325ZM45.2536 10.6689C45.2076 10.6229 45.1902 10.581 45.1902 10.515H44.192C44.192 10.8457 44.3143 11.1421 44.5478 11.376L45.2536 10.6689ZM45.1902 10.515C45.1902 10.449 45.2076 10.4071 45.2536 10.361L44.5478 9.65394C44.3143 9.88789 44.192 10.1843 44.192 10.515H45.1902ZM45.2536 10.361C45.2995 10.315 45.3414 10.2975 45.4073 10.2975V9.29749C45.0771 9.29749 44.7814 9.41999 44.5478 9.65394L45.2536 10.361ZM45.4073 10.2975H48.8485V9.29749H45.4073V10.2975ZM48.8485 10.2975C48.9506 10.2975 49.0212 10.3275 49.0896 10.396L49.7953 9.68894C49.5377 9.43076 49.2123 9.29749 48.8485 9.29749V10.2975ZM49.0896 10.396C49.1579 10.4645 49.1879 10.5352 49.1879 10.6375H50.1861C50.1861 10.2731 50.0531 9.94711 49.7953 9.68894L49.0896 10.396ZM49.1879 10.6375V14.61H50.1861V10.6375H49.1879ZM49.1879 14.61C49.1879 14.7624 49.1497 14.8891 49.0758 15.0034L49.9138 15.5466C50.0962 15.2642 50.1861 14.9476 50.1861 14.61H49.1879ZM49.0716 15.01C49.0057 15.1156 48.9216 15.1903 48.8106 15.2426L49.2358 16.1474C49.5208 16.013 49.7511 15.8077 49.918 15.54L49.0716 15.01ZM48.8001 15.2478C47.5601 15.8689 46.3026 16.175 45.023 16.175V17.175C46.4683 17.175 47.8778 16.8278 49.2463 16.1422L48.8001 15.2478ZM52.3743 16.2725L52.7272 15.9189L52.3743 16.2725ZM52.3743 4.52999L52.7272 4.88354L52.7337 4.87699L52.7399 4.87021L52.3743 4.52999ZM60.4621 4.51249L60.0952 4.85164L60.1087 4.86631L60.1234 4.87989L60.4621 4.51249ZM60.4621 5.56249L60.1234 5.19509L60.1162 5.20186L60.1089 5.20894L60.4621 5.56249ZM53.7368 5.77249V5.27249H53.2377V5.77249H53.7368ZM53.7368 9.63999H53.2377V10.14H53.7368V9.63999ZM59.8332 9.86749L59.4664 10.2066L59.4798 10.2213L59.4946 10.2349L59.8332 9.86749ZM59.8332 10.9175L59.4946 10.5501L59.4873 10.5569L59.4801 10.5639L59.8332 10.9175ZM53.7368 11.1275V10.6275H53.2377V11.1275H53.7368ZM53.7368 15.0125H53.2377V15.5125H53.7368V15.0125ZM60.4621 15.24L60.0952 15.5791L60.1087 15.5938L60.1234 15.6074L60.4621 15.24ZM60.4621 16.29L60.1234 15.9226L60.1162 15.9294L60.1089 15.9364L60.4621 16.29ZM52.9333 16C52.8392 16 52.7816 15.9734 52.7272 15.9189L52.0212 16.626C52.2698 16.8749 52.5844 17 52.9333 17V16ZM52.7272 15.9189C52.6728 15.8645 52.6463 15.8065 52.6463 15.7125H51.6481C51.6481 16.0618 51.7729 16.3772 52.0212 16.626L52.7272 15.9189ZM52.6463 15.7125V5.08999H51.6481V15.7125H52.6463ZM52.6463 5.08999C52.6463 4.99596 52.6728 4.93799 52.7272 4.88354L52.0212 4.17644C51.7729 4.42531 51.6481 4.74066 51.6481 5.08999H52.6463ZM52.7399 4.87021C52.7975 4.80811 52.8514 4.78499 52.9333 4.78499V3.78499C52.5722 3.78499 52.2538 3.92519 52.0085 4.18976L52.7399 4.87021ZM52.9333 4.78499H59.938V3.78499H52.9333V4.78499ZM59.938 4.78499C60.0109 4.78499 60.0518 4.80451 60.0952 4.85164L60.8286 4.17334C60.5926 3.91714 60.2841 3.78499 59.938 3.78499V4.78499ZM60.1234 4.87989C60.1703 4.92339 60.1901 4.96426 60.1901 5.03749H61.1882C61.1882 4.69071 61.0562 4.38159 60.8004 4.14509L60.1234 4.87989ZM60.1901 5.03749C60.1901 5.11071 60.1703 5.15159 60.1234 5.19509L60.8004 5.92989C61.0562 5.69339 61.1882 5.38426 61.1882 5.03749H60.1901ZM60.1089 5.20894C60.069 5.24904 60.0241 5.27249 59.938 5.27249V6.27249C60.2709 6.27249 60.5753 6.15594 60.8149 5.91604L60.1089 5.20894ZM59.938 5.27249H53.7368V6.27249H59.938V5.27249ZM53.2377 5.77249V9.63999H54.2359V5.77249H53.2377ZM53.7368 10.14H59.3092V9.13999H53.7368V10.14ZM59.3092 10.14C59.382 10.14 59.4229 10.1595 59.4664 10.2066L60.1998 9.52834C59.9637 9.27214 59.6553 9.13999 59.3092 9.13999V10.14ZM59.4946 10.2349C59.5415 10.2784 59.5612 10.3193 59.5612 10.3925H60.5594C60.5594 10.0457 60.4274 9.73659 60.1716 9.50009L59.4946 10.2349ZM59.5612 10.3925C59.5612 10.4657 59.5415 10.5066 59.4946 10.5501L60.1716 11.2849C60.4274 11.0484 60.5594 10.7393 60.5594 10.3925H59.5612ZM59.4801 10.5639C59.4402 10.604 59.3953 10.6275 59.3092 10.6275V11.6275C59.6421 11.6275 59.9465 11.5109 60.1861 11.271L59.4801 10.5639ZM59.3092 10.6275H53.7368V11.6275H59.3092V10.6275ZM53.2377 11.1275V15.0125H54.2359V11.1275H53.2377ZM53.7368 15.5125H59.938V14.5125H53.7368V15.5125ZM59.938 15.5125C60.0109 15.5125 60.0518 15.532 60.0952 15.5791L60.8286 14.9008C60.5926 14.6446 60.2841 14.5125 59.938 14.5125V15.5125ZM60.1234 15.6074C60.1703 15.6509 60.1901 15.6918 60.1901 15.765H61.1882C61.1882 15.4182 61.0562 15.1091 60.8004 14.8726L60.1234 15.6074ZM60.1901 15.765C60.1901 15.8382 60.1703 15.8791 60.1234 15.9226L60.8004 16.6574C61.0562 16.4209 61.1882 16.1118 61.1882 15.765H60.1901ZM60.1089 15.9364C60.069 15.9765 60.0241 16 59.938 16V17C60.2709 17 60.5753 16.8834 60.8149 16.6435L60.1089 15.9364ZM59.938 16H52.9333V17H59.938V16ZM65.6446 16.36L65.2917 16.7135L65.6446 16.36ZM65.4175 5.77249H65.9166V5.27249H65.4175V5.77249ZM61.33 5.56249L60.9771 5.91604L61.33 5.56249ZM61.33 4.51249L61.6828 4.86604L61.6901 4.85896L61.6968 4.85164L61.33 4.51249ZM71.0772 4.51249L70.7106 4.85164L70.7241 4.86631L70.7388 4.87989L71.0772 4.51249ZM71.0772 5.56249L70.7388 5.19509L70.7313 5.20186L70.7243 5.20894L71.0772 5.56249ZM67.0071 5.77249V5.27249H66.508V5.77249H67.0071ZM66.7626 16.36L66.4229 15.9936L66.4162 15.9999L66.4097 16.0064L66.7626 16.36ZM66.2036 16.0875C66.1097 16.0875 66.0519 16.0609 65.9975 16.0064L65.2917 16.7135C65.5403 16.9624 65.855 17.0875 66.2036 17.0875V16.0875ZM65.9975 16.0064C65.9433 15.952 65.9166 15.894 65.9166 15.8H64.9184C64.9184 16.1493 65.0432 16.4647 65.2917 16.7135L65.9975 16.0064ZM65.9166 15.8V5.77249H64.9184V15.8H65.9166ZM65.4175 5.27249H61.854V6.27249H65.4175V5.27249ZM61.854 5.27249C61.7679 5.27249 61.723 5.24904 61.6828 5.20894L60.9771 5.91604C61.2167 6.15594 61.5209 6.27249 61.854 6.27249V5.27249ZM61.6828 5.20894C61.6429 5.16884 61.6194 5.12381 61.6194 5.03749H60.6213C60.6213 5.37116 60.7376 5.67614 60.9771 5.91604L61.6828 5.20894ZM61.6194 5.03749C61.6194 4.95116 61.6429 4.90614 61.6828 4.86604L60.9771 4.15894C60.7376 4.39884 60.6213 4.70381 60.6213 5.03749H61.6194ZM61.6968 4.85164C61.7402 4.80451 61.7809 4.78499 61.854 4.78499V3.78499C61.5079 3.78499 61.1995 3.91714 60.9634 4.17334L61.6968 4.85164ZM61.854 4.78499H70.5531V3.78499H61.854V4.78499ZM70.5531 4.78499C70.6263 4.78499 70.6672 4.80451 70.7106 4.85164L71.444 4.17334C71.2079 3.91714 70.8993 3.78499 70.5531 3.78499V4.78499ZM70.7388 4.87989C70.7857 4.92339 70.8052 4.96426 70.8052 5.03749H71.8034C71.8034 4.69071 71.6716 4.38159 71.4158 4.14509L70.7388 4.87989ZM70.8052 5.03749C70.8052 5.11071 70.7857 5.15159 70.7388 5.19509L71.4158 5.92989C71.6716 5.69339 71.8034 5.38426 71.8034 5.03749H70.8052ZM70.7243 5.20894C70.6844 5.24904 70.6392 5.27249 70.5531 5.27249V6.27249C70.8863 6.27249 71.1907 6.15594 71.43 5.91604L70.7243 5.20894ZM70.5531 5.27249H67.0071V6.27249H70.5531V5.27249ZM66.508 5.77249V15.8H67.5062V5.77249H66.508ZM66.508 15.8C66.508 15.8817 66.4851 15.9359 66.4229 15.9936L67.1022 16.7264C67.3662 16.4807 67.5062 16.1616 67.5062 15.8H66.508ZM66.4097 16.0064C66.3553 16.0609 66.2974 16.0875 66.2036 16.0875V17.0875C66.5522 17.0875 66.8671 16.9624 67.1154 16.7135L66.4097 16.0064ZM71.1109 12.1075L70.7428 12.4453L70.7575 12.4614L70.7735 12.4761L71.1109 12.1075ZM71.1109 11.0925L70.758 10.7389L70.7503 10.7466L70.7428 10.7546L71.1109 11.0925ZM75.4255 12.1075L75.7626 12.4761L75.7706 12.4687L75.7784 12.461L75.4255 12.1075ZM71.6175 11.8C71.5381 11.8 71.4914 11.7787 71.448 11.7389L70.7735 12.4761C71.0098 12.693 71.3005 12.8 71.6175 12.8V11.8ZM71.4787 11.7696C71.439 11.7262 71.4178 11.6793 71.4178 11.6H70.4196C70.4196 11.9173 70.5264 12.2087 70.7428 12.4453L71.4787 11.7696ZM71.4178 11.6C71.4178 11.5207 71.439 11.4737 71.4787 11.4303L70.7428 10.7546C70.5264 10.9912 70.4196 11.2827 70.4196 11.6H71.4178ZM71.4637 11.446C71.5096 11.4 71.5516 11.3825 71.6175 11.3825V10.3825C71.2873 10.3825 70.9913 10.505 70.758 10.7389L71.4637 11.446ZM71.6175 11.3825H74.9189V10.3825H71.6175V11.3825ZM74.9189 11.3825C74.9848 11.3825 75.0265 11.4 75.0726 11.446L75.7784 10.7389C75.5448 10.505 75.2488 10.3825 74.9189 10.3825V11.3825ZM75.0726 11.446C75.1186 11.4921 75.136 11.534 75.136 11.6H76.1342C76.1342 11.2693 76.0119 10.9729 75.7784 10.7389L75.0726 11.446ZM75.136 11.6C75.136 11.666 75.1186 11.7079 75.0726 11.7539L75.7784 12.461C76.0119 12.2271 76.1342 11.9307 76.1342 11.6H75.136ZM75.0881 11.7389C75.0449 11.7787 74.998 11.8 74.9189 11.8V12.8C75.2356 12.8 75.5266 12.693 75.7626 12.4761L75.0881 11.7389ZM74.9189 11.8H71.6175V12.8H74.9189V11.8ZM80.0406 15.8875L79.7918 16.3209L79.7938 16.3221L79.7958 16.3233L80.0406 15.8875ZM77.8745 13.665L77.4348 13.9014L77.4358 13.9037L77.8745 13.665ZM77.9095 7.11999L78.3447 7.36461L77.9095 7.11999ZM80.093 4.89749L79.8482 4.46169L79.8459 4.46304L80.093 4.89749ZM85.5605 4.44249L85.405 4.91764L85.4075 4.91841L85.5605 4.44249ZM87.5344 5.36999L87.2684 5.79311L87.2894 5.80621L87.3113 5.81721L87.5344 5.36999ZM87.779 5.61499L87.351 5.87224L87.779 5.61499ZM87.6741 6.50749L87.3213 6.15394L87.3136 6.16161L87.3063 6.16964L87.6741 6.50749ZM86.7833 6.62999L86.5277 7.05954L86.5437 7.06896L86.5602 7.07721L86.7833 6.62999ZM85.1413 5.89499L85.2838 5.41579L85.1413 5.89499ZM80.9664 6.20999L81.1982 6.65276L80.9664 6.20999ZM79.2894 7.85499L78.8547 7.60919L78.8535 7.61156L79.2894 7.85499ZM79.2545 12.86L78.8111 13.0893L78.8133 13.0936L78.8156 13.0979L79.2545 12.86ZM80.8965 14.5575L80.6427 14.9881L80.647 14.9905L80.6512 14.9929L80.8965 14.5575ZM86.5038 14.4L86.7421 14.8393L87.0029 14.6974V14.4H86.5038ZM86.5038 11.2325H87.0029V10.7325H86.5038V11.2325ZM87.7091 15.275L87.2901 15.0034L87.2879 15.0067L87.2859 15.01L87.7091 15.275ZM87.2374 15.695L87.0248 15.2426L87.0196 15.2451L87.0143 15.2478L87.2374 15.695ZM83.2372 16.175C82.1128 16.175 81.1333 15.9297 80.2851 15.4517L79.7958 16.3233C80.8109 16.8953 81.9628 17.175 83.2372 17.175V16.175ZM80.2894 15.454C79.4377 14.9634 78.7814 14.29 78.313 13.4263L77.4358 13.9037C77.9926 14.93 78.7801 15.7382 79.7918 16.3209L80.2894 15.454ZM78.3142 13.4286C77.8453 12.5528 77.605 11.5507 77.605 10.41H76.6068C76.6068 11.696 76.8791 12.8638 77.4348 13.9014L78.3142 13.4286ZM77.605 10.41C77.605 9.24789 77.8561 8.23744 78.3447 7.36461L77.4743 6.87536C76.8916 7.91586 76.6068 9.09876 76.6068 10.41H77.605ZM78.3447 7.36461C78.8375 6.48434 79.5016 5.81039 80.34 5.33194L79.8459 4.46304C78.8443 5.03459 78.0527 5.84229 77.4743 6.87536L78.3447 7.36461ZM80.3375 5.33326C81.1902 4.85279 82.136 4.60999 83.1848 4.60999V3.60999C81.9746 3.60999 80.8588 3.89219 79.8482 4.46169L80.3375 5.33326ZM83.1848 4.60999C84.0543 4.60999 84.7917 4.71629 85.405 4.91764L85.716 3.96734C84.9786 3.72536 84.1321 3.60999 83.1848 3.60999V4.60999ZM85.4075 4.91841C86.0536 5.12691 86.674 5.41804 87.2684 5.79311L87.8004 4.94686C87.1371 4.52861 86.4414 4.20141 85.7135 3.96656L85.4075 4.91841ZM87.3113 5.81721C87.2973 5.81021 87.3153 5.81276 87.351 5.87224L88.2069 5.35774C88.1029 5.18389 87.9579 5.02309 87.7575 4.92276L87.3113 5.81721ZM87.351 5.87224C87.3729 5.90886 87.3847 5.94786 87.3847 5.99999H88.3829C88.3829 5.77211 88.3247 5.55444 88.2069 5.35774L87.351 5.87224ZM87.3847 5.99999C87.3847 6.06596 87.3672 6.10789 87.3213 6.15394L88.027 6.86104C88.2606 6.62709 88.3829 6.33066 88.3829 5.99999H87.3847ZM87.3063 6.16964C87.2886 6.18881 87.2572 6.21749 87.1501 6.21749V7.21749C87.4857 7.21749 87.8034 7.10616 88.042 6.84534L87.3063 6.16964ZM87.1501 6.21749C87.1007 6.21749 87.0548 6.20699 87.0064 6.18276L86.5602 7.07721C86.7446 7.16966 86.9432 7.21749 87.1501 7.21749V6.21749ZM87.0388 6.20044C86.4599 5.85501 85.8749 5.59221 85.2838 5.41579L84.9988 6.37419C85.5024 6.52444 86.0119 6.75164 86.5277 7.05954L87.0388 6.20044ZM85.2838 5.41579C84.6848 5.23711 84.0425 5.14999 83.3595 5.14999V6.14999C83.9574 6.14999 84.5029 6.22621 84.9988 6.37419L85.2838 5.41579ZM83.3595 5.14999C82.4023 5.14999 81.5236 5.35254 80.7346 5.76721L81.1982 6.65276C81.8298 6.32079 82.5468 6.14999 83.3595 6.14999V5.14999ZM80.7346 5.76721C79.936 6.18684 79.3079 6.80499 78.8547 7.60919L79.7242 8.10079C80.086 7.45834 80.5759 6.97981 81.1982 6.65276L80.7346 5.76721ZM78.8535 7.61156C78.4081 8.41221 78.1964 9.35149 78.1964 10.41H79.1946C79.1946 9.48514 79.379 8.72109 79.7254 8.09841L78.8535 7.61156ZM78.1964 10.41C78.1964 11.3902 78.3976 12.2871 78.8111 13.0893L79.6979 12.6307C79.3661 11.9862 79.1946 11.2497 79.1946 10.41H78.1964ZM78.8156 13.0979C79.244 13.8912 79.8562 14.523 80.6427 14.9881L81.1501 14.1269C80.5162 13.752 80.0336 13.2521 79.6935 12.6221L78.8156 13.0979ZM80.6512 14.9929C81.4605 15.4506 82.3983 15.67 83.4469 15.67V14.67C82.539 14.67 81.7767 14.481 81.1418 14.1221L80.6512 14.9929ZM83.4469 15.67C84.623 15.67 85.7242 15.3933 86.7421 14.8393L86.2655 13.9606C85.3968 14.4334 84.46 14.67 83.4469 14.67V15.67ZM87.0029 14.4V11.2325H86.0047V14.4H87.0029ZM86.5038 10.7325H83.6215V11.7325H86.5038V10.7325ZM83.6215 10.7325C83.5557 10.7325 83.5137 10.715 83.4678 10.6689L82.7621 11.376C82.9957 11.61 83.2914 11.7325 83.6215 11.7325V10.7325ZM83.4678 10.6689C83.4219 10.6229 83.4044 10.581 83.4044 10.515H82.4063C82.4063 10.8457 82.5285 11.1421 82.7621 11.376L83.4678 10.6689ZM83.4044 10.515C83.4044 10.449 83.4219 10.4071 83.4678 10.361L82.7621 9.65394C82.5285 9.88789 82.4063 10.1843 82.4063 10.515H83.4044ZM83.4678 10.361C83.5137 10.315 83.5557 10.2975 83.6215 10.2975V9.29749C83.2914 9.29749 82.9957 9.41999 82.7621 9.65394L83.4678 10.361ZM83.6215 10.2975H87.0628V9.29749H83.6215V10.2975ZM87.0628 10.2975C87.1648 10.2975 87.2354 10.3275 87.3038 10.396L88.0095 9.68894C87.7518 9.43076 87.4266 9.29749 87.0628 9.29749V10.2975ZM87.3038 10.396C87.3722 10.4645 87.4021 10.5352 87.4021 10.6375H88.4003C88.4003 10.2731 88.2673 9.94711 88.0095 9.68894L87.3038 10.396ZM87.4021 10.6375V14.61H88.4003V10.6375H87.4021ZM87.4021 14.61C87.4021 14.7624 87.364 14.8891 87.2901 15.0034L88.1281 15.5466C88.3105 15.2642 88.4003 14.9476 88.4003 14.61H87.4021ZM87.2859 15.01C87.22 15.1156 87.1356 15.1903 87.0248 15.2426L87.4501 16.1474C87.735 16.013 87.9654 15.8077 88.1323 15.54L87.2859 15.01ZM87.0143 15.2478C85.7744 15.8689 84.5169 16.175 83.2372 16.175V17.175C84.6826 17.175 86.092 16.8278 87.4605 16.1422L87.0143 15.2478ZM90.5883 16.36L90.9414 16.0064L90.5883 16.36ZM90.5883 4.52999L90.9414 4.88354L90.9479 4.87699L90.9542 4.87021L90.5883 4.52999ZM98.7809 5.26499L99.0983 4.87901L98.7809 5.26499ZM99.3748 9.76249L98.9623 9.48134L98.9611 9.48319L99.3748 9.76249ZM97.6804 11.005L97.5182 10.5321L95.9625 11.0679L97.5531 11.4884L97.6804 11.005ZM99.3923 12.58L98.9236 12.7519L98.9251 12.7559L98.9266 12.7599L99.3923 12.58ZM99.6368 16.36L99.9899 16.7135L99.6368 16.36ZM98.4839 16.3775L98.1173 16.7166L98.1308 16.7313L98.1455 16.7449L98.4839 16.3775ZM98.1171 13.665L97.6287 13.7674L97.6292 13.7698L98.1171 13.665ZM97.366 12.335L97.0131 12.6885L97.0159 12.6912L97.0186 12.6938L97.366 12.335ZM91.9508 11.74V11.24H91.4518V11.74H91.9508ZM91.7063 16.36L91.3669 15.9936L91.3599 15.9999L91.3534 16.0064L91.7063 16.36ZM97.4882 9.63999L97.2115 9.22396L97.2095 9.22524L97.2078 9.22651L97.4882 9.63999ZM97.6105 6.34999L97.3126 6.75111L97.3148 6.75274L97.3171 6.75436L97.6105 6.34999ZM91.9508 5.78999V5.28999H91.4518V5.78999H91.9508ZM91.9508 10.235H91.4518V10.735H91.9508V10.235ZM91.1473 16.0875C91.0535 16.0875 90.9956 16.0609 90.9414 16.0064L90.2355 16.7135C90.484 16.9624 90.7987 17.0875 91.1473 17.0875V16.0875ZM90.9414 16.0064C90.887 15.952 90.8603 15.894 90.8603 15.8H89.8622C89.8622 16.1493 89.9872 16.4647 90.2355 16.7135L90.9414 16.0064ZM90.8603 15.8V5.08999H89.8622V15.8H90.8603ZM90.8603 5.08999C90.8603 4.99596 90.887 4.93799 90.9414 4.88354L90.2355 4.17644C89.9872 4.42531 89.8622 4.74066 89.8622 5.08999H90.8603ZM90.9542 4.87021C91.0118 4.80811 91.0657 4.78499 91.1473 4.78499V3.78499C90.7865 3.78499 90.4681 3.92519 90.2228 4.18976L90.9542 4.87021ZM91.1473 4.78499H95.2174V3.78499H91.1473V4.78499ZM95.2174 4.78499C96.7453 4.78499 97.7984 5.10211 98.4637 5.65096L99.0983 4.87901C98.1797 4.12121 96.8571 3.78499 95.2174 3.78499V4.78499ZM98.4637 5.65096C99.1362 6.20574 99.4696 6.91954 99.4696 7.83749H100.468C100.468 6.63211 100.01 5.63089 99.0983 4.87901L98.4637 5.65096ZM99.4696 7.83749C99.4696 8.43639 99.3024 8.98024 98.9623 9.48134L99.7875 10.0436C100.239 9.37806 100.468 8.63859 100.468 7.83749H99.4696ZM98.9611 9.48319C98.6459 9.95181 98.1765 10.3055 97.5182 10.5321L97.8428 11.4778C98.6751 11.1912 99.3354 10.7165 99.7888 10.0418L98.9611 9.48319ZM97.5531 11.4884C98.2309 11.6676 98.6761 12.0743 98.9236 12.7519L99.8609 12.4081C99.5031 11.4291 98.8068 10.7857 97.8079 10.5215L97.5531 11.4884ZM98.9266 12.7599C99.2213 13.5251 99.3648 14.2692 99.3648 14.995H100.363C100.363 14.1341 100.192 13.2682 99.8579 12.4001L98.9266 12.7599ZM99.3648 14.995V15.8H100.363V14.995H99.3648ZM99.3648 15.8C99.3648 15.894 99.3384 15.952 99.284 16.0064L99.9899 16.7135C100.238 16.4647 100.363 16.1493 100.363 15.8H99.3648ZM99.284 16.0064C99.2296 16.0609 99.1719 16.0875 99.0778 16.0875V17.0875C99.4267 17.0875 99.7414 16.9624 99.9899 16.7135L99.284 16.0064ZM99.0778 16.0875C98.9338 16.0875 98.865 16.0493 98.8226 16.0101L98.1455 16.7449C98.4058 16.9857 98.7327 17.0875 99.0778 17.0875V16.0875ZM98.8507 16.0383C98.8073 15.9912 98.7734 15.9253 98.7734 15.8H97.7752C97.7752 16.1414 97.8813 16.4604 98.1173 16.7166L98.8507 16.0383ZM98.7734 15.8V15.275H97.7752V15.8H98.7734ZM98.7734 15.275C98.7734 14.662 98.7185 14.0897 98.6052 13.5602L97.6292 13.7698C97.7256 14.2203 97.7752 14.7213 97.7752 15.275H98.7734ZM98.6057 13.5626C98.4789 12.9555 98.1752 12.4249 97.7136 11.9762L97.0186 12.6938C97.3487 13.015 97.5459 13.3711 97.6287 13.7674L98.6057 13.5626ZM97.7191 11.9814C97.1953 11.4567 96.4449 11.24 95.5667 11.24V12.24C96.2959 12.24 96.7451 12.4199 97.0131 12.6885L97.7191 11.9814ZM95.5667 11.24H91.9508V12.24H95.5667V11.24ZM91.4518 11.74V15.8H92.4499V11.74H91.4518ZM91.4518 15.8C91.4518 15.8817 91.4288 15.9359 91.3669 15.9936L92.0459 16.7264C92.3102 16.4807 92.4499 16.1616 92.4499 15.8H91.4518ZM91.3534 16.0064C91.299 16.0609 91.2414 16.0875 91.1473 16.0875V17.0875C91.4962 17.0875 91.8108 16.9624 92.0594 16.7135L91.3534 16.0064ZM95.1126 10.735C96.1736 10.735 97.0757 10.5257 97.769 10.0535L97.2078 9.22651C96.7364 9.54761 96.0546 9.73499 95.1126 9.73499V10.735ZM97.7652 10.056C98.4999 9.56534 98.8782 8.84816 98.8782 7.95999H97.88C97.88 8.51846 97.6647 8.92131 97.2115 9.22396L97.7652 10.056ZM98.8782 7.95999C98.8782 7.11909 98.5603 6.42374 97.9042 5.94561L97.3171 6.75436C97.6856 7.02291 97.88 7.40089 97.88 7.95999H98.8782ZM97.9085 5.94886C97.2714 5.47381 96.2685 5.28999 95.0252 5.28999V6.28999C96.2278 6.28999 96.9485 6.47951 97.3126 6.75111L97.9085 5.94886ZM95.0252 5.28999H91.9508V6.28999H95.0252V5.28999ZM91.4518 5.78999V10.235H92.4499V5.78999H91.4518ZM91.9508 10.735H95.1126V9.73499H91.9508V10.735ZM101.487 16.36L101.12 16.6991L101.127 16.7065L101.134 16.7135L101.487 16.36ZM101.365 15.45L100.905 15.255L100.904 15.2577L101.365 15.45ZM105.819 4.91499L105.363 4.71191L105.361 4.71594L105.36 4.71996L105.819 4.91499ZM106.203 4.40749L106.512 4.80064L106.514 4.79929L106.515 4.79791L106.203 4.40749ZM107.618 4.40749L107.294 4.78711L107.308 4.79946L107.323 4.81069L107.618 4.40749ZM108.02 4.91499L108.48 4.71996L108.478 4.71594L108.476 4.71191L108.02 4.91499ZM112.474 15.45L112.935 15.2577L112.934 15.255L112.474 15.45ZM112.335 16.36L111.982 16.0064L111.975 16.0135L111.968 16.0208L112.335 16.36ZM111.321 16.465L111.028 16.8694L111.048 16.8842L111.07 16.8969L111.321 16.465ZM111.025 16.0975L110.564 16.2898L110.568 16.2985L110.572 16.307L111.025 16.0975ZM109.889 13.3675L110.35 13.1752L110.222 12.8675H109.889V13.3675ZM103.95 13.3675V12.8675H103.617L103.489 13.1752L103.95 13.3675ZM102.815 16.0975L103.268 16.307L103.272 16.2985L103.275 16.2898L102.815 16.0975ZM102.5 16.465L102.768 16.8868L102.773 16.884L102.777 16.881L102.5 16.465ZM104.561 11.915L104.1 11.7232L103.814 12.415H104.561V11.915ZM109.278 11.915V12.415H110.026L109.739 11.7232L109.278 11.915ZM106.92 6.22749L107.38 6.03569L106.92 4.92406L106.459 6.03569L106.92 6.22749ZM102.063 16.0875C101.95 16.0875 101.889 16.0556 101.84 16.0064L101.134 16.7135C101.388 16.9677 101.711 17.0875 102.063 17.0875V16.0875ZM101.854 16.0208C101.806 15.9687 101.776 15.9061 101.776 15.8H100.778C100.778 16.1372 100.889 16.4479 101.12 16.6991L101.854 16.0208ZM101.776 15.8C101.776 15.804 101.776 15.7932 101.783 15.7638C101.791 15.735 101.804 15.6949 101.826 15.6423L100.904 15.2577C100.834 15.4252 100.778 15.6122 100.778 15.8H101.776ZM101.824 15.645L106.279 5.11001L105.36 4.71996L100.905 15.255L101.824 15.645ZM106.275 5.11806C106.339 4.97446 106.419 4.87344 106.512 4.80064L105.895 4.01434C105.662 4.19819 105.486 4.43551 105.363 4.71191L106.275 5.11806ZM106.515 4.79791C106.593 4.73559 106.69 4.69749 106.832 4.69749V3.69749C106.486 3.69749 106.163 3.79939 105.892 4.01706L106.515 4.79791ZM106.832 4.69749H107.007V3.69749H106.832V4.69749ZM107.007 4.69749C107.15 4.69749 107.233 4.73554 107.294 4.78711L107.943 4.02786C107.677 3.79944 107.353 3.69749 107.007 3.69749V4.69749ZM107.323 4.81069C107.424 4.88444 107.504 4.98281 107.564 5.11806L108.476 4.71191C108.35 4.42716 108.163 4.18721 107.913 4.00429L107.323 4.81069ZM107.561 5.11001L112.015 15.645L112.934 15.255L108.48 4.71996L107.561 5.11001ZM112.014 15.6423C112.036 15.6949 112.049 15.735 112.056 15.7638C112.063 15.7932 112.063 15.804 112.063 15.8H113.061C113.061 15.6122 113.005 15.4252 112.935 15.2577L112.014 15.6423ZM112.063 15.8C112.063 15.894 112.036 15.952 111.982 16.0064L112.688 16.7135C112.936 16.4647 113.061 16.1493 113.061 15.8H112.063ZM111.968 16.0208C111.936 16.0561 111.889 16.0875 111.776 16.0875V17.0875C112.128 17.0875 112.454 16.9672 112.701 16.6991L111.968 16.0208ZM111.776 16.0875C111.7 16.0875 111.636 16.0698 111.573 16.0331L111.07 16.8969C111.287 17.0235 111.525 17.0875 111.776 17.0875V16.0875ZM111.615 16.0606C111.56 16.0202 111.514 15.9663 111.478 15.888L110.572 16.307C110.675 16.532 110.827 16.7231 111.028 16.8694L111.615 16.0606ZM111.485 15.9052L110.35 13.1752L109.428 13.5598L110.564 16.2898L111.485 15.9052ZM109.889 12.8675H103.95V13.8675H109.889V12.8675ZM103.489 13.1752L102.354 15.9052L103.275 16.2898L104.411 13.5598L103.489 13.1752ZM102.362 15.888C102.33 15.9552 102.287 16.0064 102.223 16.049L102.777 16.881C102.993 16.7369 103.159 16.5431 103.268 16.307L102.362 15.888ZM102.232 16.0432C102.19 16.07 102.139 16.0875 102.063 16.0875V17.0875C102.314 17.0875 102.554 17.0233 102.768 16.8868L102.232 16.0432ZM104.561 12.415H109.278V11.415H104.561V12.415ZM109.739 11.7232L107.38 6.03569L106.459 6.41929L108.817 12.1068L109.739 11.7232ZM106.459 6.03569L104.1 11.7232L105.022 12.1068L107.38 6.41929L106.459 6.03569ZM114.66 16.36L115.013 16.0064L114.66 16.36ZM114.764 4.54749L115.117 4.90104L115.122 4.89651L115.126 4.89186L114.764 4.54749ZM116.756 4.72249L117.166 4.43784L117.159 4.42789L117.152 4.41826L116.756 4.72249ZM123.481 14.4525L123.071 14.7371L123.98 16.0529V14.4525H123.481ZM123.708 4.44249L124.061 4.79604L124.067 4.78949L124.074 4.78271L123.708 4.44249ZM124.826 4.44249L124.46 4.78271L124.473 4.79629L124.486 4.80889L124.826 4.44249ZM124.721 16.255L124.377 15.8925L124.373 15.8969L124.368 15.9014L124.721 16.255ZM123.184 16.465L122.937 16.8991L122.949 16.906L122.961 16.9122L123.184 16.465ZM122.782 16.115L122.372 16.3996L122.377 16.4074L122.383 16.415L122.782 16.115ZM116.022 6.33249L116.432 6.04789L115.523 4.73186V6.33249H116.022ZM115.778 16.36L115.438 15.9936L115.431 15.9999L115.425 16.0064L115.778 16.36ZM115.219 16.0875C115.125 16.0875 115.067 16.0609 115.013 16.0064L114.307 16.7135C114.555 16.9624 114.87 17.0875 115.219 17.0875V16.0875ZM115.013 16.0064C114.958 15.952 114.932 15.894 114.932 15.8H113.933C113.933 16.1493 114.058 16.4647 114.307 16.7135L115.013 16.0064ZM114.932 15.8V5.35249H113.933V15.8H114.932ZM114.932 5.35249C114.932 5.16936 114.99 5.02844 115.117 4.90104L114.412 4.19394C114.096 4.50989 113.933 4.90561 113.933 5.35249H114.932ZM115.126 4.89186C115.256 4.75546 115.394 4.69749 115.568 4.69749V3.69749C115.113 3.69749 114.716 3.87286 114.403 4.20311L115.126 4.89186ZM115.568 4.69749H115.795V3.69749H115.568V4.69749ZM115.795 4.69749C115.983 4.69749 116.167 4.77494 116.36 5.02671L117.152 4.41826C116.809 3.97004 116.352 3.69749 115.795 3.69749V4.69749ZM116.346 5.00714L123.071 14.7371L123.891 14.1678L117.166 4.43784L116.346 5.00714ZM123.98 14.4525V5.00249H122.982V14.4525H123.98ZM123.98 5.00249C123.98 4.90846 124.007 4.85049 124.061 4.79604L123.355 4.08894C123.107 4.33781 122.982 4.65316 122.982 5.00249H123.98ZM124.074 4.78271C124.131 4.72061 124.186 4.69749 124.267 4.69749V3.69749C123.906 3.69749 123.588 3.83769 123.342 4.10226L124.074 4.78271ZM124.267 4.69749C124.349 4.69749 124.403 4.72061 124.46 4.78271L125.192 4.10226C124.947 3.83769 124.628 3.69749 124.267 3.69749V4.69749ZM124.486 4.80889C124.548 4.86654 124.572 4.92074 124.572 5.00249H125.57C125.57 4.64091 125.43 4.32176 125.166 4.07609L124.486 4.80889ZM124.572 5.00249V15.45H125.57V5.00249H124.572ZM124.572 15.45C124.572 15.6246 124.514 15.7629 124.377 15.8925L125.065 16.6175C125.395 16.3037 125.57 15.9054 125.57 15.45H124.572ZM124.368 15.9014C124.241 16.0288 124.1 16.0875 123.918 16.0875V17.0875C124.364 17.0875 124.759 16.9245 125.074 16.6085L124.368 15.9014ZM123.918 16.0875H123.708V17.0875H123.918V16.0875ZM123.708 16.0875C123.598 16.0875 123.5 16.0639 123.407 16.0178L122.961 16.9122C123.195 17.0294 123.446 17.0875 123.708 17.0875V16.0875ZM123.432 16.0309C123.323 15.9688 123.242 15.8964 123.182 15.815L122.383 16.415C122.532 16.6136 122.719 16.7745 122.937 16.8991L123.432 16.0309ZM123.193 15.8304L116.432 6.04789L115.612 6.61709L122.372 16.3996L123.193 15.8304ZM115.523 6.33249V15.8H116.521V6.33249H115.523ZM115.523 15.8C115.523 15.8817 115.5 15.9359 115.438 15.9936L116.117 16.7264C116.381 16.4807 116.521 16.1616 116.521 15.8H115.523ZM115.425 16.0064C115.37 16.0609 115.312 16.0875 115.219 16.0875V17.0875C115.567 17.0875 115.882 16.9624 116.13 16.7135L115.425 16.0064ZM130.813 16.36L130.46 16.7135L130.813 16.36ZM130.586 5.77249H131.085V5.27249H130.586V5.77249ZM126.498 5.56249L126.145 5.91604L126.498 5.56249ZM126.498 4.51249L126.851 4.86604L126.858 4.85896L126.865 4.85164L126.498 4.51249ZM136.246 4.51249L135.879 4.85164L135.892 4.86631L135.907 4.87989L136.246 4.51249ZM136.246 5.56249L135.907 5.19509L135.9 5.20186L135.893 5.20894L136.246 5.56249ZM132.175 5.77249V5.27249H131.676V5.77249H132.175ZM131.931 16.36L131.592 15.9936L131.585 15.9999L131.578 16.0064L131.931 16.36ZM131.372 16.0875C131.278 16.0875 131.22 16.0609 131.166 16.0064L130.46 16.7135C130.709 16.9624 131.023 17.0875 131.372 17.0875V16.0875ZM131.166 16.0064C131.112 15.952 131.085 15.894 131.085 15.8H130.087C130.087 16.1493 130.212 16.4647 130.46 16.7135L131.166 16.0064ZM131.085 15.8V5.77249H130.087V15.8H131.085ZM130.586 5.27249H127.022V6.27249H130.586V5.27249ZM127.022 5.27249C126.936 5.27249 126.891 5.24904 126.851 5.20894L126.145 5.91604C126.385 6.15594 126.689 6.27249 127.022 6.27249V5.27249ZM126.851 5.20894C126.811 5.16884 126.788 5.12381 126.788 5.03749H125.79C125.79 5.37116 125.906 5.67614 126.145 5.91604L126.851 5.20894ZM126.788 5.03749C126.788 4.95116 126.811 4.90614 126.851 4.86604L126.145 4.15894C125.906 4.39884 125.79 4.70381 125.79 5.03749H126.788ZM126.865 4.85164C126.909 4.80451 126.949 4.78499 127.022 4.78499V3.78499C126.676 3.78499 126.368 3.91714 126.132 4.17334L126.865 4.85164ZM127.022 4.78499H135.721V3.78499H127.022V4.78499ZM135.721 4.78499C135.795 4.78499 135.836 4.80451 135.879 4.85164L136.612 4.17334C136.376 3.91714 136.068 3.78499 135.721 3.78499V4.78499ZM135.907 4.87989C135.954 4.92339 135.974 4.96426 135.974 5.03749H136.972C136.972 4.69071 136.84 4.38159 136.584 4.14509L135.907 4.87989ZM135.974 5.03749C135.974 5.11071 135.954 5.15159 135.907 5.19509L136.584 5.92989C136.84 5.69339 136.972 5.38426 136.972 5.03749H135.974ZM135.893 5.20894C135.853 5.24904 135.808 5.27249 135.721 5.27249V6.27249C136.055 6.27249 136.359 6.15594 136.599 5.91604L135.893 5.20894ZM135.721 5.27249H132.175V6.27249H135.721V5.27249ZM131.676 5.77249V15.8H132.675V5.77249H131.676ZM131.676 15.8C131.676 15.8817 131.653 15.9359 131.592 15.9936L132.271 16.7264C132.535 16.4807 132.675 16.1616 132.675 15.8H131.676ZM131.578 16.0064C131.524 16.0609 131.466 16.0875 131.372 16.0875V17.0875C131.721 17.0875 132.035 16.9624 132.284 16.7135L131.578 16.0064Z" fill="white"/>
</g>
<defs>
<clipPath id="clip0_1_189">
<rect width="137" height="22" fill="white"/>
</clipPath>
</defs>
</svg>
