<?xml version="1.0" encoding="utf-8"?><svg xmlns="http://www.w3.org/2000/svg" xmlns:xlink="http://www.w3.org/1999/xlink"><symbol viewBox="0 0 33 8" id="arrowSlider" xmlns="http://www.w3.org/2000/svg"><path d="M.646 4.354a.5.5 0 0 1 0-.708L3.828.464a.5.5 0 1 1 .708.708L1.707 4l2.829 2.828a.5.5 0 1 1-.708.708L.646 4.354ZM33 4.5H1v-1h32v1Z"/></symbol><symbol viewBox="0 0 43 43" id="arrowToTop" xmlns="http://www.w3.org/2000/svg"><path d="M2 41 42 1m0 0H2m40 0v40"/></symbol><symbol viewBox="0 0 28 28" id="close" xmlns="http://www.w3.org/2000/svg"><path d="M21 7 7 21M7 7l14 14"/></symbol><symbol viewBox="0 0 18 22" id="document" xmlns="http://www.w3.org/2000/svg"><path d="M11 1H3a2 2 0 0 0-2 2v16a2 2 0 0 0 2 2h12a2 2 0 0 0 2-2V7m-6-6 6 6m-6-6v6h6m-4 5H5m8 4H5m2-8H5"/></symbol><symbol viewBox="0 0 17 17" id="email" xmlns="http://www.w3.org/2000/svg"><path d="M11.5 5.5v3.75a2.25 2.25 0 0 0 4.5 0V8.5a7.5 7.5 0 1 0-2.94 5.954M11.5 8.5a3 3 0 1 1-6 0 3 3 0 0 1 6 0Z"/></symbol><symbol viewBox="0 0 14 17" id="geolocation" xmlns="http://www.w3.org/2000/svg"><path d="M13 7.136C13 11.91 7 16 7 16s-6-4.09-6-8.864a6.21 6.21 0 0 1 1.757-4.339A5.933 5.933 0 0 1 7 1c1.591 0 3.117.647 4.243 1.797A6.208 6.208 0 0 1 13 7.137Z"/><path d="M7 9.182c1.105 0 2-.916 2-2.046s-.895-2.045-2-2.045-2 .916-2 2.045c0 1.13.895 2.046 2 2.046Z"/></symbol><symbol viewBox="0 0 137 22" id="logo" xmlns="http://www.w3.org/2000/svg"><g clip-path="url(#a)"><path d="M14.13 13.454c-.744.205-1.188.981-.89 1.694a10.919 10.919 0 0 0 3.148 4.222 10.888 10.888 0 0 0 16.899-4.105A10.936 10.936 0 0 0 30.709 2.92 10.89 10.89 0 0 0 19.507.678c-.723.268-.985 1.123-.627 1.808.358.684 1.2.936 1.935.7a8.091 8.091 0 0 1 7.992 1.785 8.125 8.125 0 0 1 1.917 9.18 8.114 8.114 0 0 1-3.228 3.708 8.094 8.094 0 0 1-9.339-.655 8.118 8.118 0 0 1-2.195-2.813c-.33-.698-1.089-1.143-1.832-.937Z"/><path d="m14.046 13.406 6.662-2.48a1.34 1.34 0 0 1 .931 2.511l-6.662 2.48a1.34 1.34 0 0 1-.932-2.511Z"/><path d="m14.046 13.406 6.662-2.48a1.34 1.34 0 0 1 .931 2.511l-6.662 2.48a1.34 1.34 0 0 1-.932-2.511Z"/><path d="M20.06 8.383c.742-.206 1.186-.98.888-1.69a10.917 10.917 0 0 0-3.15-4.226A10.887 10.887 0 0 0 .902 6.573 10.937 10.937 0 0 0 3.48 18.916a10.891 10.891 0 0 0 11.204 2.242c.722-.268.983-1.12.626-1.804-.357-.683-1.198-.934-1.93-.698a8.097 8.097 0 0 1-8.003-1.785 8.13 8.13 0 0 1-1.919-9.187 8.122 8.122 0 0 1 3.231-3.711 8.1 8.1 0 0 1 9.346.655 8.124 8.124 0 0 1 2.199 2.82c.329.696 1.086 1.14 1.828.935Z"/><path d="M20.06 8.383c.742-.206 1.186-.98.888-1.69a10.917 10.917 0 0 0-3.15-4.226A10.887 10.887 0 0 0 .902 6.573 10.937 10.937 0 0 0 3.48 18.916a10.891 10.891 0 0 0 11.204 2.242c.722-.268.983-1.12.626-1.804-.357-.683-1.198-.934-1.93-.698a8.097 8.097 0 0 1-8.003-1.785 8.13 8.13 0 0 1-1.919-9.187 8.122 8.122 0 0 1 3.231-3.711 8.1 8.1 0 0 1 9.346.655 8.124 8.124 0 0 1 2.199 2.82c.329.696 1.086 1.14 1.828.935Z"/><path d="m20.142 8.432-6.662 2.48a1.34 1.34 0 0 1-.931-2.51L19.21 5.92a1.34 1.34 0 0 1 .931 2.51Z"/><path d="m20.142 8.432-6.662 2.48a1.34 1.34 0 0 1-.931-2.51L19.21 5.92a1.34 1.34 0 0 1 .931 2.51Zm24.881 8.243c-1.2 0-2.265-.262-3.197-.788a5.596 5.596 0 0 1-2.166-2.222c-.512-.957-.768-2.042-.768-3.255 0-1.237.267-2.333.803-3.29a5.719 5.719 0 0 1 2.184-2.223c.931-.525 1.962-.787 3.092-.787.908 0 1.7.11 2.375.332a8.698 8.698 0 0 1 1.974.928.616.616 0 0 1 .245.245c.07.117.104.245.104.385a.69.69 0 0 1-.21.507c-.127.14-.302.21-.523.21a.81.81 0 0 1-.367-.087 7.256 7.256 0 0 0-1.642-.735 6.205 6.205 0 0 0-1.782-.245c-.885 0-1.683.187-2.393.56-.71.373-1.27.922-1.677 1.645-.396.712-.594 1.563-.594 2.555 0 .91.187 1.727.56 2.45a4.334 4.334 0 0 0 1.641 1.697c.722.409 1.572.613 2.55.613a6.294 6.294 0 0 0 3.057-.77v-3.168h-2.882a.69.69 0 0 1-.506-.21.692.692 0 0 1-.21-.507c0-.198.07-.367.21-.508a.69.69 0 0 1 .506-.21h3.441a.81.81 0 0 1 .594.245.811.811 0 0 1 .245.595v3.973a1.2 1.2 0 0 1-.192.665 1.097 1.097 0 0 1-.472.42c-1.304.653-2.638.98-4 .98Zm7.91-.175a.759.759 0 0 1-.559-.227.762.762 0 0 1-.227-.56V5.09c0-.222.076-.408.227-.56a.732.732 0 0 1 .56-.245h7.004c.21 0 .384.076.524.227.151.14.227.315.227.525 0 .21-.076.385-.227.525a.71.71 0 0 1-.524.21h-6.201V9.64h5.572c.21 0 .384.076.524.227.151.14.227.315.227.525 0 .21-.076.386-.227.526a.71.71 0 0 1-.524.21h-5.572v3.884h6.2c.21 0 .385.076.525.228.151.14.227.315.227.525 0 .21-.076.385-.227.525a.71.71 0 0 1-.524.21h-7.005Zm13.27.087a.76.76 0 0 1-.559-.227.763.763 0 0 1-.227-.56V5.772h-3.563a.713.713 0 0 1-.734-.735c0-.21.07-.385.21-.525a.683.683 0 0 1 .524-.227h8.7c.209 0 .383.076.523.227.152.14.227.315.227.525 0 .21-.075.385-.227.525a.71.71 0 0 1-.524.21h-3.546V15.8a.734.734 0 0 1-.245.56.758.758 0 0 1-.558.227Zm5.414-4.287a.722.722 0 0 1-.506-.193.724.724 0 0 1-.192-.507c0-.198.064-.367.192-.508a.69.69 0 0 1 .506-.21h3.302a.69.69 0 0 1 .506.21c.14.14.21.31.21.508s-.07.367-.21.508a.722.722 0 0 1-.506.192h-3.302Zm11.62 4.375c-1.2 0-2.265-.262-3.197-.788a5.596 5.596 0 0 1-2.166-2.222c-.512-.957-.768-2.042-.768-3.255 0-1.237.268-2.333.803-3.29a5.719 5.719 0 0 1 2.184-2.223c.931-.525 1.962-.787 3.092-.787.908 0 1.7.11 2.375.332a8.69 8.69 0 0 1 1.974.928.616.616 0 0 1 .245.245c.07.117.105.245.105.385a.69.69 0 0 1-.21.507c-.128.14-.303.21-.524.21a.81.81 0 0 1-.367-.087 7.256 7.256 0 0 0-1.642-.735 6.205 6.205 0 0 0-1.782-.245c-.885 0-1.682.187-2.393.56-.71.373-1.27.922-1.677 1.645-.396.712-.594 1.563-.594 2.555 0 .91.187 1.727.56 2.45a4.334 4.334 0 0 0 1.641 1.697c.722.409 1.573.613 2.55.613a6.295 6.295 0 0 0 3.058-.77v-3.168H83.62a.69.69 0 0 1-.506-.21.692.692 0 0 1-.21-.507c0-.198.07-.367.21-.508a.69.69 0 0 1 .507-.21h3.44a.81.81 0 0 1 .595.245.811.811 0 0 1 .244.595v3.973a1.2 1.2 0 0 1-.192.665 1.096 1.096 0 0 1-.472.42c-1.304.653-2.637.98-4 .98Zm7.91-.088a.759.759 0 0 1-.559-.227.762.762 0 0 1-.227-.56V5.09c0-.222.076-.408.227-.56a.732.732 0 0 1 .56-.245h4.07c1.583 0 2.771.327 3.563.98.792.653 1.188 1.51 1.188 2.572 0 .7-.198 1.342-.594 1.925-.385.572-.95.986-1.695 1.243.839.222 1.41.747 1.712 1.575a6.69 6.69 0 0 1 .472 2.415v.805a.761.761 0 0 1-.227.56.758.758 0 0 1-.56.227c-.244 0-.442-.07-.593-.21a.819.819 0 0 1-.21-.577v-.525c0-.583-.052-1.12-.157-1.61a2.558 2.558 0 0 0-.751-1.33c-.396-.397-.996-.595-1.8-.595h-3.615v4.06a.734.734 0 0 1-.245.56.758.758 0 0 1-.559.227Zm3.965-6.352c1.002 0 1.794-.198 2.376-.595.594-.397.891-.957.891-1.68 0-.7-.256-1.237-.769-1.61-.5-.373-1.362-.56-2.585-.56h-3.074v4.445h3.162Zm6.951 6.352a.778.778 0 0 1-.576-.227.795.795 0 0 1-.21-.56c0-.093.029-.21.088-.35l4.454-10.535c.093-.21.221-.38.384-.508a.976.976 0 0 1 .629-.21h.175c.244 0 .448.07.611.21.175.129.309.298.402.508l4.454 10.535c.059.14.088.257.088.35a.763.763 0 0 1-.227.56.724.724 0 0 1-.559.227.888.888 0 0 1-.455-.122.925.925 0 0 1-.297-.367l-1.135-2.73h-5.939l-1.136 2.73a.865.865 0 0 1-.314.367.793.793 0 0 1-.437.122Zm2.498-4.672h4.717l-2.359-5.688-2.358 5.688Zm10.658 4.672a.757.757 0 0 1-.559-.227.76.76 0 0 1-.227-.56V5.352c0-.315.11-.583.331-.805.222-.233.49-.35.804-.35h.227c.373 0 .693.175.961.525l6.725 9.73v-9.45c0-.221.076-.408.227-.56a.734.734 0 0 1 .559-.245c.221 0 .408.082.559.245a.735.735 0 0 1 .245.56V15.45c0 .315-.117.583-.35.805a1.092 1.092 0 0 1-.803.332h-.21a1.15 1.15 0 0 1-.524-.122 1.305 1.305 0 0 1-.402-.35l-6.76-9.783V15.8a.738.738 0 0 1-.244.56.76.76 0 0 1-.559.227Zm16.153 0a.759.759 0 0 1-.559-.227.763.763 0 0 1-.227-.56V5.772h-3.564a.712.712 0 0 1-.524-.21.711.711 0 0 1-.209-.525c0-.21.069-.385.209-.525a.684.684 0 0 1 .524-.227h8.699c.21 0 .385.076.524.227.152.14.228.315.228.525 0 .21-.076.385-.228.525a.708.708 0 0 1-.524.21h-3.546V15.8a.734.734 0 0 1-.244.56.759.759 0 0 1-.559.227Z"/><path d="m41.826 15.887-.248.434.002.001.002.001.244-.436Zm-2.166-2.222-.44.236.002.003.438-.239Zm.035-6.545.435.245-.435-.245Zm2.184-2.223-.245-.435-.002.001.247.434Zm5.467-.455-.155.476h.002l.153-.476Zm1.974.928-.266.423.021.013.022.011.223-.447Zm.245.245-.428.257.428-.257Zm-.105.892-.353-.353-.008.008-.007.008.368.337Zm-.891.123-.256.43.016.009.017.008.223-.447Zm-1.642-.735.142-.48-.142.48Zm-4.175.315.232.443-.232-.443Zm-1.677 1.645-.434-.246-.002.003.436.243Zm-.035 5.005-.443.23.002.004.002.004.44-.238Zm1.642 1.697-.254.431.005.003.004.002.245-.436Zm5.607-.157.239.44.26-.143V14.4h-.498Zm0-3.168h.5v-.5h-.5v.5Zm1.206 4.043-.42-.272-.001.004-.002.003.423.265Zm-.472.42-.212-.452-.006.002-.005.003.223.447Zm-4 .48c-1.125 0-2.104-.245-2.952-.723l-.49.871c1.016.572 2.168.852 3.442.852v-1Zm-2.948-.721a5.097 5.097 0 0 1-1.976-2.028l-.877.478a6.094 6.094 0 0 0 2.355 2.417l.498-.867ZM40.1 13.429c-.469-.876-.71-1.878-.71-3.019h-.997c0 1.286.272 2.454.828 3.491l.879-.472Zm-.71-3.019c0-1.162.252-2.173.74-3.045l-.87-.49c-.583 1.04-.867 2.224-.867 3.535h.998Zm.74-3.045a5.22 5.22 0 0 1 1.996-2.033l-.494-.869a6.218 6.218 0 0 0-2.372 2.412l.87.49Zm1.993-2.032c.853-.48 1.799-.723 2.848-.723v-1c-1.21 0-2.326.282-3.337.852l.49.871Zm2.848-.723c.869 0 1.606.106 2.22.308l.31-.95c-.737-.243-1.583-.358-2.53-.358v1Zm2.222.308a8.19 8.19 0 0 1 1.861.875l.532-.846a9.193 9.193 0 0 0-2.087-.98l-.306.951Zm1.904.9c-.014-.008.004-.005.04.054l.856-.514a1.11 1.11 0 0 0-.45-.435l-.446.894Zm.04.054A.235.235 0 0 1 49.17 6h.999a1.24 1.24 0 0 0-.176-.642l-.856.514ZM49.17 6a.194.194 0 0 1-.063.154l.706.707c.233-.234.356-.53.356-.861h-.999Zm-.078.17c-.018.019-.05.047-.156.047v1c.336 0 .653-.11.892-.372l-.736-.675Zm-.156.047a.31.31 0 0 1-.144-.034l-.446.894c.184.093.383.14.59.14v-1Zm-.111-.017a7.759 7.759 0 0 0-1.756-.784l-.285.958c.504.15 1.014.378 1.53.686l.51-.86Zm-1.756-.784a6.704 6.704 0 0 0-1.924-.266v1c.598 0 1.144.076 1.64.224l.285-.958Zm-1.924-.266c-.957 0-1.836.203-2.625.617l.464.886c.631-.332 1.349-.503 2.161-.503v-1Zm-2.625.617a4.568 4.568 0 0 0-1.88 1.842l.87.492a3.568 3.568 0 0 1 1.474-1.448l-.464-.886Zm-1.88 1.845c-.446.8-.658 1.74-.658 2.798h.998c0-.925.185-1.689.531-2.312l-.872-.486Zm-.658 2.798c0 .98.202 1.877.615 2.68l.887-.46c-.332-.644-.504-1.38-.504-2.22h-.998Zm.62 2.688a4.836 4.836 0 0 0 1.827 1.89l.507-.861a3.835 3.835 0 0 1-1.457-1.505l-.878.476Zm1.835 1.895c.81.458 1.747.677 2.796.677v-1c-.908 0-1.67-.189-2.305-.548l-.491.87Zm2.796.677a6.793 6.793 0 0 0 3.295-.83l-.477-.88a5.796 5.796 0 0 1-2.818.71v1Zm3.556-1.27v-3.168h-.999V14.4h.999Zm-.5-3.668h-2.882v1h2.883v-1Zm-2.882 0a.193.193 0 0 1-.153-.063l-.706.707c.233.234.53.357.86.357v-1Zm-.153-.063a.194.194 0 0 1-.064-.154h-.998c0 .33.122.627.356.861l.706-.707Zm-.064-.154c0-.066.018-.108.064-.154l-.706-.707a1.19 1.19 0 0 0-.356.861h.998Zm.064-.154a.193.193 0 0 1 .153-.064v-1c-.33 0-.626.123-.86.357l.707.707Zm.153-.064h3.442v-1h-3.442v1Zm3.442 0c.102 0 .172.03.24.099l.706-.707a1.306 1.306 0 0 0-.947-.392v1Zm.24.099a.31.31 0 0 1 .099.241h.998c0-.364-.133-.69-.39-.948l-.706.707Zm.099.241v3.973h.998v-3.973h-.998Zm0 3.973c0 .152-.038.28-.112.393l.838.544a1.7 1.7 0 0 0 .272-.937h-.998Zm-.116.4a.597.597 0 0 1-.261.233l.425.904c.285-.134.515-.34.682-.607l-.846-.53Zm-.272.238c-1.24.62-2.497.927-3.777.927v1c1.445 0 2.855-.347 4.223-1.033l-.446-.894Zm3.574 1.025.353-.354-.353.354Zm0-11.743.353.354.007-.007.006-.007-.366-.34Zm8.088-.018-.367.34.014.014.014.014.34-.368Zm0 1.05-.339-.367-.007.007-.007.007.353.353Zm-6.725.21v-.5h-.5v.5h.5Zm0 3.868h-.5v.5h.5v-.5Zm6.096.227-.367.34.014.014.015.014.338-.368Zm0 1.05-.338-.367-.008.007-.007.007.353.354Zm-6.096.21v-.5h-.5v.5h.5Zm0 3.885h-.5v.5h.5v-.5Zm6.725.228-.367.34.014.014.014.013.34-.367Zm0 1.05-.339-.367-.007.006-.007.007.353.354ZM52.933 16a.262.262 0 0 1-.206-.081l-.706.707c.249.249.563.374.912.374v-1Zm-.206-.081a.263.263 0 0 1-.08-.207h-.999c0 .35.125.665.373.914l.706-.707Zm-.08-.207V5.09h-.999v10.623h.998Zm0-10.622c0-.094.026-.152.08-.206l-.706-.708a1.262 1.262 0 0 0-.373.914h.998Zm.093-.22a.236.236 0 0 1 .193-.085v-1c-.36 0-.68.14-.925.405l.732.68Zm.193-.085h7.005v-1h-7.005v1Zm7.005 0c.073 0 .114.02.157.067l.734-.679a1.18 1.18 0 0 0-.891-.388v1Zm.185.095a.188.188 0 0 1 .067.157h.998c0-.346-.132-.655-.388-.892l-.677.735Zm.067.157c0 .074-.02.115-.067.158l.677.735c.256-.237.388-.546.388-.893h-.998Zm-.081.172c-.04.04-.085.063-.171.063v1c.333 0 .637-.116.877-.356l-.706-.707Zm-.171.063h-6.201v1h6.201v-1Zm-6.7.5V9.64h.998V5.772h-.998Zm.499 4.368h5.572v-1h-5.572v1Zm5.572 0c.073 0 .114.02.157.067l.734-.679a1.18 1.18 0 0 0-.89-.388v1Zm.186.095a.188.188 0 0 1 .066.158h.998c0-.347-.132-.656-.387-.893l-.677.735Zm.066.158c0 .073-.02.114-.066.157l.677.735c.255-.237.387-.546.387-.893h-.998Zm-.08.17c-.04.041-.086.064-.172.064v1c.333 0 .638-.116.877-.356l-.706-.707Zm-.172.064h-5.572v1h5.572v-1Zm-6.071.5v3.885h.998v-3.885h-.998Zm.499 4.385h6.201v-1h-6.201v1Zm6.201 0c.073 0 .114.02.157.067l.734-.678a1.18 1.18 0 0 0-.891-.389v1Zm.185.095a.188.188 0 0 1 .067.158h.998c0-.347-.132-.656-.388-.892l-.677.734Zm.067.158a.19.19 0 0 1-.067.158l.677.734c.256-.236.388-.545.388-.892h-.998Zm-.081.171c-.04.04-.085.064-.171.064v1c.333 0 .637-.117.877-.357l-.706-.707Zm-.171.064h-7.005v1h7.005v-1Zm5.707.36-.353.354.353-.354Zm-.227-10.588h.499v-.5h-.5v.5Zm-4.088-.21-.353.354.353-.354Zm0-1.05.353.354.007-.007.007-.007-.367-.34Zm9.747 0-.366.34.013.014.015.014.338-.368Zm0 1.05-.338-.367-.008.007-.007.007.353.353Zm-4.07.21v-.5h-.499v.5h.5Zm-.244 10.588-.34-.366-.007.006-.006.006.353.354Zm-.56-.273a.262.262 0 0 1-.206-.08l-.705.706c.248.25.563.374.912.374v-1Zm-.206-.08a.264.264 0 0 1-.08-.207h-.999c0 .35.125.665.374.913l.706-.707Zm-.08-.207V5.772h-.999V15.8h.999Zm-.5-10.528h-3.563v1h3.564v-1Zm-3.563 0c-.086 0-.131-.023-.171-.063l-.706.707c.24.24.544.356.877.356v-1Zm-.171-.063c-.04-.04-.064-.085-.064-.172h-.998c0 .334.117.64.356.879l.706-.707Zm-.064-.172c0-.086.024-.13.064-.171l-.706-.707a1.21 1.21 0 0 0-.356.878h.998Zm.078-.185a.187.187 0 0 1 .157-.067v-1a1.18 1.18 0 0 0-.89.388l.733.679Zm.157-.067h8.7v-1h-8.7v1Zm8.7 0a.19.19 0 0 1 .157.067l.733-.679a1.181 1.181 0 0 0-.89-.388v1Zm.185.095a.188.188 0 0 1 .066.157h.998c0-.346-.131-.655-.387-.892l-.677.735Zm.066.157a.19.19 0 0 1-.066.158l.677.735c.256-.237.387-.546.387-.893h-.998Zm-.08.172c-.04.04-.086.063-.172.063v1c.333 0 .638-.116.877-.356l-.706-.707Zm-.172.063h-3.546v1h3.546v-1Zm-4.045.5V15.8h.998V5.772h-.998Zm0 10.028a.236.236 0 0 1-.085.194l.68.732c.263-.245.403-.564.403-.926h-.998Zm-.098.206a.262.262 0 0 1-.206.081v1c.348 0 .663-.125.911-.373l-.705-.708Zm4.7-3.899-.367.338.014.016.016.015.338-.369Zm0-1.014-.352-.354-.008.008-.007.008.368.337Zm4.316 1.014.337.37.008-.008.007-.008-.353-.354Zm-3.808-.307a.226.226 0 0 1-.17-.061l-.674.737c.236.217.526.324.844.324v-1Zm-.14-.03a.227.227 0 0 1-.06-.17h-.998c0 .317.106.609.323.845l.736-.675Zm-.06-.17a.23.23 0 0 1 .06-.17l-.735-.675a1.226 1.226 0 0 0-.323.845h.998Zm.046-.154a.193.193 0 0 1 .154-.063v-1c-.33 0-.627.122-.86.356l.706.707Zm.154-.063h3.3v-1h-3.3v1Zm3.3 0c.067 0 .108.017.155.063l.705-.707a1.188 1.188 0 0 0-.86-.357v1Zm.155.063a.194.194 0 0 1 .063.154h.998c0-.33-.122-.627-.356-.861l-.705.707Zm.063.154a.194.194 0 0 1-.063.154l.705.707a1.19 1.19 0 0 0 .356-.861h-.998Zm-.048.139a.225.225 0 0 1-.17.061v1c.318 0 .609-.107.845-.324l-.675-.737Zm-.17.061h-3.3v1h3.3v-1Zm5.123 4.087-.25.434.003.001.002.001.245-.436Zm-2.166-2.222-.44.236v.003l.44-.239Zm.034-6.545.436.245-.436-.245Zm2.184-2.223-.245-.435-.002.001.247.434Zm5.468-.455-.156.476h.002l.154-.476Zm1.973.928-.266.423.021.013.022.011.223-.447Zm.245.245-.428.257.428-.257Zm-.105.892-.353-.353-.007.008-.008.008.368.337Zm-.89.123-.256.43.016.009.016.008.223-.447Zm-1.643-.735.143-.48-.143.48Zm-4.175.315.232.443-.232-.443ZM79.29 7.855l-.434-.246-.002.003.436.243Zm-.035 5.005-.443.23.002.004.003.004.438-.238Zm1.642 1.697-.253.431.004.003.004.002.246-.436Zm5.608-.157.238.44.26-.143V14.4h-.498Zm0-3.168h.499v-.5h-.5v.5Zm1.205 4.043-.419-.272-.002.004-.002.003.423.265Zm-.472.42-.212-.452-.005.002-.006.003.223.447Zm-4 .48c-1.124 0-2.104-.245-2.952-.723l-.49.871c1.016.572 2.168.852 3.442.852v-1Zm-2.948-.721a5.097 5.097 0 0 1-1.976-2.028l-.877.478a6.096 6.096 0 0 0 2.356 2.417l.497-.867Zm-1.975-2.025c-.469-.876-.709-1.878-.709-3.019h-.998c0 1.286.272 2.454.828 3.491l.88-.472Zm-.709-3.019c0-1.162.251-2.173.74-3.045l-.87-.49c-.583 1.04-.868 2.224-.868 3.535h.998Zm.74-3.045a5.22 5.22 0 0 1 1.995-2.033l-.494-.869a6.217 6.217 0 0 0-2.372 2.412l.87.49Zm1.993-2.032c.852-.48 1.798-.723 2.847-.723v-1c-1.21 0-2.326.282-3.337.852l.49.871Zm2.847-.723c.87 0 1.607.106 2.22.308l.311-.95c-.737-.243-1.584-.358-2.531-.358v1Zm2.222.308a8.19 8.19 0 0 1 1.861.875l.532-.846a9.195 9.195 0 0 0-2.087-.98l-.305.951Zm1.904.9c-.014-.008.004-.005.04.054l.856-.514a1.11 1.11 0 0 0-.45-.435l-.446.894Zm.04.054a.236.236 0 0 1 .034.128h.998c0-.228-.058-.446-.176-.642l-.856.514Zm.034.128a.194.194 0 0 1-.064.154l.706.707A1.19 1.19 0 0 0 88.384 6h-.998Zm-.079.17c-.017.019-.049.047-.156.047v1c.336 0 .653-.11.892-.372l-.736-.675Zm-.156.047a.31.31 0 0 1-.144-.034l-.446.894a1.3 1.3 0 0 0 .59.14v-1ZM87.04 6.2a7.76 7.76 0 0 0-1.755-.784L85 6.374c.503.15 1.013.378 1.529.686l.51-.86Zm-1.755-.784a6.705 6.705 0 0 0-1.925-.266v1a5.71 5.71 0 0 1 1.64.224l.285-.958ZM83.36 5.15c-.957 0-1.835.203-2.624.617l.463.886c.632-.332 1.349-.503 2.162-.503v-1Zm-2.624.617a4.568 4.568 0 0 0-1.88 1.842l.87.492a3.568 3.568 0 0 1 1.473-1.448l-.463-.886Zm-1.882 1.845c-.445.8-.657 1.74-.657 2.798h.999c0-.925.184-1.689.53-2.312l-.871-.486Zm-.657 2.798c0 .98.202 1.877.615 2.68l.887-.46c-.332-.644-.503-1.38-.503-2.22h-.999Zm.62 2.688a4.835 4.835 0 0 0 1.827 1.89l.507-.861a3.836 3.836 0 0 1-1.457-1.505l-.877.476Zm1.835 1.895c.81.458 1.747.677 2.796.677v-1c-.908 0-1.67-.189-2.305-.548l-.49.87Zm2.796.677a6.793 6.793 0 0 0 3.295-.83l-.477-.88a5.796 5.796 0 0 1-2.818.71v1Zm3.556-1.27v-3.168h-.998V14.4h.998Zm-.5-3.668h-2.882v1h2.883v-1Zm-2.882 0a.193.193 0 0 1-.153-.063l-.706.707c.234.234.53.357.86.357v-1Zm-.153-.063a.194.194 0 0 1-.064-.154h-.998c0 .33.122.627.356.861l.706-.707Zm-.064-.154c0-.066.018-.108.064-.154l-.706-.707a1.19 1.19 0 0 0-.356.861h.998Zm.064-.154a.193.193 0 0 1 .153-.064v-1c-.33 0-.625.123-.859.357l.706.707Zm.153-.064h3.442v-1H83.62v1Zm3.442 0c.102 0 .172.03.24.099l.707-.707a1.306 1.306 0 0 0-.947-.392v1Zm.24.099c.07.068.1.14.1.241h.997c0-.364-.133-.69-.39-.948l-.706.707Zm.1.241v3.973h.997v-3.973h-.998Zm0 3.973c0 .152-.039.28-.113.393l.838.544a1.7 1.7 0 0 0 .272-.937h-.998Zm-.117.4a.598.598 0 0 1-.261.233l.425.904c.285-.134.515-.34.682-.607l-.846-.53Zm-.272.238c-1.24.62-2.497.927-3.777.927v1c1.446 0 2.855-.347 4.224-1.033l-.447-.894Zm3.574 1.112.353-.354-.353.354Zm0-11.83.353.354.007-.007.006-.007-.366-.34Zm8.193.735.317-.386-.317.386Zm.594 4.497-.413-.28v.001l.413.28Zm-1.695 1.243-.162-.473-1.555.536 1.59.42.127-.483Zm1.712 1.575-.468.172.001.004.002.004.465-.18Zm.245 3.78.353.354-.353-.354Zm-1.153.018-.367.339.014.014.014.014.339-.367Zm-.367-2.713-.488.102v.003l.488-.105Zm-.751-1.33-.353.353.003.003.003.003.347-.359Zm-5.415-.595v-.5h-.5v.5h.5Zm-.245 4.62-.34-.366-.006.006-.007.006.353.354Zm5.782-6.72-.276-.416-.002.001-.002.002.28.413Zm.123-3.29-.298.401.002.002.002.001.294-.404Zm-5.66-.56v-.5h-.5v.5h.5Zm0 4.445h-.5v.5h.5v-.5Zm-.804 5.852a.262.262 0 0 1-.206-.08l-.706.706c.249.25.564.374.912.374v-1Zm-.206-.08a.263.263 0 0 1-.08-.207h-.999c0 .35.125.665.374.913l.705-.707Zm-.08-.207V5.09h-.999V15.8h.998Zm0-10.71c0-.094.026-.152.08-.206l-.706-.708a1.262 1.262 0 0 0-.373.914h.998Zm.093-.22a.236.236 0 0 1 .193-.085v-1c-.36 0-.679.14-.924.405l.731.68Zm.193-.085h4.07v-1h-4.07v1Zm4.07 0c1.528 0 2.581.317 3.247.866l.634-.772c-.918-.758-2.24-1.094-3.88-1.094v1Zm3.247.866c.672.555 1.006 1.269 1.006 2.186h.998c0-1.205-.458-2.206-1.37-2.958l-.634.772Zm1.006 2.186c0 .6-.168 1.143-.508 1.644l.825.563a3.856 3.856 0 0 0 .681-2.207h-.998Zm-.509 1.646c-.315.469-.784.822-1.443 1.05l.325.945c.832-.287 1.492-.761 1.946-1.436l-.828-.559Zm-1.408 2.005c.678.18 1.123.586 1.37 1.264l.938-.344c-.358-.979-1.054-1.622-2.053-1.886l-.255.966Zm1.374 1.272c.294.765.438 1.51.438 2.235h.998c0-.86-.171-1.727-.505-2.595l-.931.36Zm.438 2.235v.805h.998v-.805h-.998Zm0 .805a.263.263 0 0 1-.081.206l.706.707c.248-.248.373-.564.373-.913h-.998Zm-.081.206a.262.262 0 0 1-.206.081v1c.349 0 .663-.125.912-.373l-.706-.708Zm-.206.081c-.144 0-.213-.038-.255-.077l-.677.735c.26.24.587.342.932.342v-1Zm-.227-.049c-.044-.047-.078-.113-.078-.238h-.998c0 .341.106.66.342.917l.734-.679Zm-.078-.238v-.525h-.998v.525h.998Zm0-.525a8.2 8.2 0 0 0-.168-1.715l-.976.21c.097.45.146.951.146 1.505h.998Zm-.167-1.712a3.058 3.058 0 0 0-.892-1.587l-.695.718c.33.321.527.677.61 1.073l.977-.204Zm-.887-1.582c-.524-.524-1.274-.741-2.152-.741v1c.729 0 1.178.18 1.446.448l.706-.707Zm-2.152-.741H91.95v1h3.616v-1Zm-4.115.5v4.06h.998v-4.06h-.998Zm0 4.06a.237.237 0 0 1-.085.194l.679.732c.264-.245.404-.564.404-.926h-.998Zm-.099.206a.262.262 0 0 1-.206.081v1c.35 0 .664-.125.912-.373l-.706-.708Zm3.76-5.271c1.06 0 1.963-.21 2.656-.681l-.561-.827c-.472.32-1.153.508-2.095.508v1Zm2.652-.679c.735-.49 1.113-1.208 1.113-2.096h-.998c0 .558-.215.961-.668 1.264l.553.832Zm1.113-2.096c0-.84-.318-1.536-.974-2.014l-.587.808c.369.269.563.647.563 1.206h.998Zm-.97-2.011c-.637-.475-1.64-.659-2.883-.659v1c1.203 0 1.923.19 2.288.461l.596-.802Zm-2.883-.659h-3.074v1h3.074v-1Zm-3.573.5v4.445h.998V5.79h-.998Zm.499 4.945h3.162v-1H91.95v1Zm9.536 5.625-.367.34.007.006.007.008.353-.354Zm-.122-.91-.46-.195-.001.003.461.192Zm4.454-10.535-.456-.203-.002.004-.001.004.459.195Zm.384-.508.309.394.002-.002.001-.001-.312-.39Zm1.415 0-.324.38.014.012.015.012.295-.404Zm.402.508.46-.195-.002-.004-.002-.004-.456.203Zm4.454 10.535.461-.192-.001-.003-.46.195Zm-.139.91-.353-.354-.007.008-.007.007.367.339Zm-1.014.105-.293.404.02.015.022.013.251-.432Zm-.296-.367-.461.192.004.009.004.008.453-.21Zm-1.136-2.73.461-.193-.128-.308h-.333v.5Zm-5.939 0v-.5h-.333l-.128.307.461.192Zm-1.135 2.73.453.209.004-.008.003-.01-.46-.192Zm-.315.367.268.422.005-.003.004-.003-.277-.416Zm2.061-4.55-.461-.192-.286.692h.747v-.5Zm4.717 0v.5h.748l-.287-.692-.461.192Zm-2.358-5.688.46-.191-.46-1.112-.461 1.112.461.191Zm-4.857 9.86c-.113 0-.174-.031-.223-.08l-.706.706c.254.255.577.374.929.374v-1Zm-.209-.066a.298.298 0 0 1-.078-.221h-.998c0 .337.111.648.342.9l.734-.68Zm-.078-.221c0 .004 0-.007.007-.036a.981.981 0 0 1 .043-.122l-.922-.384c-.07.167-.126.354-.126.542h.998Zm.048-.155L106.28 5.11l-.919-.39-4.455 10.535.919.39Zm4.451-10.527a.805.805 0 0 1 .237-.317l-.617-.787a1.813 1.813 0 0 0-.532.698l.912.406Zm.24-.32a.479.479 0 0 1 .317-.1v-1a1.47 1.47 0 0 0-.94.32l.623.78Zm.317-.1h.175v-1h-.175v1Zm.175 0c.143 0 .226.038.287.09l.649-.76a1.402 1.402 0 0 0-.936-.33v1Zm.316.113a.736.736 0 0 1 .241.307l.912-.406a1.729 1.729 0 0 0-.563-.708l-.59.807Zm.238.299 4.454 10.535.919-.39L108.48 4.72l-.919.39Zm4.453 10.532a.84.84 0 0 1 .042.122c.007.03.007.04.007.036h.998c0-.188-.056-.375-.126-.542l-.921.384Zm.049.158a.265.265 0 0 1-.081.206l.706.707c.248-.248.373-.564.373-.913h-.998Zm-.095.22c-.032.036-.079.067-.192.067v1c.352 0 .678-.12.925-.388l-.733-.678Zm-.192.067a.387.387 0 0 1-.203-.054l-.503.864c.217.127.455.19.706.19v-1Zm-.161-.026a.427.427 0 0 1-.137-.173l-.906.419c.103.225.255.416.456.562l.587-.808Zm-.13-.156-1.135-2.73-.922.385 1.136 2.73.921-.385Zm-1.596-3.037h-5.939v1h5.939v-1Zm-6.4.307-1.135 2.73.921.385 1.136-2.73-.922-.385Zm-1.127 2.713a.382.382 0 0 1-.139.161l.554.832c.216-.144.382-.338.491-.574l-.906-.419Zm-.13.155a.297.297 0 0 1-.169.044v1c.251 0 .491-.064.705-.2l-.536-.844Zm2.329-3.628h4.717v-1h-4.717v1Zm5.178-.692-2.359-5.687-.921.383 2.358 5.688.922-.384Zm-3.28-5.687-2.359 5.687.922.384 2.358-5.688-.921-.383Zm8.201 10.324.353-.354-.353.354Zm.104-11.813.353.354.005-.004.004-.005-.362-.345Zm1.992.175.41-.284-.007-.01-.007-.01-.396.304Zm6.725 9.73-.41.285.909 1.316v-1.6h-.499Zm.227-10.01.353.354.006-.007.007-.006-.366-.34Zm1.118 0-.366.34.013.014.013.013.34-.367Zm-.105 11.813-.344-.362-.004.004-.005.004.353.354Zm-1.537.21-.247.434.012.007.012.006.223-.447Zm-.402-.35-.41.285.005.007.006.008.399-.3Zm-6.76-9.783.41-.284-.909-1.316v1.6h.499Zm-.244 10.028-.34-.366-.007.006-.006.006.353.354Zm-.559-.273a.261.261 0 0 1-.206-.08l-.706.706c.248.25.563.374.912.374v-1Zm-.206-.08a.261.261 0 0 1-.081-.207h-.999c0 .35.125.665.374.913l.706-.707Zm-.081-.207V5.352h-.999V15.8h.999Zm0-10.448c0-.183.058-.324.185-.451l-.705-.707a1.596 1.596 0 0 0-.479 1.158h.999Zm.194-.46a.572.572 0 0 1 .442-.195v-1c-.455 0-.852.176-1.165.506l.723.689Zm.442-.195h.227v-1h-.227v1Zm.227 0c.188 0 .372.078.565.33l.792-.609c-.343-.448-.8-.72-1.357-.72v1Zm.551.31 6.725 9.73.82-.57-6.725-9.73-.82.57Zm7.634 9.446v-9.45h-.998v9.45h.998Zm0-9.45c0-.095.027-.153.081-.207l-.706-.707a1.263 1.263 0 0 0-.373.913h.998Zm.094-.22a.236.236 0 0 1 .193-.086v-1c-.361 0-.679.14-.925.405l.732.68Zm.193-.086c.082 0 .136.024.193.086l.732-.68a1.23 1.23 0 0 0-.925-.406v1Zm.219.112a.238.238 0 0 1 .086.193h.998c0-.361-.14-.68-.404-.926l-.68.733Zm.086.193V15.45h.998V5.002h-.998Zm0 10.448a.57.57 0 0 1-.195.443l.688.724a1.57 1.57 0 0 0 .505-1.167h-.998Zm-.204.451a.596.596 0 0 1-.45.186v1a1.59 1.59 0 0 0 1.156-.479l-.706-.707Zm-.45.186h-.21v1h.21v-1Zm-.21 0a.662.662 0 0 1-.301-.07l-.446.895c.234.117.485.175.747.175v-1Zm-.276-.056a.786.786 0 0 1-.25-.216l-.799.6c.149.199.336.36.554.484l.495-.868Zm-.239-.2-6.761-9.783-.82.57 6.76 9.782.821-.57Zm-7.67-9.499V15.8h.998V6.332h-.998Zm0 9.468a.237.237 0 0 1-.085.194l.679.732c.264-.245.404-.564.404-.926h-.998Zm-.098.206a.264.264 0 0 1-.206.081v1c.348 0 .663-.125.911-.373l-.705-.708Zm15.388.354-.353.354.353-.354Zm-.227-10.588h.499v-.5h-.499v.5Zm-4.088-.21-.353.354.353-.354Zm0-1.05.353.354.007-.007.007-.007-.367-.34Zm9.748 0-.367.34.013.014.015.014.339-.368Zm0 1.05-.339-.367-.007.007-.007.007.353.353Zm-4.071.21v-.5h-.499v.5h.499Zm-.244 10.588-.339-.366-.007.006-.007.006.353.354Zm-.559-.273a.261.261 0 0 1-.206-.08l-.706.706c.249.25.563.374.912.374v-1Zm-.206-.08a.265.265 0 0 1-.081-.207h-.998c0 .35.125.665.373.913l.706-.707Zm-.081-.207V5.772h-.998V15.8h.998Zm-.499-10.528h-3.564v1h3.564v-1Zm-3.564 0c-.086 0-.131-.023-.171-.063l-.706.707c.24.24.544.356.877.356v-1Zm-.171-.063c-.04-.04-.063-.085-.063-.172h-.998c0 .334.116.64.355.879l.706-.707Zm-.063-.172c0-.086.023-.13.063-.171l-.706-.707c-.239.24-.355.545-.355.878h.998Zm.077-.185a.187.187 0 0 1 .157-.067v-1a1.18 1.18 0 0 0-.89.388l.733.679Zm.157-.067h8.699v-1h-8.699v1Zm8.699 0c.074 0 .115.02.158.067l.733-.679a1.18 1.18 0 0 0-.891-.388v1Zm.186.095a.188.188 0 0 1 .067.157h.998c0-.346-.132-.655-.388-.892l-.677.735Zm.067.157c0 .074-.02.115-.067.158l.677.735c.256-.237.388-.546.388-.893h-.998Zm-.081.172c-.04.04-.085.063-.172.063v1c.334 0 .638-.116.878-.356l-.706-.707Zm-.172.063h-3.546v1h3.546v-1Zm-4.045.5V15.8h.999V5.772h-.999Zm0 10.028a.239.239 0 0 1-.084.194l.679.732c.264-.245.404-.564.404-.926h-.999Zm-.098.206a.261.261 0 0 1-.206.081v1c.349 0 .663-.125.912-.373l-.706-.708Z"/></g><defs><clipPath id="a"><path d="M0 0h137v22H0z"/></clipPath></defs></symbol><symbol viewBox="0 0 17 17" id="phone" xmlns="http://www.w3.org/2000/svg"><path d="M10.291 3.867a3.593 3.593 0 0 1 2.837 2.831M10.29 1a6.468 6.468 0 0 1 3.854 1.847A6.446 6.446 0 0 1 16 6.691m-.718 5.72v2.15a1.432 1.432 0 0 1-1.566 1.433 14.23 14.23 0 0 1-6.197-2.2 13.99 13.99 0 0 1-4.309-4.3 14.167 14.167 0 0 1-2.204-6.215 1.43 1.43 0 0 1 .85-1.44c.182-.08.38-.122.579-.122h2.154A1.438 1.438 0 0 1 6.025 2.95c.091.688.26 1.363.503 2.014a1.43 1.43 0 0 1-.323 1.512l-.912.91a11.479 11.479 0 0 0 4.309 4.3l.912-.91a1.438 1.438 0 0 1 1.515-.322 9.236 9.236 0 0 0 2.018.502 1.437 1.437 0 0 1 1.235 1.455Z"/></symbol><symbol viewBox="0 0 31 31" id="play" xmlns="http://www.w3.org/2000/svg"><path d="M15.5 30C23.508 30 30 23.508 30 15.5S23.508 1 15.5 1 1 7.492 1 15.5 7.492 30 15.5 30Z"/><path d="M12.6 13.437c0-1.597 1.78-2.55 3.11-1.664l3.094 2.063a2 2 0 0 1 0 3.328l-3.095 2.063c-1.329.886-3.109-.067-3.109-1.664v-4.126Z"/></symbol><symbol viewBox="0 0 20 17" id="telegram" xmlns="http://www.w3.org/2000/svg"><path d="M2.24 7.454C8.804 4.696 14.858 1.684 18.081 1c.78-.015.974.558.906 1.3-.25 2.633-1.329 9.025-1.877 11.975-.521 2.873-2.256 1.528-3.758.453-1.458-.96-2.281-1.558-3.697-2.497-1.635-1.084-.576-1.678.357-2.653.245-.254 4.482-4.13 4.565-4.482.051-.25-.144-.425-.42-.327-.147.034-2.476 1.582-6.988 4.643-.661.455-1.26.68-1.797.667-.59-.013-1.728-.336-2.575-.614C.881 8.982.201 8.272 2.24 7.454Z"/></symbol><symbol viewBox="0 0 15 15" id="whatsapp" xmlns="http://www.w3.org/2000/svg"><path fill-rule="evenodd" d="M7.314.012C1.812.35-1.443 5.852 1 10.69c.242.48.241.465.09.901-.149.43-.7 2.041-.899 2.627-.3.885-.303.881.405.657l.829-.262c.628-.198 1.49-.472 1.986-.631.597-.192.61-.192.962-.018 4.408 2.18 9.823-.665 10.526-5.53.163-1.133.134-1.809-.126-2.851-.832-3.344-4.09-5.776-7.459-5.57Zm.513 1.266c5.818.311 8.041 7.504 3.389 10.963-1.906 1.418-4.574 1.568-6.663.377-.379-.216-.333-.217-1.07.022-1.336.434-1.35.438-1.425.413-.13-.042-.123-.071.22-1.084.388-1.14.382-.984.054-1.514-2.373-3.837.335-8.91 4.9-9.176.282-.016.306-.016.595 0ZM4.913 3.79c-.342.122-.74.605-.907 1.099-.285.846-.093 1.582.734 2.818 1.133 1.695 2.203 2.526 4.062 3.155 1.24.42 2.442-.124 2.624-1.186.078-.453.04-.492-1.004-1.03-.863-.443-.87-.444-1.222-.036-.572.66-.598.671-1.03.462a4.96 4.96 0 0 1-2.093-1.87c-.283-.45-.284-.528-.008-.824.503-.54.503-.537.182-1.393-.386-1.03-.41-1.08-.564-1.157-.13-.066-.628-.09-.774-.038Z" clip-rule="evenodd"/></symbol></svg>