<svg width="20" height="17" viewBox="0 0 20 17" fill="none" xmlns="http://www.w3.org/2000/svg">
<path d="M2.2402 7.45368C8.80426 4.69618 14.858 1.68432 18.0815 1.00029C18.8619 0.985323 19.0554 1.5582 18.9874 2.29994C18.7365 4.93346 17.6584 11.3249 17.1098 14.2747C16.5888 17.1477 14.8537 15.8031 13.3525 14.7279C11.8938 13.7681 11.0709 13.1696 9.6548 12.2312C8.01963 11.1474 9.07856 10.5532 10.012 9.57845C10.2566 9.32407 14.4944 5.44862 14.5773 5.09591C14.6283 4.84582 14.4327 4.67053 14.1563 4.76886C14.0096 4.80306 11.6812 6.35068 7.16909 9.41171C6.50779 9.86702 5.90816 10.0915 5.37232 10.0786C4.78119 10.0658 3.6436 9.74304 2.79731 9.46515C0.881461 8.98206 0.201028 8.27238 2.2402 7.45368Z" stroke="white" stroke-width="0.8"/>
</svg>
