<svg width="33" height="20" viewBox="0 0 33 20" fill="none" xmlns="http://www.w3.org/2000/svg">
<path d="M30.456 2.45424C30.4932 2.3472 30.5026 2.24908 30.5026 2.15989C30.5026 2.08853 30.4932 2.02609 30.4653 1.99041C30.4374 1.95473 30.3723 1.91905 30.2793 1.8923C30.177 1.86554 30.0375 1.8477 29.8701 1.8477H26.5776C26.2613 1.8477 26.0474 1.91905 25.8893 2.03501C25.7312 2.15097 25.6289 2.31152 25.5452 2.48992L25.5359 2.49884C25.4149 2.78427 23.7501 6.55731 21.4155 9.06375L21.3969 9.08159C20.9877 9.47406 20.6901 9.73273 20.4296 9.89329C20.1134 10.0984 19.853 10.1698 19.5461 10.1698C19.2949 10.1698 18.9787 10.0271 18.7834 9.68813C18.6718 9.4919 18.5881 9.21539 18.5881 8.84968V2.58803C18.5881 2.27584 18.5509 2.06177 18.4671 1.95473C18.4113 1.88338 18.2904 1.8477 18.0951 1.8477H12.9145C12.7843 1.8477 12.682 1.88338 12.6169 1.94581C12.5518 2.00825 12.5146 2.07961 12.5146 2.15097C12.5146 2.29368 12.6448 2.44532 12.8122 2.64155C13.2028 3.1143 13.7423 3.7476 13.826 5.20151V9.88437C13.826 10.4731 13.7609 10.8299 13.6214 11.0707C13.426 11.4186 13.147 11.5078 12.775 11.5078C12.0402 11.5078 10.8962 10.375 9.75218 8.60885C8.74767 7.05682 7.69667 4.98744 6.91539 2.79319C6.91539 2.78427 6.90609 2.77535 6.90609 2.75751C6.77588 2.40072 6.65497 2.15989 6.49685 2.01717C6.35734 1.90122 6.16202 1.83878 5.85509 1.83878H2.56256C2.22772 1.83878 2.0417 1.8923 1.958 1.98149C1.89289 2.05285 1.87429 2.17773 1.87429 2.31152C1.87429 2.79319 2.28353 4.46118 3.51125 6.94978C4.30183 8.54641 5.42724 10.4463 6.9898 12.5514C8.28263 14.3353 9.83588 15.7179 11.4821 16.6634C13.1842 17.6445 14.9793 18.153 16.6814 18.153C17.6394 18.153 18.1509 18.0638 18.402 17.9032C18.5695 17.7962 18.5974 17.5999 18.5974 17.3502V14.5137C18.5974 13.9607 18.6718 13.6128 18.8764 13.372C19.1089 13.0955 19.4344 13.0152 19.8995 13.0152C20.2064 13.0152 20.6064 13.0865 21.2109 13.4166C21.7504 13.7198 22.4851 14.2461 23.4896 15.1738L23.499 15.1827C24.1686 15.8249 24.6709 16.3601 25.0894 16.8061C25.9637 17.7337 26.3636 18.1619 27.0519 18.1619H30.3444C30.5212 18.1619 30.6607 18.144 30.7816 18.1084C30.9025 18.0727 30.9955 18.0281 31.0513 17.9567C31.0978 17.8943 31.1257 17.8051 31.1257 17.698C31.1257 17.5999 31.1071 17.4929 31.0699 17.368C30.9397 16.9666 30.6142 16.4671 30.1677 15.8784C29.7027 15.2719 29.0888 14.5761 28.3819 13.818C28.3726 13.809 28.3726 13.8001 28.3633 13.8001C27.9913 13.372 27.517 12.926 27.0891 12.5335C26.6613 12.1321 26.2892 11.7843 26.0939 11.5167C25.7777 11.1242 25.6661 10.812 25.6847 10.4998C25.7126 10.1966 25.8521 9.95573 26.066 9.63462C26.0753 9.61678 26.0939 9.59894 26.1032 9.59002C26.4101 9.17079 30.0561 4.19358 30.4467 2.50776C30.4467 2.48992 30.456 2.481 30.456 2.46316V2.45424ZM31.3861 2.15989C31.3861 2.32936 31.3582 2.50776 31.3024 2.69507C30.8653 4.55929 27.1263 9.65246 26.8194 10.0717L26.8101 10.0806C26.6706 10.2947 26.5683 10.4552 26.559 10.5712C26.5497 10.6693 26.6148 10.8031 26.7822 11.0083C26.7822 11.0172 26.7915 11.0172 26.7915 11.0261C26.9403 11.2223 27.2937 11.5613 27.703 11.9448C28.1401 12.3551 28.6331 12.819 29.0237 13.2649L29.033 13.2739C29.7492 14.041 30.3723 14.7545 30.8653 15.3968C31.3768 16.0568 31.7396 16.6366 31.8977 17.1272V17.1361C31.9628 17.3502 31.9907 17.5375 31.9907 17.7159C31.9907 18.0281 31.8977 18.2867 31.721 18.5008C31.5536 18.706 31.3117 18.8487 31.0141 18.9379C30.8095 18.9914 30.5863 19.0271 30.3351 19.0271H27.0426C25.9637 19.0271 25.48 18.5097 24.429 17.3859C24.0291 16.9577 23.5362 16.4314 22.8758 15.7981C21.9271 14.924 21.2574 14.4334 20.7738 14.1658C20.3459 13.925 20.0855 13.8804 19.8995 13.8804C19.7042 13.8804 19.5926 13.8893 19.5647 13.925C19.4995 13.9964 19.4809 14.1926 19.4809 14.5405V17.3769C19.4809 17.8943 19.3879 18.3135 18.895 18.6346C18.4951 18.8933 17.8347 19.0271 16.6907 19.0271C14.8305 19.0271 12.8773 18.4741 11.045 17.4215C9.29643 16.4136 7.65017 14.9508 6.28293 13.0687C4.68317 10.9191 3.53915 8.97456 2.72997 7.35117C1.43714 4.73769 1 2.90022 1 2.35612C1 2.02609 1.07441 1.70498 1.33483 1.44631C1.57666 1.20548 1.9673 1.04492 2.57186 1.04492H5.86439C6.40384 1.04492 6.78518 1.1698 7.09211 1.44631C7.37114 1.69606 7.55716 2.04393 7.73387 2.5256C7.74317 2.53452 7.74317 2.55236 7.75248 2.56127C8.51515 4.70201 9.53825 6.70895 10.5056 8.21638C11.4915 9.74165 12.3564 10.7139 12.7843 10.7139H12.868C12.9331 10.6069 12.961 10.366 12.961 9.92897V5.27287C12.8866 4.10439 12.4587 3.58704 12.1425 3.21241C11.8635 2.88239 11.6496 2.63263 11.6496 2.18665C11.6496 1.88338 11.7891 1.58011 12.0495 1.35711C12.2727 1.1698 12.5704 1.04492 12.9331 1.04492H18.1137C18.616 1.04492 18.9601 1.18764 19.1926 1.49983C19.3972 1.76742 19.4809 2.14205 19.4809 2.63263V8.89428C19.4809 9.10835 19.5182 9.24215 19.5647 9.33134C19.5833 9.36702 19.5461 9.37594 19.5647 9.37594C19.6856 9.37594 19.8065 9.34026 19.9646 9.23323C20.1692 9.09943 20.4296 8.87644 20.7924 8.52857C23.0246 6.12024 24.6337 2.47208 24.7453 2.21341C24.7453 2.20449 24.7546 2.19557 24.7546 2.19557C24.8848 1.90122 25.0801 1.61578 25.3777 1.40171C25.6754 1.18764 26.066 1.04492 26.5962 1.04492H29.8887C30.1398 1.04492 30.363 1.07168 30.5491 1.1252C30.8374 1.20548 31.042 1.34819 31.1908 1.53551C31.3396 1.73174 31.4047 1.95473 31.4047 2.19557L31.3861 2.15989Z" fill="#5897FB" stroke="#5897FB" stroke-width="0.5"/>
</svg>
