<svg width="82" height="82" viewBox="0 0 82 82" fill="none" xmlns="http://www.w3.org/2000/svg">
<path d="M40.6293 2.32753e-07C33.5177 -0.000760928 26.5304 1.86538 20.366 5.41186C14.2017 8.95833 9.07641 14.0609 5.5025 20.2093C1.92859 26.3578 0.0313181 33.3367 0.000384417 40.4483C-0.0305493 47.5599 1.80593 54.5551 5.32622 60.7344L1.66997 73.5719C1.43561 74.4054 1.4275 75.2864 1.64647 76.1241C1.86544 76.9619 2.30359 77.7262 2.91587 78.3385C3.52815 78.9508 4.29246 79.3889 5.1302 79.6079C5.96795 79.8268 6.8489 79.8187 7.68247 79.5844L20.52 75.9281C25.9258 79.0062 31.9664 80.8018 38.1759 81.1763C44.3854 81.5508 50.598 80.4943 56.3346 78.0882C62.0713 75.6822 67.1788 71.9908 71.2632 67.2987C75.3477 62.6067 78.3001 57.0393 79.8927 51.0258C81.4854 45.0124 81.6758 38.7135 80.4492 32.6148C79.2226 26.5161 76.6118 20.7806 72.8182 15.8504C69.0245 10.9203 64.1493 6.92721 58.5684 4.17907C52.9876 1.43094 46.8501 0.0011694 40.6293 2.32753e-07V2.32753e-07ZM40.6293 78C33.9075 78.0156 27.3077 76.2041 21.5356 72.7594C21.2836 72.6311 21.0058 72.5616 20.7231 72.5563H20.2762L6.78872 76.4156C6.51313 76.4896 6.22291 76.4897 5.94728 76.4159C5.67164 76.342 5.4203 76.197 5.21853 75.9952C5.01676 75.7934 4.87167 75.5421 4.79787 75.2664C4.72407 74.9908 4.72414 74.7006 4.7981 74.425L8.65747 60.9375C8.77173 60.5127 8.71331 60.06 8.49497 59.6781C4.29106 52.5836 2.55151 44.298 3.5473 36.1119C4.54308 27.9257 8.21829 20.2987 14.0004 14.419C19.7826 8.53926 27.347 4.73691 35.5153 3.60423C43.6836 2.47156 51.9972 4.07218 59.161 8.15675C66.3249 12.2413 71.9367 18.5805 75.1224 26.1868C78.3081 33.7931 78.8887 42.2395 76.7738 50.2102C74.6589 58.1808 69.9673 65.2283 63.4297 70.2547C56.8922 75.2811 48.8758 78.0043 40.6293 78V78ZM61.145 48.1406L52.8575 43.4281C52.1018 42.9953 51.2447 42.7709 50.3739 42.7781C49.503 42.7852 48.6497 43.0236 47.9012 43.4688L42.295 46.8406C38.918 45.0892 36.1652 42.3364 34.4137 38.9594L37.7856 33.3531C38.2308 32.6046 38.4692 31.7513 38.4763 30.8805C38.4834 30.0097 38.2591 29.1525 37.8262 28.3969L33.1137 20.1094C32.7224 19.4316 32.16 18.8685 31.4827 18.4764C30.8054 18.0842 30.037 17.8769 29.2543 17.875C25.8136 17.875 22.5131 19.239 20.0763 21.6682C17.6395 24.0974 16.2651 27.3936 16.2543 30.8344C16.249 35.3192 17.1277 39.761 18.8403 43.9059C20.5528 48.0508 23.0656 51.8176 26.235 54.9907C29.4043 58.1638 33.168 60.681 37.3109 62.3985C41.4538 64.116 45.8946 65 50.3793 65H50.42C53.8607 64.9892 57.1569 63.6149 59.5861 61.1781C62.0153 58.7412 63.3794 55.4408 63.3793 52C63.3775 51.2174 63.1701 50.449 62.778 49.7717C62.3859 49.0944 61.8227 48.5319 61.145 48.1406V48.1406ZM50.42 61.75H50.3793C42.1871 61.7392 34.334 58.4773 28.545 52.6807C22.7559 46.884 19.5043 39.0267 19.5043 30.8344C19.5151 28.2556 20.5471 25.786 22.3744 23.9663C24.2017 22.1466 26.6755 21.125 29.2543 21.125C29.4624 21.1279 29.6659 21.1857 29.8443 21.2928C30.0227 21.3998 30.1696 21.5522 30.27 21.7344L35.0231 30.0219C35.1618 30.2776 35.2344 30.5638 35.2344 30.8547C35.2344 31.1456 35.1618 31.4318 35.0231 31.6875L31.2043 38.025C31.0637 38.2478 30.9823 38.5029 30.9681 38.766C30.9539 39.0291 31.0072 39.2915 31.1231 39.5281C33.2388 44.2424 37.012 48.0156 41.7262 50.1312C41.9629 50.2471 42.2253 50.3005 42.4884 50.2863C42.7515 50.272 43.0066 50.1907 43.2293 50.05L49.5668 46.2313C49.8225 46.0926 50.1088 46.0199 50.3997 46.0199C50.6905 46.0199 50.9768 46.0926 51.2325 46.2313L59.52 50.9844C59.7022 51.0848 59.8545 51.2317 59.9616 51.41C60.0686 51.5884 60.1265 51.792 60.1293 52C60.1294 54.5788 59.1077 57.0527 57.288 58.88C55.4683 60.7073 52.9988 61.7393 50.42 61.75V61.75Z" fill="#F9FFFF"/>
</svg>
