<svg width="15" height="15" viewBox="0 0 15 15" fill="none" xmlns="http://www.w3.org/2000/svg">
<path fill-rule="evenodd" clip-rule="evenodd" d="M7.31442 0.0121747C1.81155 0.34876 -1.44264 5.85116 0.999975 10.6891C1.24249 11.1694 1.24095 11.1541 1.09006 11.59C0.941482 12.0193 0.389873 13.6311 0.190999 14.217C-0.10936 15.102 -0.111658 15.0982 0.596442 14.874C0.812285 14.8057 1.18509 14.6878 1.42489 14.6122C2.0531 14.414 2.91545 14.1399 3.41114 13.9808C4.00826 13.7893 4.02031 13.789 4.37312 13.9635C8.78097 16.1431 14.1956 13.2979 14.8987 8.43271C15.0624 7.3 15.0326 6.62424 14.773 5.58168C13.9405 2.23837 10.6833 -0.19388 7.31442 0.0121747ZM7.82656 1.27823C13.6447 1.58934 15.8682 8.78223 11.2156 12.2415C9.30954 13.6587 6.64248 13.8093 4.55306 12.6179C4.17434 12.402 4.22002 12.401 3.48252 12.6402C2.14653 13.0736 2.13298 13.0775 2.05763 13.0529C1.92878 13.0108 1.93466 12.9819 2.2787 11.9688C2.66587 10.8287 2.66037 10.9852 2.33208 10.4545C-0.0412052 6.61754 2.66695 1.54585 7.23138 1.27934C7.51373 1.26285 7.53813 1.26281 7.82656 1.27823ZM4.91294 3.78923C4.5713 3.91063 4.17234 4.39389 4.00622 4.88752C3.7214 5.73398 3.91295 6.46989 4.73993 7.70624C5.87332 9.40067 6.94316 10.2315 8.80238 10.861C10.0411 11.2804 11.2436 10.7368 11.4261 9.6749C11.504 9.22181 11.4661 9.18291 10.4218 8.64544C9.55939 8.20153 9.55235 8.20132 9.19959 8.60873C8.62823 9.26863 8.6023 9.28025 8.16945 9.07107C7.28739 8.6448 6.60154 8.03148 6.07726 7.20013C5.79364 6.7504 5.79282 6.67258 6.0686 6.37668C6.57244 5.83606 6.57196 5.83977 6.25107 4.98387C5.86487 3.95372 5.84081 3.90438 5.687 3.82668C5.55764 3.76132 5.05931 3.73723 4.91294 3.78923Z" fill="black"/>
</svg>
