<svg width="833" height="475" viewBox="0 0 833 475" fill="none" xmlns="http://www.w3.org/2000/svg">
<rect x="0.5" y="0.5" width="812.628" height="473.456" rx="9.5" fill="white"/>
<rect x="0.5" y="0.5" width="812.628" height="473.456" rx="9.5" stroke="#5897FB"/>
<path d="M205.698 223.851C205.893 223.656 205.893 223.339 205.698 223.144L202.516 219.962C202.321 219.767 202.004 219.767 201.809 219.962C201.614 220.157 201.614 220.474 201.809 220.669L204.637 223.498L201.809 226.326C201.614 226.521 201.614 226.838 201.809 227.033C202.004 227.228 202.321 227.228 202.516 227.033L205.698 223.851ZM184.035 223.998L205.344 223.998L205.344 222.998L184.035 222.998L184.035 223.998Z" fill="#5897FB"/>
<path d="M648.611 162.121C648.416 162.316 648.416 162.633 648.611 162.828L651.793 166.01C651.989 166.205 652.305 166.205 652.501 166.01C652.696 165.815 652.696 165.498 652.501 165.303L649.672 162.475L652.501 159.646C652.696 159.451 652.696 159.134 652.501 158.939C652.305 158.744 651.989 158.744 651.793 158.939L648.611 162.121ZM676.086 161.975L648.965 161.975L648.965 162.975L676.086 162.975L676.086 161.975Z" fill="#24A2C8"/>
<path d="M648.611 314.679C648.416 314.874 648.416 315.191 648.611 315.386L651.793 318.568C651.989 318.763 652.305 318.763 652.501 318.568C652.696 318.372 652.696 318.056 652.501 317.861L649.672 315.032L652.501 312.204C652.696 312.009 652.696 311.692 652.501 311.497C652.305 311.301 651.989 311.301 651.793 311.497L648.611 314.679ZM676.086 314.532L648.965 314.532L648.965 315.532L676.086 315.532L676.086 314.532Z" fill="#24A2C8"/>
<path d="M205.698 400.819C205.893 400.624 205.893 400.307 205.698 400.112L202.516 396.93C202.321 396.735 202.004 396.735 201.809 396.93C201.614 397.125 201.614 397.442 201.809 397.637L204.637 400.465L201.809 403.294C201.614 403.489 201.614 403.806 201.809 404.001C202.004 404.196 202.321 404.196 202.516 404.001L205.698 400.819ZM178.224 400.965L205.345 400.965L205.345 399.965L178.224 399.965L178.224 400.965Z" fill="#5897FB"/>
<path d="M183.451 210.541C184.59 214.889 183.498 219.432 180.451 223.949C177.403 228.467 172.42 232.922 165.863 237.06C152.751 245.334 133.428 252.285 111 255.928C88.5731 259.571 67.3344 259.209 51.1348 255.696C43.0337 253.939 36.2191 251.4 31.1499 248.2C26.0826 245.002 22.7966 241.17 21.6579 236.822C20.5191 232.474 21.6114 227.93 24.6581 223.414C27.706 218.896 32.6886 214.441 39.2458 210.303C52.3581 202.028 71.6814 195.078 94.1087 191.435C116.536 187.792 137.775 188.154 153.974 191.667C162.075 193.424 168.89 195.963 173.959 199.163C179.026 202.361 182.312 206.193 183.451 210.541Z" stroke="#5897FB"/>
<path d="M184.677 216.677C185.284 221.086 183.648 225.525 180.068 229.792C176.487 234.061 170.987 238.122 163.958 241.749C149.902 249.001 129.824 254.469 107.057 256.411C84.2895 258.353 63.1901 256.398 47.4887 251.683C39.6366 249.326 33.1601 246.286 28.5014 242.72C23.8441 239.156 21.0395 235.096 20.4331 230.686C19.8266 226.277 21.4623 221.838 25.0424 217.571C28.6237 213.303 34.1235 209.241 41.1525 205.614C55.2081 198.362 75.2864 192.894 98.0536 190.952C120.821 189.01 141.92 190.966 157.622 195.68C165.474 198.037 171.95 201.077 176.609 204.643C181.266 208.208 184.071 212.267 184.677 216.677Z" stroke="#5897FB"/>
<path d="M626.818 237.119C627.721 240.697 626.646 244.492 623.803 248.316C620.961 252.141 616.382 255.948 610.394 259.517C598.421 266.653 580.904 272.781 560.682 276.19C540.46 279.598 521.405 279.634 506.954 276.951C499.726 275.61 493.678 273.593 489.215 271C484.752 268.407 481.928 265.27 481.025 261.692C480.121 258.114 481.197 254.319 484.039 250.495C486.882 246.67 491.46 242.863 497.449 239.294C509.422 232.158 526.938 226.03 547.161 222.621C567.383 219.213 586.437 219.177 600.889 221.86C608.116 223.201 614.165 225.218 618.627 227.811C623.09 230.404 625.915 233.541 626.818 237.119Z" stroke="#5897FB"/>
<path d="M628.205 244.443C628.529 248.076 626.859 251.732 623.426 255.245C619.995 258.758 614.844 262.081 608.332 265.029C595.312 270.922 576.954 275.265 556.347 276.642C535.74 278.019 516.83 276.166 502.92 272.072C495.964 270.024 490.285 267.424 486.272 264.409C482.259 261.393 479.961 258.003 479.637 254.369C479.313 250.735 480.984 247.08 484.416 243.566C487.848 240.054 492.999 236.73 499.51 233.783C512.53 227.89 530.888 223.546 551.495 222.169C572.103 220.793 591.013 222.646 604.922 226.74C611.878 228.787 617.557 231.388 621.57 234.403C625.584 237.418 627.882 240.809 628.205 244.443Z" stroke="#5897FB"/>
<path d="M626.818 115.073C627.721 118.651 626.646 122.445 623.803 126.27C620.961 130.094 616.382 133.902 610.394 137.471C598.421 144.607 580.904 150.735 560.682 154.143C540.46 157.552 521.405 157.587 506.954 154.905C499.726 153.563 493.678 151.547 489.215 148.954C484.752 146.361 481.928 143.224 481.025 139.645C480.121 136.067 481.197 132.273 484.039 128.448C486.882 124.624 491.46 120.817 497.449 117.248C509.422 110.112 526.938 103.983 547.161 100.575C567.383 97.1665 586.437 97.131 600.889 99.8134C608.116 101.155 614.165 103.171 618.627 105.764C623.09 108.358 625.915 111.495 626.818 115.073Z" stroke="#5897FB"/>
<path d="M628.234 122.68C628.536 126.315 626.843 129.964 623.389 133.464C619.935 136.964 614.764 140.268 608.234 143.19C595.178 149.033 576.793 153.306 556.178 154.604C535.562 155.902 516.664 153.976 502.78 149.829C495.836 147.755 490.174 145.133 486.179 142.103C482.184 139.071 479.908 135.672 479.606 132.037C479.305 128.402 480.998 124.753 484.452 121.253C487.905 117.754 493.077 114.45 499.607 111.528C512.662 105.685 531.047 101.411 551.663 100.114C572.278 98.8157 591.177 100.742 605.061 104.889C612.004 106.963 617.667 109.585 621.661 112.615C625.656 115.646 627.933 119.045 628.234 122.68Z" stroke="#5897FB"/>
<path d="M626.818 364.505C627.721 368.084 626.646 371.878 623.803 375.703C620.961 379.527 616.382 383.334 610.394 386.903C598.421 394.039 580.904 400.168 560.682 403.576C540.46 406.984 521.405 407.02 506.954 404.338C499.726 402.996 493.678 400.98 489.215 398.387C484.752 395.793 481.928 392.656 481.025 389.078C480.121 385.5 481.197 381.706 484.039 377.881C486.882 374.057 491.46 370.249 497.449 366.68C509.422 359.544 526.938 353.416 547.161 350.007C567.383 346.599 586.437 346.564 600.889 349.246C608.116 350.588 614.165 352.604 618.627 355.197C623.09 357.79 625.915 360.927 626.818 364.505Z" stroke="#5897FB"/>
<path d="M628.2 371.786C628.527 375.42 626.86 379.076 623.431 382.591C620.003 386.106 614.855 389.432 608.346 392.384C595.332 398.284 576.978 402.638 556.372 404.027C535.766 405.416 516.854 403.573 502.941 399.487C495.982 397.443 490.301 394.847 486.286 391.834C482.269 388.82 479.968 385.431 479.641 381.798C479.314 378.164 480.981 374.507 484.41 370.992C487.838 367.478 492.986 364.151 499.495 361.2C512.51 355.3 530.864 350.945 551.47 349.557C572.076 348.168 590.988 350.011 604.9 354.097C611.859 356.14 617.54 358.737 621.556 361.75C625.572 364.763 627.873 368.152 628.2 371.786Z" stroke="#5897FB"/>
<rect x="25.6846" y="34.8257" width="152.04" height="64.6" rx="9.5" stroke="#5897FB"/>
<rect x="205.845" y="34.8257" width="46.4616" height="397.94" rx="9.5" stroke="#5897FB"/>
<rect x="25.6846" y="368.165" width="152.04" height="64.6" rx="9.5" stroke="#5897FB"/>
<path d="M81.024 74.192C79.8187 74.192 78.7627 73.9733 77.856 73.536C76.9493 73.0987 76.2507 72.48 75.76 71.68C75.2693 70.88 75.024 69.9413 75.024 68.864V68.656C75.024 67.5787 75.2693 66.64 75.76 65.84C76.2507 65.0293 76.9493 64.4053 77.856 63.968C78.7627 63.5307 79.8187 63.312 81.024 63.312C82.2293 63.312 83.28 63.5307 84.176 63.968C85.0827 64.4053 85.7813 65.0293 86.272 65.84C86.7627 66.64 87.008 67.5787 87.008 68.656V68.864C87.008 69.9413 86.7627 70.88 86.272 71.68C85.7813 72.48 85.0827 73.0987 84.176 73.536C83.28 73.9733 82.2293 74.192 81.024 74.192ZM81.024 72.704C82.4 72.704 83.472 72.368 84.24 71.696C85.008 71.024 85.392 70.0907 85.392 68.896V68.64C85.392 67.4347 85.008 66.496 84.24 65.824C83.472 65.1413 82.4 64.8 81.024 64.8C79.648 64.8 78.5707 65.1413 77.792 65.824C77.024 66.496 76.64 67.4347 76.64 68.64V68.896C76.64 70.0907 77.024 71.024 77.792 71.696C78.5707 72.368 79.648 72.704 81.024 72.704ZM91.1033 63.504V72.576H98.8313V74H89.5033V63.504H91.1033ZM97.317 64.928V63.504H107.989V64.928H103.445V74H101.861V64.928H97.317ZM116.124 63.504C117.297 63.504 118.225 63.7867 118.908 64.352C119.59 64.9067 119.932 65.6587 119.932 66.608V66.8C119.932 67.7493 119.59 68.5067 118.908 69.072C118.225 69.6267 117.297 69.904 116.124 69.904H111.26V74H109.66V63.504H116.124ZM116.092 68.48C116.796 68.48 117.34 68.336 117.724 68.048C118.118 67.7493 118.316 67.3333 118.316 66.8V66.608C118.316 66.0747 118.118 65.664 117.724 65.376C117.34 65.0773 116.796 64.928 116.092 64.928H111.26V68.48H116.092Z" fill="#5897FB"/>
<path d="M44.7428 224.192C43.5374 224.192 42.4814 223.973 41.5748 223.536C40.6681 223.099 39.9694 222.48 39.4788 221.68C38.9881 220.88 38.7428 219.941 38.7428 218.864V218.656C38.7428 217.579 38.9881 216.64 39.4788 215.84C39.9694 215.029 40.6681 214.405 41.5748 213.968C42.4814 213.531 43.5374 213.312 44.7428 213.312C45.9481 213.312 46.9988 213.531 47.8948 213.968C48.8014 214.405 49.5001 215.029 49.9908 215.84C50.4814 216.64 50.7268 217.579 50.7268 218.656V218.864C50.7268 219.941 50.4814 220.88 49.9908 221.68C49.5001 222.48 48.8014 223.099 47.8948 223.536C46.9988 223.973 45.9481 224.192 44.7428 224.192ZM44.7428 222.704C46.1188 222.704 47.1908 222.368 47.9588 221.696C48.7268 221.024 49.1108 220.091 49.1108 218.896V218.64C49.1108 217.435 48.7268 216.496 47.9588 215.824C47.1908 215.141 46.1188 214.8 44.7428 214.8C43.3668 214.8 42.2894 215.141 41.5108 215.824C40.7428 216.496 40.3588 217.435 40.3588 218.64V218.896C40.3588 220.091 40.7428 221.024 41.5108 221.696C42.2894 222.368 43.3668 222.704 44.7428 222.704ZM61.718 216.08V224H60.182V217.424H54.646V224H53.11V216.08H61.718ZM73.0621 220.544H65.4301C65.4835 221.237 65.7821 221.787 66.3261 222.192C66.8701 222.587 67.5955 222.784 68.5021 222.784C69.3448 222.784 70.0275 222.645 70.5501 222.368C71.0835 222.08 71.3715 221.701 71.4141 221.232H73.0621C72.9768 222.16 72.5288 222.885 71.7181 223.408C70.9181 223.931 69.8461 224.192 68.5021 224.192C67.5528 224.192 66.7261 224.032 66.0221 223.712C65.3181 223.381 64.7741 222.917 64.3901 222.32C64.0168 221.723 63.8301 221.024 63.8301 220.224V219.888C63.8301 219.077 64.0168 218.373 64.3901 217.776C64.7741 217.168 65.3181 216.704 66.0221 216.384C66.7261 216.053 67.5528 215.888 68.5021 215.888C69.9208 215.888 71.0355 216.24 71.8461 216.944C72.6568 217.637 73.0621 218.597 73.0621 219.824V220.544ZM68.5021 217.296C67.6488 217.296 66.9555 217.472 66.4221 217.824C65.8995 218.165 65.5795 218.645 65.4621 219.264H71.4301C71.3341 218.645 71.0301 218.165 70.5181 217.824C70.0061 217.472 69.3341 217.296 68.5021 217.296ZM79.7005 215.888C80.6498 215.888 81.4818 216.053 82.1965 216.384C82.9112 216.715 83.4605 217.184 83.8445 217.792C84.2285 218.389 84.4205 219.093 84.4205 219.904V220.16C84.4205 220.971 84.2285 221.68 83.8445 222.288C83.4605 222.896 82.9112 223.365 82.1965 223.696C81.4818 224.027 80.6498 224.192 79.7005 224.192C79.1138 224.192 78.5645 224.101 78.0525 223.92C77.5405 223.739 77.0925 223.477 76.7085 223.136V226.72H75.1725V216.08H76.5965L76.6605 216.992C77.0552 216.64 77.5138 216.368 78.0365 216.176C78.5592 215.984 79.1138 215.888 79.7005 215.888ZM82.8365 219.904C82.8365 219.093 82.5538 218.459 81.9885 218C81.4338 217.531 80.6658 217.296 79.6845 217.296C79.0552 217.296 78.4738 217.408 77.9405 217.632C77.4178 217.856 77.0072 218.16 76.7085 218.544V221.52C77.0072 221.904 77.4178 222.213 77.9405 222.448C78.4738 222.672 79.0552 222.784 79.6845 222.784C80.6658 222.784 81.4338 222.549 81.9885 222.08C82.5538 221.611 82.8365 220.971 82.8365 220.16V219.904ZM96.5479 222.64V224H95.4919C94.9692 224 94.5319 223.899 94.1799 223.696C93.8279 223.493 93.5825 223.205 93.4439 222.832C93.0172 223.291 92.5052 223.632 91.9079 223.856C91.3105 224.08 90.6065 224.192 89.7959 224.192C88.6545 224.192 87.7745 223.995 87.1559 223.6C86.5372 223.195 86.2279 222.619 86.2279 221.872C86.2279 221.232 86.4679 220.72 86.9479 220.336C87.4279 219.952 88.1319 219.712 89.0599 219.616L93.3319 219.168C93.2999 218.571 93.0492 218.117 92.5799 217.808C92.1105 217.499 91.4385 217.344 90.5639 217.344C89.7212 217.344 89.0492 217.488 88.5479 217.776C88.0465 218.064 87.7959 218.448 87.7959 218.928V218.992H86.2759V218.928C86.2759 218.331 86.4519 217.803 86.8039 217.344C87.1665 216.875 87.6732 216.517 88.3239 216.272C88.9745 216.016 89.7265 215.888 90.5799 215.888C91.9345 215.888 92.9852 216.187 93.7319 216.784C94.4785 217.381 94.8519 218.219 94.8519 219.296V221.76C94.8519 222.037 94.9372 222.256 95.1079 222.416C95.2785 222.565 95.5239 222.64 95.8439 222.64H96.5479ZM89.7639 222.832C90.6279 222.832 91.3692 222.699 91.9879 222.432C92.6065 222.155 93.0545 221.765 93.3319 221.264V220.416L89.3959 220.832C88.8412 220.885 88.4252 220.997 88.1479 221.168C87.8812 221.339 87.7479 221.573 87.7479 221.872C87.7479 222.512 88.4199 222.832 89.7639 222.832ZM96.3483 217.456V216.08H105.66V217.456H101.804V224H100.268V217.456H96.3483ZM108.691 216.08V222.128L114.499 216.08H115.907V224H114.435V217.952L108.627 224H107.219V216.08H108.691ZM126.386 219.984C126.823 220.123 127.154 220.336 127.378 220.624C127.612 220.901 127.73 221.243 127.73 221.648V221.808C127.73 222.501 127.458 223.04 126.914 223.424C126.38 223.808 125.623 224 124.642 224H118.626V216.08H124.434C125.415 216.08 126.172 216.267 126.706 216.64C127.25 217.003 127.522 217.525 127.522 218.208V218.368C127.522 219.104 127.143 219.643 126.386 219.984ZM120.162 217.264V219.408H124.37C124.871 219.408 125.255 219.323 125.522 219.152C125.799 218.971 125.938 218.715 125.938 218.384V218.224C125.938 217.915 125.804 217.68 125.538 217.52C125.271 217.349 124.882 217.264 124.37 217.264H120.162ZM126.146 221.616C126.146 221.296 126.012 221.051 125.746 220.88C125.479 220.709 125.095 220.624 124.594 220.624H120.162V222.8H124.594C125.095 222.8 125.479 222.715 125.746 222.544C126.012 222.363 126.146 222.107 126.146 221.776V221.616ZM131.521 216.08V219.344H137.217V216.08H138.753V224H137.217V220.704H131.521V224H129.985V216.08H131.521ZM147.181 218.464C148.195 218.464 148.979 218.704 149.533 219.184C150.099 219.664 150.381 220.32 150.381 221.152V221.36C150.381 222.16 150.099 222.8 149.533 223.28C148.979 223.76 148.195 224 147.181 224H141.597V216.08H143.133V218.464H147.181ZM153.053 216.08V224H151.517V216.08H153.053ZM148.797 221.152C148.797 220.267 148.221 219.824 147.069 219.824H143.133V222.64H147.069C147.656 222.64 148.088 222.528 148.365 222.304C148.653 222.08 148.797 221.765 148.797 221.36V221.152ZM164.531 220.544H156.899C156.952 221.237 157.251 221.787 157.795 222.192C158.339 222.587 159.064 222.784 159.971 222.784C160.814 222.784 161.496 222.645 162.019 222.368C162.552 222.08 162.84 221.701 162.883 221.232H164.531C164.446 222.16 163.998 222.885 163.187 223.408C162.387 223.931 161.315 224.192 159.971 224.192C159.022 224.192 158.195 224.032 157.491 223.712C156.787 223.381 156.243 222.917 155.859 222.32C155.486 221.723 155.299 221.024 155.299 220.224V219.888C155.299 219.077 155.486 218.373 155.859 217.776C156.243 217.168 156.787 216.704 157.491 216.384C158.195 216.053 159.022 215.888 159.971 215.888C161.39 215.888 162.504 216.24 163.315 216.944C164.126 217.637 164.531 218.597 164.531 219.824V220.544ZM159.971 217.296C159.118 217.296 158.424 217.472 157.891 217.824C157.368 218.165 157.048 218.645 156.931 219.264H162.899C162.803 218.645 162.499 218.165 161.987 217.824C161.475 217.472 160.803 217.296 159.971 217.296ZM77.5294 241.64V245.048H76.0094V243H67.4974V245.048H65.9774L65.9614 241.64H67.1934C67.7267 240.84 67.9987 239.853 68.0094 238.68L68.0574 235.08H75.9454V241.64H77.5294ZM74.4254 241.64V236.424H69.4654L69.4174 238.68C69.4067 239.32 69.3427 239.88 69.2254 240.36C69.108 240.829 68.9374 241.256 68.7134 241.64H74.4254ZM89.1729 241.64V243H88.1169C87.5942 243 87.1569 242.899 86.8049 242.696C86.4529 242.493 86.2075 242.205 86.0689 241.832C85.6422 242.291 85.1302 242.632 84.5329 242.856C83.9355 243.08 83.2315 243.192 82.4209 243.192C81.2795 243.192 80.3995 242.995 79.7809 242.6C79.1622 242.195 78.8529 241.619 78.8529 240.872C78.8529 240.232 79.0929 239.72 79.5729 239.336C80.0529 238.952 80.7569 238.712 81.6849 238.616L85.9569 238.168C85.9249 237.571 85.6742 237.117 85.2049 236.808C84.7355 236.499 84.0635 236.344 83.1889 236.344C82.3462 236.344 81.6742 236.488 81.1729 236.776C80.6715 237.064 80.4209 237.448 80.4209 237.928V237.992H78.9009V237.928C78.9009 237.331 79.0769 236.803 79.4289 236.344C79.7915 235.875 80.2982 235.517 80.9489 235.272C81.5995 235.016 82.3515 234.888 83.2049 234.888C84.5595 234.888 85.6102 235.187 86.3569 235.784C87.1035 236.381 87.4769 237.219 87.4769 238.296V240.76C87.4769 241.037 87.5622 241.256 87.7329 241.416C87.9035 241.565 88.1489 241.64 88.4689 241.64H89.1729ZM82.3889 241.832C83.2529 241.832 83.9942 241.699 84.6129 241.432C85.2315 241.155 85.6795 240.765 85.9569 240.264V239.416L82.0209 239.832C81.4662 239.885 81.0502 239.997 80.7729 240.168C80.5062 240.339 80.3729 240.573 80.3729 240.872C80.3729 241.512 81.0449 241.832 82.3889 241.832ZM92.146 235.08V238.344H97.842V235.08H99.378V243H97.842V239.704H92.146V243H90.61V235.08H92.146ZM103.63 235.08V238.344H109.326V235.08H110.862V243H109.326V239.704H103.63V243H102.094V235.08H103.63ZM119.291 237.464C120.304 237.464 121.088 237.704 121.643 238.184C122.208 238.664 122.491 239.32 122.491 240.152V240.36C122.491 241.16 122.208 241.8 121.643 242.28C121.088 242.76 120.304 243 119.291 243H113.707V235.08H115.243V237.464H119.291ZM125.163 235.08V243H123.627V235.08H125.163ZM120.907 240.152C120.907 239.267 120.331 238.824 119.179 238.824H115.243V241.64H119.179C119.765 241.64 120.197 241.528 120.475 241.304C120.763 241.08 120.907 240.765 120.907 240.36V240.152ZM136.64 239.544H129.008C129.062 240.237 129.36 240.787 129.904 241.192C130.448 241.587 131.174 241.784 132.08 241.784C132.923 241.784 133.606 241.645 134.128 241.368C134.662 241.08 134.95 240.701 134.992 240.232H136.64C136.555 241.16 136.107 241.885 135.296 242.408C134.496 242.931 133.424 243.192 132.08 243.192C131.131 243.192 130.304 243.032 129.6 242.712C128.896 242.381 128.352 241.917 127.968 241.32C127.595 240.723 127.408 240.024 127.408 239.224V238.888C127.408 238.077 127.595 237.373 127.968 236.776C128.352 236.168 128.896 235.704 129.6 235.384C130.304 235.053 131.131 234.888 132.08 234.888C133.499 234.888 134.614 235.24 135.424 235.944C136.235 236.637 136.64 237.597 136.64 238.824V239.544ZM132.08 236.296C131.227 236.296 130.534 236.472 130 236.824C129.478 237.165 129.158 237.645 129.04 238.264H135.008C134.912 237.645 134.608 237.165 134.096 236.824C133.584 236.472 132.912 236.296 132.08 236.296Z" fill="#5897FB"/>
<path d="M68.5278 391.782C69.0825 391.996 69.5038 392.3 69.7918 392.694C70.0905 393.078 70.2398 393.542 70.2398 394.086V394.262C70.2398 395.148 69.8985 395.852 69.2158 396.374C68.5438 396.897 67.6425 397.158 66.5118 397.158H60.1758V386.662H66.1758C67.3492 386.662 68.2612 386.897 68.9118 387.366C69.5732 387.825 69.9038 388.476 69.9038 389.318V389.51C69.9038 390.012 69.7865 390.454 69.5518 390.838C69.3172 391.222 68.9758 391.537 68.5278 391.782ZM61.7758 388.086V391.142H66.1598C67.5785 391.142 68.2878 390.662 68.2878 389.702V389.51C68.2878 389.052 68.1065 388.7 67.7438 388.454C67.3812 388.209 66.8585 388.086 66.1758 388.086H61.7758ZM68.6238 394.038C68.6238 393.068 67.9092 392.582 66.4798 392.582H61.7758V395.734H66.4798C67.1518 395.734 67.6745 395.601 68.0478 395.334C68.4318 395.057 68.6238 394.684 68.6238 394.214V394.038ZM74.1623 389.238V392.502H79.8583V389.238H81.3943V397.158H79.8583V393.862H74.1623V397.158H72.6263V389.238H74.1623ZM92.7347 393.702H85.1027C85.156 394.396 85.4547 394.945 85.9987 395.35C86.5427 395.745 87.268 395.942 88.1747 395.942C89.0174 395.942 89.7 395.804 90.2227 395.526C90.756 395.238 91.044 394.86 91.0867 394.39H92.7347C92.6494 395.318 92.2014 396.044 91.3907 396.566C90.5907 397.089 89.5187 397.35 88.1747 397.35C87.2254 397.35 86.3987 397.19 85.6947 396.87C84.9907 396.54 84.4467 396.076 84.0627 395.478C83.6894 394.881 83.5027 394.182 83.5027 393.382V393.046C83.5027 392.236 83.6894 391.532 84.0627 390.934C84.4467 390.326 84.9907 389.862 85.6947 389.542C86.3987 389.212 87.2254 389.046 88.1747 389.046C89.5934 389.046 90.708 389.398 91.5187 390.102C92.3294 390.796 92.7347 391.756 92.7347 392.982V393.702ZM88.1747 390.454C87.3214 390.454 86.628 390.63 86.0947 390.982C85.572 391.324 85.252 391.804 85.1347 392.422H91.1027C91.0067 391.804 90.7027 391.324 90.1907 390.982C89.6787 390.63 89.0067 390.454 88.1747 390.454ZM96.3811 389.238V395.798H101.037V389.238H102.573V395.798H107.213V389.238H108.749V397.158H94.8451V389.238H96.3811ZM113.006 389.238V392.502H118.702V389.238H120.238V397.158H118.702V393.862H113.006V397.158H111.47V389.238H113.006ZM124.426 389.238V395.286L130.234 389.238H131.642V397.158H130.17V391.11L124.362 397.158H122.954V389.238H124.426ZM142.985 393.702H135.353C135.406 394.396 135.705 394.945 136.249 395.35C136.793 395.745 137.518 395.942 138.425 395.942C139.267 395.942 139.95 395.804 140.473 395.526C141.006 395.238 141.294 394.86 141.337 394.39H142.985C142.899 395.318 142.451 396.044 141.641 396.566C140.841 397.089 139.769 397.35 138.425 397.35C137.475 397.35 136.649 397.19 135.945 396.87C135.241 396.54 134.697 396.076 134.313 395.478C133.939 394.881 133.753 394.182 133.753 393.382V393.046C133.753 392.236 133.939 391.532 134.313 390.934C134.697 390.326 135.241 389.862 135.945 389.542C136.649 389.212 137.475 389.046 138.425 389.046C139.843 389.046 140.958 389.398 141.769 390.102C142.579 390.796 142.985 391.756 142.985 392.982V393.702ZM138.425 390.454C137.571 390.454 136.878 390.63 136.345 390.982C135.822 391.324 135.502 391.804 135.385 392.422H141.353C141.257 391.804 140.953 391.324 140.441 390.982C139.929 390.63 139.257 390.454 138.425 390.454ZM55.1452 408.238V414.286L60.9532 408.238H62.3612V416.158H60.8892V410.11L55.0812 416.158H53.6732V408.238H55.1452ZM69.1915 416.35C68.2421 416.35 67.4101 416.19 66.6955 415.87C65.9808 415.54 65.4315 415.076 65.0475 414.478C64.6635 413.87 64.4715 413.166 64.4715 412.366V412.078C64.4715 411.257 64.6635 410.542 65.0475 409.934C65.4315 409.326 65.9755 408.862 66.6795 408.542C67.3941 408.212 68.2315 408.046 69.1915 408.046C70.0555 408.046 70.8341 408.196 71.5275 408.494C72.2208 408.782 72.7595 409.188 73.1435 409.71C73.5381 410.222 73.7355 410.804 73.7355 411.454V411.518H72.1515V411.454C72.1515 411.07 72.0235 410.729 71.7675 410.43C71.5221 410.121 71.1701 409.881 70.7115 409.71C70.2635 409.54 69.7568 409.454 69.1915 409.454C68.2101 409.454 67.4421 409.689 66.8875 410.158C66.3328 410.617 66.0555 411.262 66.0555 412.094V412.35C66.0555 413.161 66.3328 413.796 66.8875 414.254C67.4421 414.713 68.2101 414.942 69.1915 414.942C69.7675 414.942 70.2795 414.857 70.7275 414.686C71.1755 414.516 71.5221 414.281 71.7675 413.982C72.0235 413.684 72.1515 413.342 72.1515 412.958V412.894H73.7355V412.958C73.7355 413.62 73.5435 414.206 73.1595 414.718C72.7755 415.23 72.2368 415.63 71.5435 415.918C70.8608 416.206 70.0768 416.35 69.1915 416.35ZM74.3333 409.614V408.238H83.6453V409.614H79.7893V416.158H78.2533V409.614H74.3333ZM89.0516 416.35C88.0809 416.35 87.2382 416.19 86.5236 415.87C85.8089 415.54 85.2596 415.076 84.8756 414.478C84.4916 413.87 84.2996 413.161 84.2996 412.35V412.078C84.2996 411.257 84.4916 410.542 84.8756 409.934C85.2596 409.326 85.8089 408.862 86.5236 408.542C87.2382 408.212 88.0809 408.046 89.0516 408.046C90.0116 408.046 90.8436 408.212 91.5476 408.542C92.2622 408.862 92.8062 409.326 93.1796 409.934C93.5636 410.542 93.7556 411.257 93.7556 412.078V412.35C93.7556 413.161 93.5636 413.87 93.1796 414.478C92.8062 415.076 92.2622 415.54 91.5476 415.87C90.8436 416.19 90.0116 416.35 89.0516 416.35ZM89.0356 414.942C90.0169 414.942 90.7849 414.713 91.3396 414.254C91.8942 413.796 92.1716 413.161 92.1716 412.35V412.078C92.1716 411.257 91.8942 410.617 91.3396 410.158C90.7849 409.689 90.0169 409.454 89.0356 409.454C88.0329 409.454 87.2542 409.684 86.6996 410.142C86.1556 410.601 85.8836 411.246 85.8836 412.078V412.35C85.8836 413.161 86.1609 413.796 86.7156 414.254C87.2809 414.713 88.0542 414.942 89.0356 414.942ZM103.488 408.238V416.158H101.952V413.422C100.832 413.614 99.755 413.71 98.7203 413.71C97.4723 413.71 96.5283 413.454 95.8883 412.942C95.259 412.43 94.9443 411.673 94.9443 410.67V408.238H96.4803V410.526C96.4803 411.742 97.2803 412.35 98.8803 412.35C99.7763 412.35 100.8 412.254 101.952 412.062V408.238H103.488ZM107.74 408.238V411.502H113.436V408.238H114.972V416.158H113.436V412.862H107.74V416.158H106.204V408.238H107.74ZM119.161 408.238V414.286L124.969 408.238H126.377V416.158H124.905V410.11L119.097 416.158H117.689V408.238H119.161ZM138.199 415.934V416.158H136.455L132.967 412.83H130.631V416.158H129.095V408.238H130.631V411.486H132.919L136.215 408.238H137.991V408.462L134.327 412.126L138.199 415.934ZM141.551 408.238V414.286L147.359 408.238H148.767V416.158H147.295V410.11L141.487 416.158H140.079V408.238H141.551Z" fill="#5897FB"/>
<path d="M504.379 134.95C503.173 134.95 502.117 134.731 501.211 134.294C500.304 133.856 499.605 133.238 499.115 132.438C498.624 131.638 498.379 130.699 498.379 129.622V129.414C498.379 128.336 498.624 127.398 499.115 126.598C499.605 125.787 500.304 125.163 501.211 124.726C502.117 124.288 503.173 124.07 504.379 124.07C505.584 124.07 506.635 124.288 507.531 124.726C508.437 125.163 509.136 125.787 509.627 126.598C510.117 127.398 510.363 128.336 510.363 129.414V129.622C510.363 130.699 510.117 131.638 509.627 132.438C509.136 133.238 508.437 133.856 507.531 134.294C506.635 134.731 505.584 134.95 504.379 134.95ZM504.379 133.462C505.755 133.462 506.827 133.126 507.595 132.454C508.363 131.782 508.747 130.848 508.747 129.654V129.398C508.747 128.192 508.363 127.254 507.595 126.582C506.827 125.899 505.755 125.558 504.379 125.558C503.003 125.558 501.925 125.899 501.147 126.582C500.379 127.254 499.995 128.192 499.995 129.398V129.654C499.995 130.848 500.379 131.782 501.147 132.454C501.925 133.126 503.003 133.462 504.379 133.462ZM511.578 128.214V126.838H520.89V128.214H517.034V134.758H515.498V128.214H511.578ZM530.561 126.838V134.758H529.025V132.022C527.905 132.214 526.828 132.31 525.793 132.31C524.545 132.31 523.601 132.054 522.961 131.542C522.332 131.03 522.017 130.272 522.017 129.27V126.838H523.553V129.126C523.553 130.342 524.353 130.95 525.953 130.95C526.849 130.95 527.873 130.854 529.025 130.662V126.838H530.561ZM541.901 131.302H534.269C534.323 131.995 534.621 132.544 535.165 132.95C535.709 133.344 536.435 133.542 537.341 133.542C538.184 133.542 538.867 133.403 539.389 133.126C539.923 132.838 540.211 132.459 540.253 131.99H541.901C541.816 132.918 541.368 133.643 540.557 134.166C539.757 134.688 538.685 134.95 537.341 134.95C536.392 134.95 535.565 134.79 534.861 134.47C534.157 134.139 533.613 133.675 533.229 133.078C532.856 132.48 532.669 131.782 532.669 130.982V130.646C532.669 129.835 532.856 129.131 533.229 128.534C533.613 127.926 534.157 127.462 534.861 127.142C535.565 126.811 536.392 126.646 537.341 126.646C538.76 126.646 539.875 126.998 540.685 127.702C541.496 128.395 541.901 129.355 541.901 130.582V131.302ZM537.341 128.054C536.488 128.054 535.795 128.23 535.261 128.582C534.739 128.923 534.419 129.403 534.301 130.022H540.269C540.173 129.403 539.869 128.923 539.357 128.582C538.845 128.23 538.173 128.054 537.341 128.054ZM542.547 128.214V126.838H551.859V128.214H548.003V134.758H546.467V128.214H542.547ZM554.954 126.838V130.102H560.65V126.838H562.186V134.758H560.65V131.462H554.954V134.758H553.418V126.838H554.954ZM569.046 134.95C568.076 134.95 567.233 134.79 566.518 134.47C565.804 134.139 565.254 133.675 564.87 133.078C564.486 132.47 564.294 131.76 564.294 130.95V130.678C564.294 129.856 564.486 129.142 564.87 128.534C565.254 127.926 565.804 127.462 566.518 127.142C567.233 126.811 568.076 126.646 569.046 126.646C570.006 126.646 570.838 126.811 571.542 127.142C572.257 127.462 572.801 127.926 573.174 128.534C573.558 129.142 573.75 129.856 573.75 130.678V130.95C573.75 131.76 573.558 132.47 573.174 133.078C572.801 133.675 572.257 134.139 571.542 134.47C570.838 134.79 570.006 134.95 569.046 134.95ZM569.03 133.542C570.012 133.542 570.78 133.312 571.334 132.854C571.889 132.395 572.166 131.76 572.166 130.95V130.678C572.166 129.856 571.889 129.216 571.334 128.758C570.78 128.288 570.012 128.054 569.03 128.054C568.028 128.054 567.249 128.283 566.694 128.742C566.15 129.2 565.878 129.846 565.878 130.678V130.95C565.878 131.76 566.156 132.395 566.71 132.854C567.276 133.312 568.049 133.542 569.03 133.542ZM579.967 134.95C579.018 134.95 578.186 134.79 577.471 134.47C576.757 134.139 576.207 133.675 575.823 133.078C575.439 132.47 575.247 131.766 575.247 130.966V130.678C575.247 129.856 575.439 129.142 575.823 128.534C576.207 127.926 576.751 127.462 577.455 127.142C578.17 126.811 579.007 126.646 579.967 126.646C580.831 126.646 581.61 126.795 582.303 127.094C582.997 127.382 583.535 127.787 583.919 128.31C584.314 128.822 584.511 129.403 584.511 130.054V130.118H582.927V130.054C582.927 129.67 582.799 129.328 582.543 129.03C582.298 128.72 581.946 128.48 581.487 128.31C581.039 128.139 580.533 128.054 579.967 128.054C578.986 128.054 578.218 128.288 577.663 128.758C577.109 129.216 576.831 129.862 576.831 130.694V130.95C576.831 131.76 577.109 132.395 577.663 132.854C578.218 133.312 578.986 133.542 579.967 133.542C580.543 133.542 581.055 133.456 581.503 133.286C581.951 133.115 582.298 132.88 582.543 132.582C582.799 132.283 582.927 131.942 582.927 131.558V131.494H584.511V131.558C584.511 132.219 584.319 132.806 583.935 133.318C583.551 133.83 583.013 134.23 582.319 134.518C581.637 134.806 580.853 134.95 579.967 134.95ZM585.109 128.214V126.838H594.421V128.214H590.565V134.758H589.029V128.214H585.109ZM601.9 129.222C602.903 129.222 603.682 129.462 604.236 129.942C604.802 130.411 605.084 131.067 605.084 131.91V132.102C605.084 132.923 604.796 133.568 604.22 134.038C603.655 134.507 602.882 134.742 601.9 134.742H595.98V126.838H597.516V129.222H601.9ZM603.5 131.91C603.5 131.024 602.93 130.582 601.788 130.582H597.516V133.398H601.788C602.343 133.398 602.764 133.286 603.052 133.062C603.351 132.838 603.5 132.518 603.5 132.102V131.91Z" fill="#5897FB"/>
<path d="M533.683 255.047C532.478 255.047 531.422 254.829 530.515 254.391C529.609 253.954 528.91 253.335 528.419 252.535C527.929 251.735 527.683 250.797 527.683 249.719V249.511C527.683 248.434 527.929 247.495 528.419 246.695C528.91 245.885 529.609 245.261 530.515 244.823C531.422 244.386 532.478 244.167 533.683 244.167C534.889 244.167 535.939 244.386 536.835 244.823C537.742 245.261 538.441 245.885 538.931 246.695C539.422 247.495 539.667 248.434 539.667 249.511V249.719C539.667 250.797 539.422 251.735 538.931 252.535C538.441 253.335 537.742 253.954 536.835 254.391C535.939 254.829 534.889 255.047 533.683 255.047ZM533.683 253.559C535.059 253.559 536.131 253.223 536.899 252.551C537.667 251.879 538.051 250.946 538.051 249.751V249.495C538.051 248.29 537.667 247.351 536.899 246.679C536.131 245.997 535.059 245.655 533.683 245.655C532.307 245.655 531.23 245.997 530.451 246.679C529.683 247.351 529.299 248.29 529.299 249.495V249.751C529.299 250.946 529.683 251.879 530.451 252.551C531.23 253.223 532.307 253.559 533.683 253.559ZM543.763 244.359V253.431H551.491V254.855H542.163V244.359H543.763ZM563.675 254.615V254.855H562.043L560.795 252.199H554.875L553.627 254.855H551.995V254.615L556.955 244.359H558.715L563.675 254.615ZM560.107 250.759L557.835 245.943L555.563 250.759H560.107ZM571.924 244.359C573.097 244.359 574.025 244.642 574.708 245.207C575.39 245.762 575.732 246.514 575.732 247.463V247.655C575.732 248.605 575.39 249.362 574.708 249.927C574.025 250.482 573.097 250.759 571.924 250.759H567.06V254.855H565.46V244.359H571.924ZM571.892 249.335C572.596 249.335 573.14 249.191 573.524 248.903C573.918 248.605 574.116 248.189 574.116 247.655V247.463C574.116 246.93 573.918 246.519 573.524 246.231C573.14 245.933 572.596 245.783 571.892 245.783H567.06V249.335H571.892Z" fill="#5897FB"/>
<path d="M503.106 373.509C505.005 373.509 506.445 373.946 507.426 374.821C508.418 375.696 508.914 376.97 508.914 378.645V378.885C508.914 380.56 508.418 381.834 507.426 382.709C506.445 383.573 505.005 384.005 503.106 384.005H498.194V373.509H503.106ZM503.106 382.581C505.901 382.581 507.298 381.354 507.298 378.901V378.629C507.298 377.413 506.941 376.496 506.226 375.877C505.522 375.248 504.477 374.933 503.09 374.933H499.794V382.581H503.106ZM521.176 382.645V384.005H520.12C519.598 384.005 519.16 383.904 518.808 383.701C518.456 383.498 518.211 383.21 518.072 382.837C517.646 383.296 517.134 383.637 516.536 383.861C515.939 384.085 515.235 384.197 514.424 384.197C513.283 384.197 512.403 384 511.784 383.605C511.166 383.2 510.856 382.624 510.856 381.877C510.856 381.237 511.096 380.725 511.576 380.341C512.056 379.957 512.76 379.717 513.688 379.621L517.96 379.173C517.928 378.576 517.678 378.122 517.208 377.813C516.739 377.504 516.067 377.349 515.192 377.349C514.35 377.349 513.678 377.493 513.176 377.781C512.675 378.069 512.424 378.453 512.424 378.933V378.997H510.904V378.933C510.904 378.336 511.08 377.808 511.432 377.349C511.795 376.88 512.302 376.522 512.952 376.277C513.603 376.021 514.355 375.893 515.208 375.893C516.563 375.893 517.614 376.192 518.36 376.789C519.107 377.386 519.48 378.224 519.48 379.301V381.765C519.48 382.042 519.566 382.261 519.736 382.421C519.907 382.57 520.152 382.645 520.472 382.645H521.176ZM514.392 382.837C515.256 382.837 515.998 382.704 516.616 382.437C517.235 382.16 517.683 381.77 517.96 381.269V380.421L514.024 380.837C513.47 380.89 513.054 381.002 512.776 381.173C512.51 381.344 512.376 381.578 512.376 381.877C512.376 382.517 513.048 382.837 514.392 382.837ZM525.108 377.429V381.429C525.108 381.824 525.22 382.128 525.444 382.341C525.668 382.544 525.983 382.645 526.388 382.645H528.276V384.005H526.26C525.428 384.005 524.772 383.781 524.292 383.333C523.823 382.885 523.588 382.266 523.588 381.477V377.429H520.628V376.085H523.156C523.338 376.085 523.46 376.053 523.524 375.989C523.588 375.914 523.62 375.792 523.62 375.621V373.957H525.108V376.085H528.756V377.429H525.108ZM540.317 382.645V384.005H539.261C538.738 384.005 538.301 383.904 537.949 383.701C537.597 383.498 537.352 383.21 537.213 382.837C536.786 383.296 536.274 383.637 535.677 383.861C535.08 384.085 534.376 384.197 533.565 384.197C532.424 384.197 531.544 384 530.925 383.605C530.306 383.2 529.997 382.624 529.997 381.877C529.997 381.237 530.237 380.725 530.717 380.341C531.197 379.957 531.901 379.717 532.829 379.621L537.101 379.173C537.069 378.576 536.818 378.122 536.349 377.813C535.88 377.504 535.208 377.349 534.333 377.349C533.49 377.349 532.818 377.493 532.317 377.781C531.816 378.069 531.565 378.453 531.565 378.933V378.997H530.045V378.933C530.045 378.336 530.221 377.808 530.573 377.349C530.936 376.88 531.442 376.522 532.093 376.277C532.744 376.021 533.496 375.893 534.349 375.893C535.704 375.893 536.754 376.192 537.501 376.789C538.248 377.386 538.621 378.224 538.621 379.301V381.765C538.621 382.042 538.706 382.261 538.877 382.421C539.048 382.57 539.293 382.645 539.613 382.645H540.317ZM533.533 382.837C534.397 382.837 535.138 382.704 535.757 382.437C536.376 382.16 536.824 381.77 537.101 381.269V380.421L533.165 380.837C532.61 380.89 532.194 381.002 531.917 381.173C531.65 381.344 531.517 381.578 531.517 381.877C531.517 382.517 532.189 382.837 533.533 382.837ZM561.792 384.005H560.208V375.557L555.856 384.005H554.208L549.856 375.541V384.005H548.272V373.509H550.512L555.04 382.213L559.568 373.509H561.792V384.005ZM566.325 376.085V384.005H564.789V376.085H566.325ZM565.557 374.821C565.248 374.821 564.997 374.73 564.805 374.549C564.613 374.357 564.517 374.112 564.517 373.813C564.517 373.525 564.613 373.29 564.805 373.109C564.997 372.928 565.248 372.837 565.557 372.837C565.866 372.837 566.117 372.928 566.309 373.109C566.501 373.29 566.597 373.525 566.597 373.813C566.597 374.112 566.501 374.357 566.309 374.549C566.117 374.73 565.866 374.821 565.557 374.821ZM573.767 375.893C575.154 375.893 576.199 376.24 576.903 376.933C577.618 377.616 577.975 378.624 577.975 379.957V384.005H576.455V379.957C576.455 379.093 576.21 378.437 575.719 377.989C575.239 377.53 574.54 377.301 573.623 377.301C572.994 377.301 572.418 377.445 571.895 377.733C571.383 378.021 570.999 378.405 570.743 378.885V384.005H569.207V376.085H570.631L570.695 377.109C571.484 376.32 572.508 375.914 573.767 375.893ZM582.278 376.085V384.005H580.742V376.085H582.278ZM581.51 374.821C581.201 374.821 580.95 374.73 580.758 374.549C580.566 374.357 580.47 374.112 580.47 373.813C580.47 373.525 580.566 373.29 580.758 373.109C580.95 372.928 581.201 372.837 581.51 372.837C581.819 372.837 582.07 372.928 582.262 373.109C582.454 373.29 582.55 373.525 582.55 373.813C582.55 374.112 582.454 374.357 582.262 374.549C582.07 374.73 581.819 374.821 581.51 374.821ZM589.72 375.893C591.107 375.893 592.152 376.24 592.856 376.933C593.571 377.616 593.928 378.624 593.928 379.957V384.005H592.408V379.957C592.408 379.093 592.163 378.437 591.672 377.989C591.192 377.53 590.494 377.301 589.576 377.301C588.947 377.301 588.371 377.445 587.848 377.733C587.336 378.021 586.952 378.405 586.696 378.885V384.005H585.16V376.085H586.584L586.648 377.109C587.438 376.32 588.462 375.914 589.72 375.893ZM605.159 376.085V383.333C605.159 384.506 604.77 385.397 603.991 386.005C603.223 386.613 602.098 386.917 600.615 386.917C599.655 386.917 598.823 386.794 598.119 386.549C597.426 386.314 596.887 385.968 596.503 385.509C596.13 385.061 595.943 384.533 595.943 383.925V383.797H597.511V383.925C597.511 384.394 597.794 384.773 598.359 385.061C598.925 385.36 599.655 385.509 600.551 385.509C601.533 385.509 602.29 385.322 602.823 384.949C603.357 384.586 603.623 384.064 603.623 383.381V382.597C603.207 382.928 602.733 383.189 602.199 383.381C601.677 383.562 601.133 383.653 600.567 383.653C599.085 383.653 597.938 383.333 597.127 382.693C596.317 382.042 595.911 381.125 595.911 379.941V379.685C595.911 378.49 596.322 377.562 597.143 376.901C597.965 376.229 599.106 375.893 600.567 375.893C601.826 375.893 602.866 376.256 603.687 376.981L603.735 376.085H605.159ZM600.599 382.261C601.239 382.261 601.826 382.149 602.359 381.925C602.903 381.69 603.325 381.381 603.623 380.997V378.581C603.325 378.197 602.903 377.888 602.359 377.653C601.815 377.408 601.229 377.285 600.599 377.285C599.597 377.285 598.829 377.493 598.295 377.909C597.762 378.314 597.495 378.906 597.495 379.685V379.941C597.495 381.488 598.53 382.261 600.599 382.261Z" fill="#5897FB"/>
<path d="M668.525 34.2528C669.698 34.2528 670.626 34.5354 671.309 35.1008C671.992 35.6554 672.333 36.4074 672.333 37.3568V37.5488C672.333 38.4981 671.992 39.2554 671.309 39.8208C670.626 40.3754 669.698 40.6528 668.525 40.6528H663.661V44.7488H662.061V34.2528H668.525ZM668.493 39.2288C669.197 39.2288 669.741 39.0848 670.125 38.7968C670.52 38.4981 670.717 38.0821 670.717 37.5488V37.3568C670.717 36.8234 670.52 36.4128 670.125 36.1248C669.741 35.8261 669.197 35.6768 668.493 35.6768H663.661V39.2288H668.493ZM683.743 36.8288V37.0528L679.231 45.6288C678.879 46.2901 678.468 46.7594 677.999 47.0368C677.54 47.3248 676.911 47.4688 676.111 47.4688H674.511V46.1088H676.111C676.559 46.1088 676.895 46.0394 677.119 45.9008C677.343 45.7728 677.556 45.5114 677.759 45.1168L677.903 44.8608L673.775 37.0528V36.8288H675.407L678.767 43.3568L682.111 36.8288H683.743ZM694.803 44.5248V44.7488H693.059L689.571 41.4208H687.235V44.7488H685.699V36.8288H687.235V40.0768H689.523L692.819 36.8288H694.595V37.0528L690.931 40.7168L694.803 44.5248ZM700.202 44.9408C699.232 44.9408 698.389 44.7808 697.674 44.4608C696.96 44.1301 696.41 43.6661 696.026 43.0688C695.642 42.4608 695.45 41.7514 695.45 40.9408V40.6688C695.45 39.8474 695.642 39.1328 696.026 38.5248C696.41 37.9168 696.96 37.4528 697.674 37.1328C698.389 36.8021 699.232 36.6368 700.202 36.6368C701.162 36.6368 701.994 36.8021 702.698 37.1328C703.413 37.4528 703.957 37.9168 704.33 38.5248C704.714 39.1328 704.906 39.8474 704.906 40.6688V40.9408C704.906 41.7514 704.714 42.4608 704.33 43.0688C703.957 43.6661 703.413 44.1301 702.698 44.4608C701.994 44.7808 701.162 44.9408 700.202 44.9408ZM700.186 43.5328C701.168 43.5328 701.936 43.3034 702.49 42.8448C703.045 42.3861 703.322 41.7514 703.322 40.9408V40.6688C703.322 39.8474 703.045 39.2074 702.49 38.7488C701.936 38.2794 701.168 38.0448 700.186 38.0448C699.184 38.0448 698.405 38.2741 697.85 38.7328C697.306 39.1914 697.034 39.8368 697.034 40.6688V40.9408C697.034 41.7514 697.312 42.3861 697.866 42.8448C698.432 43.3034 699.205 43.5328 700.186 43.5328ZM714.771 40.7328C715.209 40.8714 715.539 41.0848 715.763 41.3728C715.998 41.6501 716.115 41.9914 716.115 42.3968V42.5568C716.115 43.2501 715.843 43.7888 715.299 44.1728C714.766 44.5568 714.009 44.7488 713.027 44.7488H707.011V36.8288H712.819C713.801 36.8288 714.558 37.0154 715.091 37.3888C715.635 37.7514 715.907 38.2741 715.907 38.9568V39.1168C715.907 39.8528 715.529 40.3914 714.771 40.7328ZM708.547 38.0128V40.1568H712.755C713.257 40.1568 713.641 40.0714 713.907 39.9008C714.185 39.7194 714.323 39.4634 714.323 39.1328V38.9728C714.323 38.6634 714.19 38.4288 713.923 38.2688C713.657 38.0981 713.267 38.0128 712.755 38.0128H708.547ZM714.531 42.3648C714.531 42.0448 714.398 41.7994 714.131 41.6288C713.865 41.4581 713.481 41.3728 712.979 41.3728H708.547V43.5488H712.979C713.481 43.5488 713.865 43.4634 714.131 43.2928C714.398 43.1114 714.531 42.8554 714.531 42.5248V42.3648ZM722.515 44.9408C721.544 44.9408 720.701 44.7808 719.987 44.4608C719.272 44.1301 718.723 43.6661 718.339 43.0688C717.955 42.4608 717.763 41.7514 717.763 40.9408V40.6688C717.763 39.8474 717.955 39.1328 718.339 38.5248C718.723 37.9168 719.272 37.4528 719.987 37.1328C720.701 36.8021 721.544 36.6368 722.515 36.6368C723.475 36.6368 724.307 36.8021 725.011 37.1328C725.725 37.4528 726.269 37.9168 726.643 38.5248C727.027 39.1328 727.219 39.8474 727.219 40.6688V40.9408C727.219 41.7514 727.027 42.4608 726.643 43.0688C726.269 43.6661 725.725 44.1301 725.011 44.4608C724.307 44.7808 723.475 44.9408 722.515 44.9408ZM722.499 43.5328C723.48 43.5328 724.248 43.3034 724.803 42.8448C725.357 42.3861 725.635 41.7514 725.635 40.9408V40.6688C725.635 39.8474 725.357 39.2074 724.803 38.7488C724.248 38.2794 723.48 38.0448 722.499 38.0448C721.496 38.0448 720.717 38.2741 720.163 38.7328C719.619 39.1914 719.347 39.8368 719.347 40.6688V40.9408C719.347 41.7514 719.624 42.3861 720.179 42.8448C720.744 43.3034 721.517 43.5328 722.499 43.5328ZM739.415 43.3888V46.7968H737.895V44.7488H729.383V46.7968H727.863L727.847 43.3888H729.079C729.612 42.5888 729.884 41.6021 729.895 40.4288L729.943 36.8288H737.831V43.3888H739.415ZM736.311 43.3888V38.1728H731.351L731.303 40.4288C731.292 41.0688 731.228 41.6288 731.111 42.1088C730.994 42.5781 730.823 43.0048 730.599 43.3888H736.311ZM744.858 44.9408C743.908 44.9408 743.076 44.7808 742.362 44.4608C741.647 44.1301 741.098 43.6661 740.714 43.0688C740.33 42.4608 740.138 41.7568 740.138 40.9568V40.6688C740.138 39.8474 740.33 39.1328 740.714 38.5248C741.098 37.9168 741.642 37.4528 742.346 37.1328C743.06 36.8021 743.898 36.6368 744.858 36.6368C745.722 36.6368 746.5 36.7861 747.194 37.0848C747.887 37.3728 748.426 37.7781 748.81 38.3008C749.204 38.8128 749.402 39.3941 749.402 40.0448V40.1088H747.818V40.0448C747.818 39.6608 747.69 39.3194 747.434 39.0208C747.188 38.7114 746.836 38.4714 746.378 38.3008C745.93 38.1301 745.423 38.0448 744.858 38.0448C743.876 38.0448 743.108 38.2794 742.554 38.7488C741.999 39.2074 741.722 39.8528 741.722 40.6848V40.9408C741.722 41.7514 741.999 42.3861 742.554 42.8448C743.108 43.3034 743.876 43.5328 744.858 43.5328C745.434 43.5328 745.946 43.4474 746.394 43.2768C746.842 43.1061 747.188 42.8714 747.434 42.5728C747.69 42.2741 747.818 41.9328 747.818 41.5488V41.4848H749.402V41.5488C749.402 42.2101 749.21 42.7968 748.826 43.3088C748.442 43.8208 747.903 44.2208 747.21 44.5088C746.527 44.7968 745.743 44.9408 744.858 44.9408ZM750 38.2048V36.8288H759.312V38.2048H755.456V44.7488H753.92V38.2048H750ZM768.631 40.7328C769.068 40.8714 769.399 41.0848 769.623 41.3728C769.857 41.6501 769.975 41.9914 769.975 42.3968V42.5568C769.975 43.2501 769.703 43.7888 769.159 44.1728C768.625 44.5568 767.868 44.7488 766.887 44.7488H760.871V36.8288H766.679C767.66 36.8288 768.417 37.0154 768.951 37.3888C769.495 37.7514 769.767 38.2741 769.767 38.9568V39.1168C769.767 39.8528 769.388 40.3914 768.631 40.7328ZM762.407 38.0128V40.1568H766.615C767.116 40.1568 767.5 40.0714 767.767 39.9008C768.044 39.7194 768.183 39.4634 768.183 39.1328V38.9728C768.183 38.6634 768.049 38.4288 767.783 38.2688C767.516 38.0981 767.127 38.0128 766.615 38.0128H762.407ZM768.391 42.3648C768.391 42.0448 768.257 41.7994 767.991 41.6288C767.724 41.4581 767.34 41.3728 766.839 41.3728H762.407V43.5488H766.839C767.34 43.5488 767.724 43.4634 767.991 43.2928C768.257 43.1114 768.391 42.8554 768.391 42.5248V42.3648ZM776.374 44.9408C775.403 44.9408 774.561 44.7808 773.846 44.4608C773.131 44.1301 772.582 43.6661 772.198 43.0688C771.814 42.4608 771.622 41.7514 771.622 40.9408V40.6688C771.622 39.8474 771.814 39.1328 772.198 38.5248C772.582 37.9168 773.131 37.4528 773.846 37.1328C774.561 36.8021 775.403 36.6368 776.374 36.6368C777.334 36.6368 778.166 36.8021 778.87 37.1328C779.585 37.4528 780.129 37.9168 780.502 38.5248C780.886 39.1328 781.078 39.8474 781.078 40.6688V40.9408C781.078 41.7514 780.886 42.4608 780.502 43.0688C780.129 43.6661 779.585 44.1301 778.87 44.4608C778.166 44.7808 777.334 44.9408 776.374 44.9408ZM776.358 43.5328C777.339 43.5328 778.107 43.3034 778.662 42.8448C779.217 42.3861 779.494 41.7514 779.494 40.9408V40.6688C779.494 39.8474 779.217 39.2074 778.662 38.7488C778.107 38.2794 777.339 38.0448 776.358 38.0448C775.355 38.0448 774.577 38.2741 774.022 38.7328C773.478 39.1914 773.206 39.8368 773.206 40.6688V40.9408C773.206 41.7514 773.483 42.3861 774.038 42.8448C774.603 43.3034 775.377 43.5328 776.358 43.5328ZM670.557 55.8288V63.7488H669.021V57.1728H663.485V63.7488H661.949V55.8288H670.557ZM677.805 55.6368C678.754 55.6368 679.586 55.8021 680.301 56.1328C681.016 56.4634 681.565 56.9328 681.949 57.5408C682.333 58.1381 682.525 58.8421 682.525 59.6528V59.9088C682.525 60.7194 682.333 61.4288 681.949 62.0368C681.565 62.6448 681.016 63.1141 680.301 63.4448C679.586 63.7754 678.754 63.9408 677.805 63.9408C677.218 63.9408 676.669 63.8501 676.157 63.6688C675.645 63.4874 675.197 63.2261 674.813 62.8848V66.4688H673.277V55.8288H674.701L674.765 56.7408C675.16 56.3888 675.618 56.1168 676.141 55.9248C676.664 55.7328 677.218 55.6368 677.805 55.6368ZM680.941 59.6528C680.941 58.8421 680.658 58.2074 680.093 57.7488C679.538 57.2794 678.77 57.0448 677.789 57.0448C677.16 57.0448 676.578 57.1568 676.045 57.3808C675.522 57.6048 675.112 57.9088 674.813 58.2928V61.2688C675.112 61.6528 675.522 61.9621 676.045 62.1968C676.578 62.4208 677.16 62.5328 677.789 62.5328C678.77 62.5328 679.538 62.2981 680.093 61.8288C680.658 61.3594 680.941 60.7194 680.941 59.9088V59.6528ZM693.26 60.2928H685.628C685.682 60.9861 685.98 61.5354 686.524 61.9408C687.068 62.3354 687.794 62.5328 688.7 62.5328C689.543 62.5328 690.226 62.3941 690.748 62.1168C691.282 61.8288 691.57 61.4501 691.612 60.9808H693.26C693.175 61.9088 692.727 62.6341 691.916 63.1568C691.116 63.6794 690.044 63.9408 688.7 63.9408C687.751 63.9408 686.924 63.7808 686.22 63.4608C685.516 63.1301 684.972 62.6661 684.588 62.0688C684.215 61.4714 684.028 60.7728 684.028 59.9728V59.6368C684.028 58.8261 684.215 58.1221 684.588 57.5248C684.972 56.9168 685.516 56.4528 686.22 56.1328C686.924 55.8021 687.751 55.6368 688.7 55.6368C690.119 55.6368 691.234 55.9888 692.044 56.6928C692.855 57.3861 693.26 58.3461 693.26 59.5728V60.2928ZM688.7 57.0448C687.847 57.0448 687.154 57.2208 686.62 57.5728C686.098 57.9141 685.778 58.3941 685.66 59.0128H691.628C691.532 58.3941 691.228 57.9141 690.716 57.5728C690.204 57.2208 689.532 57.0448 688.7 57.0448ZM705.462 62.3888V65.7968H703.942V63.7488H695.43V65.7968H693.91L693.894 62.3888H695.126C695.659 61.5888 695.931 60.6021 695.942 59.4288L695.99 55.8288H703.878V62.3888H705.462ZM702.358 62.3888V57.1728H697.398L697.35 59.4288C697.339 60.0688 697.275 60.6288 697.158 61.1088C697.041 61.5781 696.87 62.0048 696.646 62.3888H702.358ZM715.697 55.8288V63.7488H714.161V57.1728H708.625V63.7488H707.089V55.8288H715.697ZM722.946 55.6368C723.895 55.6368 724.727 55.8021 725.442 56.1328C726.156 56.4634 726.706 56.9328 727.09 57.5408C727.474 58.1381 727.666 58.8421 727.666 59.6528V59.9088C727.666 60.7194 727.474 61.4288 727.09 62.0368C726.706 62.6448 726.156 63.1141 725.442 63.4448C724.727 63.7754 723.895 63.9408 722.946 63.9408C722.359 63.9408 721.81 63.8501 721.298 63.6688C720.786 63.4874 720.338 63.2261 719.954 62.8848V66.4688H718.418V55.8288H719.842L719.906 56.7408C720.3 56.3888 720.759 56.1168 721.282 55.9248C721.804 55.7328 722.359 55.6368 722.946 55.6368ZM726.082 59.6528C726.082 58.8421 725.799 58.2074 725.234 57.7488C724.679 57.2794 723.911 57.0448 722.93 57.0448C722.3 57.0448 721.719 57.1568 721.186 57.3808C720.663 57.6048 720.252 57.9088 719.954 58.2928V61.2688C720.252 61.6528 720.663 61.9621 721.186 62.1968C721.719 62.4208 722.3 62.5328 722.93 62.5328C723.911 62.5328 724.679 62.2981 725.234 61.8288C725.799 61.3594 726.082 60.7194 726.082 59.9088V59.6528ZM731.249 55.8288V61.8768L737.057 55.8288H738.465V63.7488H736.993V57.7008L731.185 63.7488H729.777V55.8288H731.249ZM749.684 63.7328H748.148V61.1408H745.78L742.612 63.7488H740.628V63.5568L743.572 61.1408C742.623 61.0981 741.887 60.8581 741.364 60.4208C740.842 59.9728 740.58 59.3648 740.58 58.5968V58.4208C740.58 57.5994 740.863 56.9648 741.428 56.5168C742.004 56.0581 742.804 55.8288 743.828 55.8288H749.684V63.7328ZM748.148 59.8288V57.1728H743.94C742.756 57.1728 742.164 57.5888 742.164 58.4208V58.5968C742.164 59.4181 742.756 59.8288 743.94 59.8288H748.148ZM750.765 57.2048V55.8288H760.077V57.2048H756.221V63.7488H754.685V57.2048H750.765ZM763.108 55.8288V61.8768L768.916 55.8288H770.324V63.7488H768.852V57.7008L763.044 63.7488H761.636V55.8288H763.108ZM781.544 63.7328H780.008V61.1408H777.64L774.472 63.7488H772.488V63.5568L775.432 61.1408C774.483 61.0981 773.747 60.8581 773.224 60.4208C772.701 59.9728 772.44 59.3648 772.44 58.5968V58.4208C772.44 57.5994 772.723 56.9648 773.288 56.5168C773.864 56.0581 774.664 55.8288 775.688 55.8288H781.544V63.7328ZM780.008 59.8288V57.1728H775.8C774.616 57.1728 774.024 57.5888 774.024 58.4208V58.5968C774.024 59.4181 774.616 59.8288 775.8 59.8288H780.008Z" fill="#24A2C8"/>
<path d="M667.693 419.471C666.466 419.471 665.394 419.258 664.477 418.831C663.56 418.394 662.85 417.775 662.349 416.975C661.858 416.175 661.613 415.242 661.613 414.175V413.903C661.613 412.837 661.858 411.903 662.349 411.103C662.85 410.303 663.56 409.685 664.477 409.247C665.394 408.81 666.466 408.591 667.693 408.591C668.802 408.591 669.8 408.778 670.685 409.151C671.581 409.525 672.28 410.042 672.781 410.703C673.293 411.354 673.549 412.085 673.549 412.895V413.039H671.933V412.895C671.933 412.362 671.752 411.882 671.389 411.455C671.026 411.029 670.52 410.693 669.869 410.447C669.229 410.202 668.504 410.079 667.693 410.079C666.264 410.079 665.16 410.41 664.381 411.071C663.613 411.733 663.229 412.671 663.229 413.887V414.191C663.229 415.407 663.613 416.346 664.381 417.007C665.16 417.658 666.264 417.983 667.693 417.983C668.514 417.983 669.245 417.866 669.885 417.631C670.536 417.386 671.037 417.05 671.389 416.623C671.752 416.197 671.933 415.717 671.933 415.183V415.023H673.549V415.183C673.549 415.994 673.293 416.725 672.781 417.375C672.28 418.026 671.581 418.538 670.685 418.911C669.8 419.285 668.802 419.471 667.693 419.471ZM684.386 419.279H682.85V412.703H678.002L677.938 415.567C677.906 416.837 677.661 417.775 677.202 418.383C676.754 418.981 676.072 419.279 675.154 419.279H674.434V417.919H674.818C675.384 417.919 675.789 417.733 676.034 417.359C676.29 416.986 676.429 416.362 676.45 415.487L676.546 411.359H684.386V419.279ZM696.305 411.359V411.583L691.793 420.159C691.441 420.821 691.03 421.29 690.561 421.567C690.102 421.855 689.473 421.999 688.673 421.999H687.073V420.639H688.673C689.121 420.639 689.457 420.57 689.681 420.431C689.905 420.303 690.118 420.042 690.321 419.647L690.465 419.391L686.337 411.583V411.359H687.969L691.329 417.887L694.673 411.359H696.305ZM712.661 419.055V419.279H710.949L707.829 415.967H705.813V419.279H704.277V415.967H702.261L699.141 419.279H697.429V419.055L700.965 415.247L697.637 411.583V411.359H699.349L702.309 414.607H704.277V411.359H705.813V414.607H707.781L710.741 411.359H712.453V411.583L709.125 415.247L712.661 419.055ZM719.014 411.743C719.888 411.743 720.656 411.898 721.318 412.207C721.979 412.506 722.491 412.938 722.854 413.503C723.216 414.058 723.398 414.703 723.398 415.439V415.823C723.398 416.549 723.2 417.189 722.806 417.743C722.422 418.287 721.878 418.714 721.174 419.023C720.47 419.322 719.648 419.471 718.71 419.471C717.163 419.471 715.974 419.066 715.142 418.255C714.31 417.434 713.894 416.266 713.894 414.751V413.663C713.894 412.17 714.283 411.029 715.062 410.239C715.84 409.439 717.019 408.981 718.598 408.863L720.694 408.703C720.896 408.693 721.04 408.655 721.126 408.591C721.222 408.517 721.27 408.415 721.27 408.287V408.143H722.918V408.335C722.918 408.869 722.763 409.285 722.454 409.583C722.155 409.871 721.696 410.037 721.078 410.079L718.63 410.271C717.52 410.357 716.699 410.623 716.166 411.071C715.643 411.519 715.376 412.17 715.366 413.023C715.803 412.618 716.336 412.303 716.966 412.079C717.595 411.855 718.278 411.743 719.014 411.743ZM721.814 415.471C721.814 414.746 721.536 414.175 720.982 413.759C720.427 413.343 719.659 413.135 718.678 413.135C717.27 413.135 716.187 413.589 715.43 414.495V415.135C715.43 416.106 715.702 416.842 716.246 417.343C716.8 417.834 717.611 418.079 718.678 418.079C719.648 418.079 720.411 417.877 720.966 417.471C721.531 417.066 721.814 416.511 721.814 415.807V415.471ZM731.223 413.743C732.237 413.743 733.021 413.983 733.575 414.463C734.141 414.943 734.423 415.599 734.423 416.431V416.639C734.423 417.439 734.141 418.079 733.575 418.559C733.021 419.039 732.237 419.279 731.223 419.279H725.639V411.359H727.175V413.743H731.223ZM737.095 411.359V419.279H735.559V411.359H737.095ZM732.839 416.431C732.839 415.546 732.263 415.103 731.111 415.103H727.175V417.919H731.111C731.698 417.919 732.13 417.807 732.407 417.583C732.695 417.359 732.839 417.045 732.839 416.639V416.431ZM670.557 430.359V438.279H669.021V431.703H663.485V438.279H661.949V430.359H670.557ZM677.805 430.167C678.754 430.167 679.586 430.333 680.301 430.663C681.016 430.994 681.565 431.463 681.949 432.071C682.333 432.669 682.525 433.373 682.525 434.183V434.439C682.525 435.25 682.333 435.959 681.949 436.567C681.565 437.175 681.016 437.645 680.301 437.975C679.586 438.306 678.754 438.471 677.805 438.471C677.218 438.471 676.669 438.381 676.157 438.199C675.645 438.018 675.197 437.757 674.813 437.415V440.999H673.277V430.359H674.701L674.765 431.271C675.16 430.919 675.618 430.647 676.141 430.455C676.664 430.263 677.218 430.167 677.805 430.167ZM680.941 434.183C680.941 433.373 680.658 432.738 680.093 432.279C679.538 431.81 678.77 431.575 677.789 431.575C677.16 431.575 676.578 431.687 676.045 431.911C675.522 432.135 675.112 432.439 674.813 432.823V435.799C675.112 436.183 675.522 436.493 676.045 436.727C676.578 436.951 677.16 437.063 677.789 437.063C678.77 437.063 679.538 436.829 680.093 436.359C680.658 435.89 680.941 435.25 680.941 434.439V434.183ZM693.26 434.823H685.628C685.682 435.517 685.98 436.066 686.524 436.471C687.068 436.866 687.794 437.063 688.7 437.063C689.543 437.063 690.226 436.925 690.748 436.647C691.282 436.359 691.57 435.981 691.612 435.511H693.26C693.175 436.439 692.727 437.165 691.916 437.687C691.116 438.21 690.044 438.471 688.7 438.471C687.751 438.471 686.924 438.311 686.22 437.991C685.516 437.661 684.972 437.197 684.588 436.599C684.215 436.002 684.028 435.303 684.028 434.503V434.167C684.028 433.357 684.215 432.653 684.588 432.055C684.972 431.447 685.516 430.983 686.22 430.663C686.924 430.333 687.751 430.167 688.7 430.167C690.119 430.167 691.234 430.519 692.044 431.223C692.855 431.917 693.26 432.877 693.26 434.103V434.823ZM688.7 431.575C687.847 431.575 687.154 431.751 686.62 432.103C686.098 432.445 685.778 432.925 685.66 433.543H691.628C691.532 432.925 691.228 432.445 690.716 432.103C690.204 431.751 689.532 431.575 688.7 431.575ZM705.462 436.919V440.327H703.942V438.279H695.43V440.327H693.91L693.894 436.919H695.126C695.659 436.119 695.931 435.133 695.942 433.959L695.99 430.359H703.878V436.919H705.462ZM702.358 436.919V431.703H697.398L697.35 433.959C697.339 434.599 697.275 435.159 697.158 435.639C697.041 436.109 696.87 436.535 696.646 436.919H702.358ZM715.697 430.359V438.279H714.161V431.703H708.625V438.279H707.089V430.359H715.697ZM722.946 430.167C723.895 430.167 724.727 430.333 725.442 430.663C726.156 430.994 726.706 431.463 727.09 432.071C727.474 432.669 727.666 433.373 727.666 434.183V434.439C727.666 435.25 727.474 435.959 727.09 436.567C726.706 437.175 726.156 437.645 725.442 437.975C724.727 438.306 723.895 438.471 722.946 438.471C722.359 438.471 721.81 438.381 721.298 438.199C720.786 438.018 720.338 437.757 719.954 437.415V440.999H718.418V430.359H719.842L719.906 431.271C720.3 430.919 720.759 430.647 721.282 430.455C721.804 430.263 722.359 430.167 722.946 430.167ZM726.082 434.183C726.082 433.373 725.799 432.738 725.234 432.279C724.679 431.81 723.911 431.575 722.93 431.575C722.3 431.575 721.719 431.687 721.186 431.911C720.663 432.135 720.252 432.439 719.954 432.823V435.799C720.252 436.183 720.663 436.493 721.186 436.727C721.719 436.951 722.3 437.063 722.93 437.063C723.911 437.063 724.679 436.829 725.234 436.359C725.799 435.89 726.082 435.25 726.082 434.439V434.183ZM731.249 430.359V436.407L737.057 430.359H738.465V438.279H736.993V432.231L731.185 438.279H729.777V430.359H731.249ZM749.684 438.263H748.148V435.671H745.78L742.612 438.279H740.628V438.087L743.572 435.671C742.623 435.629 741.887 435.389 741.364 434.951C740.842 434.503 740.58 433.895 740.58 433.127V432.951C740.58 432.13 740.863 431.495 741.428 431.047C742.004 430.589 742.804 430.359 743.828 430.359H749.684V438.263ZM748.148 434.359V431.703H743.94C742.756 431.703 742.164 432.119 742.164 432.951V433.127C742.164 433.949 742.756 434.359 743.94 434.359H748.148ZM750.765 431.735V430.359H760.077V431.735H756.221V438.279H754.685V431.735H750.765ZM763.108 430.359V436.407L768.916 430.359H770.324V438.279H768.852V432.231L763.044 438.279H761.636V430.359H763.108ZM781.544 438.263H780.008V435.671H777.64L774.472 438.279H772.488V438.087L775.432 435.671C774.483 435.629 773.747 435.389 773.224 434.951C772.701 434.503 772.44 433.895 772.44 433.127V432.951C772.44 432.13 772.723 431.495 773.288 431.047C773.864 430.589 774.664 430.359 775.688 430.359H781.544V438.263ZM780.008 434.359V431.703H775.8C774.616 431.703 774.024 432.119 774.024 432.951V433.127C774.024 433.949 774.616 434.359 775.8 434.359H780.008Z" fill="#24A2C8"/>
<path d="M719.102 174.457V176.237H709.942V180.117H718.702V181.897H709.942V185.797H719.102V187.577H707.942V174.457H719.102ZM724.535 174.457V187.577H722.555V174.457H724.535ZM734.332 187.817C732.212 187.817 730.605 187.45 729.512 186.717C728.432 185.97 727.892 184.883 727.892 183.457V183.257H729.892V183.457C729.892 185.163 731.405 186.017 734.432 186.017C735.778 186.017 736.805 185.85 737.512 185.517C738.218 185.183 738.572 184.69 738.572 184.037V183.877C738.572 183.317 738.345 182.897 737.892 182.617C737.452 182.337 736.665 182.123 735.532 181.977L732.552 181.577C731.098 181.39 730.005 181.017 729.272 180.457C728.552 179.883 728.192 179.117 728.192 178.157V177.957C728.192 176.783 728.712 175.87 729.752 175.217C730.792 174.55 732.258 174.217 734.152 174.217C736.165 174.217 737.692 174.577 738.732 175.297C739.785 176.017 740.312 177.063 740.312 178.437V178.637H738.332V178.437C738.332 176.823 736.938 176.017 734.152 176.017C732.872 176.017 731.892 176.183 731.212 176.517C730.545 176.837 730.212 177.303 730.212 177.917V178.077C730.212 178.57 730.425 178.95 730.852 179.217C731.278 179.483 731.992 179.683 732.992 179.817L735.992 180.197C737.578 180.397 738.738 180.783 739.472 181.357C740.218 181.93 740.592 182.743 740.592 183.797V183.997C740.592 185.21 740.052 186.15 738.972 186.817C737.892 187.483 736.345 187.817 734.332 187.817Z" fill="#24A2C8"/>
<path d="M714.709 155.132H713.378C712.671 155.132 711.994 154.911 711.494 154.518C710.995 154.125 710.714 153.591 710.714 153.035V142.546C710.714 141.99 710.995 141.457 711.494 141.063C711.994 140.67 712.671 140.449 713.378 140.449H734.687C735.393 140.449 736.071 140.67 736.57 141.063C737.07 141.457 737.35 141.99 737.35 142.546V153.035C737.35 153.591 737.07 154.125 736.57 154.518C736.071 154.911 735.393 155.132 734.687 155.132H733.355" stroke="#24A2C8" stroke-width="2" stroke-linecap="round" stroke-linejoin="round"/>
<path d="M724.032 153.035L730.691 159.328H717.373L724.032 153.035Z" stroke="#24A2C8" stroke-width="2" stroke-linecap="round" stroke-linejoin="round"/>
<path d="M714.709 303.877H713.378C712.671 303.877 711.994 303.656 711.494 303.262C710.995 302.869 710.714 302.335 710.714 301.779V291.291C710.714 290.734 710.995 290.201 711.494 289.807C711.994 289.414 712.671 289.193 713.378 289.193H734.687C735.393 289.193 736.071 289.414 736.57 289.807C737.07 290.201 737.35 290.734 737.35 291.291V301.779C737.35 302.335 737.07 302.869 736.57 303.262C736.071 303.656 735.393 303.877 734.687 303.877H733.355" stroke="#24A2C8" stroke-width="2" stroke-linecap="round" stroke-linejoin="round"/>
<path d="M724.032 301.779L730.691 308.072H717.373L724.032 301.779Z" stroke="#24A2C8" stroke-width="2" stroke-linecap="round" stroke-linejoin="round"/>
<path d="M708.32 320.912C710.693 320.912 712.493 321.459 713.72 322.552C714.96 323.646 715.58 325.239 715.58 327.332V327.632C715.58 329.726 714.96 331.319 713.72 332.412C712.493 333.492 710.693 334.032 708.32 334.032H702.18V320.912H708.32ZM708.32 332.252C711.813 332.252 713.56 330.719 713.56 327.652V327.312C713.56 325.792 713.113 324.646 712.22 323.872C711.34 323.086 710.033 322.692 708.3 322.692H704.18V332.252H708.32ZM724.664 334.272C722.544 334.272 720.937 333.906 719.844 333.172C718.764 332.426 718.224 331.339 718.224 329.912V329.712H720.224V329.912C720.224 331.619 721.737 332.472 724.764 332.472C726.11 332.472 727.137 332.306 727.844 331.972C728.55 331.639 728.904 331.146 728.904 330.492V330.332C728.904 329.772 728.677 329.352 728.224 329.072C727.784 328.792 726.997 328.579 725.864 328.432L722.884 328.032C721.43 327.846 720.337 327.472 719.604 326.912C718.884 326.339 718.524 325.572 718.524 324.612V324.412C718.524 323.239 719.044 322.326 720.084 321.672C721.124 321.006 722.59 320.672 724.484 320.672C726.497 320.672 728.024 321.032 729.064 321.752C730.117 322.472 730.644 323.519 730.644 324.892V325.092H728.664V324.892C728.664 323.279 727.27 322.472 724.484 322.472C723.204 322.472 722.224 322.639 721.544 322.972C720.877 323.292 720.544 323.759 720.544 324.372V324.532C720.544 325.026 720.757 325.406 721.184 325.672C721.61 325.939 722.324 326.139 723.324 326.272L726.324 326.652C727.91 326.852 729.07 327.239 729.804 327.812C730.55 328.386 730.924 329.199 730.924 330.252V330.452C730.924 331.666 730.384 332.606 729.304 333.272C728.224 333.939 726.677 334.272 724.664 334.272ZM740.093 334.272C737.973 334.272 736.367 333.906 735.273 333.172C734.193 332.426 733.653 331.339 733.653 329.912V329.712H735.653V329.912C735.653 331.619 737.167 332.472 740.193 332.472C741.54 332.472 742.567 332.306 743.273 331.972C743.98 331.639 744.333 331.146 744.333 330.492V330.332C744.333 329.772 744.107 329.352 743.653 329.072C743.213 328.792 742.427 328.579 741.293 328.432L738.313 328.032C736.86 327.846 735.767 327.472 735.033 326.912C734.313 326.339 733.953 325.572 733.953 324.612V324.412C733.953 323.239 734.473 322.326 735.513 321.672C736.553 321.006 738.02 320.672 739.913 320.672C741.927 320.672 743.453 321.032 744.493 321.752C745.547 322.472 746.073 323.519 746.073 324.892V325.092H744.093V324.892C744.093 323.279 742.7 322.472 739.913 322.472C738.633 322.472 737.653 322.639 736.973 322.972C736.307 323.292 735.973 323.759 735.973 324.372V324.532C735.973 325.026 736.187 325.406 736.613 325.672C737.04 325.939 737.753 326.139 738.753 326.272L741.753 326.652C743.34 326.852 744.5 327.239 745.233 327.812C745.98 328.386 746.353 329.199 746.353 330.252V330.452C746.353 331.666 745.813 332.606 744.733 333.272C743.653 333.939 742.107 334.272 740.093 334.272Z" fill="#24A2C8"/>
<path d="M379.067 54.384C376.614 54.384 374.47 53.9573 372.635 53.104C370.801 52.2293 369.382 50.992 368.379 49.392C367.398 47.792 366.907 45.9253 366.907 43.792V43.248C366.907 41.1147 367.398 39.248 368.379 37.648C369.382 36.048 370.801 34.8107 372.635 33.936C374.47 33.0613 376.614 32.624 379.067 32.624C381.286 32.624 383.281 32.9973 385.051 33.744C386.843 34.4907 388.241 35.5253 389.243 36.848C390.267 38.1493 390.779 39.6107 390.779 41.232V41.52H387.547V41.232C387.547 40.1653 387.185 39.2053 386.459 38.352C385.734 37.4987 384.721 36.8267 383.419 36.336C382.139 35.8453 380.689 35.6 379.067 35.6C376.209 35.6 374.001 36.2613 372.443 37.584C370.907 38.9067 370.139 40.784 370.139 43.216V43.824C370.139 46.256 370.907 48.1333 372.443 49.456C374.001 50.7573 376.209 51.408 379.067 51.408C380.71 51.408 382.171 51.1733 383.451 50.704C384.753 50.2133 385.755 49.5413 386.459 48.688C387.185 47.8347 387.547 46.8747 387.547 45.808V45.488H390.779V45.808C390.779 47.4293 390.267 48.8907 389.243 50.192C388.241 51.4933 386.843 52.5173 385.051 53.264C383.281 54.0107 381.286 54.384 379.067 54.384ZM415.452 33.008V54H412.252V35.856H398.972V54H395.772V33.008H415.452ZM441.015 33.008V54H437.815V35.856H424.535V54H421.335V33.008H441.015ZM459.825 33.008C462.172 33.008 464.028 33.5733 465.393 34.704C466.758 35.8133 467.441 37.3173 467.441 39.216V39.6C467.441 41.4987 466.758 43.0133 465.393 44.144C464.028 45.2533 462.172 45.808 459.825 45.808H450.097V54H446.897V33.008H459.825ZM459.761 42.96C461.169 42.96 462.257 42.672 463.025 42.096C463.814 41.4987 464.209 40.6667 464.209 39.6V39.216C464.209 38.1493 463.814 37.328 463.025 36.752C462.257 36.1547 461.169 35.856 459.761 35.856H450.097V42.96H459.761Z" fill="#5897FB"/>
<path d="M238.412 139.102C239.542 139.528 240.406 140.115 241.004 140.862C241.601 141.608 241.9 142.472 241.9 143.454V143.838C241.9 145.843 240.929 147.4 238.988 148.51C237.068 149.598 234.326 150.142 230.764 150.142C226.902 150.142 223.958 149.416 221.932 147.966C219.926 146.494 218.924 144.35 218.924 141.534V141.246H222.156V141.534C222.156 143.475 222.849 144.904 224.236 145.822C225.644 146.718 227.841 147.166 230.828 147.166C233.494 147.166 235.468 146.888 236.748 146.334C238.028 145.779 238.668 144.915 238.668 143.742V143.39C238.668 142.408 238.188 141.715 237.228 141.31C236.268 140.883 234.636 140.67 232.332 140.67H226.732V137.822H232.108C234.241 137.822 235.777 137.598 236.716 137.15C237.676 136.702 238.156 135.976 238.156 134.974V134.622C238.156 132.446 235.628 131.358 230.572 131.358C227.756 131.358 225.665 131.827 224.3 132.766C222.934 133.704 222.252 135.123 222.252 137.022V137.278H219.052V137.022C219.052 134.227 220.044 132.094 222.028 130.622C224.033 129.128 226.902 128.382 230.636 128.382C234.049 128.382 236.694 128.915 238.572 129.982C240.449 131.048 241.388 132.542 241.388 134.462V134.878C241.388 136.776 240.396 138.184 238.412 139.102ZM241.731 187.278V187.758H238.467L235.971 182.446H224.131L221.635 187.758H218.371V187.278L228.291 166.766H231.811L241.731 187.278ZM234.595 179.566L230.051 169.934L225.507 179.566H234.595ZM239.693 204.766V207.614H226.157V225.758H222.957V204.766H239.693ZM233.322 242.766C235.669 242.766 237.525 243.331 238.89 244.462C240.256 245.571 240.938 247.075 240.938 248.974V249.358C240.938 251.256 240.256 252.771 238.89 253.902C237.525 255.011 235.669 255.566 233.322 255.566H223.594V263.758H220.394V242.766H233.322ZM233.258 252.718C234.666 252.718 235.754 252.43 236.522 251.854C237.312 251.256 237.706 250.424 237.706 249.358V248.974C237.706 247.907 237.312 247.086 236.522 246.51C235.754 245.912 234.666 245.614 233.258 245.614H223.594V252.718H233.258ZM242.103 280.766V281.246L232.919 297.726C232.066 299.262 231.17 300.318 230.231 300.894C229.314 301.47 228.066 301.758 226.487 301.758H222.743V298.91H226.487C227.319 298.91 227.949 298.803 228.375 298.59C228.823 298.376 229.229 297.982 229.591 297.406L219.607 281.246V280.766H222.935L231.319 294.43L238.807 280.766H242.103ZM238.412 329.102C239.542 329.528 240.406 330.115 241.004 330.862C241.601 331.608 241.9 332.472 241.9 333.454V333.838C241.9 335.843 240.929 337.4 238.988 338.51C237.068 339.598 234.326 340.142 230.764 340.142C226.902 340.142 223.958 339.416 221.932 337.966C219.926 336.494 218.924 334.35 218.924 331.534V331.246H222.156V331.534C222.156 333.475 222.849 334.904 224.236 335.822C225.644 336.718 227.841 337.166 230.828 337.166C233.494 337.166 235.468 336.888 236.748 336.334C238.028 335.779 238.668 334.915 238.668 333.742V333.39C238.668 332.408 238.188 331.715 237.228 331.31C236.268 330.883 234.636 330.67 232.332 330.67H226.732V327.822H232.108C234.241 327.822 235.777 327.598 236.716 327.15C237.676 326.702 238.156 325.976 238.156 324.974V324.622C238.156 322.446 235.628 321.358 230.572 321.358C227.756 321.358 225.665 321.827 224.3 322.766C222.934 323.704 222.252 325.123 222.252 327.022V327.278H219.052V327.022C219.052 324.227 220.044 322.094 222.028 320.622C224.033 319.128 226.902 318.382 230.636 318.382C234.049 318.382 236.694 318.915 238.572 319.982C240.449 321.048 241.388 322.542 241.388 324.462V324.878C241.388 326.776 240.396 328.184 238.412 329.102ZM240.912 357.246L230.992 367.07L240.592 377.278V377.758H236.88L228.176 368.574H223.344V377.758H220.144V356.766H223.344V365.694H228.112L237.072 356.766H240.912V357.246ZM241.731 415.278V415.758H238.467L235.971 410.446H224.131L221.635 415.758H218.371V415.278L228.291 394.766H231.811L241.731 415.278ZM234.595 407.566L230.051 397.934L225.507 407.566H234.595Z" fill="#5897FB"/>
<line x1="648.027" y1="34.3257" x2="648.027" y2="433.265" stroke="#24A2C8" stroke-width="2"/>
<path d="M205.698 65.1905C205.893 64.9952 205.893 64.6786 205.698 64.4834L202.516 61.3014C202.321 61.1061 202.004 61.1061 201.809 61.3014C201.614 61.4966 201.614 61.8132 201.809 62.0085L204.637 64.8369L201.809 67.6653C201.614 67.8606 201.614 68.1772 201.809 68.3724C202.004 68.5677 202.321 68.5677 202.516 68.3724L205.698 65.1905ZM178.224 65.3369L205.345 65.3369L205.345 64.3369L178.224 64.3369L178.224 65.3369Z" fill="#5897FB"/>
<path d="M484.808 154.652C484.717 154.417 484.418 154.315 484.139 154.422L479.589 156.175C479.31 156.283 479.157 156.56 479.247 156.794C479.338 157.028 479.637 157.131 479.916 157.023L483.96 155.465L485.267 158.858C485.358 159.092 485.657 159.195 485.936 159.087C486.216 158.98 486.369 158.703 486.278 158.468L484.808 154.652ZM448.937 219.846L484.775 155.009L483.829 154.684L447.991 219.521L448.937 219.846Z" fill="#5897FB"/>
<path d="M484.145 358.937C484.426 359.041 484.724 358.935 484.811 358.7L486.228 354.874C486.314 354.639 486.157 354.364 485.876 354.26C485.595 354.156 485.297 354.262 485.21 354.497L483.951 357.898L479.879 356.391C479.598 356.287 479.3 356.393 479.213 356.628C479.126 356.863 479.284 357.137 479.565 357.241L484.145 358.937ZM447.993 296.13L483.831 358.679L484.773 358.344L448.935 295.795L447.993 296.13Z" fill="#5897FB"/>
<path d="M477.876 260.465C478.071 260.27 478.071 259.953 477.876 259.758L474.694 256.576C474.498 256.381 474.182 256.381 473.987 256.576C473.791 256.771 473.791 257.088 473.987 257.283L476.815 260.111L473.987 262.94C473.791 263.135 473.791 263.452 473.987 263.647C474.182 263.842 474.498 263.842 474.694 263.647L477.876 260.465ZM449.433 260.611L477.522 260.611L477.522 259.611L449.433 259.611L449.433 260.611Z" fill="#5897FB"/>
<path d="M103.025 107.2C102.83 107.005 102.514 107.005 102.318 107.2L99.1363 110.382C98.9411 110.577 98.9411 110.894 99.1363 111.089C99.3316 111.285 99.6482 111.285 99.8434 111.089L102.672 108.261L105.5 111.089C105.696 111.285 106.012 111.285 106.207 111.089C106.403 110.894 106.403 110.577 106.207 110.382L103.025 107.2ZM102.318 188C102.514 188.196 102.83 188.196 103.025 188L106.207 184.818C106.403 184.623 106.403 184.306 106.207 184.111C106.012 183.916 105.696 183.916 105.5 184.111L102.672 186.94L99.8435 184.111C99.6482 183.916 99.3316 183.916 99.1363 184.111C98.9411 184.306 98.9411 184.623 99.1363 184.818L102.318 188ZM102.172 107.554L102.172 187.647L103.172 187.647L103.172 107.554L102.172 107.554Z" fill="#5897FB"/>
<rect x="676.586" y="114.156" width="92.9547" height="90.5349" rx="19.5" stroke="#24A2C8"/>
<rect x="676.586" y="263.663" width="92.9547" height="90.5349" rx="19.5" stroke="#24A2C8"/>
<rect x="267.835" y="204.165" width="181.098" height="119.521" rx="9.5" stroke="#5897FB"/>
<path d="M277.955 250.122V258.442L284.915 250.122H286.515V260.618H284.915V252.298L277.955 260.618H276.355V250.122H277.955ZM290.889 252.698V255.962H296.585V252.698H298.121V260.618H296.585V257.322H290.889V260.618H289.353V252.698H290.889ZM309.269 252.698C310.826 252.698 312.032 253.034 312.885 253.706C313.738 254.378 314.165 255.327 314.165 256.554V256.778C314.165 257.983 313.733 258.927 312.869 259.61C312.016 260.282 310.816 260.618 309.269 260.618H307.989V263.338H306.453V260.618H305.173C303.626 260.618 302.421 260.282 301.557 259.61C300.704 258.927 300.277 257.983 300.277 256.778V256.554C300.277 255.327 300.704 254.378 301.557 253.706C302.41 253.034 303.616 252.698 305.173 252.698H306.453V249.482H307.989V252.698H309.269ZM306.453 259.258V254.042H305.093C304.058 254.042 303.258 254.261 302.693 254.698C302.128 255.135 301.845 255.759 301.845 256.57V256.762C301.845 257.562 302.122 258.181 302.677 258.618C303.242 259.045 304.048 259.258 305.093 259.258H306.453ZM312.597 256.57C312.597 255.759 312.314 255.135 311.749 254.698C311.184 254.261 310.384 254.042 309.349 254.042H307.989V259.258H309.349C310.394 259.258 311.194 259.045 311.749 258.618C312.314 258.181 312.597 257.562 312.597 256.762V256.57ZM320.465 260.81C319.495 260.81 318.652 260.65 317.937 260.33C317.223 259.999 316.673 259.535 316.289 258.938C315.905 258.33 315.713 257.621 315.713 256.81V256.538C315.713 255.717 315.905 255.002 316.289 254.394C316.673 253.786 317.223 253.322 317.937 253.002C318.652 252.671 319.495 252.506 320.465 252.506C321.425 252.506 322.257 252.671 322.961 253.002C323.676 253.322 324.22 253.786 324.593 254.394C324.977 255.002 325.169 255.717 325.169 256.538V256.81C325.169 257.621 324.977 258.33 324.593 258.938C324.22 259.535 323.676 259.999 322.961 260.33C322.257 260.65 321.425 260.81 320.465 260.81ZM320.449 259.402C321.431 259.402 322.199 259.173 322.753 258.714C323.308 258.255 323.585 257.621 323.585 256.81V256.538C323.585 255.717 323.308 255.077 322.753 254.618C322.199 254.149 321.431 253.914 320.449 253.914C319.447 253.914 318.668 254.143 318.113 254.602C317.569 255.061 317.297 255.706 317.297 256.538V256.81C317.297 257.621 317.575 258.255 318.129 258.714C318.695 259.173 319.468 259.402 320.449 259.402ZM331.803 252.506C332.752 252.506 333.584 252.671 334.299 253.002C335.013 253.333 335.563 253.802 335.947 254.41C336.331 255.007 336.523 255.711 336.523 256.522V256.778C336.523 257.589 336.331 258.298 335.947 258.906C335.563 259.514 335.013 259.983 334.299 260.314C333.584 260.645 332.752 260.81 331.803 260.81C331.216 260.81 330.667 260.719 330.155 260.538C329.643 260.357 329.195 260.095 328.811 259.754V263.338H327.275V252.698H328.699L328.763 253.61C329.157 253.258 329.616 252.986 330.139 252.794C330.661 252.602 331.216 252.506 331.803 252.506ZM334.939 256.522C334.939 255.711 334.656 255.077 334.091 254.618C333.536 254.149 332.768 253.914 331.787 253.914C331.157 253.914 330.576 254.026 330.043 254.25C329.52 254.474 329.109 254.778 328.811 255.162V258.138C329.109 258.522 329.52 258.831 330.043 259.066C330.576 259.29 331.157 259.402 331.787 259.402C332.768 259.402 333.536 259.167 334.091 258.698C334.656 258.229 334.939 257.589 334.939 256.778V256.522ZM350.522 252.698V260.618H349.05V254.282L348.682 254.938L345.258 260.618H343.898L340.474 254.938L340.106 254.282V260.618H338.634V252.698H340.81L344.586 259.018L348.346 252.698H350.522ZM363.041 259.258V260.618H361.985C361.462 260.618 361.025 260.517 360.673 260.314C360.321 260.111 360.075 259.823 359.937 259.45C359.51 259.909 358.998 260.25 358.401 260.474C357.803 260.698 357.099 260.81 356.289 260.81C355.147 260.81 354.267 260.613 353.649 260.218C353.03 259.813 352.721 259.237 352.721 258.49C352.721 257.85 352.961 257.338 353.441 256.954C353.921 256.57 354.625 256.33 355.553 256.234L359.825 255.786C359.793 255.189 359.542 254.735 359.073 254.426C358.603 254.117 357.931 253.962 357.057 253.962C356.214 253.962 355.542 254.106 355.041 254.394C354.539 254.682 354.289 255.066 354.289 255.546V255.61H352.769V255.546C352.769 254.949 352.945 254.421 353.297 253.962C353.659 253.493 354.166 253.135 354.817 252.89C355.467 252.634 356.219 252.506 357.073 252.506C358.427 252.506 359.478 252.805 360.225 253.402C360.971 253.999 361.345 254.837 361.345 255.914V258.378C361.345 258.655 361.43 258.874 361.601 259.034C361.771 259.183 362.017 259.258 362.337 259.258H363.041ZM356.257 259.45C357.121 259.45 357.862 259.317 358.481 259.05C359.099 258.773 359.547 258.383 359.825 257.882V257.034L355.889 257.45C355.334 257.503 354.918 257.615 354.641 257.786C354.374 257.957 354.241 258.191 354.241 258.49C354.241 259.13 354.913 259.45 356.257 259.45ZM374.59 259.258V262.666H373.07V260.618H364.478V252.698H366.014V259.258H371.486V252.698H373.006V259.258H374.59ZM377.7 252.698V258.746L383.508 252.698H384.916V260.618H383.444V254.57L377.636 260.618H376.228V252.698H377.7ZM391.778 260.81C390.807 260.81 389.965 260.65 389.25 260.33C388.535 259.999 387.986 259.535 387.602 258.938C387.218 258.33 387.026 257.621 387.026 256.81V256.538C387.026 255.717 387.218 255.002 387.602 254.394C387.986 253.786 388.535 253.322 389.25 253.002C389.965 252.671 390.807 252.506 391.778 252.506C392.738 252.506 393.57 252.671 394.274 253.002C394.989 253.322 395.533 253.786 395.906 254.394C396.29 255.002 396.482 255.717 396.482 256.538V256.81C396.482 257.621 396.29 258.33 395.906 258.938C395.533 259.535 394.989 259.999 394.274 260.33C393.57 260.65 392.738 260.81 391.778 260.81ZM391.762 259.402C392.743 259.402 393.511 259.173 394.066 258.714C394.621 258.255 394.898 257.621 394.898 256.81V256.538C394.898 255.717 394.621 255.077 394.066 254.618C393.511 254.149 392.743 253.914 391.762 253.914C390.759 253.914 389.981 254.143 389.426 254.602C388.882 255.061 388.61 255.706 388.61 256.538V256.81C388.61 257.621 388.887 258.255 389.442 258.714C390.007 259.173 390.781 259.402 391.762 259.402ZM400.123 252.698V255.962H405.819V252.698H407.355V260.618H405.819V257.322H400.123V260.618H398.587V252.698H400.123ZM411.607 252.698V255.962H417.303V252.698H418.839V260.618H417.303V257.322H411.607V260.618H410.071V252.698H411.607ZM425.7 260.81C424.729 260.81 423.886 260.65 423.172 260.33C422.457 259.999 421.908 259.535 421.524 258.938C421.14 258.33 420.948 257.621 420.948 256.81V256.538C420.948 255.717 421.14 255.002 421.524 254.394C421.908 253.786 422.457 253.322 423.172 253.002C423.886 252.671 424.729 252.506 425.7 252.506C426.66 252.506 427.492 252.671 428.196 253.002C428.91 253.322 429.454 253.786 429.828 254.394C430.212 255.002 430.404 255.717 430.404 256.538V256.81C430.404 257.621 430.212 258.33 429.828 258.938C429.454 259.535 428.91 259.999 428.196 260.33C427.492 260.65 426.66 260.81 425.7 260.81ZM425.684 259.402C426.665 259.402 427.433 259.173 427.988 258.714C428.542 258.255 428.82 257.621 428.82 256.81V256.538C428.82 255.717 428.542 255.077 427.988 254.618C427.433 254.149 426.665 253.914 425.684 253.914C424.681 253.914 423.902 254.143 423.348 254.602C422.804 255.061 422.532 255.706 422.532 256.538V256.81C422.532 257.621 422.809 258.255 423.364 258.714C423.929 259.173 424.702 259.402 425.684 259.402ZM441.133 257.162H433.501C433.554 257.855 433.853 258.405 434.397 258.81C434.941 259.205 435.666 259.402 436.573 259.402C437.416 259.402 438.098 259.263 438.621 258.986C439.154 258.698 439.442 258.319 439.485 257.85H441.133C441.048 258.778 440.6 259.503 439.789 260.026C438.989 260.549 437.917 260.81 436.573 260.81C435.624 260.81 434.797 260.65 434.093 260.33C433.389 259.999 432.845 259.535 432.461 258.938C432.088 258.341 431.901 257.642 431.901 256.842V256.506C431.901 255.695 432.088 254.991 432.461 254.394C432.845 253.786 433.389 253.322 434.093 253.002C434.797 252.671 435.624 252.506 436.573 252.506C437.992 252.506 439.106 252.858 439.917 253.562C440.728 254.255 441.133 255.215 441.133 256.442V257.162ZM436.573 253.914C435.72 253.914 435.026 254.09 434.493 254.442C433.97 254.783 433.65 255.263 433.533 255.882H439.501C439.405 255.263 439.101 254.783 438.589 254.442C438.077 254.09 437.405 253.914 436.573 253.914ZM315.031 279.394V279.618H313.207L310.311 276.562L307.415 279.618H305.591V279.394L309.239 275.618L305.655 271.922V271.698H307.463L310.311 274.674L313.207 271.698H314.935V271.922L311.367 275.618L315.031 279.394ZM321.451 271.506C322.4 271.506 323.232 271.671 323.947 272.002C324.662 272.333 325.211 272.802 325.595 273.41C325.979 274.007 326.171 274.711 326.171 275.522V275.778C326.171 276.589 325.979 277.298 325.595 277.906C325.211 278.514 324.662 278.983 323.947 279.314C323.232 279.645 322.4 279.81 321.451 279.81C320.864 279.81 320.315 279.719 319.803 279.538C319.291 279.357 318.843 279.095 318.459 278.754V282.338H316.923V271.698H318.347L318.411 272.61C318.806 272.258 319.264 271.986 319.787 271.794C320.31 271.602 320.864 271.506 321.451 271.506ZM324.587 275.522C324.587 274.711 324.304 274.077 323.739 273.618C323.184 273.149 322.416 272.914 321.435 272.914C320.806 272.914 320.224 273.026 319.691 273.25C319.168 273.474 318.758 273.778 318.459 274.162V277.138C318.758 277.522 319.168 277.831 319.691 278.066C320.224 278.29 320.806 278.402 321.435 278.402C322.416 278.402 323.184 278.167 323.739 277.698C324.304 277.229 324.587 276.589 324.587 275.778V275.522ZM338.298 278.258V279.618H337.242C336.72 279.618 336.282 279.517 335.93 279.314C335.578 279.111 335.333 278.823 335.194 278.45C334.768 278.909 334.256 279.25 333.658 279.474C333.061 279.698 332.357 279.81 331.546 279.81C330.405 279.81 329.525 279.613 328.906 279.218C328.288 278.813 327.978 278.237 327.978 277.49C327.978 276.85 328.218 276.338 328.698 275.954C329.178 275.57 329.882 275.33 330.81 275.234L335.082 274.786C335.05 274.189 334.8 273.735 334.33 273.426C333.861 273.117 333.189 272.962 332.314 272.962C331.472 272.962 330.8 273.106 330.298 273.394C329.797 273.682 329.546 274.066 329.546 274.546V274.61H328.026V274.546C328.026 273.949 328.202 273.421 328.554 272.962C328.917 272.493 329.424 272.135 330.074 271.89C330.725 271.634 331.477 271.506 332.33 271.506C333.685 271.506 334.736 271.805 335.482 272.402C336.229 272.999 336.602 273.837 336.602 274.914V277.378C336.602 277.655 336.688 277.874 336.858 278.034C337.029 278.183 337.274 278.258 337.594 278.258H338.298ZM331.514 278.45C332.378 278.45 333.12 278.317 333.738 278.05C334.357 277.773 334.805 277.383 335.082 276.882V276.034L331.146 276.45C330.592 276.503 330.176 276.615 329.898 276.786C329.632 276.957 329.498 277.191 329.498 277.49C329.498 278.13 330.17 278.45 331.514 278.45ZM341.271 271.698V274.962H346.967V271.698H348.503V279.618H346.967V276.322H341.271V279.618H339.735V271.698H341.271ZM352.692 271.698V277.746L358.5 271.698H359.908V279.618H358.436V273.57L352.628 279.618H351.22V271.698H352.692ZM371.298 279.618H369.762V273.042H364.914L364.85 275.906C364.818 277.175 364.573 278.114 364.114 278.722C363.666 279.319 362.983 279.618 362.066 279.618H361.346V278.258H361.73C362.295 278.258 362.701 278.071 362.946 277.698C363.202 277.325 363.341 276.701 363.362 275.826L363.458 271.698H371.298V279.618ZM375.489 271.698V277.746L381.297 271.698H382.705V279.618H381.233V273.57L375.425 279.618H374.017V271.698H375.489ZM400.911 278.258V281.666H399.375V279.618H385.423V271.698H386.959V278.258H391.615V271.698H393.151V278.258H397.791V271.698H399.327V278.258H400.911ZM410.953 276.162H403.321C403.375 276.855 403.673 277.405 404.217 277.81C404.761 278.205 405.487 278.402 406.393 278.402C407.236 278.402 407.919 278.263 408.441 277.986C408.975 277.698 409.263 277.319 409.305 276.85H410.953C410.868 277.778 410.42 278.503 409.609 279.026C408.809 279.549 407.737 279.81 406.393 279.81C405.444 279.81 404.617 279.65 403.913 279.33C403.209 278.999 402.665 278.535 402.281 277.938C401.908 277.341 401.721 276.642 401.721 275.842V275.506C401.721 274.695 401.908 273.991 402.281 273.394C402.665 272.786 403.209 272.322 403.913 272.002C404.617 271.671 405.444 271.506 406.393 271.506C407.812 271.506 408.927 271.858 409.737 272.562C410.548 273.255 410.953 274.215 410.953 275.442V276.162ZM406.393 272.914C405.54 272.914 404.847 273.09 404.313 273.442C403.791 273.783 403.471 274.263 403.353 274.882H409.321C409.225 274.263 408.921 273.783 408.409 273.442C407.897 273.09 407.225 272.914 406.393 272.914ZM334.53 297.258V300.666H333.01V298.618H324.498V300.666H322.978L322.962 297.258H324.194C324.727 296.458 324.999 295.471 325.01 294.298L325.058 290.698H332.946V297.258H334.53ZM331.426 297.258V292.042H326.466L326.418 294.298C326.407 294.938 326.343 295.498 326.226 295.978C326.108 296.447 325.938 296.874 325.714 297.258H331.426ZM346.173 297.258V298.618H345.117C344.595 298.618 344.157 298.517 343.805 298.314C343.453 298.111 343.208 297.823 343.069 297.45C342.643 297.909 342.131 298.25 341.533 298.474C340.936 298.698 340.232 298.81 339.421 298.81C338.28 298.81 337.4 298.613 336.781 298.218C336.163 297.813 335.853 297.237 335.853 296.49C335.853 295.85 336.093 295.338 336.573 294.954C337.053 294.57 337.757 294.33 338.685 294.234L342.957 293.786C342.925 293.189 342.675 292.735 342.205 292.426C341.736 292.117 341.064 291.962 340.189 291.962C339.347 291.962 338.675 292.106 338.173 292.394C337.672 292.682 337.421 293.066 337.421 293.546V293.61H335.901V293.546C335.901 292.949 336.077 292.421 336.429 291.962C336.792 291.493 337.299 291.135 337.949 290.89C338.6 290.634 339.352 290.506 340.205 290.506C341.56 290.506 342.611 290.805 343.357 291.402C344.104 291.999 344.477 292.837 344.477 293.914V296.378C344.477 296.655 344.563 296.874 344.733 297.034C344.904 297.183 345.149 297.258 345.469 297.258H346.173ZM339.389 297.45C340.253 297.45 340.995 297.317 341.613 297.05C342.232 296.773 342.68 296.383 342.957 295.882V295.034L339.021 295.45C338.467 295.503 338.051 295.615 337.773 295.786C337.507 295.957 337.373 296.191 337.373 296.49C337.373 297.13 338.045 297.45 339.389 297.45ZM349.146 290.698V293.962H354.842V290.698H356.378V298.618H354.842V295.322H349.146V298.618H347.61V290.698H349.146ZM360.631 290.698V293.962H366.327V290.698H367.863V298.618H366.327V295.322H360.631V298.618H359.095V290.698H360.631ZM376.291 293.082C377.305 293.082 378.089 293.322 378.643 293.802C379.209 294.282 379.491 294.938 379.491 295.77V295.978C379.491 296.778 379.209 297.418 378.643 297.898C378.089 298.378 377.305 298.618 376.291 298.618H370.707V290.698H372.243V293.082H376.291ZM382.163 290.698V298.618H380.627V290.698H382.163ZM377.907 295.77C377.907 294.885 377.331 294.442 376.179 294.442H372.243V297.258H376.179C376.766 297.258 377.198 297.146 377.475 296.922C377.763 296.698 377.907 296.383 377.907 295.978V295.77ZM393.625 298.394V298.618H391.801L388.905 295.562L386.009 298.618H384.185V298.394L387.833 294.618L384.249 290.922V290.698H386.057L388.905 293.674L391.801 290.698H393.529V290.922L389.961 294.618L393.625 298.394Z" fill="#5897FB"/>
</svg>
