<svg width="860" height="622" viewBox="0 0 860 622" fill="none" xmlns="http://www.w3.org/2000/svg">
<g filter="url(#filter0_b_158_1250)">
<g clip-path="url(#clip0_158_1250)">
<rect width="840" height="622" rx="10" fill="#5897FB" fill-opacity="0.1"/>
<g filter="url(#filter1_f_158_1250)">
<path d="M51.8599 138.593C146.604 208.846 166 844.167 59.5533 987.724C-46.8937 1131.28 -238.874 728.711 -333.618 658.458C-428.363 588.206 -491.942 534.87 -385.495 391.313C-279.048 247.757 -42.8846 68.3403 51.8599 138.593Z" fill="url(#paint0_linear_158_1250)" fill-opacity="0.6"/>
</g>
<g filter="url(#filter2_f_158_1250)">
<path d="M915.68 -197.57C1028.28 -232.689 1552.91 126.157 1606.12 296.767C1659.34 467.378 1220.98 385.145 1108.38 420.265C995.782 455.384 915.22 475.302 862.007 304.691C808.794 134.081 803.081 -162.45 915.68 -197.57Z" fill="url(#paint1_linear_158_1250)"/>
</g>
</g>
</g>
<path d="M212.354 293.354C212.549 293.158 212.549 292.842 212.354 292.646L209.172 289.464C208.976 289.269 208.66 289.269 208.464 289.464C208.269 289.66 208.269 289.976 208.464 290.172L211.293 293L208.464 295.828C208.269 296.024 208.269 296.34 208.464 296.536C208.66 296.731 208.976 296.731 209.172 296.536L212.354 293.354ZM190 293.5L212 293.5L212 292.5L190 292.5L190 293.5Z" fill="#5897FB"/>
<path d="M669.646 212.646C669.451 212.842 669.451 213.158 669.646 213.354L672.828 216.536C673.024 216.731 673.34 216.731 673.536 216.536C673.731 216.34 673.731 216.024 673.536 215.828L670.707 213L673.536 210.172C673.731 209.976 673.731 209.66 673.536 209.464C673.34 209.269 673.024 209.269 672.828 209.464L669.646 212.646ZM698 212.5L670 212.5L670 213.5L698 213.5L698 212.5Z" fill="#86D7D9"/>
<path d="M669.646 412.646C669.451 412.842 669.451 413.158 669.646 413.354L672.828 416.536C673.024 416.731 673.34 416.731 673.536 416.536C673.731 416.34 673.731 416.024 673.536 415.828L670.707 413L673.536 410.172C673.731 409.976 673.731 409.66 673.536 409.464C673.34 409.269 673.024 409.269 672.828 409.464L669.646 412.646ZM698 412.5L670 412.5L670 413.5L698 413.5L698 412.5Z" fill="#86D7D9"/>
<path d="M212.354 525.354C212.549 525.158 212.549 524.842 212.354 524.646L209.172 521.464C208.976 521.269 208.66 521.269 208.464 521.464C208.269 521.66 208.269 521.976 208.464 522.172L211.293 525L208.464 527.828C208.269 528.024 208.269 528.34 208.464 528.536C208.66 528.731 208.976 528.731 209.172 528.536L212.354 525.354ZM184 525.5L212 525.5L212 524.5L184 524.5L184 525.5Z" fill="#5897FB"/>
<path d="M189.417 276.01C191.804 287.579 184.796 300.075 171.241 310.936C157.71 321.778 137.771 330.886 114.628 335.66C91.4853 340.433 69.5695 339.958 52.8526 335.355C36.1066 330.743 24.7263 322.04 22.3401 310.471C19.9539 298.902 26.9616 286.406 40.5162 275.545C54.0471 264.703 73.9865 255.595 97.1293 250.822C120.272 246.048 142.188 246.523 158.905 251.126C175.651 255.738 187.031 264.441 189.417 276.01Z" stroke="#5897FB"/>
<path d="M190.68 284.056C191.952 295.8 183.785 307.57 169.256 317.089C154.753 326.592 134.036 333.756 110.543 336.301C87.0507 338.845 65.28 336.283 49.0784 330.106C32.8485 323.918 22.3501 314.17 21.0781 302.426C19.8062 290.682 27.9737 278.911 42.5024 269.392C57.0057 259.89 77.7228 252.725 101.215 250.181C124.708 247.636 146.479 250.199 162.68 256.376C178.91 262.563 189.408 272.312 190.68 284.056Z" stroke="#5897FB"/>
<path d="M647.154 310.853C649.057 320.424 642.569 331.001 630.18 340.377C617.826 349.727 599.751 357.757 578.884 362.223C558.016 366.689 538.355 366.736 523.443 363.221C508.49 359.697 498.498 352.646 496.595 343.076C494.693 333.506 501.181 322.928 513.57 313.552C525.924 304.202 543.999 296.172 564.866 291.706C585.733 287.24 605.395 287.194 620.306 290.708C635.26 294.233 645.252 301.283 647.154 310.853Z" stroke="#5897FB"/>
<path d="M648.583 320.456C649.266 330.19 641.498 339.867 628.028 347.609C614.595 355.33 595.653 361.021 574.39 362.825C553.126 364.629 533.615 362.2 519.264 356.837C504.874 351.458 495.848 343.206 495.166 333.473C494.483 323.739 502.251 314.062 515.721 306.32C529.154 298.599 548.096 292.908 569.359 291.104C590.623 289.3 610.134 291.729 624.484 297.092C638.875 302.471 647.9 310.723 648.583 320.456Z" stroke="#5897FB"/>
<path d="M647.154 150.853C649.057 160.424 642.569 171.001 630.18 180.377C617.826 189.727 599.751 197.757 578.884 202.223C558.016 206.689 538.355 206.736 523.443 203.221C508.49 199.697 498.498 192.646 496.595 183.076C494.693 173.506 501.181 162.928 513.57 153.552C525.924 144.202 543.999 136.172 564.866 131.706C585.733 127.24 605.395 127.194 620.306 130.708C635.26 134.233 645.252 141.283 647.154 150.853Z" stroke="#5897FB"/>
<path d="M648.614 160.83C649.25 170.567 641.435 180.206 627.927 187.882C614.457 195.538 595.488 201.136 574.216 202.837C552.943 204.537 533.444 202.014 519.12 196.581C504.756 191.132 495.771 182.836 495.135 173.099C494.5 163.363 502.315 153.724 515.823 146.047C529.293 138.392 548.262 132.793 569.534 131.092C590.806 129.392 610.305 131.915 624.629 137.349C638.994 142.797 647.979 151.093 648.614 160.83Z" stroke="#5897FB"/>
<path d="M647.154 477.853C649.057 487.424 642.569 498.001 630.18 507.377C617.826 516.727 599.751 524.757 578.884 529.223C558.016 533.689 538.355 533.736 523.443 530.221C508.49 526.697 498.498 519.646 496.595 510.076C494.693 500.506 501.181 489.928 513.57 480.552C525.924 471.202 543.999 463.172 564.866 458.706C585.733 454.24 605.395 454.194 620.306 457.708C635.26 461.233 645.252 468.283 647.154 477.853Z" stroke="#5897FB"/>
<path d="M648.579 487.401C649.268 497.134 641.508 506.816 628.043 514.569C614.615 522.299 595.678 528.004 574.416 529.823C553.154 531.643 533.641 529.228 519.286 523.875C504.891 518.507 495.86 510.262 495.171 500.529C494.481 490.796 502.241 481.113 515.706 473.361C529.134 465.63 548.071 459.926 569.333 458.106C590.596 456.287 610.108 458.701 624.463 464.054C638.858 469.422 647.889 477.668 648.579 487.401Z" stroke="#5897FB"/>
<rect x="26.5" y="45.5" width="157" height="85" rx="9.5" stroke="#5897FB"/>
<rect x="212.5" y="45.5" width="48" height="522" rx="9.5" stroke="#5897FB"/>
<rect x="26.5" y="482.5" width="157" height="85" rx="9.5" stroke="#5897FB"/>
<path d="M83.024 92.192C81.8187 92.192 80.7627 91.9733 79.856 91.536C78.9493 91.0987 78.2507 90.48 77.76 89.68C77.2693 88.88 77.024 87.9413 77.024 86.864V86.656C77.024 85.5787 77.2693 84.64 77.76 83.84C78.2507 83.0293 78.9493 82.4053 79.856 81.968C80.7627 81.5307 81.8187 81.312 83.024 81.312C84.2293 81.312 85.28 81.5307 86.176 81.968C87.0827 82.4053 87.7813 83.0293 88.272 83.84C88.7627 84.64 89.008 85.5787 89.008 86.656V86.864C89.008 87.9413 88.7627 88.88 88.272 89.68C87.7813 90.48 87.0827 91.0987 86.176 91.536C85.28 91.9733 84.2293 92.192 83.024 92.192ZM83.024 90.704C84.4 90.704 85.472 90.368 86.24 89.696C87.008 89.024 87.392 88.0907 87.392 86.896V86.64C87.392 85.4347 87.008 84.496 86.24 83.824C85.472 83.1413 84.4 82.8 83.024 82.8C81.648 82.8 80.5707 83.1413 79.792 83.824C79.024 84.496 78.64 85.4347 78.64 86.64V86.896C78.64 88.0907 79.024 89.024 79.792 89.696C80.5707 90.368 81.648 90.704 83.024 90.704ZM93.1033 81.504V90.576H100.831V92H91.5033V81.504H93.1033ZM99.317 82.928V81.504H109.989V82.928H105.445V92H103.861V82.928H99.317ZM118.124 81.504C119.297 81.504 120.225 81.7867 120.908 82.352C121.59 82.9067 121.932 83.6587 121.932 84.608V84.8C121.932 85.7493 121.59 86.5067 120.908 87.072C120.225 87.6267 119.297 87.904 118.124 87.904H113.26V92H111.66V81.504H118.124ZM118.092 86.48C118.796 86.48 119.34 86.336 119.724 86.048C120.118 85.7493 120.316 85.3333 120.316 84.8V84.608C120.316 84.0747 120.118 83.664 119.724 83.376C119.34 83.0773 118.796 82.928 118.092 82.928H113.26V86.48H118.092Z" fill="#5897FB"/>
<path d="M49.2428 293.833C48.0374 293.833 46.9814 293.614 46.0748 293.177C45.1681 292.74 44.4694 292.121 43.9788 291.321C43.4881 290.521 43.2428 289.582 43.2428 288.505V288.297C43.2428 287.22 43.4881 286.281 43.9788 285.481C44.4694 284.67 45.1681 284.046 46.0748 283.609C46.9814 283.172 48.0374 282.953 49.2428 282.953C50.4481 282.953 51.4988 283.172 52.3948 283.609C53.3014 284.046 54.0001 284.67 54.4908 285.481C54.9814 286.281 55.2268 287.22 55.2268 288.297V288.505C55.2268 289.582 54.9814 290.521 54.4908 291.321C54.0001 292.121 53.3014 292.74 52.3948 293.177C51.4988 293.614 50.4481 293.833 49.2428 293.833ZM49.2428 292.345C50.6188 292.345 51.6908 292.009 52.4588 291.337C53.2268 290.665 53.6108 289.732 53.6108 288.537V288.281C53.6108 287.076 53.2268 286.137 52.4588 285.465C51.6908 284.782 50.6188 284.441 49.2428 284.441C47.8668 284.441 46.7894 284.782 46.0108 285.465C45.2428 286.137 44.8588 287.076 44.8588 288.281V288.537C44.8588 289.732 45.2428 290.665 46.0108 291.337C46.7894 292.009 47.8668 292.345 49.2428 292.345ZM66.218 285.721V293.641H64.682V287.065H59.146V293.641H57.61V285.721H66.218ZM77.5621 290.185H69.9301C69.9835 290.878 70.2821 291.428 70.8261 291.833C71.3701 292.228 72.0955 292.425 73.0021 292.425C73.8448 292.425 74.5275 292.286 75.0501 292.009C75.5835 291.721 75.8715 291.342 75.9141 290.873H77.5621C77.4768 291.801 77.0288 292.526 76.2181 293.049C75.4181 293.572 74.3461 293.833 73.0021 293.833C72.0528 293.833 71.2261 293.673 70.5221 293.353C69.8181 293.022 69.2741 292.558 68.8901 291.961C68.5168 291.364 68.3301 290.665 68.3301 289.865V289.529C68.3301 288.718 68.5168 288.014 68.8901 287.417C69.2741 286.809 69.8181 286.345 70.5221 286.025C71.2261 285.694 72.0528 285.529 73.0021 285.529C74.4208 285.529 75.5355 285.881 76.3461 286.585C77.1568 287.278 77.5621 288.238 77.5621 289.465V290.185ZM73.0021 286.937C72.1488 286.937 71.4555 287.113 70.9221 287.465C70.3995 287.806 70.0795 288.286 69.9621 288.905H75.9301C75.8341 288.286 75.5301 287.806 75.0181 287.465C74.5061 287.113 73.8341 286.937 73.0021 286.937ZM84.2005 285.529C85.1498 285.529 85.9818 285.694 86.6965 286.025C87.4112 286.356 87.9605 286.825 88.3445 287.433C88.7285 288.03 88.9205 288.734 88.9205 289.545V289.801C88.9205 290.612 88.7285 291.321 88.3445 291.929C87.9605 292.537 87.4112 293.006 86.6965 293.337C85.9818 293.668 85.1498 293.833 84.2005 293.833C83.6138 293.833 83.0645 293.742 82.5525 293.561C82.0405 293.38 81.5925 293.118 81.2085 292.777V296.361H79.6725V285.721H81.0965L81.1605 286.633C81.5552 286.281 82.0138 286.009 82.5365 285.817C83.0592 285.625 83.6138 285.529 84.2005 285.529ZM87.3365 289.545C87.3365 288.734 87.0538 288.1 86.4885 287.641C85.9338 287.172 85.1658 286.937 84.1845 286.937C83.5552 286.937 82.9738 287.049 82.4405 287.273C81.9178 287.497 81.5072 287.801 81.2085 288.185V291.161C81.5072 291.545 81.9178 291.854 82.4405 292.089C82.9738 292.313 83.5552 292.425 84.1845 292.425C85.1658 292.425 85.9338 292.19 86.4885 291.721C87.0538 291.252 87.3365 290.612 87.3365 289.801V289.545ZM101.048 292.281V293.641H99.9919C99.4692 293.641 99.0319 293.54 98.6799 293.337C98.3279 293.134 98.0825 292.846 97.9439 292.473C97.5172 292.932 97.0052 293.273 96.4079 293.497C95.8105 293.721 95.1065 293.833 94.2959 293.833C93.1545 293.833 92.2745 293.636 91.6559 293.241C91.0372 292.836 90.7279 292.26 90.7279 291.513C90.7279 290.873 90.9679 290.361 91.4479 289.977C91.9279 289.593 92.6319 289.353 93.5599 289.257L97.8319 288.809C97.7999 288.212 97.5492 287.758 97.0799 287.449C96.6105 287.14 95.9385 286.985 95.0639 286.985C94.2212 286.985 93.5492 287.129 93.0479 287.417C92.5465 287.705 92.2959 288.089 92.2959 288.569V288.633H90.7759V288.569C90.7759 287.972 90.9519 287.444 91.3039 286.985C91.6665 286.516 92.1732 286.158 92.8239 285.913C93.4745 285.657 94.2265 285.529 95.0799 285.529C96.4345 285.529 97.4852 285.828 98.2319 286.425C98.9785 287.022 99.3519 287.86 99.3519 288.937V291.401C99.3519 291.678 99.4372 291.897 99.6079 292.057C99.7785 292.206 100.024 292.281 100.344 292.281H101.048ZM94.2639 292.473C95.1279 292.473 95.8692 292.34 96.4879 292.073C97.1065 291.796 97.5545 291.406 97.8319 290.905V290.057L93.8959 290.473C93.3412 290.526 92.9252 290.638 92.6479 290.809C92.3812 290.98 92.2479 291.214 92.2479 291.513C92.2479 292.153 92.9199 292.473 94.2639 292.473ZM100.848 287.097V285.721H110.16V287.097H106.304V293.641H104.768V287.097H100.848ZM113.191 285.721V291.769L118.999 285.721H120.407V293.641H118.935V287.593L113.127 293.641H111.719V285.721H113.191ZM130.886 289.625C131.323 289.764 131.654 289.977 131.878 290.265C132.112 290.542 132.23 290.884 132.23 291.289V291.449C132.23 292.142 131.958 292.681 131.414 293.065C130.88 293.449 130.123 293.641 129.142 293.641H123.126V285.721H128.934C129.915 285.721 130.672 285.908 131.206 286.281C131.75 286.644 132.022 287.166 132.022 287.849V288.009C132.022 288.745 131.643 289.284 130.886 289.625ZM124.662 286.905V289.049H128.87C129.371 289.049 129.755 288.964 130.022 288.793C130.299 288.612 130.438 288.356 130.438 288.025V287.865C130.438 287.556 130.304 287.321 130.038 287.161C129.771 286.99 129.382 286.905 128.87 286.905H124.662ZM130.646 291.257C130.646 290.937 130.512 290.692 130.246 290.521C129.979 290.35 129.595 290.265 129.094 290.265H124.662V292.441H129.094C129.595 292.441 129.979 292.356 130.246 292.185C130.512 292.004 130.646 291.748 130.646 291.417V291.257ZM136.021 285.721V288.985H141.717V285.721H143.253V293.641H141.717V290.345H136.021V293.641H134.485V285.721H136.021ZM151.681 288.105C152.695 288.105 153.479 288.345 154.033 288.825C154.599 289.305 154.881 289.961 154.881 290.793V291.001C154.881 291.801 154.599 292.441 154.033 292.921C153.479 293.401 152.695 293.641 151.681 293.641H146.097V285.721H147.633V288.105H151.681ZM157.553 285.721V293.641H156.017V285.721H157.553ZM153.297 290.793C153.297 289.908 152.721 289.465 151.569 289.465H147.633V292.281H151.569C152.156 292.281 152.588 292.169 152.865 291.945C153.153 291.721 153.297 291.406 153.297 291.001V290.793ZM169.031 290.185H161.399C161.452 290.878 161.751 291.428 162.295 291.833C162.839 292.228 163.564 292.425 164.471 292.425C165.314 292.425 165.996 292.286 166.519 292.009C167.052 291.721 167.34 291.342 167.383 290.873H169.031C168.946 291.801 168.498 292.526 167.687 293.049C166.887 293.572 165.815 293.833 164.471 293.833C163.522 293.833 162.695 293.673 161.991 293.353C161.287 293.022 160.743 292.558 160.359 291.961C159.986 291.364 159.799 290.665 159.799 289.865V289.529C159.799 288.718 159.986 288.014 160.359 287.417C160.743 286.809 161.287 286.345 161.991 286.025C162.695 285.694 163.522 285.529 164.471 285.529C165.89 285.529 167.004 285.881 167.815 286.585C168.626 287.278 169.031 288.238 169.031 289.465V290.185ZM164.471 286.937C163.618 286.937 162.924 287.113 162.391 287.465C161.868 287.806 161.548 288.286 161.431 288.905H167.399C167.303 288.286 166.999 287.806 166.487 287.465C165.975 287.113 165.303 286.937 164.471 286.937ZM82.0294 311.281V314.689H80.5094V312.641H71.9974V314.689H70.4774L70.4614 311.281H71.6934C72.2267 310.481 72.4987 309.494 72.5094 308.321L72.5574 304.721H80.4454V311.281H82.0294ZM78.9254 311.281V306.065H73.9654L73.9174 308.321C73.9067 308.961 73.8427 309.521 73.7254 310.001C73.608 310.47 73.4374 310.897 73.2134 311.281H78.9254ZM93.6729 311.281V312.641H92.6169C92.0942 312.641 91.6569 312.54 91.3049 312.337C90.9529 312.134 90.7075 311.846 90.5689 311.473C90.1422 311.932 89.6302 312.273 89.0329 312.497C88.4355 312.721 87.7315 312.833 86.9209 312.833C85.7795 312.833 84.8995 312.636 84.2809 312.241C83.6622 311.836 83.3529 311.26 83.3529 310.513C83.3529 309.873 83.5929 309.361 84.0729 308.977C84.5529 308.593 85.2569 308.353 86.1849 308.257L90.4569 307.809C90.4249 307.212 90.1742 306.758 89.7049 306.449C89.2355 306.14 88.5635 305.985 87.6889 305.985C86.8462 305.985 86.1742 306.129 85.6729 306.417C85.1715 306.705 84.9209 307.089 84.9209 307.569V307.633H83.4009V307.569C83.4009 306.972 83.5769 306.444 83.9289 305.985C84.2915 305.516 84.7982 305.158 85.4489 304.913C86.0995 304.657 86.8515 304.529 87.7049 304.529C89.0595 304.529 90.1102 304.828 90.8569 305.425C91.6035 306.022 91.9769 306.86 91.9769 307.937V310.401C91.9769 310.678 92.0622 310.897 92.2329 311.057C92.4035 311.206 92.6489 311.281 92.9689 311.281H93.6729ZM86.8889 311.473C87.7529 311.473 88.4942 311.34 89.1129 311.073C89.7315 310.796 90.1795 310.406 90.4569 309.905V309.057L86.5209 309.473C85.9662 309.526 85.5502 309.638 85.2729 309.809C85.0062 309.98 84.8729 310.214 84.8729 310.513C84.8729 311.153 85.5449 311.473 86.8889 311.473ZM96.646 304.721V307.985H102.342V304.721H103.878V312.641H102.342V309.345H96.646V312.641H95.11V304.721H96.646ZM108.13 304.721V307.985H113.826V304.721H115.362V312.641H113.826V309.345H108.13V312.641H106.594V304.721H108.13ZM123.791 307.105C124.804 307.105 125.588 307.345 126.143 307.825C126.708 308.305 126.991 308.961 126.991 309.793V310.001C126.991 310.801 126.708 311.441 126.143 311.921C125.588 312.401 124.804 312.641 123.791 312.641H118.207V304.721H119.743V307.105H123.791ZM129.663 304.721V312.641H128.127V304.721H129.663ZM125.407 309.793C125.407 308.908 124.831 308.465 123.679 308.465H119.743V311.281H123.679C124.265 311.281 124.697 311.169 124.975 310.945C125.263 310.721 125.407 310.406 125.407 310.001V309.793ZM141.14 309.185H133.508C133.562 309.878 133.86 310.428 134.404 310.833C134.948 311.228 135.674 311.425 136.58 311.425C137.423 311.425 138.106 311.286 138.628 311.009C139.162 310.721 139.45 310.342 139.492 309.873H141.14C141.055 310.801 140.607 311.526 139.796 312.049C138.996 312.572 137.924 312.833 136.58 312.833C135.631 312.833 134.804 312.673 134.1 312.353C133.396 312.022 132.852 311.558 132.468 310.961C132.095 310.364 131.908 309.665 131.908 308.865V308.529C131.908 307.718 132.095 307.014 132.468 306.417C132.852 305.809 133.396 305.345 134.1 305.025C134.804 304.694 135.631 304.529 136.58 304.529C137.999 304.529 139.114 304.881 139.924 305.585C140.735 306.278 141.14 307.238 141.14 308.465V309.185ZM136.58 305.937C135.727 305.937 135.034 306.113 134.5 306.465C133.978 306.806 133.658 307.286 133.54 307.905H139.508C139.412 307.286 139.108 306.806 138.596 306.465C138.084 306.113 137.412 305.937 136.58 305.937Z" fill="#5897FB"/>
<path d="M71.8084 510.624C72.363 510.837 72.7844 511.141 73.0724 511.536C73.371 511.92 73.5204 512.384 73.5204 512.928V513.104C73.5204 513.989 73.179 514.693 72.4964 515.216C71.8244 515.739 70.923 516 69.7924 516H63.4564V505.504H69.4564C70.6297 505.504 71.5417 505.739 72.1924 506.208C72.8537 506.667 73.1844 507.317 73.1844 508.16V508.352C73.1844 508.853 73.067 509.296 72.8324 509.68C72.5977 510.064 72.2564 510.379 71.8084 510.624ZM65.0564 506.928V509.984H69.4404C70.859 509.984 71.5684 509.504 71.5684 508.544V508.352C71.5684 507.893 71.387 507.541 71.0244 507.296C70.6617 507.051 70.139 506.928 69.4564 506.928H65.0564ZM71.9044 512.88C71.9044 511.909 71.1897 511.424 69.7604 511.424H65.0564V514.576H69.7604C70.4324 514.576 70.955 514.443 71.3284 514.176C71.7124 513.899 71.9044 513.525 71.9044 513.056V512.88ZM77.4429 508.08V511.344H83.1389V508.08H84.6749V516H83.1389V512.704H77.4429V516H75.9069V508.08H77.4429ZM96.0153 512.544H88.3832C88.4366 513.237 88.7353 513.787 89.2793 514.192C89.8233 514.587 90.5486 514.784 91.4553 514.784C92.2979 514.784 92.9806 514.645 93.5033 514.368C94.0366 514.08 94.3246 513.701 94.3673 513.232H96.0153C95.9299 514.16 95.4819 514.885 94.6713 515.408C93.8713 515.931 92.7993 516.192 91.4553 516.192C90.5059 516.192 89.6793 516.032 88.9753 515.712C88.2713 515.381 87.7273 514.917 87.3433 514.32C86.9699 513.723 86.7833 513.024 86.7833 512.224V511.888C86.7833 511.077 86.9699 510.373 87.3433 509.776C87.7273 509.168 88.2713 508.704 88.9753 508.384C89.6793 508.053 90.5059 507.888 91.4553 507.888C92.8739 507.888 93.9886 508.24 94.7993 508.944C95.6099 509.637 96.0153 510.597 96.0153 511.824V512.544ZM91.4553 509.296C90.6019 509.296 89.9086 509.472 89.3753 509.824C88.8526 510.165 88.5326 510.645 88.4153 511.264H94.3833C94.2873 510.645 93.9833 510.165 93.4713 509.824C92.9593 509.472 92.2873 509.296 91.4553 509.296ZM99.6616 508.08V514.64H104.318V508.08H105.854V514.64H110.494V508.08H112.03V516H98.1256V508.08H99.6616ZM116.287 508.08V511.344H121.983V508.08H123.519V516H121.983V512.704H116.287V516H114.751V508.08H116.287ZM127.707 508.08V514.128L133.515 508.08H134.923V516H133.451V509.952L127.643 516H126.235V508.08H127.707ZM146.265 512.544H138.633C138.687 513.237 138.985 513.787 139.529 514.192C140.073 514.587 140.799 514.784 141.705 514.784C142.548 514.784 143.231 514.645 143.753 514.368C144.287 514.08 144.575 513.701 144.617 513.232H146.265C146.18 514.16 145.732 514.885 144.921 515.408C144.121 515.931 143.049 516.192 141.705 516.192C140.756 516.192 139.929 516.032 139.225 515.712C138.521 515.381 137.977 514.917 137.593 514.32C137.22 513.723 137.033 513.024 137.033 512.224V511.888C137.033 511.077 137.22 510.373 137.593 509.776C137.977 509.168 138.521 508.704 139.225 508.384C139.929 508.053 140.756 507.888 141.705 507.888C143.124 507.888 144.239 508.24 145.049 508.944C145.86 509.637 146.265 510.597 146.265 511.824V512.544ZM141.705 509.296C140.852 509.296 140.159 509.472 139.625 509.824C139.103 510.165 138.783 510.645 138.665 511.264H144.633C144.537 510.645 144.233 510.165 143.721 509.824C143.209 509.472 142.537 509.296 141.705 509.296ZM58.4258 527.08V533.128L64.2338 527.08H65.6418V535H64.1698V528.952L58.3618 535H56.9538V527.08H58.4258ZM72.472 535.192C71.5227 535.192 70.6907 535.032 69.976 534.712C69.2613 534.381 68.712 533.917 68.328 533.32C67.944 532.712 67.752 532.008 67.752 531.208V530.92C67.752 530.099 67.944 529.384 68.328 528.776C68.712 528.168 69.256 527.704 69.96 527.384C70.6747 527.053 71.512 526.888 72.472 526.888C73.336 526.888 74.1147 527.037 74.808 527.336C75.5013 527.624 76.04 528.029 76.424 528.552C76.8187 529.064 77.016 529.645 77.016 530.296V530.36H75.432V530.296C75.432 529.912 75.304 529.571 75.048 529.272C74.8027 528.963 74.4507 528.723 73.992 528.552C73.544 528.381 73.0373 528.296 72.472 528.296C71.4907 528.296 70.7227 528.531 70.168 529C69.6133 529.459 69.336 530.104 69.336 530.936V531.192C69.336 532.003 69.6133 532.637 70.168 533.096C70.7227 533.555 71.4907 533.784 72.472 533.784C73.048 533.784 73.56 533.699 74.008 533.528C74.456 533.357 74.8027 533.123 75.048 532.824C75.304 532.525 75.432 532.184 75.432 531.8V531.736H77.016V531.8C77.016 532.461 76.824 533.048 76.44 533.56C76.056 534.072 75.5173 534.472 74.824 534.76C74.1413 535.048 73.3573 535.192 72.472 535.192ZM77.6139 528.456V527.08H86.9259V528.456H83.0699V535H81.5339V528.456H77.6139ZM92.3321 535.192C91.3615 535.192 90.5188 535.032 89.8041 534.712C89.0895 534.381 88.5401 533.917 88.1561 533.32C87.7721 532.712 87.5801 532.003 87.5801 531.192V530.92C87.5801 530.099 87.7721 529.384 88.1561 528.776C88.5401 528.168 89.0895 527.704 89.8041 527.384C90.5188 527.053 91.3615 526.888 92.3321 526.888C93.2921 526.888 94.1241 527.053 94.8281 527.384C95.5428 527.704 96.0868 528.168 96.4601 528.776C96.8441 529.384 97.0361 530.099 97.0361 530.92V531.192C97.0361 532.003 96.8441 532.712 96.4601 533.32C96.0868 533.917 95.5428 534.381 94.8281 534.712C94.1241 535.032 93.2921 535.192 92.3321 535.192ZM92.3161 533.784C93.2975 533.784 94.0655 533.555 94.6201 533.096C95.1748 532.637 95.4521 532.003 95.4521 531.192V530.92C95.4521 530.099 95.1748 529.459 94.6201 529C94.0655 528.531 93.2975 528.296 92.3161 528.296C91.3135 528.296 90.5348 528.525 89.9801 528.984C89.4361 529.443 89.1641 530.088 89.1641 530.92V531.192C89.1641 532.003 89.4415 532.637 89.9961 533.096C90.5615 533.555 91.3348 533.784 92.3161 533.784ZM106.769 527.08V535H105.233V532.264C104.113 532.456 103.036 532.552 102.001 532.552C100.753 532.552 99.8089 532.296 99.1689 531.784C98.5395 531.272 98.2249 530.515 98.2249 529.512V527.08H99.7609V529.368C99.7609 530.584 100.561 531.192 102.161 531.192C103.057 531.192 104.081 531.096 105.233 530.904V527.08H106.769ZM111.021 527.08V530.344H116.717V527.08H118.253V535H116.717V531.704H111.021V535H109.485V527.08H111.021ZM122.441 527.08V533.128L128.249 527.08H129.657V535H128.185V528.952L122.377 535H120.969V527.08H122.441ZM141.48 534.776V535H139.736L136.248 531.672H133.912V535H132.376V527.08H133.912V530.328H136.2L139.496 527.08H141.272V527.304L137.608 530.968L141.48 534.776ZM144.832 527.08V533.128L150.64 527.08H152.048V535H150.576V528.952L144.768 535H143.36V527.08H144.832Z" fill="#5897FB"/>
<path d="M522.258 172.192C521.053 172.192 519.997 171.973 519.09 171.536C518.184 171.099 517.485 170.48 516.994 169.68C516.504 168.88 516.258 167.941 516.258 166.864V166.656C516.258 165.579 516.504 164.64 516.994 163.84C517.485 163.029 518.184 162.405 519.09 161.968C519.997 161.531 521.053 161.312 522.258 161.312C523.464 161.312 524.514 161.531 525.41 161.968C526.317 162.405 527.016 163.029 527.506 163.84C527.997 164.64 528.242 165.579 528.242 166.656V166.864C528.242 167.941 527.997 168.88 527.506 169.68C527.016 170.48 526.317 171.099 525.41 171.536C524.514 171.973 523.464 172.192 522.258 172.192ZM522.258 170.704C523.634 170.704 524.706 170.368 525.474 169.696C526.242 169.024 526.626 168.091 526.626 166.896V166.64C526.626 165.435 526.242 164.496 525.474 163.824C524.706 163.141 523.634 162.8 522.258 162.8C520.882 162.8 519.805 163.141 519.026 163.824C518.258 164.496 517.874 165.435 517.874 166.64V166.896C517.874 168.091 518.258 169.024 519.026 169.696C519.805 170.368 520.882 170.704 522.258 170.704ZM529.458 165.456V164.08H538.77V165.456H534.914V172H533.378V165.456H529.458ZM548.441 164.08V172H546.905V169.264C545.785 169.456 544.707 169.552 543.673 169.552C542.425 169.552 541.481 169.296 540.841 168.784C540.211 168.272 539.897 167.515 539.897 166.512V164.08H541.433V166.368C541.433 167.584 542.233 168.192 543.833 168.192C544.729 168.192 545.753 168.096 546.905 167.904V164.08H548.441ZM559.781 168.544H552.149C552.202 169.237 552.501 169.787 553.045 170.192C553.589 170.587 554.314 170.784 555.221 170.784C556.064 170.784 556.746 170.645 557.269 170.368C557.802 170.08 558.09 169.701 558.133 169.232H559.781C559.696 170.16 559.248 170.885 558.437 171.408C557.637 171.931 556.565 172.192 555.221 172.192C554.272 172.192 553.445 172.032 552.741 171.712C552.037 171.381 551.493 170.917 551.109 170.32C550.736 169.723 550.549 169.024 550.549 168.224V167.888C550.549 167.077 550.736 166.373 551.109 165.776C551.493 165.168 552.037 164.704 552.741 164.384C553.445 164.053 554.272 163.888 555.221 163.888C556.64 163.888 557.754 164.24 558.565 164.944C559.376 165.637 559.781 166.597 559.781 167.824V168.544ZM555.221 165.296C554.368 165.296 553.674 165.472 553.141 165.824C552.618 166.165 552.298 166.645 552.181 167.264H558.149C558.053 166.645 557.749 166.165 557.237 165.824C556.725 165.472 556.053 165.296 555.221 165.296ZM560.426 165.456V164.08H569.738V165.456H565.882V172H564.346V165.456H560.426ZM572.834 164.08V167.344H578.53V164.08H580.066V172H578.53V168.704H572.834V172H571.298V164.08H572.834ZM586.926 172.192C585.955 172.192 585.113 172.032 584.398 171.712C583.683 171.381 583.134 170.917 582.75 170.32C582.366 169.712 582.174 169.003 582.174 168.192V167.92C582.174 167.099 582.366 166.384 582.75 165.776C583.134 165.168 583.683 164.704 584.398 164.384C585.113 164.053 585.955 163.888 586.926 163.888C587.886 163.888 588.718 164.053 589.422 164.384C590.137 164.704 590.681 165.168 591.054 165.776C591.438 166.384 591.63 167.099 591.63 167.92V168.192C591.63 169.003 591.438 169.712 591.054 170.32C590.681 170.917 590.137 171.381 589.422 171.712C588.718 172.032 587.886 172.192 586.926 172.192ZM586.91 170.784C587.891 170.784 588.659 170.555 589.214 170.096C589.769 169.637 590.046 169.003 590.046 168.192V167.92C590.046 167.099 589.769 166.459 589.214 166C588.659 165.531 587.891 165.296 586.91 165.296C585.907 165.296 585.129 165.525 584.574 165.984C584.03 166.443 583.758 167.088 583.758 167.92V168.192C583.758 169.003 584.035 169.637 584.59 170.096C585.155 170.555 585.929 170.784 586.91 170.784ZM597.847 172.192C596.898 172.192 596.066 172.032 595.351 171.712C594.636 171.381 594.087 170.917 593.703 170.32C593.319 169.712 593.127 169.008 593.127 168.208V167.92C593.127 167.099 593.319 166.384 593.703 165.776C594.087 165.168 594.631 164.704 595.335 164.384C596.05 164.053 596.887 163.888 597.847 163.888C598.711 163.888 599.49 164.037 600.183 164.336C600.876 164.624 601.415 165.029 601.799 165.552C602.194 166.064 602.391 166.645 602.391 167.296V167.36H600.807V167.296C600.807 166.912 600.679 166.571 600.423 166.272C600.178 165.963 599.826 165.723 599.367 165.552C598.919 165.381 598.412 165.296 597.847 165.296C596.866 165.296 596.098 165.531 595.543 166C594.988 166.459 594.711 167.104 594.711 167.936V168.192C594.711 169.003 594.988 169.637 595.543 170.096C596.098 170.555 596.866 170.784 597.847 170.784C598.423 170.784 598.935 170.699 599.383 170.528C599.831 170.357 600.178 170.123 600.423 169.824C600.679 169.525 600.807 169.184 600.807 168.8V168.736H602.391V168.8C602.391 169.461 602.199 170.048 601.815 170.56C601.431 171.072 600.892 171.472 600.199 171.76C599.516 172.048 598.732 172.192 597.847 172.192ZM602.989 165.456V164.08H612.301V165.456H608.445V172H606.909V165.456H602.989ZM619.78 166.464C620.783 166.464 621.561 166.704 622.116 167.184C622.681 167.653 622.964 168.309 622.964 169.152V169.344C622.964 170.165 622.676 170.811 622.1 171.28C621.535 171.749 620.761 171.984 619.78 171.984H613.86V164.08H615.396V166.464H619.78ZM621.38 169.152C621.38 168.267 620.809 167.824 619.668 167.824H615.396V170.64H619.668C620.223 170.64 620.644 170.528 620.932 170.304C621.231 170.08 621.38 169.76 621.38 169.344V169.152Z" fill="#5897FB"/>
<path d="M551.563 336.192C550.358 336.192 549.302 335.973 548.395 335.536C547.488 335.099 546.79 334.48 546.299 333.68C545.808 332.88 545.563 331.941 545.563 330.864V330.656C545.563 329.579 545.808 328.64 546.299 327.84C546.79 327.029 547.488 326.405 548.395 325.968C549.302 325.531 550.358 325.312 551.563 325.312C552.768 325.312 553.819 325.531 554.715 325.968C555.622 326.405 556.32 327.029 556.811 327.84C557.302 328.64 557.547 329.579 557.547 330.656V330.864C557.547 331.941 557.302 332.88 556.811 333.68C556.32 334.48 555.622 335.099 554.715 335.536C553.819 335.973 552.768 336.192 551.563 336.192ZM551.563 334.704C552.939 334.704 554.011 334.368 554.779 333.696C555.547 333.024 555.931 332.091 555.931 330.896V330.64C555.931 329.435 555.547 328.496 554.779 327.824C554.011 327.141 552.939 326.8 551.563 326.8C550.187 326.8 549.11 327.141 548.331 327.824C547.563 328.496 547.179 329.435 547.179 330.64V330.896C547.179 332.091 547.563 333.024 548.331 333.696C549.11 334.368 550.187 334.704 551.563 334.704ZM561.642 325.504V334.576H569.37V336H560.042V325.504H561.642ZM581.555 335.76V336H579.923L578.675 333.344H572.755L571.507 336H569.875V335.76L574.835 325.504H576.595L581.555 335.76ZM577.987 331.904L575.715 327.088L573.443 331.904H577.987ZM589.803 325.504C590.977 325.504 591.905 325.787 592.587 326.352C593.27 326.907 593.611 327.659 593.611 328.608V328.8C593.611 329.749 593.27 330.507 592.587 331.072C591.905 331.627 590.977 331.904 589.803 331.904H584.939V336H583.339V325.504H589.803ZM589.771 330.48C590.475 330.48 591.019 330.336 591.403 330.048C591.798 329.749 591.995 329.333 591.995 328.8V328.608C591.995 328.075 591.798 327.664 591.403 327.376C591.019 327.077 590.475 326.928 589.771 326.928H584.939V330.48H589.771Z" fill="#5897FB"/>
<path d="M520.986 493.504C522.884 493.504 524.324 493.941 525.306 494.816C526.298 495.691 526.794 496.965 526.794 498.64V498.88C526.794 500.555 526.298 501.829 525.306 502.704C524.324 503.568 522.884 504 520.986 504H516.074V493.504H520.986ZM520.986 502.576C523.78 502.576 525.178 501.349 525.178 498.896V498.624C525.178 497.408 524.82 496.491 524.106 495.872C523.402 495.243 522.356 494.928 520.97 494.928H517.674V502.576H520.986ZM539.056 502.64V504H538C537.477 504 537.04 503.899 536.688 503.696C536.336 503.493 536.09 503.205 535.952 502.832C535.525 503.291 535.013 503.632 534.416 503.856C533.818 504.08 533.114 504.192 532.304 504.192C531.162 504.192 530.282 503.995 529.664 503.6C529.045 503.195 528.736 502.619 528.736 501.872C528.736 501.232 528.976 500.72 529.456 500.336C529.936 499.952 530.64 499.712 531.568 499.616L535.84 499.168C535.808 498.571 535.557 498.117 535.088 497.808C534.618 497.499 533.946 497.344 533.072 497.344C532.229 497.344 531.557 497.488 531.056 497.776C530.554 498.064 530.304 498.448 530.304 498.928V498.992H528.784V498.928C528.784 498.331 528.96 497.803 529.312 497.344C529.674 496.875 530.181 496.517 530.832 496.272C531.482 496.016 532.234 495.888 533.088 495.888C534.442 495.888 535.493 496.187 536.24 496.784C536.986 497.381 537.36 498.219 537.36 499.296V501.76C537.36 502.037 537.445 502.256 537.616 502.416C537.786 502.565 538.032 502.64 538.352 502.64H539.056ZM532.272 502.832C533.136 502.832 533.877 502.699 534.496 502.432C535.114 502.155 535.562 501.765 535.84 501.264V500.416L531.904 500.832C531.349 500.885 530.933 500.997 530.656 501.168C530.389 501.339 530.256 501.573 530.256 501.872C530.256 502.512 530.928 502.832 532.272 502.832ZM542.988 497.424V501.424C542.988 501.819 543.1 502.123 543.324 502.336C543.548 502.539 543.862 502.64 544.268 502.64H546.156V504H544.14C543.308 504 542.652 503.776 542.172 503.328C541.702 502.88 541.468 502.261 541.468 501.472V497.424H538.508V496.08H541.036C541.217 496.08 541.34 496.048 541.404 495.984C541.468 495.909 541.5 495.787 541.5 495.616V493.952H542.988V496.08H546.636V497.424H542.988ZM558.196 502.64V504H557.14C556.618 504 556.18 503.899 555.828 503.696C555.476 503.493 555.231 503.205 555.092 502.832C554.666 503.291 554.154 503.632 553.556 503.856C552.959 504.08 552.255 504.192 551.444 504.192C550.303 504.192 549.423 503.995 548.804 503.6C548.186 503.195 547.876 502.619 547.876 501.872C547.876 501.232 548.116 500.72 548.596 500.336C549.076 499.952 549.78 499.712 550.708 499.616L554.98 499.168C554.948 498.571 554.698 498.117 554.228 497.808C553.759 497.499 553.087 497.344 552.212 497.344C551.37 497.344 550.698 497.488 550.196 497.776C549.695 498.064 549.444 498.448 549.444 498.928V498.992H547.924V498.928C547.924 498.331 548.1 497.803 548.452 497.344C548.815 496.875 549.322 496.517 549.972 496.272C550.623 496.016 551.375 495.888 552.228 495.888C553.583 495.888 554.634 496.187 555.38 496.784C556.127 497.381 556.5 498.219 556.5 499.296V501.76C556.5 502.037 556.586 502.256 556.756 502.416C556.927 502.565 557.172 502.64 557.492 502.64H558.196ZM551.412 502.832C552.276 502.832 553.018 502.699 553.636 502.432C554.255 502.155 554.703 501.765 554.98 501.264V500.416L551.044 500.832C550.49 500.885 550.074 500.997 549.796 501.168C549.53 501.339 549.396 501.573 549.396 501.872C549.396 502.512 550.068 502.832 551.412 502.832ZM579.672 504H578.088V495.552L573.736 504H572.088L567.736 495.536V504H566.152V493.504H568.392L572.92 502.208L577.448 493.504H579.672V504ZM584.204 496.08V504H582.668V496.08H584.204ZM583.436 494.816C583.127 494.816 582.876 494.725 582.684 494.544C582.492 494.352 582.396 494.107 582.396 493.808C582.396 493.52 582.492 493.285 582.684 493.104C582.876 492.923 583.127 492.832 583.436 492.832C583.746 492.832 583.996 492.923 584.188 493.104C584.38 493.285 584.476 493.52 584.476 493.808C584.476 494.107 584.38 494.352 584.188 494.544C583.996 494.725 583.746 494.816 583.436 494.816ZM591.647 495.888C593.033 495.888 594.079 496.235 594.783 496.928C595.497 497.611 595.855 498.619 595.855 499.952V504H594.335V499.952C594.335 499.088 594.089 498.432 593.599 497.984C593.119 497.525 592.42 497.296 591.503 497.296C590.873 497.296 590.297 497.44 589.775 497.728C589.263 498.016 588.879 498.4 588.623 498.88V504H587.087V496.08H588.511L588.575 497.104C589.364 496.315 590.388 495.909 591.647 495.888ZM600.158 496.08V504H598.622V496.08H600.158ZM599.39 494.816C599.08 494.816 598.83 494.725 598.638 494.544C598.446 494.352 598.35 494.107 598.35 493.808C598.35 493.52 598.446 493.285 598.638 493.104C598.83 492.923 599.08 492.832 599.39 492.832C599.699 492.832 599.95 492.923 600.142 493.104C600.334 493.285 600.43 493.52 600.43 493.808C600.43 494.107 600.334 494.352 600.142 494.544C599.95 494.725 599.699 494.816 599.39 494.816ZM607.6 495.888C608.986 495.888 610.032 496.235 610.736 496.928C611.45 497.611 611.808 498.619 611.808 499.952V504H610.288V499.952C610.288 499.088 610.042 498.432 609.552 497.984C609.072 497.525 608.373 497.296 607.456 497.296C606.826 497.296 606.25 497.44 605.728 497.728C605.216 498.016 604.832 498.4 604.576 498.88V504H603.04V496.08H604.464L604.528 497.104C605.317 496.315 606.341 495.909 607.6 495.888ZM623.039 496.08V503.328C623.039 504.501 622.649 505.392 621.871 506C621.103 506.608 619.977 506.912 618.495 506.912C617.535 506.912 616.703 506.789 615.999 506.544C615.305 506.309 614.767 505.963 614.383 505.504C614.009 505.056 613.823 504.528 613.823 503.92V503.792H615.391V503.92C615.391 504.389 615.673 504.768 616.239 505.056C616.804 505.355 617.535 505.504 618.431 505.504C619.412 505.504 620.169 505.317 620.703 504.944C621.236 504.581 621.503 504.059 621.503 503.376V502.592C621.087 502.923 620.612 503.184 620.079 503.376C619.556 503.557 619.012 503.648 618.447 503.648C616.964 503.648 615.817 503.328 615.007 502.688C614.196 502.037 613.791 501.12 613.791 499.936V499.68C613.791 498.485 614.201 497.557 615.023 496.896C615.844 496.224 616.985 495.888 618.447 495.888C619.705 495.888 620.745 496.251 621.567 496.976L621.615 496.08H623.039ZM618.479 502.256C619.119 502.256 619.705 502.144 620.239 501.92C620.783 501.685 621.204 501.376 621.503 500.992V498.576C621.204 498.192 620.783 497.883 620.239 497.648C619.695 497.403 619.108 497.28 618.479 497.28C617.476 497.28 616.708 497.488 616.175 497.904C615.641 498.309 615.375 498.901 615.375 499.68V499.936C615.375 501.483 616.409 502.256 618.479 502.256Z" fill="#5897FB"/>
<path d="M689.936 43.504C691.109 43.504 692.037 43.7867 692.72 44.352C693.403 44.9067 693.744 45.6587 693.744 46.608V46.8C693.744 47.7493 693.403 48.5067 692.72 49.072C692.037 49.6267 691.109 49.904 689.936 49.904H685.072V54H683.472V43.504H689.936ZM689.904 48.48C690.608 48.48 691.152 48.336 691.536 48.048C691.931 47.7493 692.128 47.3333 692.128 46.8V46.608C692.128 46.0747 691.931 45.664 691.536 45.376C691.152 45.0773 690.608 44.928 689.904 44.928H685.072V48.48H689.904ZM705.154 46.08V46.304L700.642 54.88C700.29 55.5413 699.879 56.0107 699.41 56.288C698.951 56.576 698.322 56.72 697.522 56.72H695.922V55.36H697.522C697.97 55.36 698.306 55.2907 698.53 55.152C698.754 55.024 698.967 54.7627 699.17 54.368L699.314 54.112L695.186 46.304V46.08H696.818L700.178 52.608L703.522 46.08H705.154ZM716.214 53.776V54H714.47L710.982 50.672H708.646V54H707.11V46.08H708.646V49.328H710.934L714.23 46.08H716.006V46.304L712.342 49.968L716.214 53.776ZM721.613 54.192C720.643 54.192 719.8 54.032 719.085 53.712C718.371 53.3813 717.821 52.9173 717.437 52.32C717.053 51.712 716.861 51.0027 716.861 50.192V49.92C716.861 49.0987 717.053 48.384 717.437 47.776C717.821 47.168 718.371 46.704 719.085 46.384C719.8 46.0533 720.643 45.888 721.613 45.888C722.573 45.888 723.405 46.0533 724.109 46.384C724.824 46.704 725.368 47.168 725.741 47.776C726.125 48.384 726.317 49.0987 726.317 49.92V50.192C726.317 51.0027 726.125 51.712 725.741 52.32C725.368 52.9173 724.824 53.3813 724.109 53.712C723.405 54.032 722.573 54.192 721.613 54.192ZM721.597 52.784C722.579 52.784 723.347 52.5547 723.901 52.096C724.456 51.6373 724.733 51.0027 724.733 50.192V49.92C724.733 49.0987 724.456 48.4587 723.901 48C723.347 47.5307 722.579 47.296 721.597 47.296C720.595 47.296 719.816 47.5253 719.261 47.984C718.717 48.4427 718.445 49.088 718.445 49.92V50.192C718.445 51.0027 718.723 51.6373 719.277 52.096C719.843 52.5547 720.616 52.784 721.597 52.784ZM736.183 49.984C736.62 50.1227 736.951 50.336 737.175 50.624C737.409 50.9013 737.527 51.2427 737.527 51.648V51.808C737.527 52.5013 737.255 53.04 736.711 53.424C736.177 53.808 735.42 54 734.439 54H728.423V46.08H734.231C735.212 46.08 735.969 46.2667 736.503 46.64C737.047 47.0027 737.319 47.5253 737.319 48.208V48.368C737.319 49.104 736.94 49.6427 736.183 49.984ZM729.959 47.264V49.408H734.167C734.668 49.408 735.052 49.3227 735.319 49.152C735.596 48.9707 735.735 48.7147 735.735 48.384V48.224C735.735 47.9147 735.601 47.68 735.335 47.52C735.068 47.3493 734.679 47.264 734.167 47.264H729.959ZM735.943 51.616C735.943 51.296 735.809 51.0507 735.543 50.88C735.276 50.7093 734.892 50.624 734.391 50.624H729.959V52.8H734.391C734.892 52.8 735.276 52.7147 735.543 52.544C735.809 52.3627 735.943 52.1067 735.943 51.776V51.616ZM743.926 54.192C742.955 54.192 742.113 54.032 741.398 53.712C740.683 53.3813 740.134 52.9173 739.75 52.32C739.366 51.712 739.174 51.0027 739.174 50.192V49.92C739.174 49.0987 739.366 48.384 739.75 47.776C740.134 47.168 740.683 46.704 741.398 46.384C742.113 46.0533 742.955 45.888 743.926 45.888C744.886 45.888 745.718 46.0533 746.422 46.384C747.137 46.704 747.681 47.168 748.054 47.776C748.438 48.384 748.63 49.0987 748.63 49.92V50.192C748.63 51.0027 748.438 51.712 748.054 52.32C747.681 52.9173 747.137 53.3813 746.422 53.712C745.718 54.032 744.886 54.192 743.926 54.192ZM743.91 52.784C744.891 52.784 745.659 52.5547 746.214 52.096C746.769 51.6373 747.046 51.0027 747.046 50.192V49.92C747.046 49.0987 746.769 48.4587 746.214 48C745.659 47.5307 744.891 47.296 743.91 47.296C742.907 47.296 742.129 47.5253 741.574 47.984C741.03 48.4427 740.758 49.088 740.758 49.92V50.192C740.758 51.0027 741.035 51.6373 741.59 52.096C742.155 52.5547 742.929 52.784 743.91 52.784ZM760.826 52.64V56.048H759.306V54H750.794V56.048H749.274L749.258 52.64H750.49C751.024 51.84 751.296 50.8533 751.306 49.68L751.354 46.08H759.242V52.64H760.826ZM757.722 52.64V47.424H752.762L752.714 49.68C752.704 50.32 752.64 50.88 752.522 51.36C752.405 51.8293 752.234 52.256 752.01 52.64H757.722ZM766.269 54.192C765.32 54.192 764.488 54.032 763.773 53.712C763.058 53.3813 762.509 52.9173 762.125 52.32C761.741 51.712 761.549 51.008 761.549 50.208V49.92C761.549 49.0987 761.741 48.384 762.125 47.776C762.509 47.168 763.053 46.704 763.757 46.384C764.472 46.0533 765.309 45.888 766.269 45.888C767.133 45.888 767.912 46.0373 768.605 46.336C769.298 46.624 769.837 47.0293 770.221 47.552C770.616 48.064 770.813 48.6453 770.813 49.296V49.36H769.229V49.296C769.229 48.912 769.101 48.5707 768.845 48.272C768.6 47.9627 768.248 47.7227 767.789 47.552C767.341 47.3813 766.834 47.296 766.269 47.296C765.288 47.296 764.52 47.5307 763.965 48C763.41 48.4587 763.133 49.104 763.133 49.936V50.192C763.133 51.0027 763.41 51.6373 763.965 52.096C764.52 52.5547 765.288 52.784 766.269 52.784C766.845 52.784 767.357 52.6987 767.805 52.528C768.253 52.3573 768.6 52.1227 768.845 51.824C769.101 51.5253 769.229 51.184 769.229 50.8V50.736H770.813V50.8C770.813 51.4613 770.621 52.048 770.237 52.56C769.853 53.072 769.314 53.472 768.621 53.76C767.938 54.048 767.154 54.192 766.269 54.192ZM771.411 47.456V46.08H780.723V47.456H776.867V54H775.331V47.456H771.411ZM790.042 49.984C790.479 50.1227 790.81 50.336 791.034 50.624C791.269 50.9013 791.386 51.2427 791.386 51.648V51.808C791.386 52.5013 791.114 53.04 790.57 53.424C790.037 53.808 789.279 54 788.298 54H782.282V46.08H788.09C789.071 46.08 789.829 46.2667 790.362 46.64C790.906 47.0027 791.178 47.5253 791.178 48.208V48.368C791.178 49.104 790.799 49.6427 790.042 49.984ZM783.818 47.264V49.408H788.026C788.527 49.408 788.911 49.3227 789.178 49.152C789.455 48.9707 789.594 48.7147 789.594 48.384V48.224C789.594 47.9147 789.461 47.68 789.194 47.52C788.927 47.3493 788.538 47.264 788.026 47.264H783.818ZM789.802 51.616C789.802 51.296 789.669 51.0507 789.402 50.88C789.135 50.7093 788.751 50.624 788.25 50.624H783.818V52.8H788.25C788.751 52.8 789.135 52.7147 789.402 52.544C789.669 52.3627 789.802 52.1067 789.802 51.776V51.616ZM797.785 54.192C796.815 54.192 795.972 54.032 795.257 53.712C794.543 53.3813 793.993 52.9173 793.609 52.32C793.225 51.712 793.033 51.0027 793.033 50.192V49.92C793.033 49.0987 793.225 48.384 793.609 47.776C793.993 47.168 794.543 46.704 795.257 46.384C795.972 46.0533 796.815 45.888 797.785 45.888C798.745 45.888 799.577 46.0533 800.281 46.384C800.996 46.704 801.54 47.168 801.913 47.776C802.297 48.384 802.489 49.0987 802.489 49.92V50.192C802.489 51.0027 802.297 51.712 801.913 52.32C801.54 52.9173 800.996 53.3813 800.281 53.712C799.577 54.032 798.745 54.192 797.785 54.192ZM797.769 52.784C798.751 52.784 799.519 52.5547 800.073 52.096C800.628 51.6373 800.905 51.0027 800.905 50.192V49.92C800.905 49.0987 800.628 48.4587 800.073 48C799.519 47.5307 798.751 47.296 797.769 47.296C796.767 47.296 795.988 47.5253 795.433 47.984C794.889 48.4427 794.617 49.088 794.617 49.92V50.192C794.617 51.0027 794.895 51.6373 795.449 52.096C796.015 52.5547 796.788 52.784 797.769 52.784ZM691.968 65.08V73H690.432V66.424H684.896V73H683.36V65.08H691.968ZM699.216 64.888C700.165 64.888 700.997 65.0533 701.712 65.384C702.427 65.7147 702.976 66.184 703.36 66.792C703.744 67.3893 703.936 68.0933 703.936 68.904V69.16C703.936 69.9707 703.744 70.68 703.36 71.288C702.976 71.896 702.427 72.3653 701.712 72.696C700.997 73.0267 700.165 73.192 699.216 73.192C698.629 73.192 698.08 73.1013 697.568 72.92C697.056 72.7387 696.608 72.4773 696.224 72.136V75.72H694.688V65.08H696.112L696.176 65.992C696.571 65.64 697.029 65.368 697.552 65.176C698.075 64.984 698.629 64.888 699.216 64.888ZM702.352 68.904C702.352 68.0933 702.069 67.4587 701.504 67C700.949 66.5307 700.181 66.296 699.2 66.296C698.571 66.296 697.989 66.408 697.456 66.632C696.933 66.856 696.523 67.16 696.224 67.544V70.52C696.523 70.904 696.933 71.2133 697.456 71.448C697.989 71.672 698.571 71.784 699.2 71.784C700.181 71.784 700.949 71.5493 701.504 71.08C702.069 70.6107 702.352 69.9707 702.352 69.16V68.904ZM714.672 69.544H707.039C707.093 70.2373 707.392 70.7867 707.936 71.192C708.48 71.5867 709.205 71.784 710.112 71.784C710.954 71.784 711.637 71.6453 712.16 71.368C712.693 71.08 712.981 70.7013 713.024 70.232H714.672C714.586 71.16 714.138 71.8853 713.328 72.408C712.528 72.9307 711.456 73.192 710.112 73.192C709.162 73.192 708.336 73.032 707.632 72.712C706.928 72.3813 706.384 71.9173 706 71.32C705.626 70.7227 705.44 70.024 705.44 69.224V68.888C705.44 68.0773 705.626 67.3733 706 66.776C706.384 66.168 706.928 65.704 707.632 65.384C708.336 65.0533 709.162 64.888 710.112 64.888C711.53 64.888 712.645 65.24 713.456 65.944C714.266 66.6373 714.672 67.5973 714.672 68.824V69.544ZM710.112 66.296C709.258 66.296 708.565 66.472 708.032 66.824C707.509 67.1653 707.189 67.6453 707.072 68.264H713.04C712.944 67.6453 712.64 67.1653 712.128 66.824C711.616 66.472 710.944 66.296 710.112 66.296ZM726.873 71.64V75.048H725.353V73H716.841V75.048H715.321L715.305 71.64H716.537C717.07 70.84 717.342 69.8533 717.353 68.68L717.401 65.08H725.289V71.64H726.873ZM723.769 71.64V66.424H718.809L718.761 68.68C718.75 69.32 718.686 69.88 718.569 70.36C718.452 70.8293 718.281 71.256 718.057 71.64H723.769ZM737.109 65.08V73H735.573V66.424H730.037V73H728.501V65.08H737.109ZM744.357 64.888C745.306 64.888 746.138 65.0533 746.853 65.384C747.567 65.7147 748.117 66.184 748.501 66.792C748.885 67.3893 749.077 68.0933 749.077 68.904V69.16C749.077 69.9707 748.885 70.68 748.501 71.288C748.117 71.896 747.567 72.3653 746.853 72.696C746.138 73.0267 745.306 73.192 744.357 73.192C743.77 73.192 743.221 73.1013 742.709 72.92C742.197 72.7387 741.749 72.4773 741.365 72.136V75.72H739.829V65.08H741.253L741.317 65.992C741.711 65.64 742.17 65.368 742.693 65.176C743.215 64.984 743.77 64.888 744.357 64.888ZM747.493 68.904C747.493 68.0933 747.21 67.4587 746.645 67C746.09 66.5307 745.322 66.296 744.341 66.296C743.711 66.296 743.13 66.408 742.597 66.632C742.074 66.856 741.663 67.16 741.365 67.544V70.52C741.663 70.904 742.074 71.2133 742.597 71.448C743.13 71.672 743.711 71.784 744.341 71.784C745.322 71.784 746.09 71.5493 746.645 71.08C747.21 70.6107 747.493 69.9707 747.493 69.16V68.904ZM752.66 65.08V71.128L758.468 65.08H759.876V73H758.404V66.952L752.596 73H751.188V65.08H752.66ZM771.096 72.984H769.56V70.392H767.192L764.024 73H762.04V72.808L764.984 70.392C764.034 70.3493 763.298 70.1093 762.776 69.672C762.253 69.224 761.992 68.616 761.992 67.848V67.672C761.992 66.8507 762.274 66.216 762.84 65.768C763.416 65.3093 764.216 65.08 765.24 65.08H771.096V72.984ZM769.56 69.08V66.424H765.352C764.168 66.424 763.576 66.84 763.576 67.672V67.848C763.576 68.6693 764.168 69.08 765.352 69.08H769.56ZM772.176 66.456V65.08H781.488V66.456H777.632V73H776.096V66.456H772.176ZM784.52 65.08V71.128L790.328 65.08H791.736V73H790.264V66.952L784.456 73H783.048V65.08H784.52ZM802.955 72.984H801.419V70.392H799.051L795.883 73H793.899V72.808L796.843 70.392C795.894 70.3493 795.158 70.1093 794.635 69.672C794.112 69.224 793.851 68.616 793.851 67.848V67.672C793.851 66.8507 794.134 66.216 794.699 65.768C795.275 65.3093 796.075 65.08 797.099 65.08H802.955V72.984ZM801.419 69.08V66.424H797.211C796.027 66.424 795.435 66.84 795.435 67.672V67.848C795.435 68.6693 796.027 69.08 797.211 69.08H801.419Z" fill="#86D7D9"/>
<path d="M689.104 545.192C687.877 545.192 686.805 544.979 685.888 544.552C684.971 544.115 684.261 543.496 683.76 542.696C683.269 541.896 683.024 540.963 683.024 539.896V539.624C683.024 538.557 683.269 537.624 683.76 536.824C684.261 536.024 684.971 535.405 685.888 534.968C686.805 534.531 687.877 534.312 689.104 534.312C690.213 534.312 691.211 534.499 692.096 534.872C692.992 535.245 693.691 535.763 694.192 536.424C694.704 537.075 694.96 537.805 694.96 538.616V538.76H693.344V538.616C693.344 538.083 693.163 537.603 692.8 537.176C692.437 536.749 691.931 536.413 691.28 536.168C690.64 535.923 689.915 535.8 689.104 535.8C687.675 535.8 686.571 536.131 685.792 536.792C685.024 537.453 684.64 538.392 684.64 539.608V539.912C684.64 541.128 685.024 542.067 685.792 542.728C686.571 543.379 687.675 543.704 689.104 543.704C689.925 543.704 690.656 543.587 691.296 543.352C691.947 543.107 692.448 542.771 692.8 542.344C693.163 541.917 693.344 541.437 693.344 540.904V540.744H694.96V540.904C694.96 541.715 694.704 542.445 694.192 543.096C693.691 543.747 692.992 544.259 692.096 544.632C691.211 545.005 690.213 545.192 689.104 545.192ZM705.798 545H704.262V538.424H699.414L699.35 541.288C699.318 542.557 699.072 543.496 698.614 544.104C698.166 544.701 697.483 545 696.566 545H695.846V543.64H696.23C696.795 543.64 697.2 543.453 697.446 543.08C697.702 542.707 697.84 542.083 697.862 541.208L697.958 537.08H705.798V545ZM717.716 537.08V537.304L713.204 545.88C712.852 546.541 712.442 547.011 711.972 547.288C711.514 547.576 710.884 547.72 710.084 547.72H708.484V546.36H710.084C710.532 546.36 710.868 546.291 711.092 546.152C711.316 546.024 711.53 545.763 711.732 545.368L711.876 545.112L707.748 537.304V537.08H709.38L712.74 543.608L716.084 537.08H717.716ZM734.073 544.776V545H732.361L729.241 541.688H727.225V545H725.689V541.688H723.673L720.553 545H718.84V544.776L722.377 540.968L719.049 537.304V537.08H720.761L723.721 540.328H725.689V537.08H727.225V540.328H729.193L732.153 537.08H733.865V537.304L730.537 540.968L734.073 544.776ZM740.425 537.464C741.3 537.464 742.068 537.619 742.729 537.928C743.39 538.227 743.902 538.659 744.265 539.224C744.628 539.779 744.809 540.424 744.809 541.16V541.544C744.809 542.269 744.612 542.909 744.217 543.464C743.833 544.008 743.289 544.435 742.585 544.744C741.881 545.043 741.06 545.192 740.121 545.192C738.574 545.192 737.385 544.787 736.553 543.976C735.721 543.155 735.305 541.987 735.305 540.472V539.384C735.305 537.891 735.694 536.749 736.473 535.96C737.252 535.16 738.43 534.701 740.009 534.584L742.105 534.424C742.308 534.413 742.452 534.376 742.537 534.312C742.633 534.237 742.681 534.136 742.681 534.008V533.864H744.329V534.056C744.329 534.589 744.174 535.005 743.865 535.304C743.566 535.592 743.108 535.757 742.489 535.8L740.041 535.992C738.932 536.077 738.11 536.344 737.577 536.792C737.054 537.24 736.788 537.891 736.777 538.744C737.214 538.339 737.748 538.024 738.377 537.8C739.006 537.576 739.689 537.464 740.425 537.464ZM743.225 541.192C743.225 540.467 742.948 539.896 742.393 539.48C741.838 539.064 741.07 538.856 740.089 538.856C738.681 538.856 737.598 539.309 736.841 540.216V540.856C736.841 541.827 737.113 542.563 737.657 543.064C738.212 543.555 739.022 543.8 740.089 543.8C741.06 543.8 741.822 543.597 742.377 543.192C742.942 542.787 743.225 542.232 743.225 541.528V541.192ZM752.635 539.464C753.648 539.464 754.432 539.704 754.987 540.184C755.552 540.664 755.835 541.32 755.835 542.152V542.36C755.835 543.16 755.552 543.8 754.987 544.28C754.432 544.76 753.648 545 752.635 545H747.051V537.08H748.587V539.464H752.635ZM758.507 537.08V545H756.971V537.08H758.507ZM754.251 542.152C754.251 541.267 753.675 540.824 752.523 540.824H748.587V543.64H752.523C753.109 543.64 753.541 543.528 753.819 543.304C754.107 543.08 754.251 542.765 754.251 542.36V542.152ZM691.968 556.08V564H690.432V557.424H684.896V564H683.36V556.08H691.968ZM699.216 555.888C700.165 555.888 700.997 556.053 701.712 556.384C702.427 556.715 702.976 557.184 703.36 557.792C703.744 558.389 703.936 559.093 703.936 559.904V560.16C703.936 560.971 703.744 561.68 703.36 562.288C702.976 562.896 702.427 563.365 701.712 563.696C700.997 564.027 700.165 564.192 699.216 564.192C698.629 564.192 698.08 564.101 697.568 563.92C697.056 563.739 696.608 563.477 696.224 563.136V566.72H694.688V556.08H696.112L696.176 556.992C696.571 556.64 697.029 556.368 697.552 556.176C698.075 555.984 698.629 555.888 699.216 555.888ZM702.352 559.904C702.352 559.093 702.069 558.459 701.504 558C700.949 557.531 700.181 557.296 699.2 557.296C698.571 557.296 697.989 557.408 697.456 557.632C696.933 557.856 696.523 558.16 696.224 558.544V561.52C696.523 561.904 696.933 562.213 697.456 562.448C697.989 562.672 698.571 562.784 699.2 562.784C700.181 562.784 700.949 562.549 701.504 562.08C702.069 561.611 702.352 560.971 702.352 560.16V559.904ZM714.672 560.544H707.039C707.093 561.237 707.392 561.787 707.936 562.192C708.48 562.587 709.205 562.784 710.112 562.784C710.954 562.784 711.637 562.645 712.16 562.368C712.693 562.08 712.981 561.701 713.024 561.232H714.672C714.586 562.16 714.138 562.885 713.328 563.408C712.528 563.931 711.456 564.192 710.112 564.192C709.162 564.192 708.336 564.032 707.632 563.712C706.928 563.381 706.384 562.917 706 562.32C705.626 561.723 705.44 561.024 705.44 560.224V559.888C705.44 559.077 705.626 558.373 706 557.776C706.384 557.168 706.928 556.704 707.632 556.384C708.336 556.053 709.162 555.888 710.112 555.888C711.53 555.888 712.645 556.24 713.456 556.944C714.266 557.637 714.672 558.597 714.672 559.824V560.544ZM710.112 557.296C709.258 557.296 708.565 557.472 708.032 557.824C707.509 558.165 707.189 558.645 707.072 559.264H713.04C712.944 558.645 712.64 558.165 712.128 557.824C711.616 557.472 710.944 557.296 710.112 557.296ZM726.873 562.64V566.048H725.353V564H716.841V566.048H715.321L715.305 562.64H716.537C717.07 561.84 717.342 560.853 717.353 559.68L717.401 556.08H725.289V562.64H726.873ZM723.769 562.64V557.424H718.809L718.761 559.68C718.75 560.32 718.686 560.88 718.569 561.36C718.452 561.829 718.281 562.256 718.057 562.64H723.769ZM737.109 556.08V564H735.573V557.424H730.037V564H728.501V556.08H737.109ZM744.357 555.888C745.306 555.888 746.138 556.053 746.853 556.384C747.567 556.715 748.117 557.184 748.501 557.792C748.885 558.389 749.077 559.093 749.077 559.904V560.16C749.077 560.971 748.885 561.68 748.501 562.288C748.117 562.896 747.567 563.365 746.853 563.696C746.138 564.027 745.306 564.192 744.357 564.192C743.77 564.192 743.221 564.101 742.709 563.92C742.197 563.739 741.749 563.477 741.365 563.136V566.72H739.829V556.08H741.253L741.317 556.992C741.711 556.64 742.17 556.368 742.693 556.176C743.215 555.984 743.77 555.888 744.357 555.888ZM747.493 559.904C747.493 559.093 747.21 558.459 746.645 558C746.09 557.531 745.322 557.296 744.341 557.296C743.711 557.296 743.13 557.408 742.597 557.632C742.074 557.856 741.663 558.16 741.365 558.544V561.52C741.663 561.904 742.074 562.213 742.597 562.448C743.13 562.672 743.711 562.784 744.341 562.784C745.322 562.784 746.09 562.549 746.645 562.08C747.21 561.611 747.493 560.971 747.493 560.16V559.904ZM752.66 556.08V562.128L758.468 556.08H759.876V564H758.404V557.952L752.596 564H751.188V556.08H752.66ZM771.096 563.984H769.56V561.392H767.192L764.024 564H762.04V563.808L764.984 561.392C764.034 561.349 763.298 561.109 762.776 560.672C762.253 560.224 761.992 559.616 761.992 558.848V558.672C761.992 557.851 762.274 557.216 762.84 556.768C763.416 556.309 764.216 556.08 765.24 556.08H771.096V563.984ZM769.56 560.08V557.424H765.352C764.168 557.424 763.576 557.84 763.576 558.672V558.848C763.576 559.669 764.168 560.08 765.352 560.08H769.56ZM772.176 557.456V556.08H781.488V557.456H777.632V564H776.096V557.456H772.176ZM784.52 556.08V562.128L790.328 556.08H791.736V564H790.264V557.952L784.456 564H783.048V556.08H784.52ZM802.955 563.984H801.419V561.392H799.051L795.883 564H793.899V563.808L796.843 561.392C795.894 561.349 795.158 561.109 794.635 560.672C794.112 560.224 793.851 559.616 793.851 558.848V558.672C793.851 557.851 794.134 557.216 794.699 556.768C795.275 556.309 796.075 556.08 797.099 556.08H802.955V563.984ZM801.419 560.08V557.424H797.211C796.027 557.424 795.435 557.84 795.435 558.672V558.848C795.435 559.669 796.027 560.08 797.211 560.08H801.419Z" fill="#86D7D9"/>
<path d="M742.57 226.88V228.66H733.41V232.54H742.17V234.32H733.41V238.22H742.57V240H731.41V226.88H742.57ZM748.003 226.88V240H746.023V226.88H748.003ZM757.8 240.24C755.68 240.24 754.073 239.873 752.98 239.14C751.9 238.393 751.36 237.307 751.36 235.88V235.68H753.36V235.88C753.36 237.587 754.873 238.44 757.9 238.44C759.247 238.44 760.273 238.273 760.98 237.94C761.687 237.607 762.04 237.113 762.04 236.46V236.3C762.04 235.74 761.813 235.32 761.36 235.04C760.92 234.76 760.133 234.547 759 234.4L756.02 234C754.567 233.813 753.473 233.44 752.74 232.88C752.02 232.307 751.66 231.54 751.66 230.58V230.38C751.66 229.207 752.18 228.293 753.22 227.64C754.26 226.973 755.727 226.64 757.62 226.64C759.633 226.64 761.16 227 762.2 227.72C763.253 228.44 763.78 229.487 763.78 230.86V231.06H761.8V230.86C761.8 229.247 760.407 228.44 757.62 228.44C756.34 228.44 755.36 228.607 754.68 228.94C754.013 229.26 753.68 229.727 753.68 230.34V230.5C753.68 230.993 753.893 231.373 754.32 231.64C754.747 231.907 755.46 232.107 756.46 232.24L759.46 232.62C761.047 232.82 762.207 233.207 762.94 233.78C763.687 234.353 764.06 235.167 764.06 236.22V236.42C764.06 237.633 763.52 238.573 762.44 239.24C761.36 239.907 759.813 240.24 757.8 240.24Z" fill="#86D7D9"/>
<path d="M737.875 203.375H736.5C735.771 203.375 735.071 203.085 734.555 202.57C734.04 202.054 733.75 201.354 733.75 200.625V186.875C733.75 186.146 734.04 185.446 734.555 184.93C735.071 184.415 735.771 184.125 736.5 184.125H758.5C759.229 184.125 759.929 184.415 760.445 184.93C760.96 185.446 761.25 186.146 761.25 186.875V200.625C761.25 201.354 760.96 202.054 760.445 202.57C759.929 203.085 759.229 203.375 758.5 203.375H757.125" stroke="#86D7D9" stroke-width="2" stroke-linecap="round" stroke-linejoin="round"/>
<path d="M747.5 200.625L754.375 208.875H740.625L747.5 200.625Z" stroke="#86D7D9" stroke-width="2" stroke-linecap="round" stroke-linejoin="round"/>
<path d="M737.875 398.375H736.5C735.771 398.375 735.071 398.085 734.555 397.57C734.04 397.054 733.75 396.354 733.75 395.625V381.875C733.75 381.146 734.04 380.446 734.555 379.93C735.071 379.415 735.771 379.125 736.5 379.125H758.5C759.229 379.125 759.929 379.415 760.445 379.93C760.96 380.446 761.25 381.146 761.25 381.875V395.625C761.25 396.354 760.96 397.054 760.445 397.57C759.929 398.085 759.229 398.375 758.5 398.375H757.125" stroke="#86D7D9" stroke-width="2" stroke-linecap="round" stroke-linejoin="round"/>
<path d="M747.5 395.625L754.375 403.875H740.625L747.5 395.625Z" stroke="#86D7D9" stroke-width="2" stroke-linecap="round" stroke-linejoin="round"/>
<path d="M731.789 418.88C734.162 418.88 735.962 419.427 737.189 420.52C738.429 421.613 739.049 423.207 739.049 425.3V425.6C739.049 427.693 738.429 429.287 737.189 430.38C735.962 431.46 734.162 432 731.789 432H725.649V418.88H731.789ZM731.789 430.22C735.282 430.22 737.029 428.687 737.029 425.62V425.28C737.029 423.76 736.582 422.613 735.689 421.84C734.809 421.053 733.502 420.66 731.769 420.66H727.649V430.22H731.789ZM748.132 432.24C746.012 432.24 744.405 431.873 743.312 431.14C742.232 430.393 741.692 429.307 741.692 427.88V427.68H743.692V427.88C743.692 429.587 745.205 430.44 748.232 430.44C749.579 430.44 750.605 430.273 751.312 429.94C752.019 429.607 752.372 429.113 752.372 428.46V428.3C752.372 427.74 752.145 427.32 751.692 427.04C751.252 426.76 750.465 426.547 749.332 426.4L746.352 426C744.899 425.813 743.805 425.44 743.072 424.88C742.352 424.307 741.992 423.54 741.992 422.58V422.38C741.992 421.207 742.512 420.293 743.552 419.64C744.592 418.973 746.059 418.64 747.952 418.64C749.965 418.64 751.492 419 752.532 419.72C753.585 420.44 754.112 421.487 754.112 422.86V423.06H752.132V422.86C752.132 421.247 750.739 420.44 747.952 420.44C746.672 420.44 745.692 420.607 745.012 420.94C744.345 421.26 744.012 421.727 744.012 422.34V422.5C744.012 422.993 744.225 423.373 744.652 423.64C745.079 423.907 745.792 424.107 746.792 424.24L749.792 424.62C751.379 424.82 752.539 425.207 753.272 425.78C754.019 426.353 754.392 427.167 754.392 428.22V428.42C754.392 429.633 753.852 430.573 752.772 431.24C751.692 431.907 750.145 432.24 748.132 432.24ZM763.562 432.24C761.442 432.24 759.835 431.873 758.742 431.14C757.662 430.393 757.122 429.307 757.122 427.88V427.68H759.122V427.88C759.122 429.587 760.635 430.44 763.662 430.44C765.008 430.44 766.035 430.273 766.742 429.94C767.448 429.607 767.802 429.113 767.802 428.46V428.3C767.802 427.74 767.575 427.32 767.122 427.04C766.682 426.76 765.895 426.547 764.762 426.4L761.782 426C760.328 425.813 759.235 425.44 758.502 424.88C757.782 424.307 757.422 423.54 757.422 422.58V422.38C757.422 421.207 757.942 420.293 758.982 419.64C760.022 418.973 761.488 418.64 763.382 418.64C765.395 418.64 766.922 419 767.962 419.72C769.015 420.44 769.542 421.487 769.542 422.86V423.06H767.562V422.86C767.562 421.247 766.168 420.44 763.382 420.44C762.102 420.44 761.122 420.607 760.442 420.94C759.775 421.26 759.442 421.727 759.442 422.34V422.5C759.442 422.993 759.655 423.373 760.082 423.64C760.508 423.907 761.222 424.107 762.222 424.24L765.222 424.62C766.808 424.82 767.968 425.207 768.702 425.78C769.448 426.353 769.822 427.167 769.822 428.22V428.42C769.822 429.633 769.282 430.573 768.202 431.24C767.122 431.907 765.575 432.24 763.562 432.24Z" fill="#86D7D9"/>
<path d="M389.567 61.384C387.114 61.384 384.97 60.9573 383.135 60.104C381.301 59.2293 379.882 57.992 378.879 56.392C377.898 54.792 377.407 52.9253 377.407 50.792V50.248C377.407 48.1147 377.898 46.248 378.879 44.648C379.882 43.048 381.301 41.8107 383.135 40.936C384.97 40.0613 387.114 39.624 389.567 39.624C391.786 39.624 393.781 39.9973 395.551 40.744C397.343 41.4907 398.741 42.5253 399.743 43.848C400.767 45.1493 401.279 46.6107 401.279 48.232V48.52H398.047V48.232C398.047 47.1653 397.685 46.2053 396.959 45.352C396.234 44.4987 395.221 43.8267 393.919 43.336C392.639 42.8453 391.189 42.6 389.567 42.6C386.709 42.6 384.501 43.2613 382.943 44.584C381.407 45.9067 380.639 47.784 380.639 50.216V50.824C380.639 53.256 381.407 55.1333 382.943 56.456C384.501 57.7573 386.709 58.408 389.567 58.408C391.21 58.408 392.671 58.1733 393.951 57.704C395.253 57.2133 396.255 56.5413 396.959 55.688C397.685 54.8347 398.047 53.8747 398.047 52.808V52.488H401.279V52.808C401.279 54.4293 400.767 55.8907 399.743 57.192C398.741 58.4933 397.343 59.5173 395.551 60.264C393.781 61.0107 391.786 61.384 389.567 61.384ZM425.952 40.008V61H422.752V42.856H409.472V61H406.272V40.008H425.952ZM451.515 40.008V61H448.315V42.856H435.035V61H431.835V40.008H451.515ZM470.325 40.008C472.672 40.008 474.528 40.5733 475.893 41.704C477.258 42.8133 477.941 44.3173 477.941 46.216V46.6C477.941 48.4987 477.258 50.0133 475.893 51.144C474.528 52.2533 472.672 52.808 470.325 52.808H460.597V61H457.397V40.008H470.325ZM470.261 49.96C471.669 49.96 472.757 49.672 473.525 49.096C474.314 48.4987 474.709 47.6667 474.709 46.6V46.216C474.709 45.1493 474.314 44.328 473.525 43.752C472.757 43.1547 471.669 42.856 470.261 42.856H460.597V49.96H470.261Z" fill="#5897FB"/>
<path d="M245.868 176.344C246.999 176.771 247.863 177.357 248.46 178.104C249.057 178.851 249.356 179.715 249.356 180.696V181.08C249.356 183.085 248.385 184.643 246.444 185.752C244.524 186.84 241.783 187.384 238.22 187.384C234.359 187.384 231.415 186.659 229.388 185.208C227.383 183.736 226.38 181.592 226.38 178.776V178.488H229.612V178.776C229.612 180.717 230.305 182.147 231.692 183.064C233.1 183.96 235.297 184.408 238.284 184.408C240.951 184.408 242.924 184.131 244.204 183.576C245.484 183.021 246.124 182.157 246.124 180.984V180.632C246.124 179.651 245.644 178.957 244.684 178.552C243.724 178.125 242.092 177.912 239.788 177.912H234.188V175.064H239.564C241.697 175.064 243.233 174.84 244.172 174.392C245.132 173.944 245.612 173.219 245.612 172.216V171.864C245.612 169.688 243.084 168.6 238.028 168.6C235.212 168.6 233.121 169.069 231.756 170.008C230.391 170.947 229.708 172.365 229.708 174.264V174.52H226.508V174.264C226.508 171.469 227.5 169.336 229.484 167.864C231.489 166.371 234.359 165.624 238.092 165.624C241.505 165.624 244.151 166.157 246.028 167.224C247.905 168.291 248.844 169.784 248.844 171.704V172.12C248.844 174.019 247.852 175.427 245.868 176.344ZM249.188 224.52V225H245.924L243.428 219.688H231.588L229.092 225H225.828V224.52L235.748 204.008H239.268L249.188 224.52ZM242.052 216.808L237.508 207.176L232.964 216.808H242.052ZM247.149 242.008V244.856H233.613V263H230.413V242.008H247.149ZM240.778 280.008C243.125 280.008 244.981 280.573 246.346 281.704C247.712 282.813 248.394 284.317 248.394 286.216V286.6C248.394 288.499 247.712 290.013 246.346 291.144C244.981 292.253 243.125 292.808 240.778 292.808H231.05V301H227.85V280.008H240.778ZM240.714 289.96C242.122 289.96 243.21 289.672 243.978 289.096C244.768 288.499 245.162 287.667 245.162 286.6V286.216C245.162 285.149 244.768 284.328 243.978 283.752C243.21 283.155 242.122 282.856 240.714 282.856H231.05V289.96H240.714ZM249.56 318.008V318.488L240.376 334.968C239.522 336.504 238.626 337.56 237.688 338.136C236.77 338.712 235.522 339 233.944 339H230.2V336.152H233.944C234.776 336.152 235.405 336.045 235.832 335.832C236.28 335.619 236.685 335.224 237.048 334.648L227.064 318.488V318.008H230.391L238.776 331.672L246.264 318.008H249.56ZM245.868 366.344C246.999 366.771 247.863 367.357 248.46 368.104C249.057 368.851 249.356 369.715 249.356 370.696V371.08C249.356 373.085 248.385 374.643 246.444 375.752C244.524 376.84 241.783 377.384 238.22 377.384C234.359 377.384 231.415 376.659 229.388 375.208C227.383 373.736 226.38 371.592 226.38 368.776V368.488H229.612V368.776C229.612 370.717 230.305 372.147 231.692 373.064C233.1 373.96 235.297 374.408 238.284 374.408C240.951 374.408 242.924 374.131 244.204 373.576C245.484 373.021 246.124 372.157 246.124 370.984V370.632C246.124 369.651 245.644 368.957 244.684 368.552C243.724 368.125 242.092 367.912 239.788 367.912H234.188V365.064H239.564C241.697 365.064 243.233 364.84 244.172 364.392C245.132 363.944 245.612 363.219 245.612 362.216V361.864C245.612 359.688 243.084 358.6 238.028 358.6C235.212 358.6 233.121 359.069 231.756 360.008C230.391 360.947 229.708 362.365 229.708 364.264V364.52H226.508V364.264C226.508 361.469 227.5 359.336 229.484 357.864C231.489 356.371 234.359 355.624 238.092 355.624C241.505 355.624 244.151 356.157 246.028 357.224C247.905 358.291 248.844 359.784 248.844 361.704V362.12C248.844 364.019 247.852 365.427 245.868 366.344ZM248.368 394.488L238.448 404.312L248.048 414.52V415H244.336L235.632 405.816H230.8V415H227.6V394.008H230.8V402.936H235.568L244.528 394.008H248.368V394.488ZM249.188 452.52V453H245.924L243.428 447.688H231.588L229.092 453H225.828V452.52L235.748 432.008H239.268L249.188 452.52ZM242.052 444.808L237.508 435.176L232.964 444.808H242.052Z" fill="#5897FB"/>
<line x1="669" y1="45" x2="669" y2="568" stroke="#86D7D9" stroke-width="2"/>
<path d="M212.354 85.3536C212.549 85.1583 212.549 84.8417 212.354 84.6464L209.172 81.4645C208.976 81.2692 208.66 81.2692 208.464 81.4645C208.269 81.6597 208.269 81.9763 208.464 82.1716L211.293 85L208.464 87.8284C208.269 88.0237 208.269 88.3403 208.464 88.5355C208.66 88.7308 208.976 88.7308 209.172 88.5355L212.354 85.3536ZM184 85.5L212 85.5L212 84.5L184 84.5L184 85.5Z" fill="#5897FB"/>
<path d="M500.465 202.817C500.364 202.56 500.074 202.434 499.817 202.535L495.629 204.182C495.372 204.283 495.246 204.574 495.347 204.831C495.448 205.088 495.739 205.214 495.996 205.113L499.718 203.648L501.182 207.371C501.283 207.628 501.574 207.754 501.831 207.653C502.088 207.552 502.214 207.261 502.113 207.004L500.465 202.817ZM463.458 288.2L500.458 203.2L499.542 202.8L462.542 287.8L463.458 288.2Z" fill="#5897FB"/>
<path d="M499.823 470.468C500.081 470.565 500.37 470.435 500.468 470.177L502.059 465.968C502.157 465.709 502.027 465.421 501.769 465.323C501.51 465.226 501.222 465.356 501.124 465.614L499.709 469.355L495.968 467.941C495.709 467.843 495.421 467.973 495.323 468.231C495.226 468.49 495.356 468.778 495.614 468.876L499.823 470.468ZM462.544 388.206L499.544 470.206L500.456 469.794L463.456 387.794L462.544 388.206Z" fill="#5897FB"/>
<path d="M493.354 341.354C493.549 341.158 493.549 340.842 493.354 340.646L490.172 337.464C489.976 337.269 489.66 337.269 489.464 337.464C489.269 337.66 489.269 337.976 489.464 338.172L492.293 341L489.464 343.828C489.269 344.024 489.269 344.34 489.464 344.536C489.66 344.731 489.976 344.731 490.172 344.536L493.354 341.354ZM464 341.5L493 341.5L493 340.5L464 340.5L464 341.5Z" fill="#5897FB"/>
<path d="M106.354 140.646C106.158 140.451 105.842 140.451 105.646 140.646L102.464 143.828C102.269 144.024 102.269 144.34 102.464 144.536C102.66 144.731 102.976 144.731 103.172 144.536L106 141.707L108.828 144.536C109.024 144.731 109.34 144.731 109.536 144.536C109.731 144.34 109.731 144.024 109.536 143.828L106.354 140.646ZM105.646 246.354C105.842 246.549 106.158 246.549 106.354 246.354L109.536 243.172C109.731 242.976 109.731 242.66 109.536 242.464C109.34 242.269 109.024 242.269 108.828 242.464L106 245.293L103.172 242.464C102.976 242.269 102.66 242.269 102.464 242.464C102.269 242.66 102.269 242.976 102.464 243.172L105.646 246.354ZM105.5 141L105.5 246L106.5 246L106.5 141L105.5 141Z" fill="#5897FB"/>
<rect x="698.5" y="149.5" width="96" height="119" rx="19.5" stroke="#86D7D9"/>
<rect x="698.5" y="345.5" width="96" height="119" rx="19.5" stroke="#86D7D9"/>
<rect x="277" y="268" width="186" height="156" rx="9" stroke="#5897FB" stroke-width="2"/>
<path d="M289.572 326.504V334.824L296.532 326.504H298.132V337H296.532V328.68L289.572 337H287.972V326.504H289.572ZM302.505 329.08V332.344H308.201V329.08H309.737V337H308.201V333.704H302.505V337H300.969V329.08H302.505ZM320.886 329.08C322.443 329.08 323.648 329.416 324.502 330.088C325.355 330.76 325.782 331.709 325.782 332.936V333.16C325.782 334.365 325.35 335.309 324.486 335.992C323.632 336.664 322.432 337 320.886 337H319.606V339.72H318.07V337H316.79C315.243 337 314.038 336.664 313.174 335.992C312.32 335.309 311.894 334.365 311.894 333.16V332.936C311.894 331.709 312.32 330.76 313.174 330.088C314.027 329.416 315.232 329.08 316.79 329.08H318.07V325.864H319.606V329.08H320.886ZM318.07 335.64V330.424H316.71C315.675 330.424 314.875 330.643 314.31 331.08C313.744 331.517 313.462 332.141 313.462 332.952V333.144C313.462 333.944 313.739 334.563 314.294 335C314.859 335.427 315.664 335.64 316.71 335.64H318.07ZM324.214 332.952C324.214 332.141 323.931 331.517 323.366 331.08C322.8 330.643 322 330.424 320.966 330.424H319.606V335.64H320.966C322.011 335.64 322.811 335.427 323.366 335C323.931 334.563 324.214 333.944 324.214 333.144V332.952ZM332.082 337.192C331.111 337.192 330.269 337.032 329.554 336.712C328.839 336.381 328.29 335.917 327.906 335.32C327.522 334.712 327.33 334.003 327.33 333.192V332.92C327.33 332.099 327.522 331.384 327.906 330.776C328.29 330.168 328.839 329.704 329.554 329.384C330.269 329.053 331.111 328.888 332.082 328.888C333.042 328.888 333.874 329.053 334.578 329.384C335.293 329.704 335.837 330.168 336.21 330.776C336.594 331.384 336.786 332.099 336.786 332.92V333.192C336.786 334.003 336.594 334.712 336.21 335.32C335.837 335.917 335.293 336.381 334.578 336.712C333.874 337.032 333.042 337.192 332.082 337.192ZM332.066 335.784C333.047 335.784 333.815 335.555 334.37 335.096C334.925 334.637 335.202 334.003 335.202 333.192V332.92C335.202 332.099 334.925 331.459 334.37 331C333.815 330.531 333.047 330.296 332.066 330.296C331.063 330.296 330.285 330.525 329.73 330.984C329.186 331.443 328.914 332.088 328.914 332.92V333.192C328.914 334.003 329.191 334.637 329.746 335.096C330.311 335.555 331.085 335.784 332.066 335.784ZM343.419 328.888C344.369 328.888 345.201 329.053 345.915 329.384C346.63 329.715 347.179 330.184 347.563 330.792C347.947 331.389 348.139 332.093 348.139 332.904V333.16C348.139 333.971 347.947 334.68 347.563 335.288C347.179 335.896 346.63 336.365 345.915 336.696C345.201 337.027 344.369 337.192 343.419 337.192C342.833 337.192 342.283 337.101 341.771 336.92C341.259 336.739 340.811 336.477 340.427 336.136V339.72H338.891V329.08H340.315L340.379 329.992C340.774 329.64 341.233 329.368 341.755 329.176C342.278 328.984 342.833 328.888 343.419 328.888ZM346.555 332.904C346.555 332.093 346.273 331.459 345.707 331C345.153 330.531 344.385 330.296 343.403 330.296C342.774 330.296 342.193 330.408 341.659 330.632C341.137 330.856 340.726 331.16 340.427 331.544V334.52C340.726 334.904 341.137 335.213 341.659 335.448C342.193 335.672 342.774 335.784 343.403 335.784C344.385 335.784 345.153 335.549 345.707 335.08C346.273 334.611 346.555 333.971 346.555 333.16V332.904ZM362.139 329.08V337H360.667V330.664L360.299 331.32L356.875 337H355.515L352.091 331.32L351.723 330.664V337H350.251V329.08H352.427L356.203 335.4L359.963 329.08H362.139ZM374.657 335.64V337H373.601C373.079 337 372.641 336.899 372.289 336.696C371.937 336.493 371.692 336.205 371.553 335.832C371.127 336.291 370.615 336.632 370.017 336.856C369.42 337.08 368.716 337.192 367.905 337.192C366.764 337.192 365.884 336.995 365.265 336.6C364.647 336.195 364.337 335.619 364.337 334.872C364.337 334.232 364.577 333.72 365.057 333.336C365.537 332.952 366.241 332.712 367.169 332.616L371.441 332.168C371.409 331.571 371.159 331.117 370.689 330.808C370.22 330.499 369.548 330.344 368.673 330.344C367.831 330.344 367.159 330.488 366.657 330.776C366.156 331.064 365.905 331.448 365.905 331.928V331.992H364.385V331.928C364.385 331.331 364.561 330.803 364.913 330.344C365.276 329.875 365.783 329.517 366.433 329.272C367.084 329.016 367.836 328.888 368.689 328.888C370.044 328.888 371.095 329.187 371.841 329.784C372.588 330.381 372.961 331.219 372.961 332.296V334.76C372.961 335.037 373.047 335.256 373.217 335.416C373.388 335.565 373.633 335.64 373.953 335.64H374.657ZM367.873 335.832C368.737 335.832 369.479 335.699 370.097 335.432C370.716 335.155 371.164 334.765 371.441 334.264V333.416L367.505 333.832C366.951 333.885 366.535 333.997 366.257 334.168C365.991 334.339 365.857 334.573 365.857 334.872C365.857 335.512 366.529 335.832 367.873 335.832ZM386.206 335.64V339.048H384.686V337H376.094V329.08H377.63V335.64H383.102V329.08H384.622V335.64H386.206ZM389.316 329.08V335.128L395.124 329.08H396.532V337H395.06V330.952L389.252 337H387.844V329.08H389.316ZM403.395 337.192C402.424 337.192 401.581 337.032 400.867 336.712C400.152 336.381 399.603 335.917 399.219 335.32C398.835 334.712 398.643 334.003 398.643 333.192V332.92C398.643 332.099 398.835 331.384 399.219 330.776C399.603 330.168 400.152 329.704 400.867 329.384C401.581 329.053 402.424 328.888 403.395 328.888C404.355 328.888 405.187 329.053 405.891 329.384C406.605 329.704 407.149 330.168 407.523 330.776C407.907 331.384 408.099 332.099 408.099 332.92V333.192C408.099 334.003 407.907 334.712 407.523 335.32C407.149 335.917 406.605 336.381 405.891 336.712C405.187 337.032 404.355 337.192 403.395 337.192ZM403.379 335.784C404.36 335.784 405.128 335.555 405.683 335.096C406.237 334.637 406.515 334.003 406.515 333.192V332.92C406.515 332.099 406.237 331.459 405.683 331C405.128 330.531 404.36 330.296 403.379 330.296C402.376 330.296 401.597 330.525 401.043 330.984C400.499 331.443 400.227 332.088 400.227 332.92V333.192C400.227 334.003 400.504 334.637 401.059 335.096C401.624 335.555 402.397 335.784 403.379 335.784ZM411.74 329.08V332.344H417.436V329.08H418.972V337H417.436V333.704H411.74V337H410.204V329.08H411.74ZM423.224 329.08V332.344H428.92V329.08H430.456V337H428.92V333.704H423.224V337H421.688V329.08H423.224ZM437.317 337.192C436.346 337.192 435.503 337.032 434.789 336.712C434.074 336.381 433.525 335.917 433.141 335.32C432.757 334.712 432.565 334.003 432.565 333.192V332.92C432.565 332.099 432.757 331.384 433.141 330.776C433.525 330.168 434.074 329.704 434.789 329.384C435.503 329.053 436.346 328.888 437.317 328.888C438.277 328.888 439.109 329.053 439.812 329.384C440.527 329.704 441.071 330.168 441.445 330.776C441.829 331.384 442.021 332.099 442.021 332.92V333.192C442.021 334.003 441.829 334.712 441.445 335.32C441.071 335.917 440.527 336.381 439.812 336.712C439.109 337.032 438.277 337.192 437.317 337.192ZM437.301 335.784C438.282 335.784 439.05 335.555 439.605 335.096C440.159 334.637 440.437 334.003 440.437 333.192V332.92C440.437 332.099 440.159 331.459 439.605 331C439.05 330.531 438.282 330.296 437.301 330.296C436.298 330.296 435.519 330.525 434.965 330.984C434.421 331.443 434.149 332.088 434.149 332.92V333.192C434.149 334.003 434.426 334.637 434.981 335.096C435.546 335.555 436.319 335.784 437.301 335.784ZM452.75 333.544H445.118C445.171 334.237 445.47 334.787 446.014 335.192C446.558 335.587 447.283 335.784 448.19 335.784C449.032 335.784 449.715 335.645 450.238 335.368C450.771 335.08 451.059 334.701 451.102 334.232H452.75C452.664 335.16 452.216 335.885 451.406 336.408C450.606 336.931 449.534 337.192 448.19 337.192C447.24 337.192 446.414 337.032 445.71 336.712C445.006 336.381 444.462 335.917 444.078 335.32C443.704 334.723 443.518 334.024 443.518 333.224V332.888C443.518 332.077 443.704 331.373 444.078 330.776C444.462 330.168 445.006 329.704 445.71 329.384C446.414 329.053 447.24 328.888 448.19 328.888C449.608 328.888 450.723 329.24 451.534 329.944C452.344 330.637 452.75 331.597 452.75 332.824V333.544ZM448.19 330.296C447.336 330.296 446.643 330.472 446.11 330.824C445.587 331.165 445.267 331.645 445.15 332.264H451.118C451.022 331.645 450.718 331.165 450.206 330.824C449.694 330.472 449.022 330.296 448.19 330.296ZM326.648 355.776V356H324.824L321.928 352.944L319.032 356H317.208V355.776L320.856 352L317.272 348.304V348.08H319.08L321.928 351.056L324.824 348.08H326.552V348.304L322.984 352L326.648 355.776ZM333.068 347.888C334.017 347.888 334.849 348.053 335.564 348.384C336.278 348.715 336.828 349.184 337.212 349.792C337.596 350.389 337.788 351.093 337.788 351.904V352.16C337.788 352.971 337.596 353.68 337.212 354.288C336.828 354.896 336.278 355.365 335.564 355.696C334.849 356.027 334.017 356.192 333.068 356.192C332.481 356.192 331.932 356.101 331.42 355.92C330.908 355.739 330.46 355.477 330.076 355.136V358.72H328.54V348.08H329.964L330.028 348.992C330.422 348.64 330.881 348.368 331.404 348.176C331.926 347.984 332.481 347.888 333.068 347.888ZM336.204 351.904C336.204 351.093 335.921 350.459 335.356 350C334.801 349.531 334.033 349.296 333.052 349.296C332.422 349.296 331.841 349.408 331.308 349.632C330.785 349.856 330.374 350.16 330.076 350.544V353.52C330.374 353.904 330.785 354.213 331.308 354.448C331.841 354.672 332.422 354.784 333.052 354.784C334.033 354.784 334.801 354.549 335.356 354.08C335.921 353.611 336.204 352.971 336.204 352.16V351.904ZM349.915 354.64V356H348.859C348.336 356 347.899 355.899 347.547 355.696C347.195 355.493 346.95 355.205 346.811 354.832C346.384 355.291 345.872 355.632 345.275 355.856C344.678 356.08 343.974 356.192 343.163 356.192C342.022 356.192 341.142 355.995 340.523 355.6C339.904 355.195 339.595 354.619 339.595 353.872C339.595 353.232 339.835 352.72 340.315 352.336C340.795 351.952 341.499 351.712 342.427 351.616L346.699 351.168C346.667 350.571 346.416 350.117 345.947 349.808C345.478 349.499 344.806 349.344 343.931 349.344C343.088 349.344 342.416 349.488 341.915 349.776C341.414 350.064 341.163 350.448 341.163 350.928V350.992H339.643V350.928C339.643 350.331 339.819 349.803 340.171 349.344C340.534 348.875 341.04 348.517 341.691 348.272C342.342 348.016 343.094 347.888 343.947 347.888C345.302 347.888 346.352 348.187 347.099 348.784C347.846 349.381 348.219 350.219 348.219 351.296V353.76C348.219 354.037 348.304 354.256 348.475 354.416C348.646 354.565 348.891 354.64 349.211 354.64H349.915ZM343.131 354.832C343.995 354.832 344.736 354.699 345.355 354.432C345.974 354.155 346.422 353.765 346.699 353.264V352.416L342.763 352.832C342.208 352.885 341.792 352.997 341.515 353.168C341.248 353.339 341.115 353.573 341.115 353.872C341.115 354.512 341.787 354.832 343.131 354.832ZM352.888 348.08V351.344H358.584V348.08H360.12V356H358.584V352.704H352.888V356H351.352V348.08H352.888ZM364.309 348.08V354.128L370.117 348.08H371.525V356H370.053V349.952L364.245 356H362.837V348.08H364.309ZM382.915 356H381.379V349.424H376.531L376.467 352.288C376.435 353.557 376.189 354.496 375.731 355.104C375.283 355.701 374.6 356 373.683 356H372.963V354.64H373.347C373.912 354.64 374.317 354.453 374.563 354.08C374.819 353.707 374.957 353.083 374.979 352.208L375.075 348.08H382.915V356ZM387.105 348.08V354.128L392.913 348.08H394.321V356H392.849V349.952L387.041 356H385.633V348.08H387.105ZM412.528 354.64V358.048H410.992V356H397.04V348.08H398.576V354.64H403.232V348.08H404.768V354.64H409.408V348.08H410.944V354.64H412.528ZM422.57 352.544H414.938C414.991 353.237 415.29 353.787 415.834 354.192C416.378 354.587 417.103 354.784 418.01 354.784C418.853 354.784 419.535 354.645 420.058 354.368C420.591 354.08 420.879 353.701 420.922 353.232H422.57C422.485 354.16 422.037 354.885 421.226 355.408C420.426 355.931 419.354 356.192 418.01 356.192C417.061 356.192 416.234 356.032 415.53 355.712C414.826 355.381 414.282 354.917 413.898 354.32C413.525 353.723 413.338 353.024 413.338 352.224V351.888C413.338 351.077 413.525 350.373 413.898 349.776C414.282 349.168 414.826 348.704 415.53 348.384C416.234 348.053 417.061 347.888 418.01 347.888C419.429 347.888 420.543 348.24 421.354 348.944C422.165 349.637 422.57 350.597 422.57 351.824V352.544ZM418.01 349.296C417.157 349.296 416.463 349.472 415.93 349.824C415.407 350.165 415.087 350.645 414.97 351.264H420.938C420.842 350.645 420.538 350.165 420.026 349.824C419.514 349.472 418.842 349.296 418.01 349.296ZM346.147 373.64V377.048H344.627V375H336.115V377.048H334.595L334.579 373.64H335.811C336.344 372.84 336.616 371.853 336.627 370.68L336.675 367.08H344.563V373.64H346.147ZM343.043 373.64V368.424H338.083L338.035 370.68C338.024 371.32 337.96 371.88 337.843 372.36C337.725 372.829 337.555 373.256 337.331 373.64H343.043ZM357.79 373.64V375H356.734C356.211 375 355.774 374.899 355.422 374.696C355.07 374.493 354.825 374.205 354.686 373.832C354.259 374.291 353.747 374.632 353.15 374.856C352.553 375.08 351.849 375.192 351.038 375.192C349.897 375.192 349.017 374.995 348.398 374.6C347.779 374.195 347.47 373.619 347.47 372.872C347.47 372.232 347.71 371.72 348.19 371.336C348.67 370.952 349.374 370.712 350.302 370.616L354.574 370.168C354.542 369.571 354.291 369.117 353.822 368.808C353.353 368.499 352.681 368.344 351.806 368.344C350.963 368.344 350.291 368.488 349.79 368.776C349.289 369.064 349.038 369.448 349.038 369.928V369.992H347.518V369.928C347.518 369.331 347.694 368.803 348.046 368.344C348.409 367.875 348.915 367.517 349.566 367.272C350.217 367.016 350.969 366.888 351.822 366.888C353.177 366.888 354.227 367.187 354.974 367.784C355.721 368.381 356.094 369.219 356.094 370.296V372.76C356.094 373.037 356.179 373.256 356.35 373.416C356.521 373.565 356.766 373.64 357.086 373.64H357.79ZM351.006 373.832C351.87 373.832 352.611 373.699 353.23 373.432C353.849 373.155 354.297 372.765 354.574 372.264V371.416L350.638 371.832C350.083 371.885 349.667 371.997 349.39 372.168C349.123 372.339 348.99 372.573 348.99 372.872C348.99 373.512 349.662 373.832 351.006 373.832ZM360.763 367.08V370.344H366.459V367.08H367.995V375H366.459V371.704H360.763V375H359.227V367.08H360.763ZM372.248 367.08V370.344H377.944V367.08H379.48V375H377.944V371.704H372.248V375H370.712V367.08H372.248ZM387.908 369.464C388.921 369.464 389.705 369.704 390.26 370.184C390.825 370.664 391.108 371.32 391.108 372.152V372.36C391.108 373.16 390.825 373.8 390.26 374.28C389.705 374.76 388.921 375 387.908 375H382.324V367.08H383.86V369.464H387.908ZM393.78 367.08V375H392.244V367.08H393.78ZM389.524 372.152C389.524 371.267 388.948 370.824 387.796 370.824H383.86V373.64H387.796C388.383 373.64 388.815 373.528 389.092 373.304C389.38 373.08 389.524 372.765 389.524 372.36V372.152ZM405.241 374.776V375H403.417L400.521 371.944L397.625 375H395.801V374.776L399.449 371L395.865 367.304V367.08H397.673L400.521 370.056L403.417 367.08H405.145V367.304L401.577 371L405.241 374.776Z" fill="#5897FB"/>
<defs>
<filter id="filter0_b_158_1250" x="-86" y="-86" width="1012" height="794" filterUnits="userSpaceOnUse" color-interpolation-filters="sRGB">
<feFlood flood-opacity="0" result="BackgroundImageFix"/>
<feGaussianBlur in="BackgroundImageFix" stdDeviation="43"/>
<feComposite in2="SourceAlpha" operator="in" result="effect1_backgroundBlur_158_1250"/>
<feBlend mode="normal" in="SourceGraphic" in2="effect1_backgroundBlur_158_1250" result="shape"/>
</filter>
<filter id="filter1_f_158_1250" x="-640.856" y="-77.1431" width="972.351" height="1295.57" filterUnits="userSpaceOnUse" color-interpolation-filters="sRGB">
<feFlood flood-opacity="0" result="BackgroundImageFix"/>
<feBlend mode="normal" in="SourceGraphic" in2="BackgroundImageFix" result="shape"/>
<feGaussianBlur stdDeviation="100" result="effect1_foregroundBlur_158_1250"/>
</filter>
<filter id="filter2_f_158_1250" x="625.336" y="-399.972" width="1185.25" height="1044.1" filterUnits="userSpaceOnUse" color-interpolation-filters="sRGB">
<feFlood flood-opacity="0" result="BackgroundImageFix"/>
<feBlend mode="normal" in="SourceGraphic" in2="BackgroundImageFix" result="shape"/>
<feGaussianBlur stdDeviation="100" result="effect1_foregroundBlur_158_1250"/>
</filter>
<linearGradient id="paint0_linear_158_1250" x1="27.6486" y1="-50.9996" x2="-218.302" y2="611.493" gradientUnits="userSpaceOnUse">
<stop stop-color="#5897FB" stop-opacity="0"/>
<stop offset="1" stop-color="#5897FB"/>
</linearGradient>
<linearGradient id="paint1_linear_158_1250" x1="748.259" y1="-289.775" x2="1138.42" y2="299.429" gradientUnits="userSpaceOnUse">
<stop stop-color="#5897FB" stop-opacity="0"/>
<stop offset="1" stop-color="#5897FB"/>
</linearGradient>
<clipPath id="clip0_158_1250">
<rect width="840" height="622" rx="10" fill="white"/>
</clipPath>
</defs>
</svg>
