<svg width="92" height="53" viewBox="0 0 92 53" fill="none" xmlns="http://www.w3.org/2000/svg">
<g clip-path="url(#clip0_405_3050)">
<path d="M38.4974 29.138C34.7482 34.1053 31.4919 32.8865 28.874 27.9674C27.767 29.0859 26.5671 30.1082 25.2905 31.0303C22.5271 32.7502 19.5657 31.1385 19.3839 27.8752C19.3193 26.6684 19.3839 25.4417 19.3274 24.2149C19.2142 23.7819 19.0284 23.377 18.7739 23.0081C18.3577 23.2166 17.7598 23.3208 17.5578 23.6576C17.0811 24.5396 16.669 25.4577 16.3337 26.3998C15.8448 27.5625 15.4125 28.7612 14.8954 29.8917C14.3662 31.0544 13.0734 31.6718 11.825 31.3631C10.5847 31.2428 9.63931 30.2044 9.65143 28.9656C9.55851 27.4021 9.73627 25.8185 9.65143 24.2469C9.55043 23.7298 9.37671 23.2246 9.13431 22.7556C8.7101 23.1044 8.10005 23.3609 7.88189 23.8059C7.05368 25.59 6.31435 27.5184 5.48614 29.3465C5.23566 29.9719 4.88822 30.5532 4.45189 31.0664C3.56308 32.0727 2.01978 32.1769 1.00573 31.2949C0.593644 30.9381 0.314881 30.449 0.213879 29.9158C0.137118 29.6552 0.0886378 29.3906 0.0765176 29.122C0.0765176 25.4617 -0.0446838 21.7333 0.019957 18.0369C0.0522773 17.0547 0.375481 16.1005 0.941088 15.2947C1.53094 14.537 2.35914 13.9917 3.2924 13.7392C4.71045 13.3623 5.41342 14.0318 5.47806 15.5673C5.53462 16.746 5.47806 17.9367 5.47806 19.1233L6.09619 19.2957C6.54868 18.8587 6.96076 18.3857 7.33244 17.8765C8.10813 16.6137 8.77878 15.2786 9.55447 14.0078C10.116 12.8572 11.4412 12.2919 12.6693 12.6727C13.8773 12.9494 14.6773 14.096 14.5116 15.3147V19.2837L15.0368 19.4481C15.4085 19.1153 15.76 18.7545 16.0792 18.3696C17.1861 17.0627 18.2163 15.6795 19.3597 14.4087C19.8364 13.8674 20.4343 13.4425 21.1009 13.1659C22.4382 12.5164 24.0461 13.0656 24.7006 14.3926C24.9511 14.8978 25.0319 15.4671 24.9349 16.0203C24.7491 18.6743 24.5835 21.3243 24.438 23.9783C24.434 24.4594 24.4582 24.9445 24.5107 25.4216C26.5025 24.7842 27.9609 23.0843 28.2801 21.0317C28.4175 18.8427 28.6841 16.6658 29.08 14.5089C29.2901 13.2019 30.3769 12.2037 31.7061 12.1035C32.8979 11.8589 34.126 12.328 34.8411 13.3102C35.6491 14.4608 35.6815 15.9802 34.9139 17.1589C33.8069 18.987 33.8796 20.9715 34.1301 22.928C34.2513 23.7859 34.7361 24.5476 35.4593 25.0327C36.4652 25.5178 37.3015 24.6398 37.6974 23.7618C38.4045 21.9658 39.0226 20.1336 39.5397 18.2734C39.9276 16.9825 40.0851 15.6194 40.4608 14.3405C41.0305 12.5565 42.3031 11.7707 43.8343 12.1275C45.4543 12.5244 46.4967 14.0879 46.23 15.7237C46.121 16.6377 45.7614 17.4596 45.62 18.3496C45.1756 21.0397 44.7918 23.7378 44.3555 26.5802C46.4401 25.9308 48.0965 25.3735 49.7934 24.9245C50.5892 24.7601 51.4053 24.704 52.2174 24.7681C53.7486 24.7681 54.4677 25.5258 54.9808 27.2457C56.6655 32.67 60.3177 35.9174 65.9657 36.8595C74.0943 38.2226 81.835 30.9862 81.027 22.8398C80.9704 22.2985 80.8977 21.7613 80.8613 21.2201C80.5341 19.7407 81.4795 18.2774 82.9702 17.9527C84.461 17.628 85.9356 18.5661 86.2629 20.0454C86.2992 20.2178 86.3235 20.3902 86.3275 20.5666C87.4426 27.9754 85.0913 34.1293 79.1201 38.6917C70.8945 44.9137 59.142 43.3382 52.8719 35.1757C52.3588 34.5062 51.8901 33.8006 51.47 33.0669C50.2054 30.89 49.8014 30.7617 47.5067 31.8522C47.3895 31.9203 47.2643 31.9805 47.139 32.0366C44.8443 32.8865 43.9878 34.4861 43.7737 36.9477C43.4707 40.8445 42.8526 44.7133 41.9314 48.5179C40.6952 53.3729 37.7015 54.2348 33.6372 51.2601C28.6154 47.6279 27.6943 42.0152 31.5364 37.2484C33.1968 35.3441 35.0714 33.6362 37.1318 32.1649C38.1903 31.5555 38.7398 30.3367 38.4974 29.138ZM38.1176 38.2306L37.548 37.982C36.7602 39.0284 36.0329 40.1189 35.3744 41.2454C34.8331 42.3399 35.0835 43.6589 35.9925 44.4848C36.5824 45.1142 37.1924 45.2906 37.3581 44.1721C37.6571 42.1635 37.8348 40.2151 38.1176 38.2306Z" fill="#FF2D39"/>
<path d="M76.8944 8.85204C76.6601 6.93169 77.4641 5.03139 79.0033 3.84871C80.1466 2.83442 81.1688 1.66377 82.304 0.629425C82.7282 0.34879 83.1969 0.136309 83.6857 0C83.8877 0.420953 84.0291 0.865961 84.1099 1.327C84.1665 2.94667 84.1544 4.56634 84.1099 6.19402C84.1099 7.32859 84.6149 7.82973 85.7583 7.82171H90.7922C91.2123 7.89387 91.6204 8.03018 92.0001 8.22262C91.8911 8.67564 91.7093 9.10461 91.4547 9.49349C90.1175 10.9007 88.6913 12.2357 87.3339 13.6188C86.4006 14.585 85.0513 15.034 83.7221 14.8175C81.8637 14.5369 80.0012 15.2986 78.8821 16.802C77.4519 18.4297 75.7753 19.8369 74.2724 21.4205C73.8482 21.8976 73.6179 22.515 73.6179 23.1484C73.8563 26.3036 71.4686 29.0498 68.2931 29.2823C65.1136 29.5188 62.3462 27.1495 62.1119 23.9983C62.0957 23.8019 62.0917 23.6014 62.0997 23.405C62.2088 20.302 64.8349 17.8725 67.9619 17.9807C68.1194 17.9847 68.281 17.9967 68.4386 18.0168C69.2385 18.1491 70.0546 17.8564 70.5879 17.247C72.1271 15.6554 73.6745 14.0638 75.3349 12.5925C76.5429 11.5702 77.2823 10.4717 76.8944 8.85204Z" fill="#FF2D39"/>
<path d="M50.9488 15.848C51.1063 15.3629 51.3043 14.8938 51.5386 14.4408C55.5302 7.62135 63.4042 4.01318 71.2258 5.42437C73.1327 5.7892 74.2114 7.0721 73.9366 8.66371C73.6619 10.2553 72.2115 11.2055 70.2481 10.8487C64.8708 9.87044 59.4369 12.2518 56.5442 16.8583C56.3059 17.2953 56.0271 17.7082 55.716 18.0931C54.9524 18.9871 53.6798 19.2637 52.6092 18.7626C51.5103 18.3015 50.9286 17.4155 50.9488 15.848Z" fill="#FF2D39"/>
</g>
<defs>
<clipPath id="clip0_405_3050">
<rect width="92" height="53" fill="white"/>
</clipPath>
</defs>
</svg>
