<svg width="88" height="88" viewBox="0 0 88 88" fill="none" xmlns="http://www.w3.org/2000/svg">
<g clip-path="url(#clip0_406_3086)">
<path d="M21.9999 0.000978599C9.85047 0.000978599 0 9.84999 0 22.0007V66.0018C0 78.1519 9.85047 88.001 21.9999 88.001H66.001C78.151 88.001 88.0014 78.1519 88.0014 66.0018V0.000978599H21.9999Z" fill="#C5DE20"/>
<path d="M24.0509 35.1404C23.3312 31.9931 26.4713 29.2083 30.533 29.2083C34.1918 29.2083 37.8591 30.0287 39.2545 35.1298H43.9446V42.9146C38.0971 38.108 25.4199 41.1239 24.0509 35.1404V35.1404ZM72.7162 32.9852H62.1509L52.0999 43.9932V22.0003H43.9446V27.3291C43.6785 26.9856 43.3979 26.6443 43.0837 26.3111C40.1181 23.1718 35.8456 21.5801 30.3829 21.5801C24.0656 21.5801 20.4738 24.4074 18.5728 26.7788C16.2117 29.7229 15.1576 33.7414 15.8871 37.0155C17.7769 45.4914 25.6419 46.845 31.4196 47.5962C35.9811 48.1895 40.345 49.0175 40.2292 53.0834C40.1084 57.3027 35.3522 58.3402 32.2301 58.3402C24.0991 58.3402 23.8248 52.3301 23.8248 52.3301H15.0801C15.2078 54.5871 15.8899 58.2104 18.6684 61.3198C21.7108 64.7267 26.2738 66.4531 32.2301 66.4531C36.7993 66.4531 40.9614 64.9648 43.9446 62.3215V65.954H52.0999V55.5722L54.9853 52.416L63.2224 65.954H72.7133L60.7266 46.1258L72.7162 32.9852" fill="white"/>
</g>
<defs>
<clipPath id="clip0_406_3086">
<rect width="88" height="88" fill="white"/>
</clipPath>
</defs>
</svg>
