<svg width="1440" height="975" viewBox="0 0 1440 975" fill="none" xmlns="http://www.w3.org/2000/svg">
<g opacity="0.01">
<path d="M180.872 804.899L274.721 769.952C284.472 766.321 295.315 771.299 298.939 781.07L298.939 781.07C302.562 790.842 297.595 801.707 287.843 805.338L193.995 840.285C184.244 843.917 173.401 838.939 169.777 829.167L169.777 829.167C166.153 819.396 171.121 808.53 180.872 804.899Z" fill="white"/>
<path d="M265.606 734.12C276.057 731.227 282.304 720.322 278.107 710.305C268.435 687.214 253.241 666.742 233.744 650.762C209.16 630.613 178.945 618.599 147.262 616.376C115.579 614.153 83.9887 621.83 56.8421 638.349C29.6955 654.869 8.32925 679.417 -4.31267 708.613C-16.9546 737.809 -20.25 770.215 -13.7449 801.366C-7.23973 832.517 8.74576 860.88 32.0091 882.547C55.2724 904.213 84.6689 918.118 116.148 922.344C141.112 925.696 166.412 922.83 189.848 914.135C200.016 910.362 203.695 898.342 198.665 888.718C193.634 879.093 181.793 875.559 171.47 878.88C155.383 884.056 138.269 885.617 121.362 883.347C97.9332 880.202 76.0546 869.853 58.7401 853.727C41.426 837.601 29.5286 816.492 24.687 793.307C19.8455 770.123 22.2983 746.004 31.7071 724.274C41.1159 702.545 57.0182 684.274 77.2228 671.979C97.4269 659.684 120.939 653.97 144.519 655.625C168.1 657.28 190.588 666.221 208.885 681.218C222.089 692.04 232.642 705.631 239.859 720.939C244.491 730.762 255.155 737.014 265.606 734.12Z" fill="white"/>
<path d="M266.751 734.81L172.897 769.759C163.147 773.39 152.306 768.413 148.683 758.643C145.06 748.873 150.027 738.009 159.777 734.379L253.63 699.429C263.38 695.799 274.221 700.776 277.844 710.546C281.468 720.316 276.501 731.179 266.751 734.81Z" fill="white"/>
<path d="M182.054 805.576C171.58 808.475 165.319 819.404 169.528 829.443C179.201 852.517 194.389 872.975 213.874 888.945C238.458 909.094 268.673 921.108 300.356 923.332C332.039 925.555 363.629 917.878 390.775 901.358C417.922 884.839 439.289 860.29 451.931 831.094C464.572 801.898 467.87 769.493 461.363 738.342C454.859 707.191 438.871 678.828 415.609 657.161C392.347 635.494 362.95 621.59 331.471 617.363C306.52 614.013 281.235 616.874 257.811 625.557C247.62 629.335 243.932 641.383 248.973 651.029C254.015 660.675 265.883 664.216 276.231 660.893C292.289 655.736 309.37 654.181 326.245 656.447C349.655 659.59 371.518 669.931 388.817 686.044C406.12 702.158 418.006 723.251 422.847 746.418C427.684 769.585 425.234 793.685 415.83 815.398C406.43 837.111 390.54 855.368 370.35 867.653C350.161 879.939 326.667 885.649 303.105 883.995C279.542 882.342 257.072 873.407 238.788 858.422C225.61 847.621 215.075 834.059 207.863 818.785C203.216 808.941 192.528 802.676 182.054 805.576Z" fill="white"/>
<path d="M180.872 804.899L274.721 769.952C284.472 766.321 295.315 771.299 298.939 781.07L298.939 781.07C302.562 790.842 297.595 801.707 287.843 805.338L193.995 840.285C184.244 843.917 173.401 838.939 169.777 829.167L169.777 829.167C166.153 819.396 171.121 808.53 180.872 804.899Z" fill="white"/>
<path d="M265.606 734.12C276.057 731.227 282.304 720.322 278.107 710.305C268.435 687.214 253.241 666.742 233.744 650.762C209.16 630.613 178.945 618.599 147.262 616.376C115.579 614.153 83.9887 621.83 56.8421 638.349C29.6955 654.869 8.32925 679.417 -4.31267 708.613C-16.9546 737.809 -20.25 770.215 -13.7449 801.366C-7.23973 832.517 8.74576 860.88 32.0091 882.547C55.2724 904.213 84.6689 918.118 116.148 922.344C141.112 925.696 166.412 922.83 189.848 914.135C200.016 910.362 203.695 898.342 198.665 888.718C193.634 879.093 181.793 875.559 171.47 878.88C155.383 884.056 138.269 885.617 121.362 883.347C97.9332 880.202 76.0546 869.853 58.7401 853.727C41.426 837.601 29.5286 816.492 24.687 793.307C19.8455 770.123 22.2983 746.004 31.7071 724.274C41.1159 702.545 57.0182 684.274 77.2228 671.979C97.4269 659.684 120.939 653.97 144.519 655.625C168.1 657.28 190.588 666.221 208.885 681.218C222.089 692.04 232.642 705.631 239.859 720.939C244.491 730.762 255.155 737.014 265.606 734.12Z" fill="white"/>
<path d="M266.751 734.81L172.897 769.759C163.147 773.39 152.306 768.413 148.683 758.643C145.06 748.873 150.026 738.009 159.776 734.379L253.63 699.429C263.38 695.799 274.221 700.776 277.844 710.546C281.468 720.316 276.501 731.179 266.751 734.81Z" fill="white"/>
</g>
<g opacity="0.01">
<path d="M667.872 487.899L761.721 452.952C771.472 449.321 782.315 454.299 785.939 464.07L785.939 464.07C789.563 473.842 784.595 484.707 774.844 488.338L680.995 523.285C671.244 526.917 660.401 521.939 656.777 512.167L656.777 512.167C653.153 502.396 658.121 491.53 667.872 487.899Z" fill="white"/>
<path d="M752.606 417.12C763.057 414.227 769.304 403.322 765.107 393.305C755.435 370.214 740.241 349.742 720.744 333.762C696.16 313.613 665.945 301.599 634.262 299.376C602.579 297.153 570.989 304.83 543.842 321.349C516.696 337.869 495.329 362.417 482.687 391.613C470.045 420.809 466.75 453.215 473.255 484.366C479.76 515.517 495.746 543.88 519.009 565.547C542.272 587.213 571.669 601.118 603.148 605.344C628.112 608.696 653.412 605.83 676.848 597.135C687.016 593.362 690.695 581.342 685.665 571.718C680.634 562.093 668.793 558.559 658.47 561.88C642.383 567.056 625.269 568.617 608.362 566.347C584.933 563.202 563.055 552.853 545.74 536.727C528.426 520.601 516.529 499.492 511.687 476.307C506.846 453.123 509.298 429.004 518.707 407.274C528.116 385.545 544.018 367.274 564.223 354.979C584.427 342.684 607.939 336.97 631.519 338.625C655.1 340.28 677.588 349.221 695.885 364.218C709.089 375.04 719.642 388.631 726.859 403.939C731.491 413.762 742.155 420.014 752.606 417.12Z" fill="white"/>
<path d="M753.751 417.81L659.897 452.759C650.147 456.39 639.306 451.413 635.683 441.643C632.06 431.873 637.027 421.009 646.776 417.379L740.63 382.429C750.38 378.799 761.221 383.776 764.844 393.546C768.468 403.316 763.501 414.179 753.751 417.81Z" fill="white"/>
<path d="M669.054 488.576C658.58 491.475 652.319 502.404 656.528 512.443C666.201 535.517 681.389 555.975 700.874 571.945C725.458 592.094 755.673 604.108 787.356 606.332C819.039 608.555 850.629 600.878 877.775 584.358C904.922 567.839 926.289 543.29 938.931 514.094C951.572 484.898 954.87 452.493 948.363 421.342C941.859 390.191 925.871 361.828 902.609 340.161C879.347 318.494 849.95 304.59 818.471 300.363C793.52 297.013 768.235 299.874 744.811 308.557C734.62 312.335 730.932 324.383 735.973 334.029C741.015 343.675 752.883 347.216 763.231 343.893C779.289 338.736 796.37 337.181 813.245 339.447C836.655 342.59 858.518 352.931 875.817 369.044C893.12 385.158 905.006 406.251 909.847 429.418C914.684 452.585 912.234 476.685 902.83 498.398C893.43 520.111 877.54 538.368 857.35 550.653C837.161 562.939 813.667 568.649 790.105 566.995C766.542 565.342 744.072 556.407 725.788 541.422C712.61 530.621 702.075 517.059 694.863 501.785C690.216 491.941 679.528 485.676 669.054 488.576Z" fill="white"/>
<path d="M667.872 487.899L761.721 452.952C771.472 449.321 782.315 454.299 785.939 464.07L785.939 464.07C789.562 473.842 784.595 484.707 774.843 488.338L680.995 523.285C671.244 526.917 660.401 521.939 656.777 512.167L656.777 512.167C653.153 502.396 658.121 491.53 667.872 487.899Z" fill="white"/>
<path d="M752.606 417.12C763.057 414.227 769.304 403.322 765.107 393.305C755.435 370.214 740.241 349.742 720.744 333.762C696.16 313.613 665.945 301.599 634.262 299.376C602.579 297.153 570.989 304.83 543.842 321.349C516.696 337.869 495.329 362.417 482.687 391.613C470.045 420.809 466.75 453.215 473.255 484.366C479.76 515.517 495.746 543.88 519.009 565.547C542.272 587.213 571.669 601.118 603.148 605.344C628.112 608.696 653.412 605.83 676.848 597.135C687.016 593.362 690.695 581.342 685.665 571.718C680.634 562.093 668.793 558.559 658.47 561.88C642.383 567.056 625.269 568.617 608.362 566.347C584.933 563.202 563.055 552.853 545.74 536.727C528.426 520.601 516.529 499.492 511.687 476.307C506.846 453.123 509.298 429.004 518.707 407.274C528.116 385.545 544.018 367.274 564.223 354.979C584.427 342.684 607.939 336.97 631.519 338.625C655.1 340.28 677.588 349.221 695.885 364.218C709.089 375.04 719.642 388.631 726.859 403.939C731.491 413.762 742.155 420.014 752.606 417.12Z" fill="white"/>
<path d="M753.751 417.81L659.897 452.759C650.147 456.39 639.306 451.413 635.683 441.643C632.06 431.873 637.026 421.009 646.776 417.379L740.63 382.429C750.38 378.799 761.221 383.776 764.844 393.546C768.468 403.316 763.501 414.179 753.751 417.81Z" fill="white"/>
</g>
<g opacity="0.01">
<path d="M1155.87 188.899L1249.72 153.952C1259.47 150.321 1270.31 155.299 1273.94 165.07L1273.94 165.07C1277.56 174.842 1272.6 185.707 1262.84 189.338L1169 224.285C1159.24 227.917 1148.4 222.939 1144.78 213.167L1144.78 213.167C1141.15 203.396 1146.12 192.53 1155.87 188.899Z" fill="white"/>
<path d="M1240.61 118.12C1251.06 115.227 1257.3 104.322 1253.11 94.3045C1243.43 71.2145 1228.24 50.7421 1208.74 34.7623C1184.16 14.613 1153.95 2.59908 1122.26 0.37593C1090.58 -1.84722 1058.99 5.82976 1031.84 22.3492C1004.7 38.8688 983.329 63.4173 970.687 92.6133C958.045 121.809 954.75 154.215 961.255 185.366C967.76 216.517 983.746 244.88 1007.01 266.547C1030.27 288.213 1059.67 302.118 1091.15 306.344C1116.11 309.696 1141.41 306.83 1164.85 298.135C1175.02 294.362 1178.7 282.342 1173.66 272.718C1168.63 263.093 1156.79 259.559 1146.47 262.88C1130.38 268.056 1113.27 269.617 1096.36 267.347C1072.93 264.202 1051.05 253.853 1033.74 237.727C1016.43 221.601 1004.53 200.492 999.687 177.307C994.846 154.123 997.298 130.004 1006.71 108.274C1016.12 86.5447 1032.02 68.274 1052.22 55.979C1072.43 43.684 1095.94 37.9705 1119.52 39.6251C1143.1 41.2797 1165.59 50.2211 1183.88 65.2177C1197.09 76.0399 1207.64 89.6306 1214.86 104.939C1219.49 114.762 1230.16 121.014 1240.61 118.12Z" fill="white"/>
<path d="M1241.75 118.81L1147.9 153.759C1138.15 157.39 1127.31 152.413 1123.68 142.643C1120.06 132.873 1125.03 122.009 1134.78 118.379L1228.63 83.4295C1238.38 79.7988 1249.22 84.7757 1252.84 94.5457C1256.47 104.316 1251.5 115.179 1241.75 118.81Z" fill="white"/>
<path d="M1157.05 189.576C1146.58 192.475 1140.32 203.404 1144.53 213.443C1154.2 236.517 1169.39 256.975 1188.87 272.945C1213.46 293.094 1243.67 305.108 1275.36 307.332C1307.04 309.555 1338.63 301.878 1365.78 285.358C1392.92 268.839 1414.29 244.29 1426.93 215.094C1439.57 185.898 1442.87 153.493 1436.36 122.342C1429.86 91.1907 1413.87 62.8278 1390.61 41.1609C1367.35 19.4942 1337.95 5.58966 1306.47 1.36329C1281.52 -1.98651 1256.24 0.874255 1232.81 9.55731C1222.62 13.3353 1218.93 25.3826 1223.97 35.0286C1229.02 44.6748 1240.88 48.2162 1251.23 44.8929C1267.29 39.7356 1284.37 38.1814 1301.24 40.4468C1324.65 43.5902 1346.52 53.9308 1363.82 70.0444C1381.12 86.1581 1393.01 107.251 1397.85 130.418C1402.68 153.585 1400.23 177.685 1390.83 199.398C1381.43 221.111 1365.54 239.368 1345.35 251.653C1325.16 263.939 1301.67 269.649 1278.1 267.995C1254.54 266.342 1232.07 257.407 1213.79 242.422C1200.61 231.621 1190.07 218.059 1182.86 202.785C1178.22 192.941 1167.53 186.676 1157.05 189.576Z" fill="white"/>
<path d="M1155.87 188.899L1249.72 153.952C1259.47 150.321 1270.31 155.299 1273.94 165.07L1273.94 165.07C1277.56 174.842 1272.6 185.707 1262.84 189.338L1169 224.285C1159.24 227.917 1148.4 222.939 1144.78 213.167L1144.78 213.167C1141.15 203.396 1146.12 192.53 1155.87 188.899Z" fill="white"/>
<path d="M1240.61 118.12C1251.06 115.227 1257.3 104.322 1253.11 94.3045C1243.43 71.2145 1228.24 50.7421 1208.74 34.7623C1184.16 14.613 1153.95 2.59908 1122.26 0.37593C1090.58 -1.84722 1058.99 5.82976 1031.84 22.3492C1004.7 38.8688 983.329 63.4173 970.687 92.6133C958.045 121.809 954.75 154.215 961.255 185.366C967.76 216.517 983.746 244.88 1007.01 266.547C1030.27 288.213 1059.67 302.118 1091.15 306.344C1116.11 309.696 1141.41 306.83 1164.85 298.135C1175.02 294.362 1178.7 282.342 1173.66 272.718C1168.63 263.093 1156.79 259.559 1146.47 262.88C1130.38 268.056 1113.27 269.617 1096.36 267.347C1072.93 264.202 1051.05 253.853 1033.74 237.727C1016.43 221.601 1004.53 200.492 999.687 177.307C994.846 154.123 997.298 130.004 1006.71 108.274C1016.12 86.5447 1032.02 68.274 1052.22 55.979C1072.43 43.684 1095.94 37.9705 1119.52 39.6251C1143.1 41.2797 1165.59 50.2211 1183.89 65.2177C1197.09 76.0399 1207.64 89.6306 1214.86 104.939C1219.49 114.762 1230.16 121.014 1240.61 118.12Z" fill="white"/>
<path d="M1241.75 118.81L1147.9 153.759C1138.15 157.39 1127.31 152.413 1123.68 142.643C1120.06 132.873 1125.03 122.009 1134.78 118.379L1228.63 83.4295C1238.38 79.7988 1249.22 84.7757 1252.84 94.5457C1256.47 104.316 1251.5 115.179 1241.75 118.81Z" fill="white"/>
</g>
<line opacity="0.1" x1="290.5" y1="12" x2="290.5" y2="1007" stroke="#5897FB"/>
<line opacity="0.1" x1="442.5" y1="12" x2="442.5" y2="1007" stroke="#5897FB"/>
<line opacity="0.1" x1="601.5" y1="12" x2="601.5" y2="1007" stroke="#5897FB"/>
<line opacity="0.1" x1="1231" y1="468.5" x2="-58" y2="468.5" stroke="#5897FB"/>
<line opacity="0.1" x1="1231" y1="22.5" x2="-58" y2="22.5" stroke="#5897FB"/>
<line opacity="0.1" x1="1231" y1="677.5" x2="-34" y2="677.5" stroke="#5897FB"/>
<line opacity="0.1" x1="1074.5" y1="12" x2="1074.5" y2="1007" stroke="#5897FB"/>
<line opacity="0.1" x1="1231.5" y1="12" x2="1231.5" y2="1007" stroke="#5897FB"/>
</svg>
