<svg width="504" height="502" viewBox="0 0 504 502" fill="none" xmlns="http://www.w3.org/2000/svg">
<mask id="mask0_2320_3296" style="mask-type:alpha" maskUnits="userSpaceOnUse" x="0" y="0" width="504" height="502">
<rect width="504" height="502" fill="#D9D9D9"/>
</mask>
<g mask="url(#mask0_2320_3296)">
<g opacity="0.9">
<path d="M636.936 -42.2825C513.32 -71.04 362.497 123.211 300.062 391.589C237.628 659.967 287.224 900.843 410.839 929.601C534.454 958.358 685.277 764.108 747.712 495.729C810.147 227.351 760.551 -13.525 636.936 -42.2825Z" stroke="#5897FB" stroke-width="0.4" stroke-miterlimit="10"/>
<path d="M607.808 -28.2978C486.113 -51.1237 347.28 144.596 297.713 408.853C248.147 673.111 306.619 905.838 428.313 928.664C550.007 951.49 688.841 755.771 738.407 491.513C787.974 227.255 729.502 -5.47195 607.808 -28.2978Z" stroke="#5897FB" stroke-width="0.4" stroke-miterlimit="10"/>
<path d="M729.591 486.998C766.298 226.91 698.949 2.36245 579.161 -14.5438C459.374 -31.45 332.51 165.687 295.803 425.775C259.095 685.862 326.445 910.41 446.232 927.316C566.019 944.223 692.883 747.085 729.591 486.998Z" stroke="#5897FB" stroke-width="0.4" stroke-miterlimit="10"/>
<path d="M720.603 483.001C744.466 227.064 668.253 10.6758 550.377 -0.314518C432.501 -11.3048 317.599 187.264 293.736 443.201C269.874 699.138 346.087 915.526 463.963 926.516C581.838 937.506 696.74 738.938 720.603 483.001Z" stroke="#5897FB" stroke-width="0.4" stroke-miterlimit="10"/>
<path d="M711.223 478.857C722.225 227.051 637.153 18.8161 521.211 13.7503C405.268 8.68442 302.359 208.706 291.357 460.512C280.354 712.318 365.426 920.554 481.369 925.62C597.311 930.686 700.221 730.663 711.223 478.857Z" stroke="#5897FB" stroke-width="0.4" stroke-miterlimit="10"/>
<path d="M702.326 474.27C700.463 226.61 606.486 26.5383 492.423 27.3964C378.36 28.2545 287.404 229.718 289.267 477.377C291.13 725.037 385.107 925.109 499.17 924.251C613.233 923.393 704.189 721.93 702.326 474.27Z" stroke="#5897FB" stroke-width="0.4" stroke-miterlimit="10"/>
<path d="M693.204 469.957C678.481 226.427 575.65 34.503 463.524 41.2818C351.398 48.0606 272.437 250.975 287.16 494.505C301.883 738.034 404.715 929.959 516.841 923.18C628.967 916.401 707.927 713.486 693.204 469.957Z" stroke="#5897FB" stroke-width="0.4" stroke-miterlimit="10"/>
<path d="M684.313 465.673C656.739 226.306 545.02 42.5555 434.783 55.2547C324.545 67.9538 257.534 272.294 285.109 511.661C312.683 751.028 424.402 934.779 534.639 922.079C644.877 909.38 711.888 705.04 684.313 465.673Z" stroke="#5897FB" stroke-width="0.4" stroke-miterlimit="10"/>
<path d="M674.836 461.402C634.396 226.201 513.817 50.6291 405.515 69.2505C297.213 87.8719 242.2 293.635 282.64 528.836C323.08 764.036 443.66 939.608 551.962 920.987C660.264 902.366 715.276 696.602 674.836 461.402Z" stroke="#5897FB" stroke-width="0.4" stroke-miterlimit="10"/>
<path d="M665.804 457.124C612.505 226.053 483.046 58.6274 376.649 83.169C270.253 107.711 227.209 314.926 280.509 545.997C333.808 777.068 463.267 944.494 569.663 919.952C676.06 895.411 719.104 688.195 665.804 457.124Z" stroke="#5897FB" stroke-width="0.4" stroke-miterlimit="10"/>
<path d="M656.779 452.905C590.626 225.99 452.28 66.7379 347.774 97.2044C243.268 127.671 212.176 336.32 278.328 563.234C344.481 790.148 482.826 949.401 587.332 918.934C691.838 888.467 722.931 679.819 656.779 452.905Z" stroke="#5897FB" stroke-width="0.4" stroke-miterlimit="10"/>
<path d="M647.749 448.579C568.74 225.811 421.519 74.7197 318.922 111.108C216.325 147.496 197.204 357.584 276.214 580.352C355.223 803.12 502.444 954.212 605.041 917.824C707.638 881.435 726.759 671.347 647.749 448.579Z" stroke="#5897FB" stroke-width="0.4" stroke-miterlimit="10"/>
<path d="M638.5 444.223C546.626 225.602 390.544 82.6679 289.88 124.971C189.217 167.274 182.091 378.795 273.965 597.415C365.838 816.036 521.92 958.97 622.584 916.667C723.248 874.364 730.374 662.843 638.5 444.223Z" stroke="#5897FB" stroke-width="0.4" stroke-miterlimit="10"/>
<path d="M629.565 439.904C524.833 225.411 359.876 90.619 261.125 138.837C162.373 187.056 167.221 400.025 271.953 614.518C376.686 829.011 541.642 963.803 640.394 915.585C739.145 867.366 734.297 654.397 629.565 439.904Z" stroke="#5897FB" stroke-width="0.4" stroke-miterlimit="10"/>
<path d="M620.39 435.555C502.794 225.21 328.946 98.5881 232.089 152.737C135.232 206.886 152.044 421.3 269.64 631.646C387.236 841.991 561.084 968.613 657.941 914.465C754.798 860.316 737.986 645.901 620.39 435.555Z" stroke="#5897FB" stroke-width="0.4" stroke-miterlimit="10"/>
<path d="M611.51 431.54C481.067 225.331 298.367 106.845 203.438 166.894C108.509 226.944 137.3 442.79 267.743 649C398.186 855.209 580.887 973.695 675.815 913.645C770.744 853.596 741.954 637.75 611.51 431.54Z" stroke="#5897FB" stroke-width="0.4" stroke-miterlimit="10"/>
<path d="M602.266 427.167C458.97 225.124 267.406 114.811 174.396 180.777C81.3866 246.742 122.152 464.007 265.448 666.05C408.744 868.093 600.308 978.406 693.318 912.44C786.327 846.474 745.562 629.21 602.266 427.167Z" stroke="#5897FB" stroke-width="0.4" stroke-miterlimit="10"/>
<path d="M593.262 422.594C437.096 224.679 236.635 122.519 145.519 194.414C54.4036 266.309 107.137 485.034 263.302 682.949C419.467 880.865 619.929 983.024 711.044 911.129C802.16 839.234 749.427 620.509 593.262 422.594Z" stroke="#5897FB" stroke-width="0.4" stroke-miterlimit="10"/>
<path d="M584.181 418.582C415.168 224.82 205.856 130.809 116.669 208.604C27.4819 286.399 92.1934 506.54 261.206 700.303C430.219 894.065 639.531 988.075 728.718 910.281C817.905 832.486 753.193 612.345 584.181 418.582Z" stroke="#5897FB" stroke-width="0.4" stroke-miterlimit="10"/>
<path d="M575.201 414.075C393.332 224.451 175.142 138.594 87.8598 222.307C0.57721 306.02 77.2541 527.603 259.122 717.226C440.991 906.849 659.18 992.706 746.463 908.993C833.746 825.28 757.069 603.698 575.201 414.075Z" stroke="#5897FB" stroke-width="0.4" stroke-miterlimit="10"/>
<path d="M566.115 409.939C371.406 224.477 144.357 146.787 58.9862 236.414C-26.3845 326.041 62.2515 549.045 256.96 734.507C451.669 919.97 678.718 997.659 764.089 908.032C849.46 818.405 760.824 595.401 566.115 409.939Z" stroke="#5897FB" stroke-width="0.4" stroke-miterlimit="10"/>
<path d="M556.895 405.898C349.322 224.584 113.388 155.062 29.9212 250.617C-53.5454 346.172 47.0628 570.618 254.636 751.932C462.209 933.246 698.144 1002.77 781.61 907.213C865.077 811.658 764.469 587.212 556.895 405.898Z" stroke="#5897FB" stroke-width="0.4" stroke-miterlimit="10"/>
</g>
</g>
</svg>
