<svg width="160" height="34" viewBox="0 0 160 34" fill="none" xmlns="http://www.w3.org/2000/svg">
<g clip-path="url(#clip0_256_1167)">
<path d="M9.85039 23.1649C12.0241 23.1649 13.6475 22.2019 14.5004 20.9362L17.7197 22.8072C16.0688 25.256 13.3448 26.7419 9.82287 26.7419C3.85211 26.7419 0 22.6696 0 17.2492C0 11.9112 3.85211 7.75647 9.52021 7.75647C14.8856 7.75647 18.5727 12.0763 18.5727 17.2767C18.5727 17.827 18.4901 18.4048 18.4351 18.9001H4.07223C4.67756 21.7341 6.96131 23.1649 9.85039 23.1649ZM14.638 15.7358C14.1152 12.6266 11.8315 11.3059 9.49269 11.3059C6.5761 11.3059 4.59501 13.0394 4.04471 15.7358H14.638Z" fill="#E62337"/>
<path d="M33.2106 26.2741L28.7532 20.1107L24.2407 26.2741H19.7007L26.4694 17.0015L20.0584 8.22418H24.5709L28.7256 13.9198L32.8529 8.22418H37.4204L31.0094 17.029L37.7506 26.2741H33.2106Z" fill="white"/>
<path d="M59.5979 17.2492C59.5979 22.6146 55.5256 26.7419 50.628 26.7419C47.8214 26.7419 45.6753 25.5862 44.327 23.7152V33.483H40.4199V8.22423H44.327V10.8106C45.7028 8.9121 47.8214 7.75647 50.628 7.75647C55.5256 7.75647 59.5979 11.9112 59.5979 17.2492ZM55.7182 17.2492C55.7182 13.8923 53.2694 11.471 50.0226 11.471C46.7759 11.471 44.327 13.8923 44.327 17.2492C44.327 20.606 46.7759 23.0273 50.0226 23.0273C53.2694 23.0273 55.7182 20.606 55.7182 17.2492Z" fill="white"/>
<path d="M81.1419 8.22421V26.2466H77.2347V23.6602C75.859 25.5587 73.7403 26.7143 70.9338 26.7143C66.0361 26.7143 61.9639 22.5596 61.9639 17.2216C61.9639 11.8562 66.0361 7.72894 70.9338 7.72894C73.7403 7.72894 75.8865 8.88457 77.2347 10.7556V8.22421H81.1419ZM77.2347 17.2491C77.2347 13.8923 74.7859 11.471 71.5391 11.471C68.2923 11.471 65.8435 13.8923 65.8435 17.2491C65.8435 20.606 68.2923 23.0273 71.5391 23.0273C74.7859 23.0273 77.2347 20.606 77.2347 17.2491Z" fill="white"/>
<path d="M98.6965 21.1838C98.6965 24.7883 95.5598 26.7419 91.6527 26.7419C88.0482 26.7419 85.4618 25.1185 84.3062 22.5321L87.663 20.5785C88.2408 22.2019 89.6716 23.1649 91.6802 23.1649C93.4136 23.1649 94.7344 22.5871 94.7344 21.1563C94.7344 17.937 85.0215 19.753 85.0215 13.287C85.0215 9.90264 87.9381 7.75647 91.6252 7.75647C94.5693 7.75647 97.0456 9.13222 98.2838 11.4985L95.0095 13.342C94.3491 11.9388 93.111 11.2784 91.6252 11.2784C90.2219 11.2784 88.9837 11.8837 88.9837 13.1769C88.9837 16.5063 98.6965 14.4977 98.6965 21.1838Z" fill="white"/>
<path d="M101.09 17.2492C101.09 11.8837 105.355 7.75647 110.611 7.75647C115.921 7.75647 120.131 11.8562 120.131 17.2492C120.131 22.5871 115.921 26.7419 110.611 26.7419C105.355 26.7419 101.09 22.5871 101.09 17.2492ZM116.224 17.2492C116.224 13.9749 113.775 11.5535 110.611 11.5535C107.446 11.5535 104.997 13.9749 104.997 17.2492C104.997 20.5235 107.446 22.9448 110.611 22.9448C113.775 22.9448 116.224 20.5235 116.224 17.2492Z" fill="white"/>
<path d="M128.605 7.8665V8.22419H132.87V11.9662H128.605V26.2465H124.698V11.9938H121.947V8.22419H124.698V7.8665C124.698 2.99634 127.45 0.1898 132.843 0.547496V4.28954C130.119 4.04191 128.605 5.08748 128.605 7.8665Z" fill="white"/>
<path d="M141.895 11.9938V20.661C141.895 22.9723 143.408 22.9448 146.38 22.7797V26.2741C140.382 26.9895 138.015 25.3386 138.015 20.661V11.9938H134.686V8.22423H138.015V4.3446L141.923 3.18896V8.22423H146.408V11.9663H141.895V11.9938Z" fill="white"/>
<path d="M151.773 2.72116L158.046 8.99459L159.972 7.06854L153.727 0.795105L151.773 2.72116Z" fill="#E62337"/>
<path d="M151.773 7.06854L153.699 8.99459L160 2.72116L158.074 0.795105L151.773 7.06854Z" fill="#E62337"/>
</g>
<defs>
<clipPath id="clip0_256_1167">
<rect width="160" height="34" fill="white"/>
</clipPath>
</defs>
</svg>
