<svg width="1440" height="75" viewBox="0 0 1440 75" fill="none" xmlns="http://www.w3.org/2000/svg">
<mask id="mask0_531_2174" style="mask-type:alpha" maskUnits="userSpaceOnUse" x="0" y="0" width="1440" height="75">
<rect width="1440" height="75" fill="#D9D9D9"/>
</mask>
<g mask="url(#mask0_531_2174)">
<path d="M-794.318 -16.5L1540.25 -16.5C1545.14 -16.5 1547.54 -16.4993 1549.57 -16.2903C1568.16 -14.3661 1582.87 0.335894 1584.79 18.9353C1585 20.9558 1585 23.3618 1585 28.2502C1585 33.1385 1585 35.5446 1584.79 37.5651C1582.87 56.1645 1568.16 70.8665 1549.57 72.7907C1547.54 72.9997 1545.14 73.0004 1540.25 73.0004L469.611 73.0001C460.3 73.0001 455.675 72.9996 451.093 72.5745C447.185 72.2118 443.301 71.6181 439.463 70.7966C434.963 69.8335 430.549 68.4524 421.663 65.6705L239.373 8.60651L239.344 8.59724C230.494 5.8268 226.034 4.43079 221.484 3.45696C217.607 2.62718 213.685 2.02755 209.737 1.66121C205.104 1.23129 200.431 1.23129 191.158 1.23129L191.126 1.23129L-794.318 1.23128C-799.214 1.23128 -803.184 -2.738 -803.184 -7.63435C-803.184 -12.5307 -799.214 -16.5 -794.318 -16.5Z" fill="white" stroke="url(#paint0_linear_531_2174)"/>
</g>
<defs>
<linearGradient id="paint0_linear_531_2174" x1="-1048" y1="-263.134" x2="1291" y2="-263.134" gradientUnits="userSpaceOnUse">
<stop offset="0.00321602" stop-color="#ADCDFF" stop-opacity="0"/>
<stop offset="0.192708" stop-color="#C0D9FF" stop-opacity="0.870335"/>
<stop offset="0.395833" stop-color="#5897FB"/>
<stop offset="1" stop-color="#5897FB" stop-opacity="0"/>
</linearGradient>
</defs>
</svg>
