<svg width="153" height="48" viewBox="0 0 153 48" fill="none" xmlns="http://www.w3.org/2000/svg">
<path d="M43.3902 1.07999V7.30999C36.7168 14.31 31.4902 21.17 27.7102 27.89C23.9768 34.5633 22.1102 40.3733 22.1102 45.32V47H14.7602V45.32C14.7602 40.14 16.5335 34.19 20.0802 27.47C23.6735 20.75 28.6202 14.03 34.9202 7.30999H0.410156V1.07999H43.3902Z" fill="#5897FB"/>
<path d="M74.1787 47.84C69.512 47.84 65.382 47 61.7887 45.32C58.242 43.64 55.4653 41.2833 53.4587 38.25C51.4987 35.2167 50.5187 31.74 50.5187 27.82V20.33C50.5187 16.3633 51.4987 12.8633 53.4587 9.82999C55.4653 6.79666 58.242 4.43999 61.7887 2.75999C65.382 1.07999 69.512 0.23999 74.1787 0.23999C78.7987 0.23999 82.882 1.07999 86.4287 2.75999C89.9753 4.43999 92.7287 6.79666 94.6887 9.82999C96.6487 12.8633 97.6287 16.3633 97.6287 20.33V27.82C97.6287 31.7867 96.6487 35.2867 94.6887 38.32C92.7287 41.3067 89.9753 43.64 86.4287 45.32C82.882 47 78.7987 47.84 74.1787 47.84ZM74.1787 41.33C79.312 41.33 83.3487 40.14 86.2887 37.76C89.2287 35.38 90.6987 32.09 90.6987 27.89V20.26C90.6987 16.1067 89.2053 12.8167 86.2187 10.39C83.2787 7.96332 79.242 6.74999 74.1087 6.74999C68.9287 6.74999 64.8453 7.96332 61.8587 10.39C58.9187 12.77 57.4487 16.06 57.4487 20.26V27.89C57.4487 32.09 58.9187 35.38 61.8587 37.76C64.8453 40.14 68.952 41.33 74.1787 41.33Z" fill="#5897FB"/>
<path d="M152.745 27.19H134.405V44.13H128.105V27.19H109.765V20.89H128.105V3.94999H134.405V20.89H152.745V27.19Z" fill="#5897FB"/>
</svg>
