<svg width="172" height="48" viewBox="0 0 172 48" fill="none" xmlns="http://www.w3.org/2000/svg">
<path d="M40.3324 23.34C43.2257 24.32 45.3957 25.6733 46.8424 27.4C48.3357 29.1267 49.0824 31.2033 49.0824 33.63V34.4C49.0824 43.36 41.0557 47.84 25.0024 47.84C8.94903 47.84 0.922363 43.36 0.922363 34.4V33.63C0.922363 31.2033 1.6457 29.1267 3.09236 27.4C4.5857 25.6733 6.77903 24.32 9.67236 23.34C7.47903 22.36 5.82236 21.1 4.70236 19.56C3.58236 17.9733 3.02236 16.1767 3.02236 14.17V13.4C3.02236 10.7867 3.93236 8.47666 5.75236 6.46999C7.57236 4.46332 10.139 2.92332 13.4524 1.84999C16.7657 0.776657 20.6157 0.23999 25.0024 0.23999C29.389 0.23999 33.239 0.776657 36.5524 1.84999C39.8657 2.92332 42.4324 4.46332 44.2524 6.46999C46.0724 8.47666 46.9824 10.7867 46.9824 13.4V14.17C46.9824 16.1767 46.4224 17.9733 45.3024 19.56C44.1824 21.1 42.5257 22.36 40.3324 23.34ZM9.88236 13.96C9.88236 16.34 11.0957 18.09 13.5224 19.21C15.9957 20.33 19.8224 20.89 25.0024 20.89C30.1357 20.89 33.9157 20.33 36.3424 19.21C38.8157 18.09 40.0524 16.34 40.0524 13.96V13.4C40.0524 8.82666 35.0357 6.53999 25.0024 6.53999C14.9224 6.53999 9.88236 8.82666 9.88236 13.4V13.96ZM42.1524 34.12C42.1524 31.6467 40.799 29.8733 38.0924 28.8C35.4324 27.68 31.069 27.12 25.0024 27.12C18.9357 27.12 14.549 27.68 11.8424 28.8C9.18236 29.8733 7.85236 31.6467 7.85236 34.12V34.68C7.85236 37.06 9.22903 38.81 11.9824 39.93C14.7357 41.0033 19.0757 41.54 25.0024 41.54C30.929 41.54 35.269 41.0033 38.0224 39.93C40.7757 38.81 42.1524 37.06 42.1524 34.68V34.12Z" fill="#5897FB"/>
<path d="M79.9901 47.84C75.3234 47.84 71.1934 47 67.6001 45.32C64.0534 43.64 61.2768 41.2833 59.2701 38.25C57.3101 35.2167 56.3301 31.74 56.3301 27.82V20.33C56.3301 16.3633 57.3101 12.8633 59.2701 9.82999C61.2768 6.79666 64.0534 4.43999 67.6001 2.75999C71.1934 1.07999 75.3234 0.23999 79.9901 0.23999C84.6101 0.23999 88.6934 1.07999 92.2401 2.75999C95.7868 4.43999 98.5401 6.79666 100.5 9.82999C102.46 12.8633 103.44 16.3633 103.44 20.33V27.82C103.44 31.7867 102.46 35.2867 100.5 38.32C98.5401 41.3067 95.7868 43.64 92.2401 45.32C88.6934 47 84.6101 47.84 79.9901 47.84ZM79.9901 41.33C85.1234 41.33 89.1601 40.14 92.1001 37.76C95.0401 35.38 96.5101 32.09 96.5101 27.89V20.26C96.5101 16.1067 95.0168 12.8167 92.0301 10.39C89.0901 7.96332 85.0534 6.74999 79.9201 6.74999C74.7401 6.74999 70.6568 7.96332 67.6701 10.39C64.7301 12.77 63.2601 16.06 63.2601 20.26V27.89C63.2601 32.09 64.7301 35.38 67.6701 37.76C70.6568 40.14 74.7634 41.33 79.9901 41.33Z" fill="#5897FB"/>
<path d="M120.617 23.27C116.464 23.27 113.127 22.2667 110.607 20.26C108.134 18.2533 106.897 15.5933 106.897 12.28V11.58C106.897 8.21999 108.134 5.55999 110.607 3.59999C113.127 1.59333 116.464 0.58999 120.617 0.58999C124.77 0.58999 128.06 1.59333 130.487 3.59999C132.96 5.55999 134.197 8.21999 134.197 11.58V12.28C134.197 15.5933 132.96 18.2533 130.487 20.26C128.014 22.2667 124.724 23.27 120.617 23.27ZM120.547 18.3C122.88 18.3 124.724 17.7633 126.077 16.69C127.43 15.6167 128.107 14.17 128.107 12.35V11.51C128.107 9.68999 127.43 8.24333 126.077 7.16999C124.724 6.09666 122.88 5.55999 120.547 5.55999C118.214 5.55999 116.37 6.09666 115.017 7.16999C113.71 8.19666 113.057 9.64332 113.057 11.51V12.35C113.057 14.17 113.734 15.6167 115.087 16.69C116.44 17.7633 118.26 18.3 120.547 18.3ZM157.437 47.42C153.284 47.42 149.947 46.4167 147.427 44.41C144.954 42.4033 143.717 39.7433 143.717 36.43V35.73C143.717 32.37 144.954 29.71 147.427 27.75C149.947 25.7433 153.284 24.74 157.437 24.74C161.59 24.74 164.88 25.7433 167.307 27.75C169.78 29.71 171.017 32.37 171.017 35.73V36.43C171.017 39.7433 169.78 42.4033 167.307 44.41C164.834 46.4167 161.544 47.42 157.437 47.42ZM157.367 42.45C159.7 42.45 161.544 41.9133 162.897 40.84C164.25 39.7667 164.927 38.32 164.927 36.5V35.66C164.927 33.84 164.25 32.3933 162.897 31.32C161.544 30.2467 159.7 29.71 157.367 29.71C155.034 29.71 153.19 30.2467 151.837 31.32C150.53 32.3467 149.877 33.7933 149.877 35.66V36.5C149.877 38.32 150.554 39.7667 151.907 40.84C153.26 41.9133 155.08 42.45 157.367 42.45ZM156.807 1.07999H163.527V2.12999L121.037 47H114.317V46.02L156.807 1.07999Z" fill="#5897FB"/>
</svg>
