<svg width="261" height="47" viewBox="0 0 261 47" fill="none" xmlns="http://www.w3.org/2000/svg">
<path d="M42.8597 19.05V27.03L1.90969 40.96H0.929688V34.8L35.2997 23.04L0.929688 11.35V5.19002H1.90969L42.8597 19.05Z" fill="#5897FB"/>
<path d="M81.8081 16.25C88.7148 16.25 94.1281 17.5333 98.0481 20.1C102.015 22.6667 103.998 26.2133 103.998 30.74V31.86C103.998 36.62 102.061 40.3067 98.1881 42.92C94.3148 45.5334 88.8548 46.84 81.8081 46.84C74.7148 46.84 69.2315 45.7434 65.3581 43.55C61.5315 41.3567 59.6181 38.23 59.6181 34.17V33.61H66.6181V34.17C66.6181 36.0834 67.9481 37.6 70.6081 38.72C73.2681 39.7934 76.9315 40.33 81.5981 40.33C86.4048 40.33 90.1848 39.5834 92.9381 38.09C95.6915 36.5967 97.0681 34.5434 97.0681 31.93V30.81C97.0681 28.29 95.6681 26.3067 92.8681 24.86C90.1148 23.4134 86.2881 22.69 81.3881 22.69C77.0948 22.69 73.5715 23.25 70.8181 24.37C68.0648 25.4434 66.6181 26.8667 66.4781 28.64H59.6181L61.1581 0.0800171H101.058V6.31002H67.3181L66.6181 19.82C70.2114 17.44 75.2748 16.25 81.8081 16.25Z" fill="#5897FB"/>
<path d="M174.78 46H168.06V17.23H146.85L146.57 29.76C146.43 35.3134 145.357 39.42 143.35 42.08C141.39 44.6934 138.403 46 134.39 46H131.24V40.05H132.92C135.393 40.05 137.167 39.2334 138.24 37.6C139.36 35.9667 139.967 33.2367 140.06 29.41L140.48 11.35H174.78V46Z" fill="#5897FB"/>
<path d="M220.904 30.88H187.514C187.747 33.9134 189.054 36.3167 191.434 38.09C193.814 39.8167 196.987 40.68 200.954 40.68C204.641 40.68 207.627 40.0734 209.914 38.86C212.247 37.6 213.507 35.9434 213.694 33.89H220.904C220.531 37.95 218.571 41.1234 215.024 43.41C211.524 45.6967 206.834 46.84 200.954 46.84C196.801 46.84 193.184 46.14 190.104 44.74C187.024 43.2934 184.644 41.2634 182.964 38.65C181.331 36.0367 180.514 32.98 180.514 29.48V28.01C180.514 24.4634 181.331 21.3834 182.964 18.77C184.644 16.11 187.024 14.08 190.104 12.68C193.184 11.2333 196.801 10.51 200.954 10.51C207.161 10.51 212.037 12.05 215.584 15.13C219.131 18.1634 220.904 22.3634 220.904 27.73V30.88ZM200.954 16.67C197.221 16.67 194.187 17.44 191.854 18.98C189.567 20.4734 188.167 22.5734 187.654 25.28H213.764C213.344 22.5734 212.014 20.4734 209.774 18.98C207.534 17.44 204.594 16.67 200.954 16.67Z" fill="#5897FB"/>
<path d="M220.228 17.37V11.35H260.968V17.37H244.098V46H237.378V17.37H220.228Z" fill="#5897FB"/>
</svg>
