<svg width="285" height="51" viewBox="0 0 285 51" fill="none" xmlns="http://www.w3.org/2000/svg">
<path d="M16.95 50.76H12.05V25.36C10.45 26.26 8.36669 26.71 5.80002 26.71H0.150024V22.06H5.40002C7.66669 22.06 9.33336 21.7267 10.4 21.06C11.5 20.3933 12.05 19.36 12.05 17.96H16.95V50.76Z" fill="#3173DB"/>
<path d="M58.3778 46.31V50.76H27.9278V46.76L42.3778 38.41C45.2111 36.7767 47.3111 35.46 48.6778 34.46C50.0444 33.4267 50.9611 32.4767 51.4278 31.61C51.9278 30.7433 52.1778 29.71 52.1778 28.51V28.01C52.1778 26.0767 51.3611 24.5933 49.7278 23.56C48.1278 22.5267 45.8111 22.01 42.7778 22.01C39.6444 22.01 37.2611 22.56 35.6278 23.66C34.0278 24.76 33.2278 26.36 33.2278 28.46V29.46H28.2278V28.41C28.2278 24.8433 29.4778 22.11 31.9778 20.21C34.4778 18.31 38.0444 17.36 42.6778 17.36C47.2111 17.36 50.7611 18.2933 53.3278 20.16C55.8944 22.0267 57.1778 24.5933 57.1778 27.86V28.36C57.1778 30.1267 56.8278 31.6767 56.1278 33.01C55.4278 34.3433 54.2111 35.6933 52.4778 37.06C50.7778 38.4267 48.2778 40.06 44.9778 41.96L37.3778 46.31H58.3778Z" fill="#3173DB"/>
<path d="M99.74 48.7601H93.86V18.2801C91.94 19.3601 89.44 19.9001 86.36 19.9001H79.58V14.3201H85.88C88.6 14.3201 90.6 13.9201 91.88 13.1201C93.2 12.3201 93.86 11.0801 93.86 9.40006H99.74V48.7601Z" fill="#5897FB"/>
<path d="M146.873 28.4801C149.353 29.3201 151.213 30.4801 152.453 31.9601C153.733 33.4401 154.373 35.2201 154.373 37.3001V37.9601C154.373 45.6401 147.493 49.4801 133.733 49.4801C119.973 49.4801 113.093 45.6401 113.093 37.9601V37.3001C113.093 35.2201 113.713 33.4401 114.953 31.9601C116.233 30.4801 118.113 29.3201 120.593 28.4801C118.713 27.6401 117.293 26.5601 116.333 25.2401C115.373 23.8801 114.893 22.3401 114.893 20.6201V19.9601C114.893 17.7201 115.673 15.7401 117.233 14.0201C118.793 12.3001 120.993 10.9801 123.833 10.0601C126.673 9.14005 129.973 8.68005 133.733 8.68005C137.493 8.68005 140.793 9.14005 143.633 10.0601C146.473 10.9801 148.673 12.3001 150.233 14.0201C151.793 15.7401 152.573 17.7201 152.573 19.9601V20.6201C152.573 22.3401 152.093 23.8801 151.133 25.2401C150.173 26.5601 148.753 27.6401 146.873 28.4801ZM120.773 20.4401C120.773 22.4801 121.813 23.9801 123.893 24.9401C126.013 25.9001 129.293 26.3801 133.733 26.3801C138.133 26.3801 141.373 25.9001 143.453 24.9401C145.573 23.9801 146.633 22.4801 146.633 20.4401V19.9601C146.633 16.0401 142.333 14.0801 133.733 14.0801C125.093 14.0801 120.773 16.0401 120.773 19.9601V20.4401ZM148.433 37.7201C148.433 35.6001 147.273 34.0801 144.953 33.1601C142.673 32.2001 138.933 31.7201 133.733 31.7201C128.533 31.7201 124.773 32.2001 122.453 33.1601C120.173 34.0801 119.033 35.6001 119.033 37.7201V38.2001C119.033 40.2401 120.213 41.7401 122.573 42.7001C124.933 43.6201 128.653 44.0801 133.733 44.0801C138.813 44.0801 142.533 43.6201 144.893 42.7001C147.253 41.7401 148.433 40.2401 148.433 38.2001V37.7201Z" fill="#5897FB"/>
<path d="M223.23 40.53V46.76H180.6V41.16L200.83 29.47C204.797 27.1833 207.737 25.34 209.65 23.94C211.563 22.4933 212.847 21.1633 213.5 19.95C214.2 18.7367 214.55 17.29 214.55 15.61V14.91C214.55 12.2033 213.407 10.1267 211.12 8.68C208.88 7.23333 205.637 6.51 201.39 6.51C197.003 6.51 193.667 7.28 191.38 8.82C189.14 10.36 188.02 12.6 188.02 15.54V16.94H181.02V15.47C181.02 10.4767 182.77 6.65 186.27 3.99C189.77 1.33 194.763 0 201.25 0C207.597 0 212.567 1.30667 216.16 3.92C219.753 6.53333 221.55 10.1267 221.55 14.7V15.4C221.55 17.8733 221.06 20.0433 220.08 21.91C219.1 23.7767 217.397 25.6667 214.97 27.58C212.59 29.4933 209.09 31.78 204.47 34.44L193.83 40.53H223.23Z" fill="#9CC3FF"/>
<path d="M284.645 36.33H272.325V46.76H265.395V36.33H231.935V30.03C235.481 24.5233 238.375 19.4833 240.615 14.91C242.855 10.29 244.721 5.6 246.215 0.84H253.565V1.89C250.578 10.9433 246.051 20.3233 239.985 30.03H265.395V8.96H272.325V30.03H284.645V36.33Z" fill="#9CC3FF"/>
</svg>
