<svg width="152" height="48" viewBox="0 0 152 48" fill="none" xmlns="http://www.w3.org/2000/svg">
<path d="M23.0001 17.25C29.9067 17.25 35.3201 18.5333 39.2401 21.1C43.2067 23.6667 45.1901 27.2133 45.1901 31.74V32.86C45.1901 37.62 43.2534 41.3067 39.3801 43.92C35.5067 46.5333 30.0467 47.84 23.0001 47.84C15.9067 47.84 10.4234 46.7433 6.55006 44.55C2.72339 42.3567 0.810059 39.23 0.810059 35.17V34.61H7.81006V35.17C7.81006 37.0833 9.14006 38.6 11.8001 39.72C14.4601 40.7933 18.1234 41.33 22.7901 41.33C27.5967 41.33 31.3767 40.5833 34.1301 39.09C36.8834 37.5967 38.2601 35.5433 38.2601 32.93V31.81C38.2601 29.29 36.8601 27.3067 34.0601 25.86C31.3067 24.4133 27.4801 23.69 22.5801 23.69C18.2867 23.69 14.7634 24.25 12.0101 25.37C9.25673 26.4433 7.81006 27.8667 7.67006 29.64H0.810059L2.35006 1.07999H42.2501V7.30999H8.51006L7.81006 20.82C11.4034 18.44 16.4667 17.25 23.0001 17.25Z" fill="#5897FB"/>
<path d="M76.2548 47.84C71.5881 47.84 67.4581 47 63.8647 45.32C60.3181 43.64 57.5414 41.2833 55.5347 38.25C53.5747 35.2167 52.5947 31.74 52.5947 27.82V20.33C52.5947 16.3633 53.5747 12.8633 55.5347 9.82999C57.5414 6.79666 60.3181 4.43999 63.8647 2.75999C67.4581 1.07999 71.5881 0.23999 76.2548 0.23999C80.8748 0.23999 84.9581 1.07999 88.5048 2.75999C92.0514 4.43999 94.8047 6.79666 96.7647 9.82999C98.7247 12.8633 99.7048 16.3633 99.7048 20.33V27.82C99.7048 31.7867 98.7247 35.2867 96.7647 38.32C94.8047 41.3067 92.0514 43.64 88.5048 45.32C84.9581 47 80.8748 47.84 76.2548 47.84ZM76.2548 41.33C81.3881 41.33 85.4248 40.14 88.3647 37.76C91.3047 35.38 92.7747 32.09 92.7747 27.89V20.26C92.7747 16.1067 91.2814 12.8167 88.2947 10.39C85.3548 7.96332 81.3181 6.74999 76.1847 6.74999C71.0047 6.74999 66.9214 7.96332 63.9347 10.39C60.9947 12.77 59.5247 16.06 59.5247 20.26V27.89C59.5247 32.09 60.9947 35.38 63.9347 37.76C66.9214 40.14 71.0281 41.33 76.2548 41.33Z" fill="#5897FB"/>
<path d="M151.322 27.19H132.982V44.13H126.682V27.19H108.342V20.89H126.682V3.94999H132.982V20.89H151.322V27.19Z" fill="#5897FB"/>
</svg>
