<svg width="206" height="46" viewBox="0 0 206 46" fill="none" xmlns="http://www.w3.org/2000/svg">
<path d="M23.393 44.76H16.827V10.724C14.683 11.93 11.8913 12.533 8.45198 12.533H0.880981V6.30203H7.91598C10.9533 6.30203 13.1866 5.85536 14.616 4.96203C16.09 4.0687 16.827 2.68403 16.827 0.808029H23.393V44.76Z" fill="#5897FB"/>
<path d="M60.2131 45.564C55.7465 45.564 51.7935 44.76 48.3541 43.152C44.9595 41.544 42.3018 39.2884 40.3811 36.385C38.5051 33.4817 37.5671 30.154 37.5671 26.402V19.233C37.5671 15.4364 38.5051 12.0864 40.3811 9.18303C42.3018 6.2797 44.9595 4.02403 48.3541 2.41603C51.7935 0.808028 55.7465 0.00402832 60.2131 0.00402832C64.6351 0.00402832 68.5435 0.808028 71.9381 2.41603C75.3328 4.02403 77.9681 6.2797 79.8441 9.18303C81.7201 12.0864 82.6581 15.4364 82.6581 19.233V26.402C82.6581 30.1987 81.7201 33.5487 79.8441 36.452C77.9681 39.3107 75.3328 41.544 71.9381 43.152C68.5435 44.76 64.6351 45.564 60.2131 45.564ZM60.2131 39.333C65.1265 39.333 68.9902 38.194 71.8041 35.916C74.6181 33.638 76.0252 30.489 76.0252 26.469V19.166C76.0252 15.1907 74.5958 12.0417 71.7372 9.71903C68.9232 7.39636 65.0595 6.23503 60.1461 6.23503C55.1881 6.23503 51.2798 7.39636 48.4211 9.71903C45.6071 11.997 44.2001 15.146 44.2001 19.166V26.469C44.2001 30.489 45.6071 33.638 48.4211 35.916C51.2798 38.194 55.2105 39.333 60.2131 39.333Z" fill="#5897FB"/>
<path d="M114.978 45.564C110.511 45.564 106.558 44.76 103.119 43.152C99.7241 41.544 97.0665 39.2884 95.1458 36.385C93.2698 33.4817 92.3318 30.154 92.3318 26.402V19.233C92.3318 15.4364 93.2698 12.0864 95.1458 9.18303C97.0665 6.2797 99.7241 4.02403 103.119 2.41603C106.558 0.808028 110.511 0.00402832 114.978 0.00402832C119.4 0.00402832 123.308 0.808028 126.703 2.41603C130.097 4.02403 132.733 6.2797 134.609 9.18303C136.485 12.0864 137.423 15.4364 137.423 19.233V26.402C137.423 30.1987 136.485 33.5487 134.609 36.452C132.733 39.3107 130.097 41.544 126.703 43.152C123.308 44.76 119.4 45.564 114.978 45.564ZM114.978 39.333C119.891 39.333 123.755 38.194 126.569 35.916C129.383 33.638 130.79 30.489 130.79 26.469V19.166C130.79 15.1907 129.36 12.0417 126.502 9.71903C123.688 7.39636 119.824 6.23503 114.911 6.23503C109.953 6.23503 106.044 7.39636 103.186 9.71903C100.372 11.997 98.9648 15.146 98.9648 19.166V26.469C98.9648 30.489 100.372 33.638 103.186 35.916C106.044 38.194 109.975 39.333 114.978 39.333Z" fill="#5897FB"/>
<path d="M157.213 22.047C153.238 22.047 150.044 21.0867 147.632 19.166C145.265 17.2454 144.081 14.6994 144.081 11.528V10.858C144.081 7.64203 145.265 5.09603 147.632 3.22003C150.044 1.29936 153.238 0.339027 157.213 0.339027C161.189 0.339027 164.338 1.29936 166.66 3.22003C169.028 5.09603 170.211 7.64203 170.211 10.858V11.528C170.211 14.6994 169.028 17.2454 166.66 19.166C164.293 21.0867 161.144 22.047 157.213 22.047ZM157.146 17.29C159.38 17.29 161.144 16.7764 162.439 15.749C163.735 14.7217 164.382 13.337 164.382 11.595V10.791C164.382 9.04903 163.735 7.66436 162.439 6.63703C161.144 5.6097 159.38 5.09603 157.146 5.09603C154.913 5.09603 153.149 5.6097 151.853 6.63703C150.603 7.61969 149.977 9.00436 149.977 10.791V11.595C149.977 13.337 150.625 14.7217 151.92 15.749C153.216 16.7764 154.958 17.29 157.146 17.29ZM192.455 45.162C188.48 45.162 185.286 44.2017 182.874 42.281C180.507 40.3604 179.323 37.8144 179.323 34.643V33.973C179.323 30.757 180.507 28.211 182.874 26.335C185.286 24.4144 188.48 23.454 192.455 23.454C196.431 23.454 199.58 24.4144 201.902 26.335C204.27 28.211 205.453 30.757 205.453 33.973V34.643C205.453 37.8144 204.27 40.3604 201.902 42.281C199.535 44.2017 196.386 45.162 192.455 45.162ZM192.388 40.405C194.622 40.405 196.386 39.8914 197.681 38.864C198.977 37.8367 199.624 36.452 199.624 34.71V33.906C199.624 32.164 198.977 30.7794 197.681 29.752C196.386 28.7247 194.622 28.211 192.388 28.211C190.155 28.211 188.391 28.7247 187.095 29.752C185.845 30.7347 185.219 32.1194 185.219 33.906V34.71C185.219 36.452 185.867 37.8367 187.162 38.864C188.458 39.8914 190.2 40.405 192.388 40.405ZM191.852 0.808029H198.284V1.81303L157.615 44.76H151.183V43.822L191.852 0.808029Z" fill="#5897FB"/>
</svg>
