<svg width="274" height="40" viewBox="0 0 274 40" fill="none" xmlns="http://www.w3.org/2000/svg">
<path d="M35.273 33.687V38.76H0.559998V34.2L17.033 24.681C20.263 22.819 22.657 21.318 24.215 20.178C25.773 19 26.818 17.917 27.35 16.929C27.92 15.941 28.205 14.763 28.205 13.395V12.825C28.205 10.621 27.274 8.92996 25.412 7.75196C23.588 6.57396 20.947 5.98496 17.489 5.98496C13.917 5.98496 11.2 6.61196 9.338 7.86596C7.514 9.11996 6.602 10.944 6.602 13.338V14.478H0.901997V13.281C0.901997 9.21496 2.327 6.09896 5.177 3.93296C8.027 1.76696 12.093 0.68396 17.375 0.68396C22.543 0.68396 26.59 1.74796 29.516 3.87596C32.442 6.00396 33.905 8.92996 33.905 12.654V13.224C33.905 15.238 33.506 17.005 32.708 18.525C31.91 20.045 30.523 21.584 28.547 23.142C26.609 24.7 23.759 26.562 19.997 28.728L11.333 33.687H35.273Z" fill="#5897FB"/>
<path d="M62.3983 39.444C58.5983 39.444 55.2353 38.76 52.3093 37.392C49.4213 36.024 47.1603 34.105 45.5263 31.635C43.9303 29.165 43.1323 26.334 43.1323 23.142V17.043C43.1323 13.813 43.9303 10.963 45.5263 8.49296C47.1603 6.02296 49.4213 4.10396 52.3093 2.73596C55.2353 1.36796 58.5983 0.68396 62.3983 0.68396C66.1603 0.68396 69.4853 1.36796 72.3733 2.73596C75.2613 4.10396 77.5033 6.02296 79.0993 8.49296C80.6953 10.963 81.4933 13.813 81.4933 17.043V23.142C81.4933 26.372 80.6953 29.222 79.0993 31.692C77.5033 34.124 75.2613 36.024 72.3733 37.392C69.4853 38.76 66.1603 39.444 62.3983 39.444ZM62.3983 34.143C66.5783 34.143 69.8653 33.174 72.2593 31.236C74.6533 29.298 75.8503 26.619 75.8503 23.199V16.986C75.8503 13.604 74.6343 10.925 72.2023 8.94896C69.8083 6.97296 66.5213 5.98496 62.3413 5.98496C58.1233 5.98496 54.7983 6.97296 52.3663 8.94896C49.9723 10.887 48.7753 13.566 48.7753 16.986V23.199C48.7753 26.619 49.9723 29.298 52.3663 31.236C54.7983 33.174 58.1423 34.143 62.3983 34.143Z" fill="#5897FB"/>
<path d="M116.513 20.52V25.479H97.0191V20.52H116.513Z" fill="#5897FB"/>
<path d="M152.559 16.188C157.613 16.34 161.47 17.347 164.13 19.209C166.828 21.033 168.177 23.579 168.177 26.847V27.588C168.177 31.426 166.638 34.371 163.56 36.423C160.482 38.437 155.998 39.444 150.108 39.444C144.37 39.406 139.924 38.399 136.77 36.423C133.654 34.447 132.096 31.654 132.096 28.044V27.645H137.739V28.044C137.739 29.944 138.841 31.445 141.045 32.547C143.249 33.611 146.289 34.143 150.165 34.143C154.231 34.143 157.309 33.611 159.399 32.547C161.489 31.445 162.534 29.83 162.534 27.702V27.018C162.534 23.028 158.468 21.033 150.336 21.033H144.18V16.017L158.259 6.44096H132.78V1.36796H167.265V6.44096L152.559 16.188Z" fill="#5897FB"/>
<path d="M196.337 39.444C192.537 39.444 189.174 38.76 186.248 37.392C183.36 36.024 181.099 34.105 179.465 31.635C177.869 29.165 177.071 26.334 177.071 23.142V17.043C177.071 13.813 177.869 10.963 179.465 8.49296C181.099 6.02296 183.36 4.10396 186.248 2.73596C189.174 1.36796 192.537 0.68396 196.337 0.68396C200.099 0.68396 203.424 1.36796 206.312 2.73596C209.2 4.10396 211.442 6.02296 213.038 8.49296C214.634 10.963 215.432 13.813 215.432 17.043V23.142C215.432 26.372 214.634 29.222 213.038 31.692C211.442 34.124 209.2 36.024 206.312 37.392C203.424 38.76 200.099 39.444 196.337 39.444ZM196.337 34.143C200.517 34.143 203.804 33.174 206.198 31.236C208.592 29.298 209.789 26.619 209.789 23.199V16.986C209.789 13.604 208.573 10.925 206.141 8.94896C203.747 6.97296 200.46 5.98496 196.28 5.98496C192.062 5.98496 188.737 6.97296 186.305 8.94896C183.911 10.887 182.714 13.566 182.714 16.986V23.199C182.714 26.619 183.911 29.298 186.305 31.236C188.737 33.174 192.081 34.143 196.337 34.143Z" fill="#5897FB"/>
<path d="M232.269 19.437C228.887 19.437 226.17 18.62 224.118 16.986C222.104 15.352 221.097 13.186 221.097 10.488V9.91796C221.097 7.18196 222.104 5.01596 224.118 3.41996C226.17 1.78596 228.887 0.96896 232.269 0.96896C235.651 0.96896 238.33 1.78596 240.306 3.41996C242.32 5.01596 243.327 7.18196 243.327 9.91796V10.488C243.327 13.186 242.32 15.352 240.306 16.986C238.292 18.62 235.613 19.437 232.269 19.437ZM232.212 15.39C234.112 15.39 235.613 14.953 236.715 14.079C237.817 13.205 238.368 12.027 238.368 10.545V9.86096C238.368 8.37896 237.817 7.20096 236.715 6.32696C235.613 5.45296 234.112 5.01596 232.212 5.01596C230.312 5.01596 228.811 5.45296 227.709 6.32696C226.645 7.16296 226.113 8.34096 226.113 9.86096V10.545C226.113 12.027 226.664 13.205 227.766 14.079C228.868 14.953 230.35 15.39 232.212 15.39ZM262.251 39.102C258.869 39.102 256.152 38.285 254.1 36.651C252.086 35.017 251.079 32.851 251.079 30.153V29.583C251.079 26.847 252.086 24.681 254.1 23.085C256.152 21.451 258.869 20.634 262.251 20.634C265.633 20.634 268.312 21.451 270.288 23.085C272.302 24.681 273.309 26.847 273.309 29.583V30.153C273.309 32.851 272.302 35.017 270.288 36.651C268.274 38.285 265.595 39.102 262.251 39.102ZM262.194 35.055C264.094 35.055 265.595 34.618 266.697 33.744C267.799 32.87 268.35 31.692 268.35 30.21V29.526C268.35 28.044 267.799 26.866 266.697 25.992C265.595 25.118 264.094 24.681 262.194 24.681C260.294 24.681 258.793 25.118 257.691 25.992C256.627 26.828 256.095 28.006 256.095 29.526V30.21C256.095 31.692 256.646 32.87 257.748 33.744C258.85 34.618 260.332 35.055 262.194 35.055ZM261.738 1.36796H267.21V2.22296L232.611 38.76H227.139V37.962L261.738 1.36796Z" fill="#5897FB"/>
</svg>
