<svg width="252" height="48" viewBox="0 0 252 48" fill="none" xmlns="http://www.w3.org/2000/svg">
<path d="M23.5298 47H16.6698V11.44C14.4298 12.7 11.5131 13.33 7.91977 13.33H0.00976562V6.81999H7.35977C10.5331 6.81999 12.8664 6.35332 14.3598 5.41999C15.8998 4.48666 16.6698 3.03999 16.6698 1.07999H23.5298V47Z" fill="#5897FB"/>
<path d="M78.0286 40.77V47H35.3986V41.4L55.6286 29.71C59.5953 27.4233 62.5353 25.58 64.4486 24.18C66.3619 22.7333 67.6453 21.4033 68.2986 20.19C68.9986 18.9767 69.3486 17.53 69.3486 15.85V15.15C69.3486 12.4433 68.2053 10.3667 65.9186 8.91999C63.6786 7.47332 60.4353 6.74999 56.1886 6.74999C51.8019 6.74999 48.4653 7.51999 46.1786 9.05999C43.9386 10.6 42.8186 12.84 42.8186 15.78V17.18H35.8186V15.71C35.8186 10.7167 37.5686 6.88999 41.0686 4.22999C44.5686 1.56999 49.5619 0.23999 56.0486 0.23999C62.3953 0.23999 67.3653 1.54666 70.9586 4.15999C74.5519 6.77332 76.3486 10.3667 76.3486 14.94V15.64C76.3486 18.1133 75.8586 20.2833 74.8786 22.15C73.8986 24.0167 72.1953 25.9067 69.7686 27.82C67.3886 29.7333 63.8886 32.02 59.2686 34.68L48.6286 40.77H78.0286Z" fill="#5897FB"/>
<path d="M161.628 12.35V47H155.188V19.28L153.578 22.15L138.598 47H132.648L117.668 22.15L116.058 19.28V47H109.618V12.35H119.138L135.658 40L152.108 12.35H161.628Z" fill="#5897FB"/>
<path d="M207.764 31.88H174.374C174.607 34.9133 175.914 37.3167 178.294 39.09C180.674 40.8167 183.847 41.68 187.814 41.68C191.5 41.68 194.487 41.0733 196.774 39.86C199.107 38.6 200.367 36.9433 200.554 34.89H207.764C207.39 38.95 205.43 42.1233 201.884 44.41C198.384 46.6967 193.694 47.84 187.814 47.84C183.66 47.84 180.044 47.14 176.964 45.74C173.884 44.2933 171.504 42.2633 169.824 39.65C168.19 37.0367 167.374 33.98 167.374 30.48V29.01C167.374 25.4633 168.19 22.3833 169.824 19.77C171.504 17.11 173.884 15.08 176.964 13.68C180.044 12.2333 183.66 11.51 187.814 11.51C194.02 11.51 198.897 13.05 202.444 16.13C205.99 19.1633 207.764 23.3633 207.764 28.73V31.88ZM187.814 17.67C184.08 17.67 181.047 18.44 178.714 19.98C176.427 21.4733 175.027 23.5733 174.514 26.28H200.624C200.204 23.5733 198.874 21.4733 196.634 19.98C194.394 18.44 191.454 17.67 187.814 17.67Z" fill="#5897FB"/>
<path d="M231.487 47.84C227.333 47.84 223.693 47.14 220.567 45.74C217.44 44.2933 215.037 42.2633 213.357 39.65C211.677 36.99 210.837 33.91 210.837 30.41V29.15C210.837 25.5567 211.677 22.43 213.357 19.77C215.037 17.11 217.417 15.08 220.497 13.68C223.623 12.2333 227.287 11.51 231.487 11.51C235.267 11.51 238.673 12.1633 241.707 13.47C244.74 14.73 247.097 16.5033 248.777 18.79C250.503 21.03 251.367 23.5733 251.367 26.42V26.7H244.437V26.42C244.437 24.74 243.877 23.2467 242.757 21.94C241.683 20.5867 240.143 19.5367 238.137 18.79C236.177 18.0433 233.96 17.67 231.487 17.67C227.193 17.67 223.833 18.6967 221.407 20.75C218.98 22.7567 217.767 25.58 217.767 29.22V30.34C217.767 33.8867 218.98 36.6633 221.407 38.67C223.833 40.6767 227.193 41.68 231.487 41.68C234.007 41.68 236.247 41.3067 238.207 40.56C240.167 39.8133 241.683 38.7867 242.757 37.48C243.877 36.1733 244.437 34.68 244.437 33V32.72H251.367V33C251.367 35.8933 250.527 38.46 248.847 40.7C247.167 42.94 244.81 44.69 241.777 45.95C238.79 47.21 235.36 47.84 231.487 47.84Z" fill="#5897FB"/>
</svg>
