<svg width="172" height="39" viewBox="0 0 172 39" fill="none" xmlns="http://www.w3.org/2000/svg">
<g clip-path="url(#clip0_257_1202)">
<path d="M17.8147 1.28108L32.1666 9.59649C32.5176 9.79982 32.809 10.0923 33.0116 10.4444C33.2142 10.7966 33.3209 11.1961 33.3209 11.6028V28.2336C33.3209 28.6402 33.2142 29.0397 33.0116 29.3919C32.809 29.7441 32.5176 30.0365 32.1666 30.2398L17.8147 38.5552C17.4638 38.7586 17.0657 38.8656 16.6605 38.8656C16.2552 38.8656 15.8571 38.7586 15.5062 38.5552L1.15428 30.2398C0.803341 30.0365 0.51192 29.7441 0.309302 29.3919C0.106685 29.0397 1.02943e-05 28.6402 0 28.2336V11.6028C1.02943e-05 11.1961 0.106685 10.7966 0.309302 10.4444C0.51192 10.0923 0.803341 9.79982 1.15428 9.59649L15.5062 1.28108C15.8571 1.07775 16.2552 0.970703 16.6605 0.970703C17.0657 0.970703 17.4638 1.07775 17.8147 1.28108Z" fill="white"/>
<path d="M11.5807 17.6903H10.2197C10.1117 17.6903 10.0082 17.7334 9.93187 17.81C9.85554 17.8866 9.81266 17.9904 9.81266 18.0988V26.4568C9.81266 26.6823 9.99492 26.8652 10.2197 26.8652H18.4271C18.535 26.8652 18.6385 26.8222 18.7149 26.7456C18.7912 26.669 18.8341 26.5651 18.8341 26.4568V18.0988C18.8341 17.9904 18.7912 17.8866 18.7149 17.81C18.6385 17.7334 18.535 17.6903 18.4271 17.6903H15.3163V15.543H19.2322C19.4609 15.543 19.6874 15.5882 19.8987 15.676C20.11 15.7638 20.302 15.8926 20.4638 16.0549C20.6255 16.2172 20.7538 16.4099 20.8413 16.6219C20.9288 16.834 20.9739 17.0612 20.9739 17.2908V27.2648C20.9739 27.7283 20.7904 28.1729 20.4638 28.5007C20.1371 28.8285 19.6941 29.0126 19.2322 29.0126H9.4145C8.95259 29.0126 8.50959 28.8285 8.18297 28.5007C7.85635 28.1729 7.67285 27.7283 7.67285 27.2648V17.2908C7.67285 16.8272 7.85635 16.3827 8.18297 16.0549C8.50959 15.7271 8.95259 15.543 9.4145 15.543H11.5807V17.6903Z" fill="#3B0470"/>
<path d="M21.7402 22.1453H23.1012C23.2092 22.1453 23.3127 22.1023 23.389 22.0257C23.4654 21.9491 23.5083 21.8452 23.5083 21.7368V13.379C23.5083 13.2707 23.4654 13.1668 23.389 13.0902C23.3127 13.0136 23.2092 12.9706 23.1012 12.9706H14.8939C14.7859 12.9706 14.6824 13.0136 14.6061 13.0902C14.5297 13.1668 14.4868 13.2707 14.4868 13.379V21.7368C14.4868 21.9624 14.6691 22.1453 14.8939 22.1453H18.0046V24.2927H14.0887C13.6268 24.2927 13.1838 24.1085 12.8572 23.7807C12.5305 23.453 12.347 23.0084 12.347 22.5449V12.571C12.347 12.3415 12.3921 12.1142 12.4796 11.9022C12.5671 11.6901 12.6954 11.4975 12.8572 11.3352C13.1838 11.0074 13.6268 10.8232 14.0887 10.8232H23.9064C24.3683 10.8232 24.8113 11.0074 25.1379 11.3352C25.4646 11.6629 25.6481 12.1075 25.6481 12.571V22.5451C25.6481 23.0086 25.4646 23.4532 25.1379 23.7809C24.8113 24.1087 24.3683 24.2929 23.9064 24.2929H21.7402V22.1453ZM11.5807 15.5432V17.6905H10.2197" fill="#3B0470"/>
<path d="M43 24.909H44.8313V21.9086H47.3349V20.4319H44.8313V18.5575H47.6745V17.091H43V24.909ZM50.7174 24.6528C51.1376 24.8854 51.8379 25 52.8218 25C53.8127 25 54.52 24.8854 54.9402 24.6528C55.3639 24.4235 55.623 24.0527 55.7281 23.5436C55.8296 23.0379 55.8786 22.1884 55.8786 20.9983C55.8786 19.8083 55.8296 18.9621 55.7281 18.453C55.623 17.9473 55.3639 17.5765 54.9402 17.3439C54.52 17.1146 53.8127 17 52.8218 17C51.8379 17 51.1376 17.1146 50.7174 17.3439C50.2937 17.5765 50.0311 17.9473 49.926 18.4598C49.8175 18.9722 49.765 19.8184 49.765 20.9983C49.765 22.1816 49.8175 23.0278 49.926 23.5402C50.0311 24.0493 50.2937 24.4235 50.7174 24.6528ZM53.6797 23.4088C53.5326 23.493 53.249 23.5335 52.8218 23.5335C52.3981 23.5335 52.111 23.493 51.9674 23.4088C51.8204 23.3245 51.7293 23.129 51.6908 22.8188C51.6488 22.5086 51.6313 21.9018 51.6313 20.9983C51.6313 20.0982 51.6488 19.4914 51.6908 19.1812C51.7293 18.871 51.8204 18.6721 51.9674 18.5912C52.111 18.507 52.3981 18.4665 52.8218 18.4665C53.249 18.4665 53.5326 18.507 53.6797 18.5912C53.8232 18.6721 53.9178 18.871 53.9563 19.1812C53.9948 19.4914 54.0158 20.0982 54.0158 20.9983C54.0158 21.9018 53.9948 22.5086 53.9563 22.8188C53.9178 23.129 53.8232 23.3245 53.6797 23.4088ZM62.325 24.909H64.2508L63.1163 21.8984C63.5015 21.7164 63.7571 21.4298 63.8831 21.0388C64.0092 20.6477 64.0722 20.1757 64.0722 19.6228C64.0722 19.0329 64.0162 18.5609 63.9007 18.2035C63.7886 17.8462 63.561 17.5731 63.2214 17.381C62.8852 17.1854 62.381 17.091 61.7122 17.091H58.3717V24.909H60.1995V22.1715H61.3796L62.325 24.909ZM61.8593 20.6342C61.7122 20.6882 61.4671 20.7151 61.1204 20.7151H60.1995V18.5575H61.1344C61.4776 18.5575 61.7262 18.5811 61.8698 18.6283C62.0168 18.6789 62.1114 18.7733 62.1534 18.9149C62.1989 19.0531 62.2199 19.2958 62.2199 19.6363C62.2199 19.9701 62.1954 20.2061 62.1464 20.3443C62.1009 20.4859 62.0028 20.5836 61.8593 20.6342ZM66.5408 17.091V24.909H68.3686V22.3974H69.8217C70.4835 22.3974 70.9808 22.2861 71.3204 22.067C71.6601 21.8479 71.8806 21.5512 71.9857 21.1804C72.0942 20.8095 72.1468 20.3274 72.1468 19.7375C72.1468 19.1172 72.0907 18.6216 71.9752 18.2474C71.8596 17.8765 71.639 17.5933 71.3099 17.3911C70.9773 17.1888 70.487 17.091 69.8323 17.091H66.5408ZM69.195 20.9309H68.3686V18.5575H69.195C69.5416 18.5575 69.7902 18.5811 69.9373 18.6351C70.0879 18.689 70.1859 18.7935 70.2349 18.9486C70.2804 19.1037 70.305 19.3666 70.305 19.7375C70.305 20.1083 70.2804 20.3713 70.2349 20.5263C70.1859 20.6814 70.0879 20.7893 69.9373 20.8466C69.7902 20.9039 69.5416 20.9309 69.195 20.9309ZM74.4123 24.909H79.3004V23.4425H76.2436V21.6928H78.8627V20.2263H76.2436V18.5575H79.3004V17.091H74.4123V24.909ZM82.5288 24.6528C82.949 24.8854 83.6528 25 84.6367 25C85.6277 25 86.3315 24.8854 86.7552 24.6528C87.1754 24.4235 87.438 24.0527 87.5395 23.5436C87.6411 23.0379 87.6936 22.1884 87.6936 20.9983C87.6936 19.8083 87.6411 18.9621 87.5395 18.453C87.438 17.9473 87.1754 17.5765 86.7552 17.3439C86.3315 17.1146 85.6277 17 84.6367 17C83.6528 17 82.949 17.1146 82.5288 17.3439C82.1086 17.5765 81.8425 17.9473 81.7375 18.4598C81.6324 18.9722 81.5764 19.8184 81.5764 20.9983C81.5764 22.1816 81.6324 23.0278 81.7375 23.5402C81.8425 24.0493 82.1086 24.4235 82.5288 24.6528ZM85.4911 23.4088C85.344 23.493 85.0604 23.5335 84.6367 23.5335C84.2095 23.5335 83.9259 23.493 83.7789 23.4088C83.6353 23.3245 83.5408 23.129 83.5022 22.8188C83.4637 22.5086 83.4427 21.9018 83.4427 20.9983C83.4427 20.0982 83.4637 19.4914 83.5022 19.1812C83.5408 18.871 83.6353 18.6721 83.7789 18.5912C83.9259 18.507 84.2095 18.4665 84.6367 18.4665C85.0604 18.4665 85.344 18.507 85.4911 18.5912C85.6382 18.6721 85.7292 18.871 85.7677 19.1812C85.8062 19.4914 85.8273 20.0982 85.8273 20.9983C85.8273 21.9018 85.8062 22.5086 85.7677 22.8188C85.7292 23.129 85.6382 23.3245 85.4911 23.4088ZM90.1832 17.091V24.909H92.0145V22.3974H93.4641C94.1259 22.3974 94.6266 22.2861 94.9628 22.067C95.3024 21.8479 95.523 21.5512 95.6315 21.1804C95.7366 20.8095 95.7891 20.3274 95.7891 19.7375C95.7891 19.1172 95.7331 18.6216 95.6175 18.2474C95.5055 17.8765 95.2814 17.5933 94.9522 17.3911C94.6231 17.1888 94.1294 17.091 93.4781 17.091H90.1832ZM92.8408 20.9309H92.0145V18.5575H92.8408C93.184 18.5575 93.4326 18.5811 93.5832 18.6351C93.7337 18.689 93.8318 18.7935 93.8773 18.9486C93.9263 19.1037 93.9473 19.3666 93.9473 19.7375C93.9473 20.1083 93.9263 20.3713 93.8773 20.5263C93.8318 20.6814 93.7337 20.7893 93.5832 20.8466C93.4326 20.9039 93.184 20.9309 92.8408 20.9309ZM98.0581 24.909H102.579V23.3852H99.8859V17.091H98.0581V24.909ZM104.739 24.909H109.624V23.4425H106.567V21.6928H109.189V20.2263H106.567V18.5575H109.624V17.091H104.739V24.909ZM119.624 24.9427C119.96 24.9056 120.24 24.8584 120.461 24.8078V23.4324C120.006 23.4998 119.547 23.5335 119.092 23.5335C118.556 23.5335 118.188 23.4829 117.989 23.3818C117.786 23.2773 117.66 23.0683 117.604 22.7547C117.548 22.4412 117.523 21.8546 117.523 20.9983C117.523 20.142 117.548 19.5588 117.604 19.2419C117.66 18.9284 117.786 18.7193 117.989 18.6182C118.188 18.5171 118.556 18.4665 119.092 18.4665C119.312 18.4665 119.757 18.5002 120.426 18.5676V17.2023C120.212 17.1416 119.943 17.0944 119.617 17.0573C119.291 17.0169 118.973 17 118.668 17C117.786 17 117.134 17.1214 116.714 17.3641C116.291 17.6035 116.01 18.0013 115.87 18.5508C115.727 19.1003 115.657 19.9161 115.657 20.9983C115.657 22.0973 115.727 22.9199 115.863 23.4661C116 24.0122 116.28 24.4033 116.7 24.6426C117.124 24.882 117.779 25 118.668 25C118.966 25 119.284 24.9798 119.624 24.9427ZM123.57 24.6528C123.994 24.8854 124.694 25 125.678 25C126.669 25 127.376 24.8854 127.797 24.6528C128.217 24.4235 128.479 24.0527 128.581 23.5436C128.686 23.0379 128.735 22.1884 128.735 20.9983C128.735 19.8083 128.686 18.9621 128.581 18.453C128.479 17.9473 128.217 17.5765 127.797 17.3439C127.376 17.1146 126.669 17 125.678 17C124.694 17 123.994 17.1146 123.57 17.3439C123.15 17.5765 122.887 17.9473 122.779 18.4598C122.674 18.9722 122.621 19.8184 122.621 20.9983C122.621 22.1816 122.674 23.0278 122.779 23.5402C122.887 24.0493 123.15 24.4235 123.57 24.6528ZM126.536 23.4088C126.389 23.493 126.102 23.5335 125.678 23.5335C125.255 23.5335 124.967 23.493 124.824 23.4088C124.677 23.3245 124.586 23.129 124.544 22.8188C124.505 22.5086 124.488 21.9018 124.488 20.9983C124.488 20.0982 124.505 19.4914 124.544 19.1812C124.586 18.871 124.677 18.6721 124.824 18.5912C124.967 18.507 125.255 18.4665 125.678 18.4665C126.102 18.4665 126.389 18.507 126.536 18.5912C126.68 18.6721 126.771 18.871 126.813 19.1812C126.851 19.4914 126.872 20.0982 126.872 20.9983C126.872 21.9018 126.851 22.5086 126.813 22.8188C126.774 23.129 126.68 23.3245 126.536 23.4088ZM137.471 24.909H139.243V17.091H136.635L135.276 22.1007H135.192L133.837 17.091H131.204V24.909H132.926V19.4981H133.01L134.474 24.909H135.913L137.387 19.4981H137.471V24.909ZM141.908 17.091V24.909H143.739V22.3974H145.192C145.851 22.3974 146.351 22.2861 146.691 22.067C147.027 21.8479 147.251 21.5512 147.356 21.1804C147.465 20.8095 147.517 20.3274 147.517 19.7375C147.517 19.1172 147.458 18.6216 147.346 18.2474C147.23 17.8765 147.01 17.5933 146.677 17.3911C146.348 17.1888 145.858 17.091 145.203 17.091H141.908ZM144.565 20.9309H143.739V18.5575H144.565C144.912 18.5575 145.161 18.5811 145.308 18.6351C145.458 18.689 145.556 18.7935 145.605 18.9486C145.651 19.1037 145.675 19.3666 145.675 19.7375C145.675 20.1083 145.651 20.3713 145.605 20.5263C145.556 20.6814 145.458 20.7893 145.308 20.8466C145.161 20.9039 144.912 20.9309 144.565 20.9309ZM153.785 24.909H155.648L153.491 17.091H150.917L148.743 24.909H150.585L150.977 23.3413H153.372L153.785 24.909ZM152.202 18.6823L153.004 21.885H151.341L152.132 18.6823H152.202ZM161.87 24.909H163.572V17.091H161.811V21.1938H161.751L159.521 17.091H157.668V24.909H159.426V20.4421H159.486L161.87 24.909ZM167.833 24.909H169.671V22.2153L172 17.091H170.158L168.835 20.4185H168.74L167.381 17.091H165.494L167.833 22.2153V24.909Z" fill="white"/>
</g>
<defs>
<clipPath id="clip0_257_1202">
<rect width="172" height="39" fill="white"/>
</clipPath>
</defs>
</svg>
