<svg width="49" height="49" viewBox="0 0 49 49" fill="none" xmlns="http://www.w3.org/2000/svg">
<path d="M24.5 19.422C24.8546 19.422 25.142 19.1345 25.142 18.7799C25.142 18.4253 24.8546 18.1379 24.5 18.1379C24.1454 18.1379 23.858 18.4253 23.858 18.7799C23.858 19.1345 24.1454 19.422 24.5 19.422Z" fill="#5897FB"/>
<path d="M25.4193 14.5264C25.4193 15.0334 25.0071 15.4457 24.5 15.4457C23.9929 15.4457 23.5807 15.0334 23.5807 14.5264C23.5807 14.0193 23.9929 13.6071 24.5 13.6071C25.0071 13.6034 25.4193 14.0156 25.4193 14.5264Z" fill="#5897FB"/>
<path d="M25.7002 10.2728C25.7002 10.9367 25.1639 11.473 24.5 11.473C23.8361 11.473 23.2998 10.9367 23.2998 10.2728C23.2998 9.60884 23.8361 9.07259 24.5 9.07259C25.1639 9.06894 25.7002 9.60884 25.7002 10.2728Z" fill="#5897FB"/>
<path d="M24.5 7.49665C25.318 7.49665 25.9811 6.83354 25.9811 6.01556C25.9811 5.19758 25.318 4.53447 24.5 4.53447C23.682 4.53447 23.0189 5.19758 23.0189 6.01556C23.0189 6.83354 23.682 7.49665 24.5 7.49665Z" fill="#5897FB"/>
<path d="M26.262 1.76199C26.262 2.736 25.474 3.52397 24.5 3.52397C23.526 3.52397 22.738 2.736 22.738 1.76199C22.738 0.787969 23.526 0 24.5 0C25.474 0 26.262 0.787969 26.262 1.76199Z" fill="#5897FB"/>
<path d="M23.858 30.2201C23.858 29.8662 24.1462 29.578 24.5 29.578C24.8539 29.578 25.142 29.8662 25.142 30.2201C25.142 30.5739 24.8539 30.8621 24.5 30.8621C24.1462 30.8621 23.858 30.5739 23.858 30.2201Z" fill="#5897FB"/>
<path d="M23.5771 34.4736C23.5771 33.9666 23.9893 33.5543 24.4964 33.5543C25.0034 33.5543 25.4157 33.9666 25.4157 34.4736C25.4157 34.9807 25.0034 35.3929 24.4964 35.3929C23.9893 35.3966 23.5771 34.9844 23.5771 34.4736Z" fill="#5897FB"/>
<path d="M23.2962 38.7272C23.2962 38.0633 23.8324 37.527 24.4964 37.527C25.1603 37.527 25.6966 38.0633 25.6966 38.7272C25.6966 39.3912 25.1603 39.9274 24.4964 39.9274C23.8361 39.9311 23.2962 39.3912 23.2962 38.7272Z" fill="#5897FB"/>
<path d="M25.9801 43.0455C26.0172 42.2283 25.3848 41.5358 24.5676 41.4988C23.7504 41.4617 23.058 42.0941 23.0209 42.9113C22.9839 43.7285 23.6163 44.4209 24.4334 44.458C25.2506 44.4951 25.9431 43.8627 25.9801 43.0455Z" fill="#5897FB"/>
<path d="M22.738 47.238C22.738 46.264 23.526 45.476 24.5 45.476C25.474 45.476 26.262 46.264 26.262 47.238C26.262 48.212 25.474 49 24.5 49C23.526 49 22.738 48.212 22.738 47.238Z" fill="#5897FB"/>
<path d="M30.2201 25.142C29.8662 25.142 29.578 24.8539 29.578 24.5C29.578 24.1461 29.8662 23.858 30.2201 23.858C30.5739 23.858 30.8621 24.1461 30.8621 24.5C30.8585 24.8539 30.5739 25.142 30.2201 25.142Z" fill="#5897FB"/>
<path d="M34.4737 25.4193C33.9666 25.4193 33.5543 25.0071 33.5543 24.5C33.5543 23.9929 33.9666 23.5807 34.4737 23.5807C34.9807 23.5807 35.3929 23.9929 35.3929 24.5C35.3929 25.0071 34.9807 25.4193 34.4737 25.4193Z" fill="#5897FB"/>
<path d="M38.7272 25.7002C38.0633 25.7002 37.527 25.1639 37.527 24.5C37.527 23.8361 38.0633 23.2998 38.7272 23.2998C39.3912 23.2998 39.9274 23.8361 39.9274 24.5C39.9311 25.1639 39.3912 25.7002 38.7272 25.7002Z" fill="#5897FB"/>
<path d="M42.9808 25.9811C42.1636 25.9811 41.4997 25.3172 41.4997 24.5C41.4997 23.6828 42.1636 23.0189 42.9808 23.0189C43.7979 23.0189 44.4619 23.6828 44.4619 24.5C44.4655 25.3172 43.8016 25.9811 42.9808 25.9811Z" fill="#5897FB"/>
<path d="M47.238 26.262C46.264 26.262 45.476 25.474 45.476 24.5C45.476 23.526 46.264 22.738 47.238 22.738C48.212 22.738 49 23.526 49 24.5C49 25.474 48.2084 26.262 47.238 26.262Z" fill="#5897FB"/>
<path d="M18.7799 25.142C19.1345 25.142 19.422 24.8546 19.422 24.5C19.422 24.1454 19.1345 23.858 18.7799 23.858C18.4253 23.858 18.1379 24.1454 18.1379 24.5C18.1379 24.8546 18.4253 25.142 18.7799 25.142Z" fill="#5897FB"/>
<path d="M14.5264 23.5771C15.0334 23.5771 15.4457 23.9893 15.4457 24.4964C15.4457 25.0034 15.0334 25.4156 14.5264 25.4156C14.0193 25.4156 13.6071 25.0034 13.6071 24.4964C13.6034 23.9929 14.0156 23.5771 14.5264 23.5771Z" fill="#5897FB"/>
<path d="M10.2691 23.2998C10.9331 23.2998 11.4693 23.8361 11.4693 24.5C11.4693 25.1639 10.9331 25.7002 10.2691 25.7002C9.6052 25.7002 9.06894 25.1639 9.06894 24.5C9.06894 23.8361 9.6052 23.2998 10.2691 23.2998Z" fill="#5897FB"/>
<path d="M6.01556 23.0189C6.83272 23.0189 7.49665 23.6828 7.49665 24.5C7.49665 25.3172 6.83272 25.9811 6.01556 25.9811C5.19841 25.9811 4.53447 25.3172 4.53447 24.5C4.53447 23.6828 5.19841 23.0189 6.01556 23.0189Z" fill="#5897FB"/>
<path d="M1.76199 22.738C2.736 22.738 3.52397 23.526 3.52397 24.5C3.52397 25.474 2.736 26.262 1.76199 26.262C0.78797 26.262 0 25.474 0 24.5C0 23.526 0.78797 22.738 1.76199 22.738Z" fill="#5897FB"/>
<path d="M29.775 22.1945C29.4686 22.3696 29.0783 22.2674 28.8995 21.961C28.7244 21.6546 28.8265 21.2642 29.133 21.0855C29.4394 20.9104 29.8297 21.0125 30.0085 21.3189C30.1836 21.6254 30.0778 22.0157 29.775 22.1945Z" fill="#5897FB"/>
<path d="M33.5981 20.3121C33.1567 20.5674 32.5949 20.4142 32.3396 19.9765C32.0842 19.5351 32.2374 18.9733 32.6752 18.7179C33.1166 18.4626 33.6784 18.6158 33.9337 19.0535C34.1891 19.4913 34.0395 20.0567 33.5981 20.3121Z" fill="#5897FB"/>
<path d="M37.4212 18.4261C36.8449 18.758 36.1116 18.561 35.7796 17.9847C35.4477 17.4083 35.6447 16.675 36.221 16.3431C36.7974 16.0111 37.5307 16.2081 37.8626 16.7845C38.1946 17.3609 37.9976 18.0941 37.4212 18.4261Z" fill="#5897FB"/>
<path d="M41.248 16.5437C40.5403 16.9523 39.6319 16.7115 39.2234 16.0001C38.8148 15.2924 39.0555 14.3841 39.7669 13.9755C40.4746 13.5669 41.383 13.8077 41.7915 14.5191C42.2001 15.2268 41.9557 16.1315 41.248 16.5437Z" fill="#5897FB"/>
<path d="M45.0711 14.6577C44.2284 15.1429 43.1486 14.8547 42.6634 14.012C42.1782 13.1693 42.4664 12.0895 43.3091 11.6043C44.1518 11.1191 45.2316 11.4073 45.7168 12.25C46.202 13.0927 45.9138 14.1725 45.0711 14.6577Z" fill="#5897FB"/>
<path d="M19.225 26.8055C19.5314 26.6304 19.9218 26.7326 20.1005 27.039C20.2756 27.3454 20.1735 27.7358 19.867 27.9145C19.5606 28.0896 19.1703 27.9875 18.9915 27.6811C18.8128 27.3746 18.9185 26.9806 19.225 26.8055Z" fill="#5897FB"/>
<path d="M15.4019 28.6879C15.8433 28.4325 16.4051 28.5858 16.6604 29.0235C16.9158 29.4649 16.7626 30.0267 16.3248 30.2821C15.8834 30.5374 15.3216 30.3842 15.0663 29.9465C14.8109 29.5087 14.9605 28.9433 15.4019 28.6879Z" fill="#5897FB"/>
<path d="M11.5751 30.5739C12.1515 30.242 12.8848 30.4389 13.2167 31.0153C13.5487 31.5917 13.3517 32.325 12.7753 32.6569C12.1989 32.9889 11.4657 32.7919 11.1337 32.2155C10.8054 31.6391 11.0024 30.9059 11.5751 30.5739Z" fill="#5897FB"/>
<path d="M7.75201 32.4563C8.45972 32.0477 9.36808 32.2885 9.77665 32.9998C10.1852 33.7076 9.94447 34.6159 9.2331 35.0245C8.52539 35.4331 7.61704 35.1923 7.20846 34.4809C6.79988 33.7732 7.0443 32.8685 7.75201 32.4563Z" fill="#5897FB"/>
<path d="M3.92526 34.3423C4.76795 33.8571 5.84775 34.1453 6.33294 34.988C6.81812 35.8307 6.52993 36.9105 5.68724 37.3957C4.84456 37.8809 3.76474 37.5927 3.27956 36.75C2.79437 35.9073 3.08257 34.8275 3.92526 34.3423Z" fill="#5897FB"/>
<path d="M27.9145 19.867C27.7394 20.1735 27.3455 20.2793 27.039 20.1005C26.7326 19.9254 26.6268 19.5314 26.8055 19.225C26.9806 18.9186 27.3746 18.8128 27.6811 18.9915C27.9875 19.1666 28.0896 19.5606 27.9145 19.867Z" fill="#5897FB"/>
<path d="M30.2857 16.3212C30.0304 16.7626 29.4686 16.9121 29.0272 16.6568C28.5858 16.4014 28.4362 15.8396 28.6916 15.3982C28.9469 14.9568 29.5087 14.8073 29.9501 15.0626C30.3879 15.318 30.5374 15.8834 30.2857 16.3212Z" fill="#5897FB"/>
<path d="M32.6533 12.779C32.3213 13.3553 31.5881 13.5523 31.0117 13.2204C30.4353 12.8884 30.2383 12.1552 30.5703 11.5788C30.9023 11.0024 31.6355 10.8054 32.2119 11.1374C32.7883 11.4693 32.9853 12.2026 32.6533 12.779Z" fill="#5897FB"/>
<path d="M35.0245 9.2331C34.6159 9.94081 33.7076 10.1852 32.9999 9.77665C32.2921 9.36808 32.0477 8.45972 32.4563 7.75201C32.8649 7.0443 33.7732 6.79988 34.481 7.20846C35.1923 7.62068 35.4331 8.52539 35.0245 9.2331Z" fill="#5897FB"/>
<path d="M37.3957 5.69089C36.9105 6.53358 35.8307 6.82177 34.988 6.33658C34.1453 5.8514 33.8571 4.77159 34.3423 3.9289C34.8275 3.08621 35.9073 2.79802 36.75 3.2832C37.5927 3.76839 37.8809 4.8482 37.3957 5.69089Z" fill="#5897FB"/>
<path d="M21.0855 29.133C21.2606 28.8265 21.6546 28.7207 21.961 28.8995C22.2674 29.0746 22.3732 29.4686 22.1945 29.775C22.0194 30.0814 21.6254 30.1872 21.319 30.0085C21.0125 29.8297 20.9067 29.4394 21.0855 29.133Z" fill="#5897FB"/>
<path d="M18.7143 32.6788C18.9696 32.2374 19.5314 32.0878 19.9728 32.3432C20.4142 32.5986 20.5638 33.1604 20.3084 33.6018C20.0531 34.0432 19.4913 34.1927 19.0499 33.9374C18.6121 33.682 18.4589 33.1166 18.7143 32.6788Z" fill="#5897FB"/>
<path d="M16.3431 36.221C16.675 35.6446 17.4083 35.4477 17.9847 35.7796C18.5611 36.1116 18.758 36.8448 18.4261 37.4212C18.0941 37.9976 17.3609 38.1946 16.7845 37.8626C16.2081 37.5307 16.0111 36.7974 16.3431 36.221Z" fill="#5897FB"/>
<path d="M13.9755 39.7669C14.3841 39.0592 15.2924 38.8148 16.0002 39.2233C16.7079 39.6319 16.9523 40.5403 16.5437 41.248C16.1351 41.9557 15.2268 42.2001 14.5191 41.7915C13.8077 41.3793 13.5633 40.4746 13.9755 39.7669Z" fill="#5897FB"/>
<path d="M11.6043 43.3091C12.0895 42.4664 13.1693 42.1782 14.012 42.6634C14.8547 43.1486 15.1429 44.2284 14.6577 45.0711C14.1725 45.9138 13.0927 46.202 12.25 45.7168C11.4073 45.2316 11.1155 44.1518 11.6043 43.3091Z" fill="#5897FB"/>
<path d="M26.5976 19.1411C26.5064 19.484 26.1562 19.6846 25.8133 19.5934C25.4704 19.5022 25.2697 19.152 25.3609 18.8091C25.4521 18.4662 25.8023 18.2656 26.1452 18.3568C26.4882 18.448 26.6888 18.7982 26.5976 19.1411Z" fill="#5897FB"/>
<path d="M27.9693 15.1027C27.8379 15.5952 27.3309 15.8871 26.842 15.7557C26.3495 15.6244 26.0577 15.1173 26.189 14.6285C26.3204 14.136 26.8274 13.8442 27.3163 13.9755C27.8088 14.1068 28.1006 14.6139 27.9693 15.1027Z" fill="#5897FB"/>
<path d="M29.3409 11.068C29.1695 11.7101 28.5092 12.0895 27.8708 11.918C27.2287 11.7466 26.8493 11.0863 27.0208 10.4479C27.1922 9.80584 27.8525 9.42644 28.4909 9.5979C29.133 9.76571 29.516 10.426 29.3409 11.068Z" fill="#5897FB"/>
<path d="M30.7162 7.02971C30.5046 7.82132 29.6911 8.28827 28.8995 8.07668C28.1079 7.8651 27.6409 7.05159 27.8525 6.25998C28.0641 5.46836 28.8776 5.00141 29.6692 5.213C30.4572 5.42823 30.9278 6.23809 30.7162 7.02971Z" fill="#5897FB"/>
<path d="M32.0879 2.99501C31.8361 3.9362 30.8694 4.49434 29.9282 4.24263C28.987 3.99092 28.4289 3.0242 28.6806 2.08301C28.9323 1.14183 29.899 0.583681 30.8402 0.835393C31.7814 1.08711 32.3396 2.05383 32.0879 2.99501Z" fill="#5897FB"/>
<path d="M22.3988 29.8589C22.49 29.516 22.8402 29.3154 23.1831 29.4066C23.526 29.4978 23.7266 29.848 23.6354 30.1909C23.5442 30.5338 23.194 30.7344 22.8511 30.6432C22.5118 30.552 22.3076 30.2018 22.3988 29.8589Z" fill="#5897FB"/>
<path d="M21.0271 33.8973C21.1584 33.4048 21.6655 33.1129 22.1543 33.2443C22.6468 33.3756 22.9387 33.8827 22.8073 34.3715C22.676 34.864 22.1689 35.1558 21.6801 35.0245C21.1876 34.8932 20.8958 34.3861 21.0271 33.8973Z" fill="#5897FB"/>
<path d="M19.6555 37.932C19.8269 37.2899 20.4872 36.9105 21.1256 37.082C21.7677 37.2534 22.147 37.9137 21.9756 38.5521C21.8041 39.1942 21.1438 39.5736 20.5054 39.4021C19.8634 39.2343 19.484 38.574 19.6555 37.932Z" fill="#5897FB"/>
<path d="M18.2838 41.9703C18.4954 41.1787 19.3089 40.7117 20.1005 40.9233C20.8921 41.1349 21.3591 41.9484 21.1475 42.74C20.9359 43.5316 20.1224 43.9986 19.3308 43.787C18.5428 43.5718 18.0722 42.7583 18.2838 41.9703Z" fill="#5897FB"/>
<path d="M16.9122 46.005C17.1639 45.0638 18.1306 44.5057 19.0718 44.7574C20.013 45.0091 20.5711 45.9758 20.3194 46.917C20.0677 47.8582 19.101 48.4163 18.1598 48.1646C17.2186 47.9129 16.6604 46.9462 16.9122 46.005Z" fill="#5897FB"/>
<path d="M23.6391 18.8091C23.7303 19.152 23.5296 19.5022 23.1867 19.5934C22.8438 19.6846 22.4936 19.484 22.4024 19.1411C22.3112 18.7982 22.5118 18.448 22.8548 18.3568C23.194 18.2656 23.5442 18.4662 23.6391 18.8091Z" fill="#5897FB"/>
<path d="M22.8073 14.6285C22.9387 15.121 22.6468 15.6244 22.1543 15.7557C21.6619 15.8871 21.1584 15.5952 21.0271 15.1027C20.8958 14.6103 21.1876 14.1068 21.6801 13.9755C22.1689 13.8442 22.676 14.136 22.8073 14.6285Z" fill="#5897FB"/>
<path d="M21.9756 10.4442C22.147 11.0863 21.7677 11.7429 21.1256 11.9144C20.4836 12.0858 19.8269 11.7064 19.6555 11.0644C19.484 10.4223 19.8634 9.76571 20.5054 9.59425C21.1475 9.4228 21.8041 9.80584 21.9756 10.4442Z" fill="#5897FB"/>
<path d="M21.1475 6.26362C21.3591 7.05524 20.8885 7.86875 20.1005 8.08033C19.3089 8.29191 18.4954 7.82132 18.2838 7.03335C18.0722 6.24174 18.5428 5.42823 19.3308 5.21665C20.1224 5.00141 20.9359 5.47201 21.1475 6.26362Z" fill="#5897FB"/>
<path d="M20.3157 2.08301C20.5675 3.0242 20.0093 3.99092 19.0681 4.24263C18.1269 4.49434 17.1602 3.9362 16.9085 2.99501C16.6568 2.05383 17.2149 1.08711 18.1561 0.835393C19.0973 0.583681 20.064 1.14183 20.3157 2.08301Z" fill="#5897FB"/>
<path d="M25.3609 30.1909C25.2697 29.848 25.4704 29.4978 25.8133 29.4066C26.1562 29.3154 26.5064 29.516 26.5976 29.8589C26.6888 30.2018 26.4882 30.552 26.1452 30.6432C25.8023 30.7344 25.4521 30.5338 25.3609 30.1909Z" fill="#5897FB"/>
<path d="M27.0978 35.0478C27.6054 35.0378 28.0089 34.6183 27.9989 34.1107C27.989 33.6031 27.5694 33.1996 27.0618 33.2096C26.5542 33.2195 26.1508 33.6391 26.1607 34.1467C26.1707 34.6543 26.5902 35.0577 27.0978 35.0478Z" fill="#5897FB"/>
<path d="M27.0208 38.5558C26.8493 37.9137 27.2287 37.2571 27.8708 37.0856C28.5128 36.9142 29.1695 37.2935 29.3409 37.9356C29.5124 38.5776 29.133 39.2343 28.4909 39.4057C27.8525 39.5772 27.1922 39.1942 27.0208 38.5558Z" fill="#5897FB"/>
<path d="M27.8525 42.7364C27.6409 41.9448 28.1115 41.1313 28.8995 40.9197C29.6911 40.7081 30.5046 41.1787 30.7162 41.9666C30.9278 42.7583 30.4572 43.5718 29.6692 43.7833C28.8776 43.9949 28.0641 43.528 27.8525 42.7364Z" fill="#5897FB"/>
<path d="M28.6806 46.917C28.4289 45.9758 28.987 45.0091 29.9282 44.7574C30.8694 44.5057 31.8361 45.0638 32.0879 46.005C32.3396 46.9462 31.7814 47.9129 30.8402 48.1646C29.899 48.4163 28.9323 47.8582 28.6806 46.917Z" fill="#5897FB"/>
<path d="M20.9067 20.002C21.1584 20.2537 21.1584 20.6586 20.9067 20.9067C20.655 21.1584 20.2501 21.1584 20.002 20.9067C19.7503 20.655 19.7503 20.2501 20.002 20.002C20.2501 19.7503 20.6587 19.7503 20.9067 20.002Z" fill="#5897FB"/>
<path d="M18.0978 16.7954C18.4589 17.1566 18.4589 17.7366 18.0978 18.0978C17.7366 18.4589 17.1566 18.4589 16.7954 18.0978C16.4343 17.7366 16.4343 17.1566 16.7954 16.7954C17.1529 16.4343 17.7366 16.4343 18.0978 16.7954Z" fill="#5897FB"/>
<path d="M15.2888 13.5888C15.7594 14.0594 15.7594 14.8182 15.2888 15.2888C14.8182 15.7594 14.0594 15.7594 13.5888 15.2888C13.1182 14.8182 13.1182 14.0594 13.5888 13.5888C14.0594 13.1182 14.8182 13.1182 15.2888 13.5888Z" fill="#5897FB"/>
<path d="M12.4762 10.3822C13.0562 10.9623 13.0562 11.8998 12.4762 12.4798C11.8961 13.0599 10.9586 13.0599 10.3786 12.4798C9.79854 11.8998 9.79854 10.9623 10.3786 10.3822C10.9623 9.80219 11.8998 9.80219 12.4762 10.3822Z" fill="#5897FB"/>
<path d="M9.66722 7.17562C10.3567 7.8651 10.3567 8.98139 9.66722 9.66721C8.97775 10.3567 7.86146 10.3567 7.17563 9.66721C6.48616 8.97774 6.48616 7.86145 7.17563 7.17562C7.86511 6.4898 8.9814 6.48615 9.66722 7.17562Z" fill="#5897FB"/>
<path d="M28.0897 28.998C27.8379 28.7463 27.8379 28.3413 28.0897 28.0933C28.3414 27.8416 28.7463 27.8416 28.9943 28.0933C29.2461 28.345 29.2461 28.7499 28.9943 28.998C28.7463 29.2461 28.3414 29.2461 28.0897 28.998Z" fill="#5897FB"/>
<path d="M30.9023 32.2046C30.5411 31.8434 30.5411 31.2634 30.9023 30.9022C31.2634 30.5411 31.8434 30.5411 32.2046 30.9022C32.5658 31.2634 32.5658 31.8434 32.2046 32.2046C31.8434 32.5621 31.2598 32.5621 30.9023 32.2046Z" fill="#5897FB"/>
<path d="M33.7112 35.4112C33.2406 34.9406 33.2406 34.1818 33.7112 33.7112C34.1818 33.2406 34.9406 33.2406 35.4112 33.7112C35.8818 34.1818 35.8818 34.9406 35.4112 35.4112C34.9406 35.8818 34.1782 35.8818 33.7112 35.4112Z" fill="#5897FB"/>
<path d="M37.5672 39.0519C38.3851 39.0519 39.0482 38.3888 39.0482 37.5708C39.0482 36.7528 38.3851 36.0897 37.5672 36.0897C36.7492 36.0897 36.0861 36.7528 36.0861 37.5708C36.0861 38.3888 36.7492 39.0519 37.5672 39.0519Z" fill="#5897FB"/>
<path d="M39.3291 41.8244C38.6397 41.1349 38.6397 40.0186 39.3291 39.3328C40.0186 38.6433 41.1349 38.6433 41.8207 39.3328C42.5102 40.0223 42.5102 41.1385 41.8207 41.8244C41.1349 42.5138 40.0186 42.5138 39.3291 41.8244Z" fill="#5897FB"/>
<path d="M19.1411 22.4024C19.484 22.4936 19.6846 22.8438 19.5934 23.1867C19.5022 23.5296 19.152 23.7303 18.8091 23.6391C18.4662 23.5479 18.2656 23.1977 18.3568 22.8547C18.448 22.5118 18.7982 22.3075 19.1411 22.4024Z" fill="#5897FB"/>
<path d="M15.1027 21.0271C15.5952 21.1584 15.8871 21.6655 15.7557 22.1543C15.6244 22.6468 15.1173 22.9387 14.6285 22.8073C14.136 22.676 13.8442 22.1689 13.9755 21.6801C14.1068 21.1876 14.6103 20.8958 15.1027 21.0271Z" fill="#5897FB"/>
<path d="M11.0681 19.6554C11.7101 19.8269 12.0895 20.4872 11.918 21.1256C11.7466 21.7676 11.0863 22.147 10.4479 21.9756C9.80584 21.8041 9.42645 21.1438 9.59791 20.5054C9.76572 19.8634 10.426 19.484 11.0681 19.6554Z" fill="#5897FB"/>
<path d="M7.02971 18.2838C7.82132 18.4954 8.28827 19.3089 8.07668 20.1005C7.8651 20.8921 7.05159 21.3591 6.25998 21.1475C5.46836 20.9359 5.00142 20.1224 5.213 19.3308C5.42458 18.5428 6.23809 18.0722 7.02971 18.2838Z" fill="#5897FB"/>
<path d="M2.99137 16.9121C3.93255 17.1639 4.4907 18.1306 4.23899 19.0718C3.98727 20.013 3.02055 20.5711 2.07937 20.3194C1.13818 20.0677 0.580039 19.101 0.831751 18.1598C1.08711 17.2186 2.05383 16.6604 2.99137 16.9121Z" fill="#5897FB"/>
<path d="M29.8589 26.5976C29.516 26.5064 29.3154 26.1562 29.4066 25.8133C29.4978 25.4704 29.848 25.2697 30.1909 25.3609C30.5338 25.4521 30.7344 25.8023 30.6432 26.1452C30.552 26.4882 30.2018 26.6888 29.8589 26.5976Z" fill="#5897FB"/>
<path d="M33.8936 27.9692C33.4011 27.8379 33.1093 27.3309 33.2406 26.842C33.372 26.3495 33.879 26.0577 34.3679 26.189C34.8603 26.3204 35.1522 26.8274 35.0209 27.3163C34.8932 27.8124 34.3861 28.1042 33.8936 27.9692Z" fill="#5897FB"/>
<path d="M37.932 29.3445C37.2899 29.1731 36.9105 28.5128 37.082 27.8744C37.2534 27.2324 37.9137 26.853 38.5521 27.0244C39.1942 27.1959 39.5736 27.8562 39.4021 28.4946C39.2306 29.133 38.574 29.516 37.932 29.3445Z" fill="#5897FB"/>
<path d="M41.9703 30.7162C41.1787 30.5046 40.7117 29.6911 40.9233 28.8995C41.1349 28.1079 41.9484 27.6409 42.74 27.8525C43.5317 28.0641 43.9986 28.8776 43.787 29.6692C43.5718 30.4572 42.7583 30.9278 41.9703 30.7162Z" fill="#5897FB"/>
<path d="M46.005 32.0878C45.0638 31.8361 44.5057 30.8694 44.7574 29.9282C45.0091 28.987 45.9758 28.4289 46.917 28.6806C47.8582 28.9323 48.4163 29.899 48.1646 30.8402C47.9129 31.7814 46.9462 32.3396 46.005 32.0878Z" fill="#5897FB"/>
</svg>
