<svg width="51" height="56" viewBox="0 0 51 56" fill="none" xmlns="http://www.w3.org/2000/svg">
<g opacity="0.9">
<path d="M15.1572 41.7027C16.6096 41.7027 17.787 40.5253 17.787 39.0729C17.787 37.6205 16.6096 36.4431 15.1572 36.4431C13.7048 36.4431 12.5273 37.6205 12.5273 39.0729C12.5273 40.5253 13.7048 41.7027 15.1572 41.7027Z" fill="#5897FB"/>
<path d="M22.8751 46.3368C24.2753 46.3368 25.4104 45.2017 25.4104 43.8016C25.4104 42.4014 24.2753 41.2663 22.8751 41.2663C21.4749 41.2663 20.3398 42.4014 20.3398 43.8016C20.3398 45.2017 21.4749 46.3368 22.8751 46.3368Z" fill="#5897FB"/>
<path d="M31.6009 46.9807C32.9488 46.9807 34.0416 45.8879 34.0416 44.5399C34.0416 43.192 32.9488 42.0992 31.6009 42.0992C30.2529 42.0992 29.1602 43.192 29.1602 44.5399C29.1602 45.8879 30.2529 46.9807 31.6009 46.9807Z" fill="#5897FB"/>
<path d="M39.8618 43.6342C41.1575 43.6342 42.2079 42.5838 42.2079 41.2881C42.2079 39.9924 41.1575 38.942 39.8618 38.942C38.566 38.942 37.5156 39.9924 37.5156 41.2881C37.5156 42.5838 38.566 43.6342 39.8618 43.6342Z" fill="#5897FB"/>
<path d="M43.7793 34.4461C43.7793 33.2021 44.7869 32.1946 46.0308 32.1946C47.2748 32.1946 48.2824 33.2021 48.2824 34.4461C48.2824 35.6901 47.2748 36.6977 46.0308 36.6977C44.7869 36.6977 43.7793 35.6901 43.7793 34.4461Z" fill="#5897FB"/>
<path d="M46.5371 26.011C46.5371 24.8179 47.5047 23.854 48.6941 23.854C49.8872 23.854 50.8511 24.8215 50.8511 26.011C50.8511 27.204 49.8835 28.168 48.6941 28.168C47.5047 28.168 46.5371 27.204 46.5371 26.011Z" fill="#5897FB"/>
<path d="M47.7655 19.3509C48.9046 19.3509 49.8279 18.4275 49.8279 17.2885C49.8279 16.1495 48.9046 15.2261 47.7655 15.2261C46.6265 15.2261 45.7031 16.1495 45.7031 17.2885C45.7031 18.4275 46.6265 19.3509 47.7655 19.3509Z" fill="#5897FB"/>
<path d="M43.2393 11.4396C44.3261 11.4396 45.2071 10.5586 45.2071 9.47179C45.2071 8.38499 44.3261 7.50397 43.2393 7.50397C42.1525 7.50397 41.2715 8.38499 41.2715 9.47179C41.2715 10.5586 42.1525 11.4396 43.2393 11.4396Z" fill="#5897FB"/>
<path d="M33.9863 4.012C33.9863 2.97534 34.8266 2.13873 35.8596 2.13873C36.8963 2.13873 37.7328 2.97898 37.7328 4.012C37.7328 5.04866 36.8926 5.88525 35.8596 5.88525C34.8266 5.88525 33.9863 5.04502 33.9863 4.012Z" fill="#5897FB"/>
<path d="M25.543 1.77869C25.543 0.796596 26.3395 0 27.3216 0C28.3037 0 29.1003 0.796596 29.1003 1.77869C29.1003 2.76079 28.3037 3.55739 27.3216 3.55739C26.3395 3.55739 25.543 2.76079 25.543 1.77869Z" fill="#5897FB"/>
<path d="M16.9102 2.78617C16.9102 1.85499 17.6631 1.10205 18.5943 1.10205C19.5254 1.10205 20.2784 1.85499 20.2784 2.78617C20.2784 3.71734 19.5254 4.47027 18.5943 4.47027C17.6631 4.47027 16.9102 3.71371 16.9102 2.78617Z" fill="#5897FB"/>
<path d="M9.06445 7.02738C9.06445 6.14713 9.77738 5.43784 10.654 5.43784C11.5342 5.43784 12.2435 6.15076 12.2435 7.02738C12.2435 7.90763 11.5306 8.61692 10.654 8.61692C9.77738 8.61692 9.06445 7.90399 9.06445 7.02738Z" fill="#5897FB"/>
<path d="M3.15039 14.0694C3.15039 13.2437 3.81967 12.5744 4.64536 12.5744C5.47105 12.5744 6.14033 13.2437 6.14033 14.0694C6.14033 14.8951 5.47105 15.5643 4.64536 15.5643C3.81967 15.568 3.15039 14.8951 3.15039 14.0694Z" fill="#5897FB"/>
<path d="M0.117188 22.3991C0.117188 21.6243 0.746452 20.9951 1.52122 20.9951C2.29598 20.9951 2.92526 21.6243 2.92526 22.3991C2.92526 23.1739 2.29598 23.8031 1.52122 23.8031C0.746452 23.7995 0.117188 23.1702 0.117188 22.3991Z" fill="#5897FB"/>
<path d="M0 31.1761C0 30.4522 0.585624 29.8666 1.30947 29.8666C2.03331 29.8666 2.61893 30.4522 2.61893 31.1761C2.61893 31.8999 2.03331 32.4855 1.30947 32.4855C0.585624 32.4819 0 31.8963 0 31.1761Z" fill="#5897FB"/>
<path d="M2.79688 39.6149C2.79688 38.9456 3.33885 38.4 4.01177 38.4C4.68105 38.4 5.22666 38.942 5.22666 39.6149C5.22666 40.2842 4.68468 40.8298 4.01177 40.8298C3.33885 40.8298 2.79688 40.2878 2.79688 39.6149Z" fill="#5897FB"/>
<path d="M9.61836 48.05C10.2371 48.05 10.7387 47.5484 10.7387 46.9297C10.7387 46.3109 10.2371 45.8093 9.61836 45.8093C8.99963 45.8093 8.49805 46.3109 8.49805 46.9297C8.49805 47.5484 8.99963 48.05 9.61836 48.05Z" fill="#5897FB"/>
<path d="M17.2054 53.0515C17.7719 53.0515 18.2312 52.5923 18.2312 52.0257C18.2312 51.4592 17.7719 51 17.2054 51C16.6389 51 16.1797 51.4592 16.1797 52.0257C16.1797 52.5923 16.6389 53.0515 17.2054 53.0515Z" fill="#5897FB"/>
<path d="M25.7085 55.423C26.2228 55.423 26.6397 55.0061 26.6397 54.4918C26.6397 53.9776 26.2228 53.5606 25.7085 53.5606C25.1942 53.5606 24.7773 53.9776 24.7773 54.4918C24.7773 55.0061 25.1942 55.423 25.7085 55.423Z" fill="#5897FB"/>
<path d="M33.6562 54.3318C33.6562 53.8698 34.0309 53.4952 34.4928 53.4952C34.9548 53.4952 35.3294 53.8698 35.3294 54.3318C35.3294 54.7937 34.9548 55.1684 34.4928 55.1684C34.0309 55.1684 33.6562 54.7937 33.6562 54.3318Z" fill="#5897FB"/>
<path d="M42.1797 51.5492C42.1797 51.1381 42.5107 50.8071 42.9217 50.8071C43.3327 50.8071 43.6637 51.1381 43.6637 51.5492C43.6637 51.9602 43.3327 52.2912 42.9217 52.2912C42.5107 52.2912 42.1797 51.9566 42.1797 51.5492Z" fill="#5897FB"/>
<path d="M50.3525 46.7842C50.7101 46.7842 51 46.4943 51 46.1367C51 45.7791 50.7101 45.4893 50.3525 45.4893C49.9949 45.4893 49.7051 45.7791 49.7051 46.1367C49.7051 46.4943 49.9949 46.7842 50.3525 46.7842Z" fill="#5897FB"/>
</g>
</svg>
