<svg width="60" height="59" viewBox="0 0 60 59" fill="none" xmlns="http://www.w3.org/2000/svg">
<g opacity="0.9">
<path d="M59.1174 36.0259C59.6048 29.283 48.1324 22.9589 33.4929 21.9006C18.8535 20.8424 6.59071 25.4507 6.10328 32.1937C5.61585 38.9366 17.0883 45.2607 31.7278 46.319C46.3672 47.3772 58.63 42.7689 59.1174 36.0259Z" stroke="#5897FB" stroke-width="0.4" stroke-miterlimit="10"/>
<path d="M58.1398 34.6086C58.3311 28.016 46.8808 22.3349 32.565 21.9195C18.2491 21.5042 6.48875 26.5119 6.29749 33.1046C6.10622 39.6972 17.5565 45.3783 31.8723 45.7936C46.1882 46.209 57.9485 41.2012 58.1398 34.6086Z" stroke="#5897FB" stroke-width="0.4" stroke-miterlimit="10"/>
<path d="M32.0368 45.2926C46.0265 45.0659 57.2828 39.6589 57.1785 33.2157C57.0741 26.7725 45.6485 21.7331 31.6588 21.9597C17.669 22.1864 6.41275 27.5933 6.51714 34.0365C6.62153 40.4797 18.0471 45.5192 32.0368 45.2926Z" stroke="#5897FB" stroke-width="0.4" stroke-miterlimit="10"/>
<path d="M32.1725 44.7864C45.8373 43.9183 56.5907 38.1127 56.1909 31.8192C55.791 25.5256 44.3894 21.1274 30.7247 21.9955C17.0599 22.8636 6.30653 28.6692 6.70634 34.9628C7.10615 41.2563 18.5077 45.6545 32.1725 44.7864Z" stroke="#5897FB" stroke-width="0.4" stroke-miterlimit="10"/>
<path d="M32.3128 44.2588C45.6534 42.7483 55.9044 36.5442 55.2089 30.4015C54.5134 24.2589 43.1348 20.5038 29.7941 22.0142C16.4534 23.5247 6.20249 29.7288 6.89799 35.8715C7.59348 42.0141 18.9721 45.7693 32.3128 44.2588Z" stroke="#5897FB" stroke-width="0.4" stroke-miterlimit="10"/>
<path d="M32.4803 43.7524C45.4961 41.5993 55.2436 34.9944 54.252 28.9998C53.2604 23.0052 41.9051 19.891 28.8894 22.0441C15.8736 24.1971 6.12612 30.802 7.11772 36.7966C8.10933 42.7912 19.4645 45.9054 32.4803 43.7524Z" stroke="#5897FB" stroke-width="0.4" stroke-miterlimit="10"/>
<path d="M32.6315 43.2366C45.3233 40.4412 54.5686 33.438 53.2815 27.5944C51.9945 21.7509 40.6624 19.2799 27.9707 22.0753C15.2789 24.8707 6.03361 31.8739 7.32067 37.7175C8.60773 43.561 19.9398 46.032 32.6315 43.2366Z" stroke="#5897FB" stroke-width="0.4" stroke-miterlimit="10"/>
<path d="M32.7831 42.7333C45.1492 39.2962 53.8907 31.8931 52.3078 26.1981C50.7249 20.5031 39.417 18.6726 27.0509 22.1097C14.6848 25.5468 5.94336 32.9499 7.52626 38.6449C9.10917 44.3399 20.4171 46.1704 32.7831 42.7333Z" stroke="#5897FB" stroke-width="0.4" stroke-miterlimit="10"/>
<path d="M32.9292 42.1992C44.9693 38.1197 53.207 30.3183 51.3285 24.7742C49.45 19.2301 38.1668 18.0428 26.1267 22.1223C14.0866 26.2018 5.84897 34.0032 7.72743 39.5473C9.6059 45.0914 20.8891 46.2786 32.9292 42.1992Z" stroke="#5897FB" stroke-width="0.4" stroke-miterlimit="10"/>
<path d="M33.0794 41.6886C44.7956 36.9668 52.5309 28.7658 50.3567 23.3711C48.1826 17.9764 36.9223 17.431 25.2061 22.1528C13.49 26.8746 5.75469 35.0756 7.92884 40.4703C10.103 45.865 21.3633 46.4104 33.0794 41.6886Z" stroke="#5897FB" stroke-width="0.4" stroke-miterlimit="10"/>
<path d="M33.2265 41.178C44.6173 35.8144 51.8488 27.2136 49.3786 21.9675C46.9083 16.7215 35.6718 16.8168 24.281 22.1804C12.8903 27.544 5.65876 36.1448 8.12899 41.3909C10.5992 46.6369 21.8358 46.5416 33.2265 41.178Z" stroke="#5897FB" stroke-width="0.4" stroke-miterlimit="10"/>
<path d="M33.3792 40.6677C44.4451 34.6619 51.1736 25.6618 48.4076 20.5654C45.6417 15.469 34.4287 16.2061 23.3628 22.2118C12.2969 28.2176 5.56842 37.2177 8.33438 42.3141C11.1003 47.4105 22.3133 46.6734 33.3792 40.6677Z" stroke="#5897FB" stroke-width="0.4" stroke-miterlimit="10"/>
<path d="M33.5317 40.1447C44.2726 33.4965 50.4983 24.0979 47.4372 19.1522C44.376 14.2066 33.1872 15.5867 22.4463 22.2349C11.7053 28.8831 5.4796 38.2818 8.54075 43.2275C11.6019 48.1731 22.7907 46.7929 33.5317 40.1447Z" stroke="#5897FB" stroke-width="0.4" stroke-miterlimit="10"/>
<path d="M33.6848 39.6389C44.1018 32.3483 49.8255 22.5503 46.469 17.7543C43.1124 12.9584 31.9467 14.9806 21.5297 22.2711C11.1126 29.5617 5.38898 39.3597 8.74551 44.1557C12.102 48.9516 23.2677 46.9294 33.6848 39.6389Z" stroke="#5897FB" stroke-width="0.4" stroke-miterlimit="10"/>
<path d="M33.8374 39.12C43.9295 31.187 49.1495 20.9889 45.4966 16.3419C41.8438 11.6948 30.7013 14.3586 20.6093 22.2915C10.5172 30.2245 5.29717 40.4226 8.95003 45.0697C12.6029 49.7167 23.7454 47.053 33.8374 39.12Z" stroke="#5897FB" stroke-width="0.4" stroke-miterlimit="10"/>
<path d="M33.975 38.6191C43.7429 30.0445 48.4613 19.4481 44.514 14.9515C40.5666 10.4548 29.4483 13.7607 19.6804 22.3354C9.91255 30.91 5.1941 41.5064 9.14146 46.003C13.0888 50.4997 24.2072 47.1938 33.975 38.6191Z" stroke="#5897FB" stroke-width="0.4" stroke-miterlimit="10"/>
<path d="M34.1284 38.0967C43.5704 28.8804 47.7853 17.8854 43.5426 13.5389C39.2998 9.19227 28.2062 13.14 18.7642 22.3564C9.32221 31.5727 5.10738 42.5677 9.35009 46.9143C13.5928 51.2608 24.6864 47.3131 34.1284 38.0967Z" stroke="#5897FB" stroke-width="0.4" stroke-miterlimit="10"/>
<path d="M34.2944 37.5852C43.4124 27.7259 47.1244 16.3305 42.5854 12.1328C38.0465 7.93505 26.9753 12.5246 17.8573 22.3839C8.73926 32.2431 5.02724 43.6386 9.56622 47.8363C14.1052 52.034 25.1764 47.4445 34.2944 37.5852Z" stroke="#5897FB" stroke-width="0.4" stroke-miterlimit="10"/>
<path d="M34.4301 37.0735C43.223 26.5727 46.4328 14.7792 41.5994 10.7319C36.766 6.6846 25.7197 11.9162 16.9268 22.417C8.13391 32.9178 4.92412 44.7113 9.75753 48.7586C14.5909 52.8059 25.6372 47.5743 34.4301 37.0735Z" stroke="#5897FB" stroke-width="0.4" stroke-miterlimit="10"/>
<path d="M34.5927 36.5637C43.0612 25.4209 45.7683 13.2279 40.6393 9.32988C35.5103 5.43191 24.4874 11.3051 16.019 22.4479C7.55055 33.5908 4.84343 45.7838 9.97244 49.6818C15.1015 53.5798 26.1243 47.7066 34.5927 36.5637Z" stroke="#5897FB" stroke-width="0.4" stroke-miterlimit="10"/>
<path d="M34.735 36.051C42.8779 24.267 45.0818 11.6756 39.6575 7.92727C34.2331 4.17897 23.2347 10.6932 15.0917 22.4772C6.94881 34.2612 4.74494 46.8526 10.1693 50.6009C15.5936 54.3492 26.592 47.835 34.735 36.051Z" stroke="#5897FB" stroke-width="0.4" stroke-miterlimit="10"/>
<path d="M34.8711 35.533C42.689 23.1065 44.3894 10.1154 38.6689 6.51644C32.9485 2.91751 21.9735 10.0736 14.1556 22.5001C6.33767 34.9266 4.63732 47.9177 10.3578 51.5166C16.0782 55.1155 27.0532 47.9594 34.8711 35.533Z" stroke="#5897FB" stroke-width="0.4" stroke-miterlimit="10"/>
</g>
</svg>
