<svg width="53" height="59" viewBox="0 0 53 59" fill="none" xmlns="http://www.w3.org/2000/svg">
<path d="M13.75 7.26822L26.5 14.6495L39.25 7.26822M13.75 51.4988V36.7648L1 29.3835M52 29.3835L39.25 36.7648V51.4988M1.765 15.0753L26.5 29.4119L51.235 15.0753M26.5 58V29.3835M52 40.7393V18.0278C51.999 17.0321 51.7367 16.0542 51.2394 15.1922C50.7421 14.3301 50.0273 13.6143 49.1667 13.1164L29.3333 1.76069C28.4719 1.26235 27.4947 1 26.5 1C25.5053 1 24.5281 1.26235 23.6667 1.76069L3.83333 13.1164C2.97274 13.6143 2.25794 14.3301 1.76064 15.1922C1.26334 16.0542 1.00102 17.0321 1 18.0278V40.7393C1.00102 41.735 1.26334 42.7129 1.76064 43.5749C2.25794 44.4369 2.97274 45.1528 3.83333 45.6506L23.6667 57.0064C24.5281 57.5047 25.5053 57.7671 26.5 57.7671C27.4947 57.7671 28.4719 57.5047 29.3333 57.0064L49.1667 45.6506C50.0273 45.1528 50.7421 44.4369 51.2394 43.5749C51.7367 42.7129 51.999 41.735 52 40.7393Z" stroke="#5897FB" stroke-width="2" stroke-linecap="round" stroke-linejoin="round"/>
</svg>
