<svg width="1440" height="146" viewBox="0 0 1440 146" fill="none" xmlns="http://www.w3.org/2000/svg">
<mask id="mask0_405_1835" style="mask-type:alpha" maskUnits="userSpaceOnUse" x="0" y="0" width="1440" height="146">
<rect width="1440" height="146" fill="#D9D9D9"/>
</mask>
<g mask="url(#mask0_405_1835)">
<path d="M-246.5 403.439L-246.499 598.101C-246.499 609.499 -246.499 618.017 -245.938 624.77C-245.378 631.517 -244.261 636.458 -242.052 640.709C-238.305 647.924 -232.422 653.806 -225.208 657.554C-220.956 659.762 -216.016 660.879 -209.269 661.439C-202.516 662 -193.998 662.001 -182.599 662.001L2043.49 662.001C2061.11 662.001 2069.77 661.991 2077.03 658.978C2083.18 656.42 2088.59 652.347 2092.75 647.137C2097.65 640.997 2100.05 632.674 2104.91 615.741L2257.92 83.0406C2261.97 68.9373 2264.99 58.3921 2266.61 49.9811C2268.22 41.5734 2268.4 35.3592 2266.8 29.9056C2264.11 20.6856 2258.14 12.7649 2250.02 7.62618C2245.22 4.58667 2239.2 3.04614 2230.67 2.27352C2222.14 1.50059 2211.17 1.50011 2196.5 1.50011L1288.97 1.50022C1272.79 1.50022 1264.75 1.50167 1256.93 2.75691C1250.26 3.82684 1243.72 5.57286 1237.4 7.96794C1229.99 10.7778 1223.02 14.782 1208.99 22.8467L1054.24 111.79L1054.19 111.818C1040.22 119.848 1033.18 123.895 1025.69 126.736C1019.31 129.156 1012.7 130.919 1005.97 132C998.058 133.269 989.937 133.269 973.821 133.269L973.765 133.269L63.938 133.269C39.0702 133.269 26.7192 133.272 15.1101 136.105C5.2302 138.516 -4.22169 142.427 -12.9162 147.702C-23.1326 153.901 -31.8747 162.626 -49.4714 180.197L-227.752 358.223C-234.815 365.275 -238.285 368.746 -240.75 372.799C-242.851 376.255 -244.41 380.013 -245.37 383.942C-246.497 388.55 -246.5 393.458 -246.5 403.439Z" fill="#0D212C" stroke="url(#paint0_linear_405_1835)"/>
</g>
<defs>
<linearGradient id="paint0_linear_405_1835" x1="-247" y1="397.634" x2="2092" y2="397.634" gradientUnits="userSpaceOnUse">
<stop offset="0.00321602" stop-color="#ADCDFF" stop-opacity="0"/>
<stop offset="0.192708" stop-color="#C0D9FF" stop-opacity="0.870335"/>
<stop offset="0.395833" stop-color="#5897FB"/>
<stop offset="1" stop-color="#5897FB" stop-opacity="0"/>
</linearGradient>
</defs>
</svg>
