<svg width="233" height="89" viewBox="0 0 233 89" fill="none" xmlns="http://www.w3.org/2000/svg">
<path d="M33.1221 9.52247L0 0.330078L44.7178 42.5912L33.1221 9.52247Z" fill="white"/>
<path d="M75.5208 37.9353L36.6306 11.6713L48.5237 45.9339L75.5208 37.9353Z" fill="white"/>
<path d="M70.2884 9.94042L57.9197 23.0127L76.5323 35.6075L70.2884 9.94042Z" fill="white"/>
<path d="M85.0956 12.5078L72.6073 9.10519L75.5212 21.044L85.0956 12.5078Z" fill="white"/>
<path d="M46.5023 49.6946L46.978 65.5724L24.738 65.8708L46.5023 49.6946Z" fill="white"/>
<path d="M48.94 48.1428L49.4157 71.2431L74.8668 40.7411L48.94 48.1428Z" fill="white"/>
<path d="M34.1358 9.52247L1.01367 0.330078L45.7315 42.5912L34.1358 9.52247Z" fill="white"/>
<path d="M34.1358 9.52247L1.01367 0.330078L45.7315 42.5912L34.1358 9.52247Z" fill="url(#paint0_linear_2149_4912)"/>
<path d="M76.5345 37.9353L37.6443 11.6713L49.5373 45.9339L76.5345 37.9353Z" fill="white"/>
<path d="M76.5345 37.9353L37.6443 11.6713L49.5373 45.9339L76.5345 37.9353Z" fill="url(#paint1_linear_2149_4912)"/>
<path d="M71.3021 9.94042L58.9333 23.0127L77.5459 35.6075L71.3021 9.94042Z" fill="white"/>
<path d="M71.3021 9.94042L58.9333 23.0127L77.5459 35.6075L71.3021 9.94042Z" fill="url(#paint2_linear_2149_4912)"/>
<path d="M86.1093 12.5078L73.621 9.10519L76.5349 21.044L86.1093 12.5078Z" fill="white"/>
<path d="M86.1093 12.5078L73.621 9.10519L76.5349 21.044L86.1093 12.5078Z" fill="url(#paint3_linear_2149_4912)"/>
<path d="M47.5159 49.6946L47.9917 65.5724L25.7517 65.8708L47.5159 49.6946Z" fill="white"/>
<path d="M47.5159 49.6946L47.9917 65.5724L25.7517 65.8708L47.5159 49.6946Z" fill="url(#paint4_linear_2149_4912)"/>
<path d="M49.9537 48.1428L50.4294 71.2431L75.8805 40.7411L49.9537 48.1428Z" fill="white"/>
<path d="M49.9537 48.1428L50.4294 71.2431L75.8805 40.7411L49.9537 48.1428Z" fill="url(#paint5_linear_2149_4912)"/>
<path d="M105.689 35.7864C103.84 35.7864 102.048 35.5179 100.314 34.9808C98.6017 34.4438 97.2436 33.7316 96.2393 32.8443L97.78 29.3067C98.7615 30.1006 99.9598 30.7544 101.375 31.2681C102.813 31.7585 104.251 32.0036 105.689 32.0036C107.469 32.0036 108.793 31.7118 109.661 31.128C110.551 30.5443 110.996 29.7737 110.996 28.8163C110.996 28.1158 110.745 27.5437 110.243 27.1001C109.763 26.6331 109.147 26.2712 108.394 26.0143C107.641 25.7574 106.613 25.4656 105.312 25.1387C103.486 24.695 102.003 24.2514 100.861 23.8077C99.7429 23.364 98.7729 22.6752 97.9512 21.7412C97.1523 20.7838 96.7528 19.4996 96.7528 17.8884C96.7528 16.5341 97.1066 15.3082 97.8142 14.2107C98.5446 13.0899 99.6288 12.2026 101.067 11.5488C102.528 10.895 104.308 10.5681 106.408 10.5681C107.869 10.5681 109.307 10.7549 110.722 11.1285C112.137 11.5021 113.358 12.0391 114.385 12.7397L112.982 16.2772C111.932 15.6468 110.836 15.1681 109.695 14.8412C108.554 14.5143 107.446 14.3508 106.374 14.3508C104.616 14.3508 103.304 14.6544 102.436 15.2615C101.592 15.8686 101.17 16.6742 101.17 17.6782C101.17 18.3788 101.409 18.9508 101.889 19.3945C102.391 19.8381 103.018 20.1884 103.772 20.4453C104.525 20.7021 105.552 20.994 106.853 21.3209C108.633 21.7412 110.094 22.1849 111.235 22.6519C112.377 23.0955 113.347 23.7843 114.146 24.7184C114.967 25.6524 115.378 26.9133 115.378 28.5011C115.378 29.8554 115.013 31.0813 114.283 32.1788C113.575 33.2762 112.491 34.1519 111.03 34.8057C109.569 35.4595 107.789 35.7864 105.689 35.7864Z" fill="white"/>
<path d="M124.106 27.4153L120.922 30.4976V35.4361H116.642V9.44727H120.922V25.1387L129.789 16.7326H134.925L127.29 24.5783L135.644 35.4361H130.44L124.106 27.4153Z" fill="white"/>
<path d="M143.117 35.6813C141.269 35.6813 139.602 35.2727 138.119 34.4554C136.635 33.6382 135.471 32.5057 134.626 31.058C133.805 29.5869 133.394 27.929 133.394 26.0843C133.394 24.2397 133.805 22.5935 134.626 21.1458C135.471 19.698 136.635 18.5656 138.119 17.7483C139.602 16.931 141.269 16.5224 143.117 16.5224C144.989 16.5224 146.667 16.931 148.15 17.7483C149.634 18.5656 150.787 19.698 151.608 21.1458C152.453 22.5935 152.875 24.2397 152.875 26.0843C152.875 27.929 152.453 29.5869 151.608 31.058C150.787 32.5057 149.634 33.6382 148.15 34.4554C146.667 35.2727 144.989 35.6813 143.117 35.6813ZM143.117 31.9336C144.692 31.9336 145.993 31.3965 147.021 30.3224C148.048 29.2483 148.561 27.8356 148.561 26.0843C148.561 24.3331 148.048 22.9204 147.021 21.8463C145.993 20.7722 144.692 20.2351 143.117 20.2351C141.542 20.2351 140.241 20.7722 139.214 21.8463C138.21 22.9204 137.708 24.3331 137.708 26.0843C137.708 27.8356 138.21 29.2483 139.214 30.3224C140.241 31.3965 141.542 31.9336 143.117 31.9336Z" fill="white"/>
<path d="M154.229 9.44727H158.508V35.4361H154.229V9.44727Z" fill="white"/>
<path d="M168.85 27.4153L165.666 30.4976V35.4361H161.387V9.44727H165.666V25.1387L174.534 16.7326H179.67L172.035 24.5783L180.389 35.4361H175.185L168.85 27.4153Z" fill="white"/>
<path d="M187.862 35.6813C186.013 35.6813 184.347 35.2727 182.863 34.4554C181.38 33.6382 180.216 32.5057 179.371 31.058C178.549 29.5869 178.139 27.929 178.139 26.0843C178.139 24.2397 178.549 22.5935 179.371 21.1458C180.216 19.698 181.38 18.5656 182.863 17.7483C184.347 16.931 186.013 16.5224 187.862 16.5224C189.734 16.5224 191.412 16.931 192.895 17.7483C194.379 18.5656 195.531 19.698 196.353 21.1458C197.198 22.5935 197.62 24.2397 197.62 26.0843C197.62 27.929 197.198 29.5869 196.353 31.058C195.531 32.5057 194.379 33.6382 192.895 34.4554C191.412 35.2727 189.734 35.6813 187.862 35.6813ZM187.862 31.9336C189.437 31.9336 190.738 31.3965 191.765 30.3224C192.792 29.2483 193.306 27.8356 193.306 26.0843C193.306 24.3331 192.792 22.9204 191.765 21.8463C190.738 20.7722 189.437 20.2351 187.862 20.2351C186.287 20.2351 184.986 20.7722 183.959 21.8463C182.955 22.9204 182.453 24.3331 182.453 26.0843C182.453 27.8356 182.955 29.2483 183.959 30.3224C184.986 31.3965 186.287 31.9336 187.862 31.9336Z" fill="white"/>
<path d="M215.591 16.7326L207.75 35.4361H203.334L195.493 16.7326H199.944L205.628 30.6026L211.482 16.7326H215.591Z" fill="white"/>
<path d="M223.242 35.6813C221.393 35.6813 219.727 35.2727 218.244 34.4554C216.76 33.6382 215.596 32.5057 214.751 31.058C213.93 29.5869 213.519 27.929 213.519 26.0843C213.519 24.2397 213.93 22.5935 214.751 21.1458C215.596 19.698 216.76 18.5656 218.244 17.7483C219.727 16.931 221.393 16.5224 223.242 16.5224C225.114 16.5224 226.792 16.931 228.275 17.7483C229.759 18.5656 230.912 19.698 231.733 21.1458C232.578 22.5935 233 24.2397 233 26.0843C233 27.929 232.578 29.5869 231.733 31.058C230.912 32.5057 229.759 33.6382 228.275 34.4554C226.792 35.2727 225.114 35.6813 223.242 35.6813ZM223.242 31.9336C224.817 31.9336 226.118 31.3965 227.145 30.3224C228.173 29.2483 228.686 27.8356 228.686 26.0843C228.686 24.3331 228.173 22.9204 227.145 21.8463C226.118 20.7722 224.817 20.2351 223.242 20.2351C221.667 20.2351 220.366 20.7722 219.339 21.8463C218.335 22.9204 217.833 24.3331 217.833 26.0843C217.833 27.8356 218.335 29.2483 219.339 30.3224C220.366 31.3965 221.667 31.9336 223.242 31.9336Z" fill="white"/>
<path d="M99.2667 51.3385C99.8152 50.3206 100.627 49.5461 101.702 49.015C102.777 48.4839 104.082 48.2184 105.618 48.2184V51.3053C105.442 51.2832 105.201 51.2721 104.894 51.2721C103.183 51.2721 101.833 51.7922 100.846 52.8322C99.881 53.8501 99.3983 55.3106 99.3983 57.2136V65.9765H96.2393V48.3844H99.2667V51.3385Z" fill="white"/>
<path d="M125.113 57.28C125.113 57.5234 125.091 57.8443 125.047 58.2426H110.897C111.095 59.7916 111.764 61.0419 112.905 61.9934C114.067 62.9228 115.504 63.3875 117.215 63.3875C119.3 63.3875 120.978 62.6794 122.25 61.2632L123.994 63.3211C123.204 64.2505 122.217 64.9586 121.033 65.4455C119.87 65.9323 118.565 66.1757 117.117 66.1757C115.274 66.1757 113.64 65.7995 112.214 65.0471C110.788 64.2726 109.68 63.1994 108.89 61.8274C108.122 60.4555 107.738 58.9065 107.738 57.1805C107.738 55.4766 108.111 53.9386 108.857 52.5667C109.625 51.1947 110.667 50.1325 111.983 49.3802C113.321 48.6057 114.824 48.2184 116.491 48.2184C118.159 48.2184 119.64 48.6057 120.934 49.3802C122.25 50.1325 123.27 51.1947 123.994 52.5667C124.74 53.9386 125.113 55.5098 125.113 57.28ZM116.491 50.907C114.978 50.907 113.705 51.3717 112.674 52.3011C111.665 53.2305 111.073 54.4476 110.897 55.9523H122.086C121.91 54.4697 121.307 53.2637 120.276 52.3343C119.267 51.3828 118.005 50.907 116.491 50.907Z" fill="white"/>
<path d="M134.502 66.1757C133.076 66.1757 131.705 65.9876 130.388 65.6114C129.072 65.2131 128.041 64.7152 127.295 64.1177L128.611 61.5951C129.379 62.1483 130.311 62.5909 131.408 62.9228C132.505 63.2547 133.613 63.4207 134.732 63.4207C137.496 63.4207 138.878 62.6241 138.878 61.0308C138.878 60.4997 138.692 60.0793 138.319 59.7695C137.946 59.4597 137.474 59.2384 136.904 59.1056C136.355 58.9507 135.566 58.7848 134.535 58.6077C133.13 58.3865 131.979 58.132 131.079 57.8443C130.202 57.5566 129.445 57.0698 128.809 56.3838C128.173 55.6978 127.854 54.7353 127.854 53.4961C127.854 51.9028 128.513 50.6304 129.829 49.6789C131.145 48.7052 132.911 48.2184 135.127 48.2184C136.29 48.2184 137.452 48.3622 138.615 48.6499C139.778 48.9376 140.732 49.3248 141.478 49.8117L140.129 52.3343C138.703 51.4049 137.024 50.9402 135.094 50.9402C133.756 50.9402 132.736 51.1615 132.034 51.6041C131.332 52.0466 130.981 52.633 130.981 53.3633C130.981 53.9386 131.178 54.3923 131.573 54.7242C131.968 55.0561 132.45 55.2995 133.021 55.4544C133.613 55.6093 134.436 55.7864 135.489 55.9855C136.893 56.2289 138.023 56.4945 138.878 56.7821C139.756 57.0477 140.502 57.5124 141.116 58.1762C141.73 58.8401 142.037 59.7695 142.037 60.9644C142.037 62.5577 141.357 63.8301 139.997 64.7816C138.659 65.711 136.827 66.1757 134.502 66.1757Z" fill="white"/>
<path d="M145.985 48.3844H149.144V65.9765H145.985V48.3844ZM147.565 44.9987C146.951 44.9987 146.435 44.7995 146.018 44.4012C145.623 44.0029 145.426 43.5161 145.426 42.9408C145.426 42.3654 145.623 41.8786 146.018 41.4803C146.435 41.0598 146.951 40.8496 147.565 40.8496C148.179 40.8496 148.684 41.0488 149.079 41.4471C149.495 41.8233 149.704 42.299 149.704 42.8744C149.704 43.4718 149.495 43.9808 149.079 44.4012C148.684 44.7995 148.179 44.9987 147.565 44.9987Z" fill="white"/>
<path d="M171.63 41.3475V65.9765H168.602V63.1883C167.9 64.162 167.012 64.9033 165.937 65.4123C164.862 65.9212 163.677 66.1757 162.383 66.1757C160.694 66.1757 159.18 65.7995 157.842 65.0471C156.503 64.2948 155.45 63.2437 154.683 61.8938C153.937 60.5219 153.564 58.9507 153.564 57.1805C153.564 55.4102 153.937 53.8501 154.683 52.5003C155.45 51.1504 156.503 50.0993 157.842 49.347C159.18 48.5946 160.694 48.2184 162.383 48.2184C163.633 48.2184 164.785 48.4618 165.838 48.9486C166.891 49.4133 167.769 50.1104 168.471 51.0398V41.3475H171.63ZM162.646 63.3875C163.743 63.3875 164.741 63.133 165.641 62.6241C166.54 62.093 167.242 61.3627 167.747 60.4333C168.251 59.4818 168.504 58.3975 168.504 57.1805C168.504 55.9634 168.251 54.8902 167.747 53.9608C167.242 53.0092 166.54 52.279 165.641 51.77C164.741 51.2611 163.743 51.0066 162.646 51.0066C161.527 51.0066 160.518 51.2611 159.619 51.77C158.741 52.279 158.039 53.0092 157.513 53.9608C157.008 54.8902 156.756 55.9634 156.756 57.1805C156.756 58.3975 157.008 59.4818 157.513 60.4333C158.039 61.3627 158.741 62.093 159.619 62.6241C160.518 63.133 161.527 63.3875 162.646 63.3875Z" fill="white"/>
<path d="M193.369 57.28C193.369 57.5234 193.347 57.8443 193.304 58.2426H179.154C179.351 59.7916 180.02 61.0419 181.161 61.9934C182.324 62.9228 183.761 63.3875 185.472 63.3875C187.556 63.3875 189.234 62.6794 190.507 61.2632L192.251 63.3211C191.461 64.2505 190.474 64.9586 189.289 65.4455C188.126 65.9323 186.821 66.1757 185.373 66.1757C183.53 66.1757 181.896 65.7995 180.47 65.0471C179.044 64.2726 177.936 63.1994 177.146 61.8274C176.378 60.4555 175.995 58.9065 175.995 57.1805C175.995 55.4766 176.367 53.9386 177.113 52.5667C177.881 51.1947 178.923 50.1325 180.24 49.3802C181.578 48.6057 183.08 48.2184 184.748 48.2184C186.415 48.2184 187.896 48.6057 189.19 49.3802C190.507 50.1325 191.527 51.1947 192.251 52.5667C192.996 53.9386 193.369 55.5098 193.369 57.28ZM184.748 50.907C183.234 50.907 181.962 51.3717 180.931 52.3011C179.921 53.2305 179.329 54.4476 179.154 55.9523H190.342C190.166 54.4697 189.563 53.2637 188.532 52.3343C187.523 51.3828 186.262 50.907 184.748 50.907Z" fill="white"/>
<path d="M207.069 48.2184C209.285 48.2184 211.04 48.8712 212.334 50.1768C213.65 51.4602 214.308 53.3522 214.308 55.8527V65.9765H211.149V56.2179C211.149 54.514 210.743 53.2305 209.932 52.3675C209.12 51.5045 207.957 51.073 206.444 51.073C204.732 51.073 203.383 51.5819 202.396 52.5999C201.409 53.5956 200.915 55.034 200.915 56.9149V65.9765H197.756V48.3844H200.784V51.0398C201.42 50.1325 202.275 49.4355 203.35 48.9486C204.447 48.4618 205.687 48.2184 207.069 48.2184Z" fill="white"/>
<path d="M229.961 64.9476C229.5 65.3459 228.93 65.6557 228.25 65.877C227.57 66.0761 226.868 66.1757 226.144 66.1757C224.389 66.1757 223.029 65.6999 222.063 64.7484C221.098 63.7969 220.615 62.436 220.615 60.6657V51.0066H217.654V48.3844H220.615V44.534H223.774V48.3844H228.776V51.0066H223.774V60.5329C223.774 61.4844 224.005 62.2147 224.466 62.7236C224.948 63.2326 225.628 63.4871 226.506 63.4871C227.471 63.4871 228.294 63.2105 228.974 62.6573L229.961 64.9476Z" fill="white"/>
<path d="M9.88952 76.3086V88.8463H8.66382V77.4549H1.2257V88.8463H0V76.3086H9.88952Z" fill="white"/>
<path d="M20.0678 88.9358C19.217 88.9358 18.4503 88.7328 17.7675 88.3268C17.0847 87.9089 16.5474 87.3358 16.1556 86.6074C15.7638 85.879 15.5679 85.0551 15.5679 84.1357C15.5679 83.2163 15.7638 82.3923 16.1556 81.664C16.5474 80.9356 17.0847 80.3684 17.7675 79.9624C18.4503 79.5564 19.217 79.3535 20.0678 79.3535C20.9185 79.3535 21.6852 79.5564 22.368 79.9624C23.0508 80.3684 23.5825 80.9356 23.9631 81.664C24.3549 82.3923 24.5508 83.2163 24.5508 84.1357C24.5508 85.0551 24.3549 85.879 23.9631 86.6074C23.5825 87.3358 23.0508 87.9089 22.368 88.3268C21.6852 88.7328 20.9185 88.9358 20.0678 88.9358ZM20.0678 87.8074C20.6946 87.8074 21.2543 87.6582 21.7468 87.3597C22.2505 87.0492 22.6423 86.6134 22.9221 86.0522C23.202 85.4909 23.3419 84.8521 23.3419 84.1357C23.3419 83.4192 23.202 82.7804 22.9221 82.2192C22.6423 81.658 22.2505 81.2281 21.7468 80.9296C21.2543 80.6192 20.6946 80.4639 20.0678 80.4639C19.4409 80.4639 18.8756 80.6192 18.3719 80.9296C17.8794 81.2281 17.4876 81.658 17.1966 82.2192C16.9168 82.7804 16.7768 83.4192 16.7768 84.1357C16.7768 84.8521 16.9168 85.4909 17.1966 86.0522C17.4876 86.6134 17.8794 87.0492 18.3719 87.3597C18.8756 87.6582 19.4409 87.8074 20.0678 87.8074Z" fill="white"/>
<path d="M39.8257 79.4251V88.8463H38.7343V81.3953L35.158 87.7H34.6207L31.0443 81.3774V88.8463H29.9529V79.4251H31.1618L34.9061 86.2134L38.7175 79.4251H39.8257Z" fill="white"/>
<path d="M49.7158 88.9358C48.8651 88.9358 48.0984 88.7328 47.4156 88.3268C46.7328 87.9089 46.1955 87.3358 45.8037 86.6074C45.4119 85.879 45.216 85.0551 45.216 84.1357C45.216 83.2163 45.4119 82.3923 45.8037 81.664C46.1955 80.9356 46.7328 80.3684 47.4156 79.9624C48.0984 79.5564 48.8651 79.3535 49.7158 79.3535C50.5666 79.3535 51.3333 79.5564 52.0161 79.9624C52.6989 80.3684 53.2306 80.9356 53.6112 81.664C54.003 82.3923 54.1989 83.2163 54.1989 84.1357C54.1989 85.0551 54.003 85.879 53.6112 86.6074C53.2306 87.3358 52.6989 87.9089 52.0161 88.3268C51.3333 88.7328 50.5666 88.9358 49.7158 88.9358ZM49.7158 87.8074C50.3427 87.8074 50.9024 87.6582 51.3949 87.3597C51.8986 87.0492 52.2904 86.6134 52.5702 86.0522C52.85 85.4909 52.99 84.8521 52.99 84.1357C52.99 83.4192 52.85 82.7804 52.5702 82.2192C52.2904 81.658 51.8986 81.2281 51.3949 80.9296C50.9024 80.6192 50.3427 80.4639 49.7158 80.4639C49.089 80.4639 48.5237 80.6192 48.02 80.9296C47.5275 81.2281 47.1357 81.658 46.8447 82.2192C46.5649 82.7804 46.4249 83.4192 46.4249 84.1357C46.4249 84.8521 46.5649 85.4909 46.8447 86.0522C47.1357 86.6134 47.5275 87.0492 48.02 87.3597C48.5237 87.6582 49.089 87.8074 49.7158 87.8074Z" fill="white"/>
<path d="M65.847 80.5535H60.7931V88.8463H59.601V79.4251H65.847V80.5535Z" fill="white"/>
<path d="M73.4633 79.3535C74.6162 79.3535 75.5005 79.6639 76.1162 80.2848C76.7318 80.8938 77.0396 81.8013 77.0396 83.0073V88.8463H75.8979V87.3776C75.6293 87.8671 75.2319 88.2492 74.7058 88.5239C74.1909 88.7985 73.5752 88.9358 72.8589 88.9358C71.8738 88.9358 71.0903 88.6851 70.5082 88.1836C69.9261 87.682 69.6351 87.0193 69.6351 86.1954C69.6351 85.3954 69.9038 84.7506 70.441 84.2611C70.9895 83.7715 71.857 83.5267 73.0436 83.5267H75.8475V82.9536C75.8475 82.1416 75.6349 81.5267 75.2095 81.1087C74.7841 80.6789 74.1629 80.4639 73.3458 80.4639C72.7861 80.4639 72.2488 80.5654 71.7339 80.7684C71.219 80.9595 70.7769 81.2281 70.4075 81.5744L69.8702 80.6251C70.3179 80.2192 70.8552 79.9087 71.482 79.6938C72.1089 79.4669 72.7693 79.3535 73.4633 79.3535ZM73.0436 87.9328C73.7152 87.9328 74.2916 87.7716 74.773 87.4492C75.2543 87.1149 75.6125 86.6372 75.8475 86.0163V84.476H73.0771C71.566 84.476 70.8104 85.0372 70.8104 86.1596C70.8104 86.7089 71.0063 87.1447 71.3981 87.4671C71.7899 87.7776 72.3384 87.9328 73.0436 87.9328Z" fill="white"/>
<path d="M90.7911 84.5297H83.4033C83.4705 85.5089 83.8231 86.3029 84.4611 86.9119C85.0992 87.5089 85.9051 87.8074 86.8789 87.8074C87.4274 87.8074 87.9311 87.7059 88.3901 87.5029C88.849 87.288 89.2464 86.9776 89.5822 86.5716L90.2538 87.3955C89.862 87.897 89.3695 88.2791 88.7762 88.5418C88.1942 88.8045 87.5505 88.9358 86.8454 88.9358C85.9387 88.9358 85.1327 88.7328 84.4275 88.3268C83.7335 87.9089 83.1907 87.3358 82.7989 86.6074C82.4071 85.879 82.2112 85.0551 82.2112 84.1357C82.2112 83.2163 82.3959 82.3923 82.7653 81.664C83.1459 80.9356 83.6608 80.3684 84.31 79.9624C84.9704 79.5564 85.7092 79.3535 86.5263 79.3535C87.3435 79.3535 88.0766 79.5564 88.7259 79.9624C89.3751 80.3684 89.8844 80.9356 90.2538 81.664C90.6232 82.3804 90.8079 83.2043 90.8079 84.1357L90.7911 84.5297ZM86.5263 80.446C85.6756 80.446 84.9592 80.7386 84.3772 81.3237C83.8063 81.8968 83.4817 82.6491 83.4033 83.5804H89.6661C89.5878 82.6491 89.2576 81.8968 88.6755 81.3237C88.1046 80.7386 87.3882 80.446 86.5263 80.446Z" fill="white"/>
<path d="M106.174 79.4251V88.8463H105.082V81.3953L101.506 87.7H100.969L97.3924 81.3774V88.8463H96.3011V79.4251H97.51L101.254 86.2134L105.066 79.4251H106.174Z" fill="white"/>
<path d="M125.294 83.9745C126.492 84.273 127.091 85.0432 127.091 86.285C127.091 87.1089 126.805 87.7418 126.234 88.1836C125.663 88.6254 124.813 88.8463 123.682 88.8463H119.669V79.4251H123.565C124.572 79.4251 125.361 79.6341 125.932 80.052C126.503 80.4699 126.788 81.0669 126.788 81.8431C126.788 82.3565 126.654 82.7983 126.385 83.1685C126.128 83.5267 125.764 83.7954 125.294 83.9745ZM120.828 83.6163H123.481C124.163 83.6163 124.684 83.4789 125.042 83.2043C125.411 82.9297 125.596 82.5297 125.596 82.0043C125.596 81.4789 125.411 81.0848 125.042 80.8222C124.684 80.5595 124.163 80.4281 123.481 80.4281H120.828V83.6163ZM123.632 87.8432C124.393 87.8432 124.964 87.7119 125.344 87.4492C125.725 87.1865 125.915 86.7746 125.915 86.2134C125.915 85.6521 125.742 85.2402 125.395 84.9775C125.048 84.7029 124.499 84.5655 123.749 84.5655H120.828V87.8432H123.632Z" fill="white"/>
<path d="M143.681 88.9358C142.808 88.9358 142.025 88.7328 141.331 88.3268C140.648 87.9209 140.111 87.3537 139.719 86.6253C139.327 85.885 139.131 85.0551 139.131 84.1357C139.131 83.2163 139.327 82.3923 139.719 81.664C140.111 80.9356 140.648 80.3684 141.331 79.9624C142.025 79.5564 142.808 79.3535 143.681 79.3535C144.443 79.3535 145.12 79.5147 145.713 79.8371C146.317 80.1475 146.793 80.6072 147.14 81.2162L146.25 81.861C145.959 81.3953 145.59 81.049 145.142 80.8222C144.694 80.5833 144.207 80.4639 143.681 80.4639C143.043 80.4639 142.467 80.6192 141.952 80.9296C141.448 81.2281 141.051 81.658 140.76 82.2192C140.48 82.7804 140.34 83.4192 140.34 84.1357C140.34 84.8641 140.48 85.5089 140.76 86.0701C141.051 86.6193 141.448 87.0492 141.952 87.3597C142.467 87.6582 143.043 87.8074 143.681 87.8074C144.207 87.8074 144.694 87.694 145.142 87.4671C145.59 87.2402 145.959 86.894 146.25 86.4283L147.14 87.0731C146.793 87.682 146.317 88.1477 145.713 88.4701C145.109 88.7806 144.431 88.9358 143.681 88.9358Z" fill="white"/>
<path d="M159.228 79.4251V88.8463H158.035V80.5535H153.804L153.687 82.8819C153.597 84.8402 153.384 86.3447 153.049 87.3955C152.713 88.4462 152.114 88.9716 151.252 88.9716C151.017 88.9716 150.732 88.9239 150.396 88.8283L150.48 87.7358C150.681 87.7835 150.821 87.8074 150.9 87.8074C151.358 87.8074 151.705 87.5806 151.941 87.1268C152.176 86.6731 152.332 86.1119 152.411 85.4432C152.489 84.7745 152.556 83.8909 152.612 82.7924L152.763 79.4251H159.228Z" fill="white"/>
<path d="M169.114 88.9358C168.264 88.9358 167.497 88.7328 166.814 88.3268C166.131 87.9089 165.594 87.3358 165.202 86.6074C164.81 85.879 164.614 85.0551 164.614 84.1357C164.614 83.2163 164.81 82.3923 165.202 81.664C165.594 80.9356 166.131 80.3684 166.814 79.9624C167.497 79.5564 168.264 79.3535 169.114 79.3535C169.965 79.3535 170.732 79.5564 171.415 79.9624C172.097 80.3684 172.629 80.9356 173.01 81.664C173.401 82.3923 173.597 83.2163 173.597 84.1357C173.597 85.0551 173.401 85.879 173.01 86.6074C172.629 87.3358 172.097 87.9089 171.415 88.3268C170.732 88.7328 169.965 88.9358 169.114 88.9358ZM169.114 87.8074C169.741 87.8074 170.301 87.6582 170.793 87.3597C171.297 87.0492 171.689 86.6134 171.969 86.0522C172.248 85.4909 172.388 84.8521 172.388 84.1357C172.388 83.4192 172.248 82.7804 171.969 82.2192C171.689 81.658 171.297 81.2281 170.793 80.9296C170.301 80.6192 169.741 80.4639 169.114 80.4639C168.487 80.4639 167.922 80.6192 167.418 80.9296C166.926 81.2281 166.534 81.658 166.243 82.2192C165.963 82.7804 165.823 83.4192 165.823 84.1357C165.823 84.8521 165.963 85.4909 166.243 86.0522C166.534 86.6134 166.926 87.0492 167.418 87.3597C167.922 87.6582 168.487 87.8074 169.114 87.8074Z" fill="white"/>
<path d="M186.428 84.6551H184.514V88.8463H183.322V84.6551H181.408L178.705 88.8463H177.278L180.451 83.9924L177.529 79.4251H178.822L181.408 83.5625H183.322V79.4251H184.514V83.5625H186.428L189.031 79.4251H190.324L187.402 84.0103L190.576 88.8463H189.148L186.428 84.6551Z" fill="white"/>
<path d="M195.414 79.4251H196.606V83.5984H202.164V79.4251H203.356V88.8463H202.164V84.6909H196.606V88.8463H195.414V79.4251Z" fill="white"/>
<path d="M213.242 88.9358C212.391 88.9358 211.625 88.7328 210.942 88.3268C210.259 87.9089 209.722 87.3358 209.33 86.6074C208.938 85.879 208.742 85.0551 208.742 84.1357C208.742 83.2163 208.938 82.3923 209.33 81.664C209.722 80.9356 210.259 80.3684 210.942 79.9624C211.625 79.5564 212.391 79.3535 213.242 79.3535C214.093 79.3535 214.86 79.5564 215.542 79.9624C216.225 80.3684 216.757 80.9356 217.137 81.664C217.529 82.3923 217.725 83.2163 217.725 84.1357C217.725 85.0551 217.529 85.879 217.137 86.6074C216.757 87.3358 216.225 87.9089 215.542 88.3268C214.86 88.7328 214.093 88.9358 213.242 88.9358ZM213.242 87.8074C213.869 87.8074 214.429 87.6582 214.921 87.3597C215.425 87.0492 215.817 86.6134 216.096 86.0522C216.376 85.4909 216.516 84.8521 216.516 84.1357C216.516 83.4192 216.376 82.7804 216.096 82.2192C215.817 81.658 215.425 81.2281 214.921 80.9296C214.429 80.6192 213.869 80.4639 213.242 80.4639C212.615 80.4639 212.05 80.6192 211.546 80.9296C211.054 81.2281 210.662 81.658 210.371 82.2192C210.091 82.7804 209.951 83.4192 209.951 84.1357C209.951 84.8521 210.091 85.4909 210.371 86.0522C210.662 86.6134 211.054 87.0492 211.546 87.3597C212.05 87.6582 212.615 87.8074 213.242 87.8074Z" fill="white"/>
<path d="M233 79.4251V88.8463H231.909V81.3953L228.332 87.7H227.795L224.219 81.3774V88.8463H223.127V79.4251H224.336L228.08 86.2134L231.892 79.4251H233Z" fill="white"/>
<defs>
<linearGradient id="paint0_linear_2149_4912" x1="26.3142" y1="66.592" x2="88.5003" y2="11.254" gradientUnits="userSpaceOnUse">
<stop stop-color="#DDF45F"/>
<stop offset="1" stop-color="#BDDF06"/>
</linearGradient>
<linearGradient id="paint1_linear_2149_4912" x1="26.3142" y1="66.592" x2="88.5003" y2="11.254" gradientUnits="userSpaceOnUse">
<stop stop-color="#DDF45F"/>
<stop offset="1" stop-color="#BDDF06"/>
</linearGradient>
<linearGradient id="paint2_linear_2149_4912" x1="26.3142" y1="66.592" x2="88.5003" y2="11.254" gradientUnits="userSpaceOnUse">
<stop stop-color="#DDF45F"/>
<stop offset="1" stop-color="#BDDF06"/>
</linearGradient>
<linearGradient id="paint3_linear_2149_4912" x1="26.3142" y1="66.592" x2="88.5003" y2="11.254" gradientUnits="userSpaceOnUse">
<stop stop-color="#DDF45F"/>
<stop offset="1" stop-color="#BDDF06"/>
</linearGradient>
<linearGradient id="paint4_linear_2149_4912" x1="26.3142" y1="66.592" x2="88.5003" y2="11.254" gradientUnits="userSpaceOnUse">
<stop stop-color="#DDF45F"/>
<stop offset="1" stop-color="#BDDF06"/>
</linearGradient>
<linearGradient id="paint5_linear_2149_4912" x1="26.3142" y1="66.592" x2="88.5003" y2="11.254" gradientUnits="userSpaceOnUse">
<stop stop-color="#DDF45F"/>
<stop offset="1" stop-color="#BDDF06"/>
</linearGradient>
</defs>
</svg>
