<svg width="53" height="53" viewBox="0 0 53 53" fill="none" xmlns="http://www.w3.org/2000/svg">
<g clip-path="url(#clip0_405_1734)">
<path d="M13.2499 0.000486506C5.93267 0.000486506 0 5.93228 0 13.2503V39.751C0 47.0687 5.93267 53.0005 13.2499 53.0005H39.7506C47.0682 53.0005 53.0009 47.0687 53.0009 39.751V0.000486506H13.2499Z" fill="#2F3C43"/>
<path d="M14.4849 21.1641C14.0515 19.2686 15.9426 17.5914 18.3889 17.5914C20.5925 17.5914 22.8012 18.0855 23.6416 21.1578H26.4663V25.8464C22.9446 22.9514 15.3094 24.7678 14.4849 21.1641V21.1641ZM43.7947 19.8661H37.4315L31.3781 26.4959V13.2502H26.4663V16.4596C26.3061 16.2527 26.1371 16.0472 25.9479 15.8465C24.1617 13.9558 21.5885 12.9971 18.2985 12.9971C14.4937 12.9971 12.3305 14.7 11.1856 16.1282C9.76359 17.9013 9.1287 20.3215 9.56808 22.2935C10.7063 27.3983 15.4431 28.2135 18.9229 28.6659C21.6701 29.0233 24.2984 29.522 24.2287 31.9707C24.1559 34.5119 21.2914 35.1368 19.411 35.1368C14.514 35.1368 14.3487 31.517 14.3487 31.517H9.08203C9.15898 32.8764 9.56977 35.0586 11.2432 36.9313C13.0755 38.9832 15.8237 40.0229 19.411 40.0229C22.1629 40.0229 24.6697 39.1265 26.4663 37.5346V39.7223H31.3781V33.4697L33.1159 31.5688L38.0769 39.7223H43.793L36.5737 27.7804L43.7947 19.8661" fill="white"/>
</g>
<defs>
<clipPath id="clip0_405_1734">
<rect width="53" height="53" fill="white"/>
</clipPath>
</defs>
</svg>
