<svg width="309" height="309" viewBox="0 0 309 309" fill="none" xmlns="http://www.w3.org/2000/svg">
<rect x="0.382812" y="0.0546875" width="308" height="308" fill="#0D212C"/>
<path d="M45.679 135.204C48.9324 135.444 51.4124 136.204 53.119 137.484C54.8257 138.764 55.679 140.497 55.679 142.684V143.164C55.679 145.911 54.5724 148.004 52.359 149.444C50.1457 150.884 46.9057 151.604 42.639 151.604C38.4257 151.577 35.2124 150.844 32.999 149.404C30.7857 147.964 29.679 145.871 29.679 143.124V142.844H34.639V143.124C34.639 144.351 35.3324 145.297 36.719 145.964C38.1324 146.631 40.119 146.964 42.679 146.964C48.0124 146.964 50.679 145.737 50.679 143.284V142.804C50.679 140.537 48.0257 139.404 42.719 139.404H38.159V135.004L47.039 129.364H30.159V124.884H54.999V129.364L45.679 135.204ZM75.0006 151.604C72.2539 151.604 69.8273 151.111 67.7206 150.124C65.6139 149.137 63.9739 147.764 62.8006 146.004C61.6539 144.217 61.0806 142.164 61.0806 139.844V136.204C61.0806 133.884 61.6539 131.831 62.8006 130.044C63.9739 128.257 65.6139 126.871 67.7206 125.884C69.8273 124.897 72.2539 124.404 75.0006 124.404C77.7206 124.404 80.1206 124.897 82.2006 125.884C84.3073 126.871 85.9339 128.257 87.0806 130.044C88.2273 131.831 88.8006 133.884 88.8006 136.204V139.844C88.8006 142.191 88.2273 144.257 87.0806 146.044C85.9339 147.804 84.3206 149.177 82.2406 150.164C80.1606 151.124 77.7473 151.604 75.0006 151.604ZM75.0006 146.964C77.8006 146.964 79.9739 146.351 81.5206 145.124C83.0673 143.897 83.8406 142.164 83.8406 139.924V136.164C83.8406 133.951 83.0539 132.217 81.4806 130.964C79.9073 129.684 77.7339 129.044 74.9606 129.044C72.1606 129.044 69.9739 129.671 68.4006 130.924C66.8273 132.177 66.0406 133.924 66.0406 136.164V139.924C66.0406 142.137 66.8273 143.871 68.4006 145.124C69.9739 146.351 72.1739 146.964 75.0006 146.964ZM140.672 131.204V151.124H136.032V136.244L134.992 138.124L127.712 151.124H123.432L116.152 138.124L115.112 136.244V151.124H110.472V131.204H117.312L125.592 145.924L133.832 131.204H140.672ZM169.155 151.124H164.355V135.444H153.635L153.475 141.644C153.395 144.817 152.742 147.191 151.515 148.764C150.315 150.337 148.528 151.124 146.155 151.124H144.075V146.844H145.075C146.355 146.844 147.288 146.417 147.875 145.564C148.488 144.711 148.808 143.311 148.835 141.364L149.075 131.204H169.155V151.124ZM180.272 131.204V139.004H193.072V131.204H197.872V151.124H193.072V143.244H180.272V151.124H175.472V131.204H180.272ZM226.862 124.884C229.876 124.884 232.249 125.564 233.982 126.924C235.742 128.257 236.622 130.071 236.622 132.364V132.844C236.622 135.137 235.742 136.951 233.982 138.284C232.249 139.591 229.876 140.244 226.862 140.244H215.462V143.204H230.142V147.604H215.462V151.124H210.462V147.604H206.102V143.204H210.462V140.244H206.102V135.844H210.462V124.884H226.862ZM231.622 132.444C231.622 131.377 231.236 130.591 230.462 130.084C229.689 129.551 228.489 129.284 226.862 129.284H215.462V135.844H226.862C228.516 135.844 229.716 135.617 230.462 135.164C231.236 134.684 231.622 133.937 231.622 132.924V132.444Z" fill="white"/>
<path d="M28.6681 189.313V178.404H32.9649C34.125 178.404 35.0388 178.655 35.7064 179.157C36.3788 179.659 36.7149 180.336 36.7149 181.188C36.7149 181.837 36.5279 182.356 36.1539 182.744C35.7798 183.132 35.2779 183.407 34.6482 183.568C35.0696 183.639 35.4602 183.793 35.82 184.029C36.1846 184.266 36.4806 184.579 36.7078 184.967C36.9351 185.355 37.0487 185.819 37.0487 186.359C37.0487 186.927 36.9067 187.434 36.6226 187.879C36.3385 188.324 35.9384 188.674 35.4223 188.93C34.9062 189.186 34.2954 189.313 33.5899 189.313H28.6681ZM29.8754 188.142H33.5899C34.2575 188.142 34.7855 187.971 35.1737 187.63C35.562 187.285 35.7561 186.825 35.7561 186.252C35.7561 185.642 35.5715 185.154 35.2021 184.789C34.8376 184.42 34.3475 184.235 33.732 184.235H29.8754V188.142ZM29.8754 183.113H33.0431C33.5355 183.113 33.9616 183.037 34.3215 182.886C34.6813 182.734 34.9583 182.521 35.1524 182.247C35.3513 181.967 35.4484 181.641 35.4436 181.267C35.4436 180.732 35.2258 180.317 34.7902 180.024C34.3546 179.725 33.7462 179.576 32.9649 179.576H29.8754V183.113ZM45.4454 189.313V178.404H49.7423C50.9023 178.404 51.8161 178.655 52.4838 179.157C53.1561 179.659 53.4923 180.336 53.4923 181.188C53.4923 181.837 53.3053 182.356 52.9312 182.744C52.5571 183.132 52.0552 183.407 51.4255 183.568C51.8469 183.639 52.2375 183.793 52.5974 184.029C52.962 184.266 53.2579 184.579 53.4852 184.967C53.7124 185.355 53.8261 185.819 53.8261 186.359C53.8261 186.927 53.684 187.434 53.3999 187.879C53.1159 188.324 52.7158 188.674 52.1997 188.93C51.6836 189.186 51.0728 189.313 50.3673 189.313H45.4454ZM46.6528 188.142H50.3673C51.0349 188.142 51.5628 187.971 51.9511 187.63C52.3393 187.285 52.5335 186.825 52.5335 186.252C52.5335 185.642 52.3488 185.154 51.9795 184.789C51.6149 184.42 51.1249 184.235 50.5093 184.235H46.6528V188.142ZM46.6528 183.113H49.8204C50.3128 183.113 50.739 183.037 51.0988 182.886C51.4587 182.734 51.7356 182.521 51.9298 182.247C52.1286 181.967 52.2257 181.641 52.221 181.267C52.221 180.732 52.0032 180.317 51.5676 180.024C51.132 179.725 50.5235 179.576 49.7423 179.576H46.6528V183.113ZM57.8619 187.517L63.6219 178.404H65.1347V189.313H63.8705V180.201L58.1318 189.313H56.5977V178.404H57.8619V187.517ZM67.1801 192.417V188.12H68.1247C68.3615 187.855 68.5674 187.569 68.7426 187.261C68.9178 186.953 69.0693 186.603 69.1972 186.21C69.3298 185.812 69.441 185.35 69.531 184.825C69.6209 184.295 69.6967 183.677 69.7583 182.971L70.156 178.404H76.6119V188.12H78.2313V192.417H76.9671V189.313H68.4514V192.417H67.1801ZM69.5807 188.12H75.3477V179.598H71.335L71.0083 182.971C70.8946 184.117 70.7336 185.116 70.5253 185.968C70.317 186.821 70.0021 187.538 69.5807 188.12ZM85.0512 189.541C84.0332 189.541 83.1526 189.304 82.4092 188.831C81.6658 188.352 81.0905 187.692 80.6833 186.849C80.2809 186.001 80.0796 185.026 80.0796 183.923C80.0796 182.824 80.2809 181.849 80.6833 180.997C81.0905 180.14 81.6516 179.47 82.3666 178.987C83.0863 178.499 83.9172 178.255 84.8595 178.255C85.4513 178.255 86.0219 178.364 86.5711 178.582C87.1204 178.795 87.6128 179.124 88.0484 179.569C88.4887 180.009 88.8367 180.566 89.0924 181.238C89.3481 181.906 89.4759 182.697 89.4759 183.61V184.235H80.9532V183.12H88.1833C88.1833 182.42 88.0413 181.79 87.7572 181.231C87.4778 180.668 87.0872 180.223 86.5853 179.896C86.0882 179.569 85.5129 179.406 84.8595 179.406C84.1682 179.406 83.5597 179.59 83.0342 179.96C82.5086 180.329 82.0967 180.817 81.7984 181.423C81.5048 182.029 81.3557 182.692 81.3509 183.411V184.079C81.3509 184.946 81.5001 185.703 81.7984 186.352C82.1014 186.996 82.5299 187.495 83.0839 187.85C83.6379 188.206 84.2936 188.383 85.0512 188.383C85.5673 188.383 86.0195 188.303 86.4078 188.142C86.8008 187.981 87.1298 187.765 87.395 187.495C87.6649 187.221 87.8685 186.92 88.0058 186.593L89.2061 186.984C89.0403 187.443 88.7681 187.867 88.3893 188.255C88.0152 188.643 87.5465 188.956 86.983 189.193C86.4243 189.425 85.7804 189.541 85.0512 189.541ZM104.371 178.404V179.598H99.151V189.313H97.8868V178.404H104.371ZM107.027 193.404V178.404H108.256V180.485H108.405C108.557 180.159 108.765 179.825 109.03 179.484C109.295 179.138 109.646 178.847 110.081 178.61C110.522 178.374 111.076 178.255 111.743 178.255C112.643 178.255 113.429 178.492 114.101 178.965C114.778 179.434 115.304 180.092 115.678 180.94C116.057 181.783 116.246 182.765 116.246 183.887C116.246 185.014 116.057 186.001 115.678 186.849C115.304 187.697 114.778 188.357 114.101 188.831C113.429 189.304 112.648 189.541 111.758 189.541C111.099 189.541 110.548 189.422 110.103 189.186C109.662 188.949 109.305 188.658 109.03 188.312C108.76 187.962 108.552 187.621 108.405 187.289H108.292V193.404H107.027ZM108.277 183.866C108.277 184.747 108.408 185.528 108.668 186.21C108.933 186.887 109.312 187.42 109.804 187.808C110.302 188.191 110.903 188.383 111.608 188.383C112.333 188.383 112.944 188.184 113.441 187.786C113.943 187.384 114.324 186.842 114.584 186.16C114.849 185.478 114.982 184.714 114.982 183.866C114.982 183.028 114.852 182.273 114.591 181.6C114.336 180.928 113.957 180.395 113.455 180.002C112.953 179.605 112.338 179.406 111.608 179.406C110.898 179.406 110.294 179.598 109.797 179.981C109.3 180.36 108.921 180.885 108.661 181.558C108.405 182.225 108.277 182.995 108.277 183.866ZM122.066 189.562C121.408 189.562 120.807 189.434 120.263 189.179C119.718 188.918 119.285 188.544 118.963 188.056C118.641 187.564 118.48 186.967 118.48 186.267C118.48 185.727 118.582 185.272 118.785 184.903C118.989 184.534 119.278 184.231 119.652 183.994C120.026 183.757 120.468 183.57 120.98 183.433C121.491 183.295 122.055 183.189 122.67 183.113C123.281 183.037 123.797 182.971 124.218 182.914C124.645 182.858 124.969 182.768 125.191 182.644C125.414 182.521 125.525 182.322 125.525 182.048V181.792C125.525 181.049 125.303 180.464 124.858 180.038C124.417 179.607 123.783 179.392 122.954 179.392C122.168 179.392 121.527 179.564 121.03 179.91C120.537 180.256 120.191 180.663 119.993 181.132L118.792 180.698C119.039 180.102 119.379 179.626 119.815 179.271C120.251 178.911 120.738 178.653 121.278 178.497C121.818 178.336 122.365 178.255 122.919 178.255C123.335 178.255 123.769 178.31 124.218 178.419C124.673 178.527 125.094 178.717 125.483 178.987C125.871 179.252 126.186 179.624 126.427 180.102C126.669 180.575 126.79 181.177 126.79 181.906V189.313H125.525V187.588H125.447C125.296 187.91 125.071 188.222 124.772 188.525C124.474 188.828 124.1 189.077 123.65 189.271C123.2 189.465 122.673 189.562 122.066 189.562ZM122.237 188.404C122.909 188.404 123.492 188.255 123.984 187.957C124.477 187.659 124.855 187.263 125.12 186.771C125.39 186.274 125.525 185.727 125.525 185.13V183.554C125.431 183.643 125.272 183.724 125.049 183.795C124.832 183.866 124.578 183.93 124.29 183.987C124.005 184.039 123.721 184.084 123.437 184.122C123.153 184.16 122.897 184.193 122.67 184.221C122.055 184.297 121.529 184.415 121.093 184.576C120.658 184.737 120.324 184.96 120.092 185.244C119.86 185.523 119.744 185.883 119.744 186.323C119.744 186.986 119.981 187.5 120.454 187.865C120.928 188.224 121.522 188.404 122.237 188.404ZM137.517 183.269V184.463H131.104V183.269H137.517ZM131.417 178.404V189.313H130.152V178.404H131.417ZM138.448 178.404V189.313H137.184V178.404H138.448ZM140.286 179.598V178.404H148.808V179.598H145.2V189.313H143.936V179.598H140.286ZM155.154 189.541C154.212 189.541 153.379 189.302 152.654 188.823C151.935 188.345 151.371 187.685 150.964 186.842C150.557 185.994 150.353 185.017 150.353 183.909C150.353 182.791 150.557 181.809 150.964 180.961C151.371 180.109 151.935 179.446 152.654 178.973C153.379 178.494 154.212 178.255 155.154 178.255C156.096 178.255 156.927 178.494 157.647 178.973C158.367 179.451 158.93 180.114 159.337 180.961C159.749 181.809 159.955 182.791 159.955 183.909C159.955 185.017 159.752 185.994 159.345 186.842C158.937 187.685 158.372 188.345 157.647 188.823C156.927 189.302 156.096 189.541 155.154 189.541ZM155.154 188.383C155.912 188.383 156.553 188.179 157.079 187.772C157.604 187.365 158.002 186.823 158.272 186.146C158.547 185.469 158.684 184.723 158.684 183.909C158.684 183.094 158.547 182.346 158.272 181.664C158.002 180.983 157.604 180.436 157.079 180.024C156.553 179.612 155.912 179.406 155.154 179.406C154.401 179.406 153.76 179.612 153.229 180.024C152.704 180.436 152.304 180.983 152.029 181.664C151.759 182.346 151.624 183.094 151.624 183.909C151.624 184.723 151.759 185.469 152.029 186.146C152.304 186.823 152.704 187.365 153.229 187.772C153.755 188.179 154.397 188.383 155.154 188.383ZM162.731 189.313V178.404H167.027C168.187 178.404 169.101 178.655 169.769 179.157C170.441 179.659 170.777 180.336 170.777 181.188C170.777 181.837 170.59 182.356 170.216 182.744C169.842 183.132 169.34 183.407 168.711 183.568C169.132 183.639 169.523 183.793 169.883 184.029C170.247 184.266 170.543 184.579 170.77 184.967C170.998 185.355 171.111 185.819 171.111 186.359C171.111 186.927 170.969 187.434 170.685 187.879C170.401 188.324 170.001 188.674 169.485 188.93C168.969 189.186 168.358 189.313 167.652 189.313H162.731ZM163.938 188.142H167.652C168.32 188.142 168.848 187.971 169.236 187.63C169.624 187.285 169.819 186.825 169.819 186.252C169.819 185.642 169.634 185.154 169.265 184.789C168.9 184.42 168.41 184.235 167.794 184.235H163.938V188.142ZM163.938 183.113H167.106C167.598 183.113 168.024 183.037 168.384 182.886C168.744 182.734 169.021 182.521 169.215 182.247C169.414 181.967 169.511 181.641 169.506 181.267C169.506 180.732 169.288 180.317 168.853 180.024C168.417 179.725 167.809 179.576 167.027 179.576H163.938V183.113ZM27.3754 214.417V210.12H28.32C28.5568 209.855 28.7628 209.569 28.9379 209.261C29.1131 208.953 29.2646 208.603 29.3925 208.21C29.5251 207.812 29.6363 207.35 29.7263 206.825C29.8163 206.295 29.892 205.677 29.9536 204.971L30.3513 200.404H36.8073V210.12H38.4266V214.417H37.1624V211.313H28.6468V214.417H27.3754ZM29.776 210.12H35.5431V201.598H31.5303L31.2036 204.971C31.0899 206.117 30.9289 207.116 30.7206 207.968C30.5123 208.821 30.1974 209.538 29.776 210.12ZM39.7636 211.313V210.12H40.1045C40.4927 210.12 40.8052 210.049 41.042 209.907C41.2835 209.76 41.4705 209.514 41.6031 209.169C41.7356 208.823 41.8351 208.352 41.9014 207.755C41.9677 207.159 42.0197 206.411 42.0576 205.511L42.292 200.404H49.2238V211.313H47.9525V201.598H43.4923L43.2863 205.937C43.2437 206.822 43.1727 207.601 43.0732 208.274C42.9785 208.946 42.8223 209.507 42.6045 209.957C42.3914 210.407 42.0931 210.745 41.7096 210.973C41.3308 211.2 40.8337 211.313 40.2181 211.313H39.7636ZM59.1368 211.313V201.576H56.1325C55.3513 201.581 54.7571 201.744 54.3499 202.066C53.9474 202.388 53.7462 202.869 53.7462 203.508C53.7462 204.147 53.9379 204.628 54.3215 204.95C54.705 205.267 55.2637 205.426 55.9976 205.426H59.4919V206.619H55.9976C55.2448 206.619 54.6056 206.498 54.08 206.257C53.5592 206.015 53.1614 205.662 52.8868 205.198C52.6122 204.734 52.4749 204.171 52.4749 203.508C52.4749 202.84 52.6146 202.277 52.8939 201.818C53.178 201.354 53.5923 201.003 54.1368 200.767C54.686 200.525 55.3513 200.404 56.1325 200.404H60.3442V211.313H59.1368ZM51.786 211.313L54.9252 205.887H56.3101L53.1709 211.313H51.786ZM73.5722 211.541C72.6299 211.541 71.7966 211.302 71.0722 210.823C70.3525 210.345 69.789 209.685 69.3818 208.842C68.9746 207.994 68.771 207.017 68.771 205.909C68.771 204.791 68.9746 203.809 69.3818 202.961C69.789 202.109 70.3525 201.446 71.0722 200.973C71.7966 200.494 72.6299 200.255 73.5722 200.255C74.5144 200.255 75.3454 200.494 76.0651 200.973C76.7848 201.451 77.3482 202.114 77.7554 202.961C78.1673 203.809 78.3733 204.791 78.3733 205.909C78.3733 207.017 78.1697 207.994 77.7625 208.842C77.3553 209.685 76.7895 210.345 76.0651 210.823C75.3454 211.302 74.5144 211.541 73.5722 211.541ZM73.5722 210.383C74.3298 210.383 74.9713 210.179 75.4969 209.772C76.0225 209.365 76.4202 208.823 76.6901 208.146C76.9647 207.469 77.102 206.723 77.102 205.909C77.102 205.094 76.9647 204.346 76.6901 203.664C76.4202 202.983 76.0225 202.436 75.4969 202.024C74.9713 201.612 74.3298 201.406 73.5722 201.406C72.8193 201.406 72.1778 201.612 71.6475 202.024C71.1219 202.436 70.7218 202.983 70.4472 203.664C70.1773 204.346 70.0423 205.094 70.0423 205.909C70.0423 206.723 70.1773 207.469 70.4472 208.146C70.7218 208.823 71.1219 209.365 71.6475 209.772C72.173 210.179 72.8146 210.383 73.5722 210.383ZM79.6801 201.598V200.404H88.2029V201.598H84.5949V211.313H83.3307V201.598H79.6801ZM94.7192 211.541C93.7012 211.541 92.8205 211.304 92.0771 210.831C91.3338 210.352 90.7585 209.692 90.3513 208.849C89.9488 208.001 89.7476 207.026 89.7476 205.923C89.7476 204.824 89.9488 203.849 90.3513 202.997C90.7585 202.14 91.3196 201.47 92.0345 200.987C92.7542 200.499 93.5852 200.255 94.5274 200.255C95.1193 200.255 95.6898 200.364 96.2391 200.582C96.7883 200.795 97.2807 201.124 97.7164 201.569C98.1567 202.009 98.5047 202.566 98.7604 203.238C99.0161 203.906 99.1439 204.697 99.1439 205.61V206.235H90.6212V205.12H97.8513C97.8513 204.42 97.7093 203.79 97.4252 203.231C97.1458 202.668 96.7552 202.223 96.2533 201.896C95.7561 201.569 95.1808 201.406 94.5274 201.406C93.8361 201.406 93.2277 201.59 92.7021 201.96C92.1766 202.329 91.7646 202.817 91.4664 203.423C91.1728 204.029 91.0236 204.692 91.0189 205.411V206.079C91.0189 206.946 91.1681 207.703 91.4664 208.352C91.7694 208.996 92.1979 209.495 92.7519 209.85C93.3058 210.206 93.9616 210.383 94.7192 210.383C95.2353 210.383 95.6875 210.303 96.0757 210.142C96.4687 209.981 96.7978 209.765 97.0629 209.495C97.3328 209.221 97.5364 208.92 97.6737 208.593L98.874 208.984C98.7083 209.443 98.4361 209.867 98.0573 210.255C97.6832 210.643 97.2145 210.956 96.651 211.193C96.0923 211.425 95.4484 211.541 94.7192 211.541ZM109.977 200.404V211.313H108.705V200.404H109.977ZM109.508 205.795V207.002C109.077 207.159 108.667 207.291 108.279 207.4C107.891 207.504 107.5 207.585 107.107 207.642C106.719 207.698 106.305 207.727 105.864 207.727C104.638 207.722 103.675 207.407 102.974 206.782C102.278 206.157 101.93 205.206 101.93 203.927V200.369H103.194V203.927C103.194 204.533 103.303 205.028 103.521 205.411C103.738 205.795 104.046 206.079 104.444 206.264C104.842 206.444 105.31 206.534 105.85 206.534C106.513 206.534 107.138 206.467 107.725 206.335C108.312 206.202 108.907 206.022 109.508 205.795ZM117.747 211.541C116.729 211.541 115.848 211.304 115.104 210.831C114.361 210.352 113.786 209.692 113.379 208.849C112.976 208.001 112.775 207.026 112.775 205.923C112.775 204.824 112.976 203.849 113.379 202.997C113.786 202.14 114.347 201.47 115.062 200.987C115.782 200.499 116.613 200.255 117.555 200.255C118.147 200.255 118.717 200.364 119.266 200.582C119.816 200.795 120.308 201.124 120.744 201.569C121.184 202.009 121.532 202.566 121.788 203.238C122.043 203.906 122.171 204.697 122.171 205.61V206.235H113.649V205.12H120.879C120.879 204.42 120.737 203.79 120.453 203.231C120.173 202.668 119.783 202.223 119.281 201.896C118.783 201.569 118.208 201.406 117.555 201.406C116.863 201.406 116.255 201.59 115.729 201.96C115.204 202.329 114.792 202.817 114.494 203.423C114.2 204.029 114.051 204.692 114.046 205.411V206.079C114.046 206.946 114.195 207.703 114.494 208.352C114.797 208.996 115.225 209.495 115.779 209.85C116.333 210.206 116.989 210.383 117.747 210.383C118.263 210.383 118.715 210.303 119.103 210.142C119.496 209.981 119.825 209.765 120.09 209.495C120.36 209.221 120.564 208.92 120.701 208.593L121.901 208.984C121.736 209.443 121.463 209.867 121.085 210.255C120.711 210.643 120.242 210.956 119.678 211.193C119.12 211.425 118.476 211.541 117.747 211.541ZM129.218 211.541C128.243 211.541 127.393 211.297 126.669 210.809C125.949 210.322 125.39 209.654 124.993 208.806C124.595 207.959 124.396 206.993 124.396 205.909C124.396 204.815 124.597 203.842 125 202.99C125.407 202.137 125.97 201.47 126.69 200.987C127.41 200.499 128.245 200.255 129.197 200.255C129.926 200.255 130.587 200.397 131.179 200.681C131.771 200.961 132.258 201.356 132.642 201.867C133.03 202.374 133.274 202.966 133.373 203.643H132.095C131.962 203.027 131.643 202.502 131.136 202.066C130.634 201.626 129.995 201.406 129.218 201.406C128.522 201.406 127.907 201.595 127.372 201.974C126.837 202.348 126.418 202.871 126.115 203.544C125.816 204.211 125.667 204.985 125.667 205.866C125.667 206.751 125.814 207.535 126.108 208.217C126.401 208.894 126.813 209.424 127.343 209.808C127.879 210.191 128.504 210.383 129.218 210.383C129.701 210.383 130.142 210.293 130.54 210.113C130.942 209.929 131.278 209.668 131.548 209.332C131.823 208.996 132.007 208.596 132.102 208.132H133.38C133.286 208.79 133.051 209.377 132.677 209.893C132.308 210.404 131.827 210.807 131.236 211.1C130.648 211.394 129.976 211.541 129.218 211.541ZM135.188 201.598V200.404H143.711V201.598H140.103V211.313H138.839V201.598H135.188ZM146.383 211.313V200.404H150.68C151.84 200.404 152.754 200.655 153.421 201.157C154.094 201.659 154.43 202.336 154.43 203.188C154.43 203.837 154.243 204.356 153.869 204.744C153.495 205.132 152.993 205.407 152.363 205.568C152.784 205.639 153.175 205.793 153.535 206.029C153.899 206.266 154.195 206.579 154.423 206.967C154.65 207.355 154.764 207.819 154.764 208.359C154.764 208.927 154.622 209.434 154.337 209.879C154.053 210.324 153.653 210.674 153.137 210.93C152.621 211.186 152.01 211.313 151.305 211.313H146.383ZM147.59 210.142H151.305C151.972 210.142 152.5 209.971 152.889 209.63C153.277 209.285 153.471 208.825 153.471 208.252C153.471 207.642 153.286 207.154 152.917 206.789C152.552 206.42 152.062 206.235 151.447 206.235H147.59V210.142ZM147.59 205.113H150.758C151.25 205.113 151.676 205.037 152.036 204.886C152.396 204.734 152.673 204.521 152.867 204.247C153.066 203.967 153.163 203.641 153.158 203.267C153.158 202.732 152.941 202.317 152.505 202.024C152.069 201.725 151.461 201.576 150.68 201.576H147.59V205.113ZM161.946 211.541C160.928 211.541 160.047 211.304 159.304 210.831C158.56 210.352 157.985 209.692 157.578 208.849C157.175 208.001 156.974 207.026 156.974 205.923C156.974 204.824 157.175 203.849 157.578 202.997C157.985 202.14 158.546 201.47 159.261 200.987C159.981 200.499 160.812 200.255 161.754 200.255C162.346 200.255 162.916 200.364 163.466 200.582C164.015 200.795 164.507 201.124 164.943 201.569C165.383 202.009 165.731 202.566 165.987 203.238C166.243 203.906 166.37 204.697 166.37 205.61V206.235H157.848V205.12H165.078C165.078 204.42 164.936 203.79 164.652 203.231C164.372 202.668 163.982 202.223 163.48 201.896C162.983 201.569 162.407 201.406 161.754 201.406C161.063 201.406 160.454 201.59 159.929 201.96C159.403 202.329 158.991 202.817 158.693 203.423C158.399 204.029 158.25 204.692 158.245 205.411V206.079C158.245 206.946 158.395 207.703 158.693 208.352C158.996 208.996 159.424 209.495 159.978 209.85C160.532 210.206 161.188 210.383 161.946 210.383C162.462 210.383 162.914 210.303 163.302 210.142C163.695 209.981 164.024 209.765 164.29 209.495C164.559 209.221 164.763 208.92 164.9 208.593L166.101 208.984C165.935 209.443 165.663 209.867 165.284 210.255C164.91 210.643 164.441 210.956 163.878 211.193C163.319 211.425 162.675 211.541 161.946 211.541ZM176.521 205.269V206.463H170.108V205.269H176.521ZM170.421 200.404V211.313H169.156V200.404H170.421ZM177.452 200.404V211.313H176.188V200.404H177.452ZM188.182 205.269V206.463H181.768V205.269H188.182ZM182.081 200.404V211.313H180.816V200.404H182.081ZM189.112 200.404V211.313H187.848V200.404H189.112ZM193.542 204.616H196.738C197.964 204.616 198.911 204.914 199.579 205.511C200.247 206.108 200.58 206.915 200.58 207.933C200.58 208.61 200.429 209.202 200.126 209.708C199.828 210.215 199.392 210.61 198.819 210.894C198.246 211.174 197.552 211.313 196.738 211.313H192.491V200.404H193.762V210.12H196.738C197.51 210.12 198.13 209.936 198.599 209.566C199.072 209.197 199.309 208.671 199.309 207.99C199.309 207.294 199.072 206.756 198.599 206.377C198.13 205.999 197.51 205.809 196.738 205.809H193.542V204.616ZM202.42 211.313V200.404H203.684V211.313H202.42ZM207.828 200.404L210.641 205.056L213.453 200.404H214.923L211.415 205.859L214.923 211.313H213.453L210.641 206.811L207.828 211.313H206.365L209.831 205.859L206.365 200.404H207.828ZM219.677 209.325L219.549 210.085C219.468 210.596 219.355 211.16 219.208 211.775C219.061 212.391 218.91 212.975 218.753 213.529C218.597 214.083 218.462 214.528 218.348 214.865H217.375C217.437 214.543 217.515 214.133 217.61 213.636C217.709 213.139 217.811 212.587 217.915 211.981C218.019 211.38 218.114 210.759 218.199 210.12L218.299 209.325H219.677ZM28.0004 223.598V222.404H36.5232V223.598H32.9152V233.313H31.651V223.598H28.0004ZM43.0395 233.541C42.0215 233.541 41.1408 233.304 40.3975 232.831C39.6541 232.352 39.0788 231.692 38.6716 230.849C38.2691 230.001 38.0679 229.026 38.0679 227.923C38.0679 226.824 38.2691 225.849 38.6716 224.997C39.0788 224.14 39.6399 223.47 40.3548 222.987C41.0745 222.499 41.9055 222.255 42.8477 222.255C43.4396 222.255 44.0102 222.364 44.5594 222.582C45.1086 222.795 45.6011 223.124 46.0367 223.569C46.477 224.009 46.825 224.566 47.0807 225.238C47.3364 225.906 47.4642 226.697 47.4642 227.61V228.235H38.9415V227.12H46.1716C46.1716 226.42 46.0296 225.79 45.7455 225.231C45.4661 224.668 45.0755 224.223 44.5736 223.896C44.0764 223.569 43.5012 223.406 42.8477 223.406C42.1565 223.406 41.548 223.59 41.0225 223.96C40.4969 224.329 40.085 224.817 39.7867 225.423C39.4931 226.029 39.344 226.692 39.3392 227.411V228.079C39.3392 228.946 39.4884 229.703 39.7867 230.352C40.0897 230.996 40.5182 231.495 41.0722 231.85C41.6262 232.206 42.2819 232.383 43.0395 232.383C43.5556 232.383 44.0078 232.303 44.396 232.142C44.789 231.981 45.1181 231.765 45.3833 231.495C45.6531 231.221 45.8567 230.92 45.9941 230.593L47.1943 230.984C47.0286 231.443 46.7564 231.867 46.3776 232.255C46.0035 232.643 45.5348 232.956 44.9713 233.193C44.4126 233.425 43.7687 233.541 43.0395 233.541ZM50.7384 222.404L53.5509 227.056L56.3634 222.404H57.8335L54.325 227.859L57.8335 233.313H56.3634L53.5509 228.811L50.7384 233.313H49.2753L52.7412 227.859L49.2753 222.404H50.7384ZM67.8495 227.269V228.463H61.4362V227.269H67.8495ZM61.7487 222.404V233.313H60.4845V222.404H61.7487ZM68.7799 222.404V233.313H67.5157V222.404H68.7799ZM76.3847 233.541C75.4424 233.541 74.6091 233.302 73.8847 232.823C73.165 232.345 72.6015 231.685 72.1943 230.842C71.7871 229.994 71.5835 229.017 71.5835 227.909C71.5835 226.791 71.7871 225.809 72.1943 224.961C72.6015 224.109 73.165 223.446 73.8847 222.973C74.6091 222.494 75.4424 222.255 76.3847 222.255C77.3269 222.255 78.1579 222.494 78.8776 222.973C79.5973 223.451 80.1607 224.114 80.5679 224.961C80.9798 225.809 81.1858 226.791 81.1858 227.909C81.1858 229.017 80.9822 229.994 80.575 230.842C80.1678 231.685 79.602 232.345 78.8776 232.823C78.1579 233.302 77.3269 233.541 76.3847 233.541ZM76.3847 232.383C77.1423 232.383 77.7838 232.179 78.3094 231.772C78.835 231.365 79.2327 230.823 79.5026 230.146C79.7772 229.469 79.9145 228.723 79.9145 227.909C79.9145 227.094 79.7772 226.346 79.5026 225.664C79.2327 224.983 78.835 224.436 78.3094 224.024C77.7838 223.612 77.1423 223.406 76.3847 223.406C75.6318 223.406 74.9903 223.612 74.46 224.024C73.9344 224.436 73.5343 224.983 73.2597 225.664C72.9898 226.346 72.8548 227.094 72.8548 227.909C72.8548 228.723 72.9898 229.469 73.2597 230.146C73.5343 230.823 73.9344 231.365 74.46 231.772C74.9855 232.179 75.6271 232.383 76.3847 232.383ZM82.8886 233.313V232.12H83.2295C83.6177 232.12 83.9302 232.049 84.167 231.907C84.4085 231.76 84.5955 231.514 84.7281 231.169C84.8606 230.823 84.9601 230.352 85.0264 229.755C85.0927 229.159 85.1447 228.411 85.1826 227.511L85.417 222.404H92.3488V233.313H91.0775V223.598H86.6173L86.4113 227.937C86.3687 228.822 86.2977 229.601 86.1982 230.274C86.1035 230.946 85.9473 231.507 85.7295 231.957C85.5164 232.407 85.2181 232.745 84.8346 232.973C84.4558 233.2 83.9587 233.313 83.3431 233.313H82.8886ZM99.9394 233.541C98.9971 233.541 98.1638 233.302 97.4394 232.823C96.7197 232.345 96.1562 231.685 95.749 230.842C95.3418 229.994 95.1382 229.017 95.1382 227.909C95.1382 226.791 95.3418 225.809 95.749 224.961C96.1562 224.109 96.7197 223.446 97.4394 222.973C98.1638 222.494 98.9971 222.255 99.9394 222.255C100.882 222.255 101.713 222.494 102.432 222.973C103.152 223.451 103.715 224.114 104.123 224.961C104.535 225.809 104.741 226.791 104.741 227.909C104.741 229.017 104.537 229.994 104.13 230.842C103.723 231.685 103.157 232.345 102.432 232.823C101.713 233.302 100.882 233.541 99.9394 233.541ZM99.9394 232.383C100.697 232.383 101.339 232.179 101.864 231.772C102.39 231.365 102.787 230.823 103.057 230.146C103.332 229.469 103.469 228.723 103.469 227.909C103.469 227.094 103.332 226.346 103.057 225.664C102.787 224.983 102.39 224.436 101.864 224.024C101.339 223.612 100.697 223.406 99.9394 223.406C99.1865 223.406 98.545 223.612 98.0146 224.024C97.4891 224.436 97.089 224.983 96.8144 225.664C96.5445 226.346 96.4095 227.094 96.4095 227.909C96.4095 228.723 96.5445 229.469 96.8144 230.146C97.089 230.823 97.4891 231.365 98.0146 231.772C98.5402 232.179 99.1818 232.383 99.9394 232.383ZM114 222.404V223.598H108.78V233.313H107.516V222.404H114ZM117.921 231.517L123.68 222.404H125.193V233.313H123.929V224.201L118.19 233.313H116.656V222.404H117.921V231.517ZM136.578 222.404V233.313H135.307V222.404H136.578ZM136.109 227.795V229.002C135.679 229.159 135.269 229.291 134.881 229.4C134.493 229.504 134.102 229.585 133.709 229.642C133.321 229.698 132.906 229.727 132.466 229.727C131.24 229.722 130.276 229.407 129.575 228.782C128.879 228.157 128.531 227.206 128.531 225.927V222.369H129.796V225.927C129.796 226.533 129.904 227.028 130.122 227.411C130.34 227.795 130.648 228.079 131.046 228.264C131.443 228.444 131.912 228.534 132.452 228.534C133.115 228.534 133.74 228.467 134.327 228.335C134.914 228.202 135.508 228.022 136.109 227.795ZM147.303 227.269V228.463H140.889V227.269H147.303ZM141.202 222.404V233.313H139.938V222.404H141.202ZM148.233 222.404V233.313H146.969V222.404H148.233ZM152.663 226.616H155.859C157.085 226.616 158.032 226.914 158.7 227.511C159.368 228.108 159.701 228.915 159.701 229.933C159.701 230.61 159.55 231.202 159.247 231.708C158.949 232.215 158.513 232.61 157.94 232.894C157.367 233.174 156.674 233.313 155.859 233.313H151.612V222.404H152.883V232.12H155.859C156.631 232.12 157.251 231.936 157.72 231.566C158.193 231.197 158.43 230.671 158.43 229.99C158.43 229.294 158.193 228.756 157.72 228.377C157.251 227.999 156.631 227.809 155.859 227.809H152.663V226.616ZM161.541 233.313V222.404H162.805V233.313H161.541ZM166.949 222.404L169.762 227.056L172.574 222.404H174.044L170.536 227.859L174.044 233.313H172.574L169.762 228.811L166.949 233.313H165.486L168.952 227.859L165.486 222.404H166.949ZM29.9323 253.517L35.6922 244.404H37.205V255.313H35.9408V246.201L30.2021 255.313H28.6681V244.404H29.9323V253.517ZM47.4323 253.517L53.1922 244.404H54.705V255.313H53.4408V246.201L47.7021 255.313H46.1681V244.404H47.4323V253.517ZM65.4081 249.269V250.463H58.9948V249.269H65.4081ZM59.3073 244.404V255.313H58.0431V244.404H59.3073ZM66.3385 244.404V255.313H65.0743V244.404H66.3385ZM77.0683 249.269V250.463H70.6549V249.269H77.0683ZM70.9674 244.404V255.313H69.7032V244.404H70.9674ZM77.9987 244.404V255.313H76.7345V244.404H77.9987ZM85.6034 255.541C84.6612 255.541 83.8279 255.302 83.1034 254.823C82.3837 254.345 81.8203 253.685 81.4131 252.842C81.0059 251.994 80.8023 251.017 80.8023 249.909C80.8023 248.791 81.0059 247.809 81.4131 246.961C81.8203 246.109 82.3837 245.446 83.1034 244.973C83.8279 244.494 84.6612 244.255 85.6034 244.255C86.5457 244.255 87.3766 244.494 88.0963 244.973C88.816 245.451 89.3795 246.114 89.7867 246.961C90.1986 247.809 90.4046 248.791 90.4046 249.909C90.4046 251.017 90.201 251.994 89.7938 252.842C89.3866 253.685 88.8208 254.345 88.0963 254.823C87.3766 255.302 86.5457 255.541 85.6034 255.541ZM85.6034 254.383C86.361 254.383 87.0026 254.179 87.5281 253.772C88.0537 253.365 88.4514 252.823 88.7213 252.146C88.9959 251.469 89.1333 250.723 89.1333 249.909C89.1333 249.094 88.9959 248.346 88.7213 247.664C88.4514 246.983 88.0537 246.436 87.5281 246.024C87.0026 245.612 86.361 245.406 85.6034 245.406C84.8506 245.406 84.209 245.612 83.6787 246.024C83.1531 246.436 82.753 246.983 82.4784 247.664C82.2085 248.346 82.0736 249.094 82.0736 249.909C82.0736 250.723 82.2085 251.469 82.4784 252.146C82.753 252.823 83.1531 253.365 83.6787 253.772C84.2043 254.179 84.8459 254.383 85.6034 254.383ZM93.1798 255.313V244.404H97.4767C98.6367 244.404 99.5505 244.655 100.218 245.157C100.89 245.659 101.227 246.336 101.227 247.188C101.227 247.837 101.04 248.356 100.666 248.744C100.292 249.132 99.7896 249.407 99.1599 249.568C99.5813 249.639 99.9719 249.793 100.332 250.029C100.696 250.266 100.992 250.579 101.22 250.967C101.447 251.355 101.56 251.819 101.56 252.359C101.56 252.927 101.418 253.434 101.134 253.879C100.85 254.324 100.45 254.674 99.934 254.93C99.4179 255.186 98.8071 255.313 98.1017 255.313H93.1798ZM94.3872 254.142H98.1017C98.7693 254.142 99.2972 253.971 99.6855 253.63C100.074 253.285 100.268 252.825 100.268 252.252C100.268 251.642 100.083 251.154 99.7139 250.789C99.3493 250.42 98.8592 250.235 98.2437 250.235H94.3872V254.142ZM94.3872 249.113H97.5548C98.0472 249.113 98.4733 249.037 98.8332 248.886C99.193 248.734 99.47 248.521 99.6642 248.247C99.863 247.967 99.9601 247.641 99.9553 247.267C99.9553 246.732 99.7375 246.317 99.3019 246.024C98.8663 245.725 98.2579 245.576 97.4767 245.576H94.3872V249.113ZM107.379 255.562C106.721 255.562 106.12 255.434 105.575 255.179C105.031 254.918 104.597 254.544 104.275 254.056C103.953 253.564 103.792 252.967 103.792 252.267C103.792 251.727 103.894 251.272 104.098 250.903C104.301 250.534 104.59 250.231 104.964 249.994C105.338 249.757 105.781 249.57 106.292 249.433C106.804 249.295 107.367 249.189 107.983 249.113C108.593 249.037 109.11 248.971 109.531 248.914C109.957 248.858 110.281 248.768 110.504 248.644C110.727 248.521 110.838 248.322 110.838 248.048V247.792C110.838 247.049 110.615 246.464 110.17 246.038C109.73 245.607 109.095 245.392 108.267 245.392C107.481 245.392 106.839 245.564 106.342 245.91C105.85 246.256 105.504 246.663 105.305 247.132L104.105 246.698C104.351 246.102 104.692 245.626 105.128 245.271C105.563 244.911 106.051 244.653 106.591 244.497C107.13 244.336 107.677 244.255 108.231 244.255C108.648 244.255 109.081 244.31 109.531 244.419C109.986 244.527 110.407 244.717 110.795 244.987C111.183 245.252 111.498 245.624 111.74 246.102C111.981 246.575 112.102 247.177 112.102 247.906V255.313H110.838V253.588H110.76C110.608 253.91 110.383 254.222 110.085 254.525C109.787 254.828 109.413 255.077 108.963 255.271C108.513 255.465 107.985 255.562 107.379 255.562ZM107.549 254.404C108.222 254.404 108.804 254.255 109.297 253.957C109.789 253.659 110.168 253.263 110.433 252.771C110.703 252.274 110.838 251.727 110.838 251.13V249.554C110.743 249.643 110.584 249.724 110.362 249.795C110.144 249.866 109.891 249.93 109.602 249.987C109.318 250.039 109.034 250.084 108.75 250.122C108.466 250.16 108.21 250.193 107.983 250.221C107.367 250.297 106.842 250.415 106.406 250.576C105.97 250.737 105.637 250.96 105.405 251.244C105.173 251.523 105.057 251.883 105.057 252.323C105.057 252.986 105.293 253.5 105.767 253.865C106.24 254.224 106.834 254.404 107.549 254.404ZM123.739 244.404V254.113H124.897V258.843H123.633V255.313H115.479V244.404H116.75V254.12H122.468V244.404H123.739ZM128.858 253.517L134.618 244.404H136.131V255.313H134.867V246.201L129.128 255.313H127.594V244.404H128.858V253.517ZM143.709 255.541C142.767 255.541 141.933 255.302 141.209 254.823C140.489 254.345 139.926 253.685 139.519 252.842C139.111 251.994 138.908 251.017 138.908 249.909C138.908 248.791 139.111 247.809 139.519 246.961C139.926 246.109 140.489 245.446 141.209 244.973C141.933 244.494 142.767 244.255 143.709 244.255C144.651 244.255 145.482 244.494 146.202 244.973C146.921 245.451 147.485 246.114 147.892 246.961C148.304 247.809 148.51 248.791 148.51 249.909C148.51 251.017 148.306 251.994 147.899 252.842C147.492 253.685 146.926 254.345 146.202 254.823C145.482 255.302 144.651 255.541 143.709 255.541ZM143.709 254.383C144.466 254.383 145.108 254.179 145.634 253.772C146.159 253.365 146.557 252.823 146.827 252.146C147.101 251.469 147.239 250.723 147.239 249.909C147.239 249.094 147.101 248.346 146.827 247.664C146.557 246.983 146.159 246.436 145.634 246.024C145.108 245.612 144.466 245.406 143.709 245.406C142.956 245.406 142.314 245.612 141.784 246.024C141.259 246.436 140.859 246.983 140.584 247.664C140.314 248.346 140.179 249.094 140.179 249.909C140.179 250.723 140.314 251.469 140.584 252.146C140.859 252.823 141.259 253.365 141.784 253.772C142.31 254.179 142.951 254.383 143.709 254.383ZM158.65 249.269V250.463H152.237V249.269H158.65ZM152.549 244.404V255.313H151.285V244.404H152.549ZM159.581 244.404V255.313H158.316V244.404H159.581ZM170.31 249.269V250.463H163.897V249.269H170.31ZM164.21 244.404V255.313H162.945V244.404H164.21ZM171.241 244.404V255.313H169.977V244.404H171.241ZM175.671 248.616H178.867C180.093 248.616 181.04 248.914 181.708 249.511C182.375 250.108 182.709 250.915 182.709 251.933C182.709 252.61 182.558 253.202 182.255 253.708C181.956 254.215 181.521 254.61 180.948 254.894C180.375 255.174 179.681 255.313 178.867 255.313H174.62V244.404H175.891V254.12H178.867C179.639 254.12 180.259 253.936 180.728 253.566C181.201 253.197 181.438 252.671 181.438 251.99C181.438 251.294 181.201 250.756 180.728 250.377C180.259 249.999 179.639 249.809 178.867 249.809H175.671V248.616ZM184.549 255.313V244.404H185.813V255.313H184.549ZM189.957 244.404L192.77 249.056L195.582 244.404H197.052L193.544 249.859L197.052 255.313H195.582L192.77 250.811L189.957 255.313H188.494L191.96 249.859L188.494 244.404H189.957ZM28.6681 277.313V266.404H29.9323V271.312H31.1183L35.1737 266.404H36.8073L32.4323 271.653L36.9067 277.313H35.2732L31.509 272.505H29.9323V277.313H28.6681ZM42.7714 277.541C41.8292 277.541 40.9958 277.302 40.2714 276.823C39.5517 276.345 38.9883 275.685 38.5811 274.842C38.1739 273.994 37.9703 273.017 37.9703 271.909C37.9703 270.791 38.1739 269.809 38.5811 268.961C38.9883 268.109 39.5517 267.446 40.2714 266.973C40.9958 266.494 41.8292 266.255 42.7714 266.255C43.7136 266.255 44.5446 266.494 45.2643 266.973C45.984 267.451 46.5474 268.114 46.9546 268.961C47.3666 269.809 47.5725 270.791 47.5725 271.909C47.5725 273.017 47.3689 273.994 46.9617 274.842C46.5545 275.685 45.9887 276.345 45.2643 276.823C44.5446 277.302 43.7136 277.541 42.7714 277.541ZM42.7714 276.383C43.529 276.383 44.1705 276.179 44.6961 275.772C45.2217 275.365 45.6194 274.823 45.8893 274.146C46.1639 273.469 46.3012 272.723 46.3012 271.909C46.3012 271.094 46.1639 270.346 45.8893 269.664C45.6194 268.983 45.2217 268.436 44.6961 268.024C44.1705 267.612 43.529 267.406 42.7714 267.406C42.0186 267.406 41.377 267.612 40.8467 268.024C40.3211 268.436 39.921 268.983 39.6464 269.664C39.3765 270.346 39.2416 271.094 39.2416 271.909C39.2416 272.723 39.3765 273.469 39.6464 274.146C39.921 274.823 40.3211 275.365 40.8467 275.772C41.3722 276.179 42.0138 276.383 42.7714 276.383ZM56.0509 275.545L60.1489 266.404H61.3776L56.5551 277.313H55.5466L50.781 266.404H51.9884L56.0509 275.545ZM51.6119 266.404V277.313H50.3477V266.404H51.6119ZM60.4898 277.313V266.404H61.754V277.313H60.4898ZM65.1276 277.313V266.404H73.3875V277.313H72.1162V267.598H66.3989V277.313H65.1276ZM79.7813 277.562C79.1232 277.562 78.5219 277.434 77.9774 277.179C77.4329 276.918 76.9996 276.544 76.6776 276.056C76.3557 275.564 76.1947 274.967 76.1947 274.267C76.1947 273.727 76.2965 273.272 76.5001 272.903C76.7037 272.534 76.9925 272.231 77.3666 271.994C77.7406 271.757 78.1833 271.57 78.6947 271.433C79.2061 271.295 79.7695 271.189 80.385 271.113C80.9958 271.037 81.5119 270.971 81.9333 270.914C82.3595 270.858 82.6838 270.768 82.9063 270.644C83.1289 270.521 83.2401 270.322 83.2401 270.048V269.792C83.2401 269.049 83.0176 268.464 82.5725 268.038C82.1322 267.607 81.4977 267.392 80.6691 267.392C79.8831 267.392 79.2416 267.564 78.7444 267.91C78.252 268.256 77.9063 268.663 77.7075 269.132L76.5072 268.698C76.7534 268.102 77.0943 267.626 77.5299 267.271C77.9655 266.911 78.4532 266.653 78.993 266.497C79.5328 266.336 80.0796 266.255 80.6336 266.255C81.0503 266.255 81.4835 266.31 81.9333 266.419C82.3879 266.527 82.8093 266.717 83.1975 266.987C83.5858 267.252 83.9007 267.624 84.1421 268.102C84.3836 268.575 84.5044 269.177 84.5044 269.906V277.313H83.2401V275.588H83.162C83.0105 275.91 82.7856 276.222 82.4873 276.525C82.189 276.828 81.815 277.077 81.3651 277.271C80.9153 277.465 80.3874 277.562 79.7813 277.562ZM79.9518 276.404C80.6241 276.404 81.2065 276.255 81.699 275.957C82.1914 275.659 82.5702 275.263 82.8353 274.771C83.1052 274.274 83.2401 273.727 83.2401 273.13V271.554C83.1454 271.643 82.9868 271.724 82.7643 271.795C82.5465 271.866 82.2932 271.93 82.0044 271.987C81.7203 272.039 81.4362 272.084 81.1521 272.122C80.868 272.16 80.6123 272.193 80.385 272.221C79.7695 272.297 79.2439 272.415 78.8083 272.576C78.3727 272.737 78.0389 272.96 77.8069 273.244C77.5749 273.523 77.4589 273.883 77.4589 274.323C77.4589 274.986 77.6956 275.5 78.1691 275.865C78.6426 276.224 79.2368 276.404 79.9518 276.404ZM95.2323 271.269V272.463H88.819V271.269H95.2323ZM89.1315 266.404V277.313H87.8673V266.404H89.1315ZM96.1627 266.404V277.313H94.8985V266.404H96.1627ZM100.792 275.517L106.552 266.404H108.064V277.313H106.8V268.201L101.062 277.313H99.5274V266.404H100.792V275.517ZM112.667 275.517L118.427 266.404H119.939V277.313H118.675V268.201L112.937 277.313H111.402V266.404H112.667V275.517ZM116.978 262.768H118.171C118.171 263.445 117.946 263.994 117.496 264.416C117.051 264.837 116.443 265.048 115.671 265.048C114.909 265.048 114.305 264.837 113.86 264.416C113.415 263.994 113.192 263.445 113.192 262.768H114.385C114.385 263.137 114.485 263.45 114.684 263.706C114.887 263.956 115.216 264.082 115.671 264.082C116.125 264.082 116.457 263.956 116.665 263.706C116.874 263.45 116.978 263.137 116.978 262.768Z" fill="white"/>
</svg>
